<svg xmlns="http://www.w3.org/2000/svg" width="108" height="91" fill="none"><path fill="#BFBFBF" fill-rule="evenodd" d="M54.514.171A3.93 3.93 0 0 0 50.717 3.1l-.008.027-16.434 13.14-.034-.002a3.93 3.93 0 0 0-3.19 6.608l.023.025v13.816l-.023.025a3.93 3.93 0 0 0 3.19 6.609l.034-.003 16.346 13.07.005.034a3.93 3.93 0 0 0 3.887 3.38h.003a3.93 3.93 0 0 0 3.887-3.38l.004-.034 16.347-13.07.034.003q.168.015.337.015a3.93 3.93 0 0 0 2.853-6.624l-.024-.025V22.898l.024-.025a3.93 3.93 0 0 0-3.19-6.608l-.034.003-16.435-13.14-.007-.028A3.93 3.93 0 0 0 54.514.17M50.558 3.03A4.1 4.1 0 0 1 54.514 0a4.105 4.105 0 0 1 3.956 3.029L74.808 16.09q.159-.013.318-.013a4.1 4.1 0 0 1 3 6.888v13.68a4.1 4.1 0 0 1-3.319 6.875L58.569 56.506A4.1 4.1 0 0 1 54.516 60h-.003a4.1 4.1 0 0 1-4.052-3.494l-16.24-12.985a4.1 4.1 0 0 1-3.319-6.875v-13.68a4.1 4.1 0 0 1 3.319-6.875zm3.955 2.107 19.494 15.586v18.167l-18.822 15.05-.672.538-19.323-15.45v.03l-.148-.149.053-.059h-.076V20.724zM35.19 38.808l19.323 15.449.565-.453 18.757-14.998V20.804L54.513 5.355 35.19 20.806z" clip-rule="evenodd"/><path fill="#fff" d="M33.904 20.187v19.239l20.609 16.48 20.61-16.48V20.187L54.513 3.71z"/><path fill="#012D5C" fill-rule="evenodd" d="m54.513 2.611 21.468 17.164v20.063L54.513 57.003 33.047 39.838V19.775zm0 2.196L34.762 20.599v18.414l19.751 15.794 19.753-15.794V20.6z" clip-rule="evenodd"/><path fill="#012D5C" d="M54.513 6.05a1.953 1.953 0 1 0 0-3.906 1.953 1.953 0 0 0 0 3.906M54.513 57.859a1.953 1.953 0 1 0 0-3.907 1.953 1.953 0 0 0 0 3.907M75.123 22.128a1.953 1.953 0 1 0 0-3.906 1.953 1.953 0 0 0 0 3.906M75.123 41.39a1.953 1.953 0 1 0 0-3.905 1.953 1.953 0 0 0 0 3.906M33.904 22.128a1.953 1.953 0 1 0 0-3.906 1.953 1.953 0 0 0 0 3.906M33.904 41.39a1.953 1.953 0 1 0 0-3.906 1.953 1.953 0 0 0 0 3.907"/><path fill="#0198D8" d="M54.513 48.048 69.469 36.52 54.513 24.994 39.558 36.52z"/><path fill="#012D5C" d="m54.513 34.684 14.956-11.527L54.513 11.63 39.558 23.157zM5.144 74.12q-1.74-.01-2.74-.56t-1.09-1.52a2 2 0 0 1-.01-.24 4 4 0 0 1 .12-.93q.12-.5.29-.89l.96.46q-.29.91-.26 1.31.069.38.81.63.74.25 2.02.25v.01h.24q.82 0 1.39-.18t.76-.43q-.08-.5-.59-1.15-.51-.66-1.5-1.47l.14-1.3 3.71-1.56.4 1.19-2.89 1.23q.29.25.72.74.43.48.77 1.11.35.63.35 1.21 0 .21-.04.37-.21.82-1.08 1.27t-2.14.45h-.33999999999999997m4.361 1.51q1.371-.3 2.13-.69.76-.38 1-.93-1.1-.02-1.78-.22-.68-.21-.95-.79-.18-.39-.18-.86 0-.59.25-1.17.25-.59.69-.96.441-.38.96-.38.52 0 .96.39t.73 1.05q.3.66.4 1.44h.42l.08.75-.08.74h-.45q-.25 1.11-1.22 1.87-.96.76-2.5 1.05zm1.32-3.47q.14.19.61.27.47.07 1.22.08-.14-.66-.45-1.1-.31-.45-.7-.45-.2 0-.38.15a1 1 0 0 0-.27.36q-.1.22-.1.42 0 .17.07.27M17.028 74q-.38 0-.74-.2a2.1 2.1 0 0 1-.62-.55 1.66 1.66 0 0 1-1.42.75h-.24v-1.49h.21q.5 0 .72-.18.23-.19.23-.63v-.02q-.03-.71-.12-2.39t-.16-2.4l1.25-.28q.08.81.17 3.67l.06 1.41q.02.44.18.63.17.19.48.19h.11l.08.75-.08.74zm-.002-1.49h.53q.71 0 1.03-.16t.32-.48q0-.21-.21-.82a16 16 0 0 0-.33-.91l1.05-.58q.189.42.39 1.13.21.7.21 1.23 0 1.02-.64 1.55-.63.53-1.82.53h-.53zm.12 2.61q.88-.08 1.31-.11v1.29l-1.31.12zm7.71-1.08q-.93 0-1.45-.5-.51-.5-.51-1.29 0-.31.09-.65.2-.82.88-1.62l-.34-.21.76-1.13q1.32.8 1.99 1.62.67.81.67 1.72 0 .61-.28 1.08-.27.46-.75.72-.47.26-1.06.26m-.91-2.17a.58.58 0 0 0 .23.53q.25.19.75.19.4 0 .66-.15.27-.15.32-.39-.07-.33-.36-.68a4.7 4.7 0 0 0-.8-.77q-.79.74-.8 1.27M30.383 74q-.32 0-.59-.12-.06.94-.82 1.73-.76.8-2.01 1.31l-.61-1.26q.66-.27 1.21-.63.55-.35.86-.7.32-.35.32-.6 0-.41-.53-2.23l-.05-.2 1.12-.44q.11.31.26.89.13.41.32.59.2.17.52.17h.1l.08.75-.08.74zm.012-1.49h.06q.9 0 1.34-.09.44-.1.58-.29t.14-.55q0-.29-.1-.95l1.03-.2q.14.73.14 1.65.04.17.22.3t.53.13h.05l.08.75-.08.74h-.06q-.4 0-.74-.19a1.9 1.9 0 0 1-.58-.5q-.29.37-.88.53t-1.67.16h-.07zm3.02 3.72q-.84.08-1.25.11l-1.29.11v-1.14q.87-.08 1.24-.11.39-.03 1.3-.11zM41.842 74q-1.89-.01-2.52-1.22-1.3.66-2.29.94-.99.27-2.31.28h-.45v-1.49h.75q1.13 0 2.12-.23a9.7 9.7 0 0 0 2.09-.8q-.27-.11-.71-.33-.88-.45-1.53-.45-.38 0-.68.21a1.55 1.55 0 0 0-.45.46l-.84-.61q.759-1.49 2.01-1.49.42 0 .81.14t1.14.52q.58.3.98.46.41.16.9.26l.05 1.34a3 3 0 0 0-.54.23q.459.29 1.08.29h.49l.08.75-.08.74zm-4.83 1.08q.88-.08 1.31-.11v1.29l-1.31.12zm4.828-2.57h.53q.71 0 1.03-.16t.32-.48q0-.21-.21-.82a16 16 0 0 0-.33-.91l1.05-.58q.19.42.39 1.13.21.7.21 1.23 0 1.02-.64 1.55-.63.53-1.82.53h-.53zm.88-4.86q.47-.03 1.3-.11v1.3q-.47.03-1.3.11zm1.914 8.01q.66-.27 1.21-.63.55-.35.86-.7.32-.35.32-.6 0-.41-.53-2.23l-.05-.2 1.12-.44q.24.69.38 1.48.14.78.14 1.39 0 .98-.77 1.81-.77.84-2.07 1.38zm1.55-7.22q.19-.01.64-.05l.67-.06v1.29l-1.31.12zm6.429 2.92q-.26.6-.4 1.06-.14.45-.14.92 0 .82.52 1.22.519.4 1.5.4.7 0 1.22-.24.53-.24.8-.64.28-.39.28-.83 0-.57-.64-2.4l1.07-.56q.63 1.69.63 2.96 0 .87-.42 1.6t-1.19 1.16q-.76.44-1.75.44-.93 0-1.64-.36a2.63 2.63 0 0 1-1.11-1.01q-.39-.66-.39-1.55 0-.18.01-.28.03-.57.23-1.19.21-.62.46-1.14zm1.7-1.69q.45-.04.64-.05v1.29l-1.31.12v-1.3zm4.086 4.27q.1-.66.1-2.04t-.09-2.89q-.08-1.52-.19-2.13l1.25-.29q.09.58.16 2.03a59 59 0 0 1 .07 2.85q0 1.73-.12 2.6zm.952 1.72q.66-.27 1.21-.63.55-.35.86-.7.32-.35.32-.6 0-.41-.53-2.23l-.05-.2 1.12-.44q.24.69.38 1.48.14.78.14 1.39 0 .98-.77 1.81-.77.84-2.07 1.38zm4.188-.03q1.4-.3 2.15-.7.759-.39.99-.95-.27.04-.6.04-.73 0-1.32-.25-.58-.26-.82-.77-.18-.39-.18-.86 0-.59.25-1.17.249-.59.69-.96.44-.38.96-.38.6 0 1.09.52t.77 1.36.28 1.75q0 1.4-1.01 2.36t-2.79 1.3zm1.32-3.47q.15.2.56.31.41.1.92.1.24 0 .36-.01-.14-.68-.46-1.14-.31-.46-.7-.46-.2 0-.38.15-.17.15-.28.37a1 1 0 0 0-.1.41q0 .16.08.27M70.803 74q-1.1 0-1.59-.63-.48-.63-.48-1.92-.01-1.23-.08-2.49-.06-1.27-.18-2.09l1.24-.27q.1.73.16 1.98.06 1.24.06 2.3v.38q-.01.51.05.77t.24.37q.19.11.58.11h.05l.08.75-.08.74zm-.047-1.49h.06q.76 0 1.1-.16a.64.64 0 0 0 .4-.52q.02-.16.02-.25 0-.24-.05-.55a18 18 0 0 1-.06-.4l1.04-.2q.13.74.13 1.65.04.17.22.3.19.13.53.13h.06l.08.75-.08.74h-.06q-.4 0-.75-.19a1.9 1.9 0 0 1-.58-.5 1.7 1.7 0 0 1-.79.53q-.49.16-1.21.16h-.06zm1.33-4.36q.45-.04.64-.05v1.29l-1.31.12v-1.3zm2.02 4.36h.15q1.19 0 1.89-.11.71-.12 1.05-.42-.28.02-.41.02a3.1 3.1 0 0 1-1.28-.25q-.55-.25-.79-.73-.18-.39-.18-.86 0-.57.24-1.11t.67-.88a1.47 1.47 0 0 1 .95-.35q.59 0 1.06.47.47.46.73 1.22.27.76.27 1.61 0 1.38-1.04 2.13-1.03.75-3.18.75h-.13zm1.45-6.83q.83-.08 1.3-.11v1.29l-1.3.12zm.05 4.52q.15.19.54.31.39.11.88.11.129 0 .39-.02-.13-.64-.44-1.07-.31-.44-.69-.44-.31 0-.53.28a.9.9 0 0 0-.22.57q0 .16.07.26M88.374 74q-.29 0-.55-.13a3.1 3.1 0 0 1-.47 1.53q-.43.7-1.18 1.11t-1.71.41q-.93 0-1.64-.36a2.63 2.63 0 0 1-1.11-1.01q-.39-.66-.39-1.55 0-.18.01-.28.03-.57.23-1.19.21-.62.46-1.14l.96.44q-.26.6-.4 1.06-.14.45-.14.92 0 .82.52 1.22.52.41 1.5.41.7 0 1.22-.25.53-.24.8-.64.28-.39.28-.83 0-.57-.64-2.4l1.07-.56q.2.56.32.96.16.45.34.62t.52.17h.07l.08.75-.08.74zm-3.05-3.92v1.3q-.83.08-1.31.11V70.2zm3.02 2.43h.21q.77 0 1.28-.94.51-.92.98-1.39t1.03-.47q.61 0 1 .4t.65 1.17q.23.7.38.97.16.26.38.26h.12l.08.75-.08.74h-.12q-.31 0-.57-.16a1.4 1.4 0 0 1-.44-.47 1 1 0 0 1-.2.31 1.2 1.2 0 0 1-.29.23.96.96 0 0 1-.54.14q-.76 0-2.03-.8a2 2 0 0 1-.73.57q-.42.18-.92.18h-.19zm4.33.25a1 1 0 0 0 .01-.17 2.3 2.3 0 0 0-.11-.67 1.6 1.6 0 0 0-.31-.61q-.2-.26-.47-.26-.45 0-.98 1.02.5.36.97.53.48.17.77.17.09 0 .12-.01m9.158 1.24q-1.89-.01-2.52-1.22-1.3.66-2.29.94-.99.27-2.31.28h-.45v-1.49h.75q1.13 0 2.12-.23a9.7 9.7 0 0 0 2.09-.8 11 11 0 0 1-.71-.33q-.88-.45-1.53-.45-.38 0-.68.21a1.55 1.55 0 0 0-.45.46l-.84-.61q.759-1.49 2.01-1.49.42 0 .81.14t1.14.52q.58.3.98.46.41.16.9.26l.05 1.34q-.19.05-.54.23.459.29 1.08.29h.49l.08.75-.08.74zm-4.83 1.08q.88-.08 1.31-.11v1.29l-1.31.12zm4.828-2.57h.53q.71 0 1.03-.16t.32-.48q0-.21-.21-.82a16 16 0 0 0-.33-.91l1.05-.58a8 8 0 0 1 .39 1.13q.21.7.21 1.23 0 1.02-.64 1.55-.63.53-1.82.53h-.53zm.88-4.86q.47-.03 1.3-.11v1.3q-.47.03-1.3.11zm3.17 6.29q.1-.66.1-2.04t-.09-2.89q-.08-1.52-.19-2.13l1.25-.29q.09.58.16 2.03t.07 2.85q0 1.73-.12 2.6zM6.662 87H5.91v-5.688h.752zm3.307-3.576a1.6 1.6 0 0 0-.36-.032q-.711 0-.96.608v3h-.728v-4.224h.704l.016.488q.352-.568 1.008-.568.216 0 .32.056zM13.1 87a1.5 1.5 0 0 1-.103-.448 1.61 1.61 0 0 1-1.208.528q-.408 0-.736-.16a1.3 1.3 0 0 1-.504-.448 1.17 1.17 0 0 1-.184-.64q0-.664.496-1.024.504-.368 1.416-.368h.704v-.336q0-.384-.232-.6-.225-.225-.656-.224-.392 0-.656.192-.256.192-.256.472h-.728q0-.312.216-.6.224-.288.608-.464.384-.184.856-.184.728 0 1.144.368.415.36.432 1v1.944q0 .576.144.928V87zm-1.2-.552q.337 0 .64-.176.306-.176.44-.456v-.864h-.56q-1.326 0-1.327.776 0 .336.216.528.225.192.592.192m3.625-3.672.024.528q.48-.608 1.263-.608 1.344 0 1.352 1.512V87h-.72v-2.8q-.008-.456-.216-.672-.2-.216-.631-.216-.352 0-.624.184a1.14 1.14 0 0 0-.409.496V87h-.728v-4.224zM21.768 87v-5.688h1.856q.929 0 1.392.384.465.384.464 1.136 0 .384-.224.696-.225.312-.616.48a1.3 1.3 0 0 1 .728.488q.264.36.264.864 0 .768-.496 1.208-.495.432-1.4.432zm.744-2.664v2.048h1.24q.52 0 .824-.272t.304-.744q0-1.032-1.112-1.032zm0-.6h1.136q.488 0 .784-.24.296-.248.296-.672 0-.472-.272-.68-.264-.216-.832-.216h-1.112zM27.424 87h-.728v-6h.728zm.962-2.152q0-.607.232-1.096.24-.496.672-.776.44-.28 1.016-.28.567 0 1.008.272a1.8 1.8 0 0 1 .68.768q.24.488.24 1.144v.056q0 .64-.248 1.128-.249.48-.688.752a1.85 1.85 0 0 1-.984.264q-.569 0-1.008-.272a1.87 1.87 0 0 1-.68-.768q-.24-.496-.24-1.144zm.728.088q-.009.704.32 1.128.336.424.88.424.543 0 .864-.416.327-.416.336-1.16v-.064q.008-.696-.328-1.128a1.05 1.05 0 0 0-.88-.432q-.529 0-.856.416-.329.416-.336 1.168zm5.722 1.552q.392 0 .68-.232a.85.85 0 0 0 .32-.592h.68q-.015.36-.24.688t-.608.528q-.375.2-.832.2-.576 0-1-.256a1.75 1.75 0 0 1-.656-.744q-.224-.488-.224-1.152v-.12q0-.632.224-1.112.232-.48.656-.736a1.85 1.85 0 0 1 1-.264q.473 0 .848.192t.592.544q.225.344.24.792h-.68a1 1 0 0 0-.312-.672.97.97 0 0 0-.688-.264q-.552 0-.856.4t-.304 1.144v.136q0 .728.296 1.128.304.392.864.392m3.676-1.448-.456.472V87h-.72v-6h.72v3.632l.392-.464 1.312-1.392h.88l-1.648 1.76L40.832 87h-.848zM43 86.488q.392 0 .68-.232a.85.85 0 0 0 .32-.592h.68q-.015.36-.24.688t-.608.528q-.376.2-.832.2-.576 0-1-.256a1.75 1.75 0 0 1-.656-.744q-.224-.488-.224-1.152v-.12q0-.632.224-1.112.233-.48.656-.736a1.85 1.85 0 0 1 1-.264q.473 0 .848.192.376.192.592.544.225.344.24.792H44a1 1 0 0 0-.312-.672.97.97 0 0 0-.688-.264q-.552 0-.856.4t-.304 1.144v.136q0 .728.296 1.128.304.392.864.392m3.22-3.2q.48-.592 1.248-.592 1.344 0 1.352 1.512V87h-.72v-2.8q-.009-.456-.216-.672-.2-.216-.632-.216-.352 0-.624.184a1.14 1.14 0 0 0-.408.496V87h-.728v-6h.728zM52.514 87a1.5 1.5 0 0 1-.104-.448 1.61 1.61 0 0 1-1.208.528q-.408 0-.736-.16a1.3 1.3 0 0 1-.504-.448 1.16 1.16 0 0 1-.184-.64q0-.664.496-1.024.504-.368 1.416-.368h.704v-.336q0-.384-.232-.6-.224-.225-.656-.224-.392 0-.656.192-.255.192-.256.472h-.728q0-.312.216-.6.224-.288.608-.464.384-.184.856-.184.728 0 1.144.368.416.36.432 1v1.944q0 .576.144.928V87zm-1.2-.552q.336 0 .64-.176.305-.176.44-.456v-.864h-.56q-1.328 0-1.328.776 0 .336.216.528.225.192.592.192m3.728.552h-.728v-4.224h.728zm-.784-5.344q0-.184.112-.304a.4.4 0 0 1 .312-.12q.2 0 .312.12.12.12.12.304a.42.42 0 0 1-.112.296q-.113.112-.32.112a.42.42 0 0 1-.312-.112.4.4 0 0 1-.112-.296m2.625 1.12.024.528q.48-.608 1.264-.608 1.344 0 1.352 1.512V87h-.72v-2.8q-.008-.456-.216-.672-.2-.216-.632-.216-.352 0-.624.184a1.14 1.14 0 0 0-.408.496V87h-.728v-4.224zm10.42 2.416q-.103.905-.664 1.4-.56.488-1.488.488-.663 0-1.168-.328a2.17 2.17 0 0 1-.784-.928q-.272-.6-.272-1.4v-.552q0-.808.288-1.4a2.2 2.2 0 0 1 .808-.92q.52-.32 1.192-.32.905 0 1.448.504.552.504.64 1.408h-.752q-.096-.672-.424-.984t-.912-.312q-.728 0-1.136.536-.4.535-.4 1.512v.552q0 .929.392 1.472.393.544 1.08.544.64 0 .968-.288.329-.296.432-.984zm.723-.344q0-.607.232-1.096.24-.496.672-.776.44-.28 1.016-.28.569 0 1.008.272a1.8 1.8 0 0 1 .68.768q.24.488.24 1.144v.056q0 .64-.248 1.128-.247.48-.688.752a1.85 1.85 0 0 1-.984.264q-.567 0-1.008-.272a1.87 1.87 0 0 1-.68-.768q-.24-.496-.24-1.144zm.728.088q-.007.704.32 1.128.337.424.88.424.544 0 .864-.416.329-.416.336-1.16v-.064q.008-.696-.328-1.128a1.05 1.05 0 0 0-.88-.432q-.528 0-.856.416t-.336 1.168zm4.707-2.16.024.464q.471-.544 1.256-.544.88 0 1.2.68a1.56 1.56 0 0 1 .56-.496q.344-.184.792-.184.696 0 1.056.368t.36 1.104V87h-.728v-2.792q0-.465-.208-.68t-.696-.216a.95.95 0 0 0-.616.2q-.312.24-.36.68V87h-.72v-2.768q0-.92-.904-.92-.369 0-.6.152a.95.95 0 0 0-.376.448V87h-.72v-4.224zm7.008 0 .024.464q.471-.544 1.256-.544.879 0 1.2.68a1.56 1.56 0 0 1 .56-.496q.344-.184.792-.184.696 0 1.056.368t.36 1.104V87h-.728v-2.792q0-.465-.208-.68-.209-.216-.696-.216a.95.95 0 0 0-.616.2q-.312.24-.36.68V87h-.72v-2.768q0-.92-.904-.92-.369 0-.6.152a.95.95 0 0 0-.376.448V87h-.72v-4.224zM89.42 87l-.008-.416q-.424.496-1.24.496-.68 0-1.032-.392-.351-.391-.36-1.168v-2.744h.728v2.728q.001.96.776.96.825 0 1.104-.616v-3.072h.72V87zm2.47-4.224.025.528q.48-.608 1.264-.608 1.344 0 1.352 1.512V87h-.72v-2.8q-.009-.456-.216-.672-.2-.216-.632-.216-.353 0-.624.184a1.14 1.14 0 0 0-.408.496V87h-.728v-4.224zM96.41 87h-.728v-4.224h.728zm-.784-5.344q0-.184.112-.304a.4.4 0 0 1 .312-.12q.2 0 .312.12.12.12.12.304a.42.42 0 0 1-.112.296q-.113.112-.32.112a.42.42 0 0 1-.312-.112.4.4 0 0 1-.112-.296m2.921.096v1.024h.792v.56h-.792v2.616q0 .264.104.392.112.12.36.12.128 0 .344-.048V87q-.271.08-.552.08-.48 0-.728-.288t-.248-.84v-2.616h-.776v-.56h.776v-1.024zm3.017 4.192.064-.2.92-2.968h.776l-1.696 4.88-.072.176q-.183.44-.488.656a1.15 1.15 0 0 1-.696.216l-.408-.056v-.592l.192.016q.36.032.568-.136.216-.16.344-.552l.16-.432-1.504-4.176h.784z"/></svg>