<svg xmlns="http://www.w3.org/2000/svg" width="78" height="91" fill="none"><path fill="#1D396C" d="m15.901 50.31 8.519-6.57c6.708-5.315 16.656-2.379 19.403 5.722l-8.519 6.569c-6.708 5.316-16.644 2.38-19.403-5.721M13.174 15.606l8.873 6.076c7.126 4.733 7.417 15.1.557 20.225l-8.873-6.075c-7.126-4.734-7.417-15.1-.557-20.226M45.332 2.274l-3.038 10.315c-2.304 8.24-12.075 11.72-19.062 6.784l3.026-10.315c2.303-8.24 12.074-11.72 19.06-6.784M67.934 28.753l-10.746.304c-8.543.354-14.872-7.86-12.34-16.036l10.746-.304c8.543-.354 14.871 7.86 12.34 16.036M49.753 58.43l-3.607-10.125C43.17 40.28 49.03 31.737 57.575 31.61l3.607 10.126c2.974 8.024-2.873 16.568-11.43 16.694"/><path fill="#1C1D1F" d="M38.684 69.325h-1.287v1.287h1.287zM72.298 69.325H71.01v1.287h1.287zM21.85 74.805h-1.287v1.287h1.288zM47.086 74.805h-1.287v1.287h1.287zM13.42 71.083h-1.288v1.287h1.287z"/><path fill="#1C1D1F" d="M14.703 71.083h-1.287v1.287h1.287zM28.333 80.711h-1.287v1.287h1.287zM29.625 80.711h-1.287v1.287h1.287zM64.828 80.711h-1.287v1.287h1.287zM13.053 77.27v1.659h-.655c-.442 0-.869-.135-1.264-.403a3.8 3.8 0 0 1-1.042-1.058 2.2 2.2 0 0 1-.648.773c-.916.664-2.85 1.003-5.804 1.003q-1.681-.002-2.653-.608C.324 78.234 0 77.523 0 76.496c0-.37.032-.766.103-1.2q.104-.649.244-1.121c.032-.063.072-.095.135-.095.04 0 .079.016.102.032l.403.323c.126.11.174.237.158.371 0 .016-.024.166-.063.45-.048.285-.071.498-.087.648q-.061 1.008.813 1.343.877.33 2.156.331c.656 0 1.398-.031 2.227-.102q1.245-.108 2.156-.308c.6-.143.908-.316.908-.522q-.048-.544-.474-1.113a7 7 0 0 0-.963-1.042 32 32 0 0 0-1.335-1.098q-.128-.095-.434-.332c-.182-.15-.269-.37-.269-.647v-.15l.15-.782c.056-.379.158-.64.308-.774a8.2 8.2 0 0 1 2.046-1.2 11.3 11.3 0 0 1 2.29-.687q.095.001.165.063c.048.04.064.095.064.158l-.222.758a1.2 1.2 0 0 1-.181.363.53.53 0 0 1-.277.158q-1.622.287-3.292 1.485a25 25 0 0 1 1.784 1.658q.78.796 1.24 1.627l.395.624c.245.402.418.67.529.82.205.238.474.427.797.554q.496.19 1.027.19h.442z"/><path fill="#1C1D1F" d="M16.518 74.66c.087.49.126 1.018.134 1.595 0 .592-.134 1.09-.41 1.484-.269.395-.64.695-1.09.885-.458.19-.963.292-1.532.292h-.782c-.166 0-.3-.079-.41-.245a1.03 1.03 0 0 1-.166-.6c0-.237.055-.442.158-.592a.48.48 0 0 1 .418-.221h.798c1.303 0 1.958-.221 1.974-.656 0-.347-.04-.663-.103-.947a11 11 0 0 0-.292-1.011l-.079-.253a.7.7 0 0 1-.047-.22c0-.127.047-.254.15-.364l.655-.632s.071-.055.126-.055c.072 0 .119.031.15.095.143.473.253.955.34 1.437M27.2 77.266v1.658h-.528a2.2 2.2 0 0 1-.727-.102 1.6 1.6 0 0 1-.537-.3v.387c.024.797-.253 1.484-.813 2.069-.458.45-1.043.797-1.745 1.042q-1.067.367-2.156.379c-.94-.016-1.65-.284-2.148-.805q-.744-.783-.742-2.204.002-.65.134-1.429.13-.782.308-1.421c.032-.056.071-.08.134-.08q.074-.001.11.032l.372.371a.47.47 0 0 1 .158.332c0 .055-.024.205-.063.466-.008.079-.032.245-.064.498-.031.26-.047.457-.047.6 0 1.318.671 1.982 2.022 1.982a6.2 6.2 0 0 0 1.579-.213c.545-.143.995-.324 1.366-.561s.56-.466.577-.719q-.002-.377-.277-1.547a53 53 0 0 0-.545-2.148c0-.024-.008-.064-.008-.11 0-.135.048-.254.135-.364l.702-.734a.17.17 0 0 1 .103-.04c.063 0 .11.04.15.11l.474 1.927c.079.26.181.466.324.6q.213.203.497.261.286.061.727.063h.537z"/><path fill="#1C1D1F" d="M30.106 78.926h-3.072c-.165 0-.3-.079-.41-.245a1.03 1.03 0 0 1-.166-.6c0-.237.055-.442.158-.592a.48.48 0 0 1 .418-.221h3.072z"/><path fill="#1C1D1F" d="M35.323 77.268v1.658h-.316a2.1 2.1 0 0 1-1.098-.34 1.84 1.84 0 0 1-.718-.852 2.37 2.37 0 0 1-1.003.877c-.435.213-.948.315-1.532.315H30c-.166 0-.308-.079-.418-.237s-.158-.363-.158-.607c0-.245.055-.443.15-.593a.49.49 0 0 1 .426-.22h.766q.735.002 1.303-.175.579-.177.577-.592v-.079c-.071-.481-.15-.995-.237-1.555 0-.024-.008-.056-.008-.103 0-.119.047-.237.142-.371l.671-.6s.056-.04.087-.04q.093 0 .127.095l.055.474q.201 1.635.213 1.705.094.673.403.956c.205.181.497.276.868.276h.38z"/><path fill="#1C1D1F" d="M39.385 72.355c.34.474.585 1.066.75 1.777q.249 1.064.261 2.163c0 .877-.284 1.54-.845 1.975-.56.442-1.303.663-2.219.663h-2.18q-.246.002-.41-.245a1.03 1.03 0 0 1-.166-.6c0-.237.056-.442.15-.592a.48.48 0 0 1 .419-.221h.166l1.974-.008c.624 0 1.129-.04 1.516-.11.387-.08.584-.238.6-.49-.008-.174-.032-.387-.055-.632a3.8 3.8 0 0 1-1.706.418c-.505 0-.892-.15-1.169-.458-.276-.308-.418-.718-.418-1.247 0-.403.079-.853.237-1.335.158-.49.395-.9.703-1.24q.461-.511 1.113-.513.756 0 1.264.71m-.87 2.686c.246-.056.467-.127.68-.214q-.379-1.81-1.256-1.808a.7.7 0 0 0-.49.213c-.15.142-.276.324-.362.537a1.6 1.6 0 0 0-.135.608q0 .285.285.522c.19.15.41.228.67.228.159 0 .356-.031.6-.086M52.573 77.266v1.658h-.53a2.2 2.2 0 0 1-.726-.102 1.6 1.6 0 0 1-.537-.3v.387c.024.797-.252 1.484-.813 2.069q-.689.675-1.745 1.042a6.8 6.8 0 0 1-2.156.379c-.94-.016-1.65-.284-2.148-.805q-.744-.783-.742-2.204.002-.65.134-1.429.13-.782.308-1.421c.032-.056.071-.08.134-.08q.074-.001.11.032l.372.371a.47.47 0 0 1 .158.332c0 .055-.024.205-.063.466-.008.079-.032.245-.063.498-.032.26-.048.457-.048.6 0 1.318.671 1.982 2.022 1.982a6.2 6.2 0 0 0 1.579-.213c.545-.143.995-.324 1.366-.561s.56-.466.577-.719c0-.252-.095-.766-.277-1.547a53 53 0 0 0-.545-2.148c0-.024-.008-.064-.008-.11 0-.135.048-.254.135-.364l.703-.734a.17.17 0 0 1 .102-.04c.063 0 .11.04.15.11l.474 1.927c.079.26.182.466.324.6q.213.203.497.261c.19.04.435.063.727.063h.537z"/><path fill="#1C1D1F" d="M61.764 77.265v1.659h-.316a1.7 1.7 0 0 1-1.034-.356c-.324-.237-.6-.529-.83-.9a2.4 2.4 0 0 1-.49 1.058c-.236.284-.56.418-.955.418s-.876-.134-1.46-.402a12 12 0 0 1-1.659-.924c-.3.347-.616.616-.94.805-.331.19-.702.293-1.105.293h-.56c-.166 0-.3-.08-.411-.245a1.03 1.03 0 0 1-.166-.6c0-.237.055-.443.158-.593a.48.48 0 0 1 .418-.22h.893q.426.002.781-.222c.237-.15.458-.332.648-.553q.284-.33.687-.876.436-.593.742-.924c.206-.221.435-.419.695-.577s.553-.236.86-.236c.333 0 .64.118.909.363.276.237.498.56.671.955l.166.308c.19.38.371.68.53.916a2.2 2.2 0 0 0 .607.6q.367.247.877.245h.276zm-3.19.213a.65.65 0 0 0 .11-.379q-.002-.37-.158-.773a1.9 1.9 0 0 0-.418-.68c-.182-.181-.38-.276-.608-.276q-.414.001-.766.324c-.237.213-.506.537-.814.955q.628.424 1.185.695c.379.182.758.277 1.153.292a.38.38 0 0 0 .324-.158"/><path fill="#1C1D1F" d="M70.764 77.257v1.666h-.766c-1.16 0-1.832-.647-2.03-1.942a6 6 0 0 0-.576.3c-.205.118-.331.19-.387.22-.323.19-.647.364-.979.538-.663.323-1.28.56-1.848.687-.568.134-1.224.197-1.974.197h-.624c-.166 0-.3-.079-.41-.245a1.03 1.03 0 0 1-.166-.6c0-.237.055-.442.158-.592a.48.48 0 0 1 .418-.221h1.5a7 7 0 0 0 1.209-.103c.41-.07.79-.174 1.121-.3q.143-.047.687-.308c.056-.024.253-.11.577-.26q.497-.224.947-.387c-.205-.056-.616-.206-1.24-.442-1.042-.403-1.681-.6-1.926-.6-.198 0-.387.094-.553.284s-.3.41-.38.663a.7.7 0 0 1-.117.205.7.7 0 0 1-.214.135l-.49.094h-.062c-.087.008-.135-.023-.135-.094q.014-.215.182-.735c.11-.347.22-.648.331-.884q.569-1.161 1.564-1.161c.221 0 .49.055.798.174.307.11.742.3 1.31.56.695.324 1.288.569 1.777.75.49.174.94.269 1.358.277.056.008.103.04.135.087.031.04.04.094.015.165l-.418.916a.6.6 0 0 1-.403.356c-.126.016-.253.047-.379.079.276.363.695.545 1.248.545h.726z"/><path fill="#1C1D1F" d="M74.288 74.66c.086.49.126 1.018.134 1.595 0 .592-.135 1.09-.41 1.484-.27.395-.64.695-1.09.885-.459.19-.964.292-1.532.292h-.782c-.166 0-.3-.079-.41-.245a1.03 1.03 0 0 1-.167-.6c0-.237.055-.442.158-.592a.48.48 0 0 1 .419-.221h.797q1.953-.002 1.974-.656c0-.347-.039-.663-.102-.947a11 11 0 0 0-.292-1.011l-.08-.253a.7.7 0 0 1-.047-.22c0-.127.048-.254.15-.364l.656-.632s.07-.055.126-.055c.071 0 .118.031.15.095.142.473.253.955.34 1.437M76.288 78.982s-.056-.04-.087-.071v-.237l.016-.719c0-.584-.056-1.784-.143-3.592s-.19-3.364-.308-4.652v-.118a.57.57 0 0 1 .166-.458l.64-.584s.079-.056.134-.056c.04 0 .08.016.11.04.032.024.056.047.064.079a97 97 0 0 1 .229 3.924q.07 1.944.095 4.715c0 .323-.04.592-.111.805s-.205.434-.387.671a3 3 0 0 1-.166.222.22.22 0 0 1-.142.079.2.2 0 0 1-.11-.032"/><path fill="#1D396C" d="M3.593 86.063s-.047.031-.087.031H.79s-.04.016-.04.04v1.658s.016.04.04.04h1.847s.064.008.087.031c.024.024.032.047.032.087v.41s-.008.064-.032.088c-.023.023-.047.031-.087.031H.79s-.04.016-.04.04v2.274s-.008.063-.031.087c-.024.023-.048.031-.087.031H.118s-.063-.008-.086-.031C.008 90.856 0 90.832 0 90.793v-5.228s.008-.063.032-.087c.023-.023.047-.031.086-.031h3.388s.063.008.087.031c.024.024.032.048.032.087v.41s-.008.064-.032.088M4.435 90.88s-.032-.048-.032-.087v-5.228s.008-.063.032-.087.047-.031.087-.031h.513s.063.008.087.031c.024.024.032.048.032.087v5.228s-.008.063-.032.087-.047.031-.087.031h-.513s-.063-.008-.087-.031M6.468 90.88s-.031-.048-.031-.087v-5.228s.007-.063.031-.087.048-.031.087-.031h.497c.064 0 .111.023.143.079l2.384 3.861s.024.024.032.016c.008 0 .016-.016.016-.032v-3.806s.008-.063.031-.087c.024-.023.048-.031.087-.031h.514s.063.008.086.031c.024.024.032.048.032.087v5.228s-.008.063-.032.087c-.023.023-.047.031-.087.031h-.505c-.063 0-.11-.023-.142-.079l-2.385-3.885s-.024-.024-.031-.024c-.008 0-.016.016-.016.032v3.83s0 .063-.024.087-.047.031-.087.031h-.513s-.063-.008-.087-.031M15.167 85.478s.032.048.032.087v.419s-.008.063-.032.087-.047.031-.087.031h-1.453s-.04.016-.04.04v4.65s-.007.064-.03.088c-.024.023-.048.031-.088.031h-.513s-.063-.008-.087-.031c-.024-.024-.031-.048-.031-.087v-4.651s-.016-.04-.04-.04h-1.382s-.063-.008-.087-.031c-.023-.024-.031-.048-.031-.087v-.419s.008-.063.031-.087c.024-.023.048-.031.087-.031h3.664s.063.008.087.031M19.724 86.063s-.047.031-.087.031h-2.724s-.04.016-.04.04v1.658s.016.04.04.04h1.855s.063.008.087.031c.024.024.032.048.032.087v.41s-.008.064-.032.088-.047.031-.087.031h-1.855s-.04.016-.04.04v1.697s.016.04.04.04h2.724s.063.008.087.031c.024.024.031.048.031.087v.411s-.007.063-.031.087-.047.031-.087.031h-3.396s-.063-.007-.086-.031c-.024-.024-.032-.048-.032-.087v-5.227s.008-.064.032-.087c.023-.024.047-.032.086-.032h3.396s.063.008.087.032c.024.023.031.047.031.087v.41s-.007.063-.031.087M21.556 90.76a1.57 1.57 0 0 1-.672-.632 1.85 1.85 0 0 1-.236-.94v-2.021c0-.356.078-.663.236-.932q.236-.4.671-.624c.285-.15.624-.22.995-.22q.557 0 .995.212c.285.143.506.348.672.608.158.261.237.561.237.909q0 .082-.119.094l-.513.032h-.032s-.047 0-.063-.016c-.016-.008-.024-.024-.024-.032v-.047c0-.332-.102-.6-.315-.805-.206-.206-.49-.3-.838-.3-.347 0-.631.102-.837.3-.213.205-.315.473-.315.805v2.077c0 .332.102.6.315.805s.49.308.837.308c.348 0 .624-.102.838-.308.213-.205.315-.473.315-.805q-.002-.048.032-.071a.1.1 0 0 1 .087-.016l.513.032q.12.013.119.04v.039c0 .34-.08.647-.237.908q-.236.39-.671.616a2.2 2.2 0 0 1-.995.22c-.38 0-.703-.07-.995-.22M28.604 85.478s.047-.031.087-.031h.513s.063.008.087.031c.024.024.032.048.032.087v5.228s-.008.063-.032.087-.047.031-.087.031h-.513s-.063-.008-.087-.031c-.024-.024-.032-.048-.032-.087v-2.274s-.015-.04-.04-.04h-2.21s-.04.016-.04.04v2.274s-.008.063-.031.087c-.024.023-.048.031-.087.031h-.513s-.064-.008-.087-.031c-.024-.024-.032-.048-.032-.087v-5.228s.008-.063.032-.087c.023-.023.047-.031.087-.031h.513s.063.008.087.031c.023.024.031.048.031.087V87.8s.016.04.04.04h2.21s.04-.016.04-.04v-2.235s.008-.063.032-.087M35.349 90.817l-.277-.877s-.024-.032-.04-.032h-2.179s-.031.008-.04.032l-.276.877c-.023.063-.063.094-.134.094h-.553c-.086 0-.118-.04-.094-.134l1.682-5.235c.023-.064.063-.095.134-.095h.718c.072 0 .111.031.135.095l1.698 5.235s.007.024.007.047c0 .056-.031.087-.102.087h-.56c-.072 0-.112-.031-.135-.094m-2.29-1.5h1.785s.039-.017.031-.048l-.908-2.914s-.016-.032-.024-.032q-.012-.002-.023.032l-.9 2.914s0 .047.031.047M37.411 90.787a1.6 1.6 0 0 1-.679-.53 1.4 1.4 0 0 1-.237-.805v-.19s.008-.062.032-.086c.023-.024.047-.032.087-.032h.497s.063.008.087.032c.024.023.032.047.032.087v.15c0 .268.118.481.347.655s.537.26.916.26c.355 0 .632-.078.813-.228a.73.73 0 0 0 .277-.593c0-.157-.048-.3-.142-.41a1.4 1.4 0 0 0-.411-.316 9 9 0 0 0-.782-.348 8 8 0 0 1-.9-.394 1.7 1.7 0 0 1-.553-.474 1.23 1.23 0 0 1-.22-.735c0-.45.157-.797.48-1.05q.476-.378 1.296-.379c.387 0 .726.063 1.019.198.292.126.513.315.678.544q.237.354.237.814v.118s-.007.063-.031.087-.047.032-.087.032h-.505s-.064-.008-.087-.024c-.024-.016-.032-.04-.032-.071v-.095a.84.84 0 0 0-.324-.671c-.213-.182-.513-.269-.892-.269q-.487-.002-.75.198c-.182.134-.269.324-.269.576 0 .174.048.316.135.419s.22.205.395.292c.173.087.442.197.797.332q.557.213.9.402c.23.127.419.285.569.482.15.198.229.45.229.742 0 .293-.08.561-.23.782q-.226.332-.655.521a2.5 2.5 0 0 1-1.002.19c-.38 0-.735-.063-1.02-.19M41.99 90.787a1.6 1.6 0 0 1-.679-.53 1.4 1.4 0 0 1-.237-.805v-.19s.008-.062.032-.086c.023-.024.047-.032.087-.032h.497s.063.008.087.032c.024.023.032.047.032.087v.15c0 .268.118.481.34.655.228.174.536.26.915.26.355 0 .632-.078.813-.228a.73.73 0 0 0 .277-.593c0-.157-.048-.3-.142-.41a1.4 1.4 0 0 0-.41-.316 9 9 0 0 0-.783-.348 8 8 0 0 1-.9-.394 1.7 1.7 0 0 1-.553-.474 1.23 1.23 0 0 1-.22-.735c0-.45.157-.797.481-1.05q.476-.378 1.295-.379c.387 0 .727.063 1.019.198.292.126.513.315.679.544q.237.354.237.814v.118s-.008.063-.032.087-.047.032-.087.032h-.505s-.063-.008-.087-.024q-.034-.024-.032-.071v-.095a.84.84 0 0 0-.323-.671c-.214-.182-.514-.269-.893-.269-.323 0-.576.064-.75.198q-.27.2-.268.576.002.263.134.419c.087.102.221.205.395.292q.263.13.797.332.556.213.9.402c.23.127.419.285.569.482.15.198.23.45.23.742 0 .293-.08.561-.23.782s-.371.395-.655.521a2.5 2.5 0 0 1-1.003.19c-.38 0-.735-.063-1.019-.19M46.7 90.748a1.67 1.67 0 0 1-.68-.664 2 2 0 0 1-.245-.979V87.25q-.001-.553.245-.979c.158-.284.387-.497.68-.655a2.1 2.1 0 0 1 1.01-.237q.58 0 1.019.237c.292.158.513.379.679.655.158.285.245.608.245.98v1.855c0 .371-.08.695-.245.98a1.67 1.67 0 0 1-.68.663 2.1 2.1 0 0 1-1.018.237c-.387 0-.718-.08-1.01-.237m1.863-.743c.221-.22.324-.505.324-.868v-1.895q-.002-.546-.324-.877-.33-.332-.86-.332-.533 0-.854.332-.321.331-.323.877v1.895c0 .363.11.647.323.868q.32.332.853.332t.86-.332M51.53 90.76a1.57 1.57 0 0 1-.671-.632 1.85 1.85 0 0 1-.237-.94v-2.021c0-.356.079-.663.237-.932.158-.268.379-.474.671-.624.285-.15.624-.22.995-.22q.557 0 .995.212.424.216.671.608c.158.261.237.561.237.909q0 .082-.118.094l-.514.032h-.031s-.047 0-.063-.016c-.016-.008-.024-.024-.024-.032v-.047q.002-.498-.316-.805c-.205-.206-.49-.3-.837-.3s-.632.102-.837.3q-.318.307-.316.805v2.077q-.002.498.316.805.318.309.837.308c.348 0 .624-.102.837-.308q.318-.307.316-.805-.002-.048.032-.071a.1.1 0 0 1 .087-.016l.513.032q.118.013.118.04v.039c0 .34-.079.647-.237.908q-.235.39-.67.616a2.2 2.2 0 0 1-.996.22c-.379 0-.703-.07-.995-.22M55.546 90.88s-.031-.048-.031-.087v-5.228s.008-.063.031-.087c.024-.023.048-.031.087-.031h.513s.063.008.087.031c.024.024.032.048.032.087v5.228s-.008.063-.032.087c-.023.023-.047.031-.087.031h-.513s-.063-.008-.087-.031M60.759 90.817l-.277-.877s-.023-.032-.04-.032h-2.178s-.032.008-.04.032l-.276.877c-.024.063-.064.094-.135.094h-.552c-.087 0-.119-.04-.095-.134l1.682-5.235c.023-.064.063-.095.134-.095h.719c.07 0 .11.031.134.095l1.698 5.235s.008.024.008.047q.002.085-.103.087h-.56c-.072 0-.111-.031-.135-.094m-2.29-1.5h1.785s.04-.017.031-.048l-.908-2.914s-.016-.032-.024-.032q-.01-.002-.023.032l-.9 2.914s0 .047.031.047M65.415 85.478s.032.048.032.087v.419s-.008.063-.032.087c-.023.023-.047.031-.087.031h-1.453s-.039.016-.039.04v4.65s-.008.064-.032.088c-.023.023-.047.031-.087.031h-.513s-.063-.008-.087-.031c-.023-.024-.031-.048-.031-.087v-4.651s-.016-.04-.04-.04h-1.382s-.063-.008-.087-.031c-.023-.024-.031-.048-.031-.087v-.419s.008-.063.032-.087c.023-.023.047-.031.086-.031h3.664s.064.008.087.031M66.41 90.88s-.032-.048-.032-.087v-5.228s.008-.063.031-.087c.024-.023.048-.031.087-.031h.514s.063.008.087.031c.023.024.031.048.031.087v5.228s-.008.063-.031.087c-.024.023-.048.031-.087.031h-.514s-.063-.008-.087-.031M69.174 90.748a1.67 1.67 0 0 1-.68-.664 2 2 0 0 1-.244-.979V87.25a1.9 1.9 0 0 1 .245-.979c.158-.284.387-.497.679-.655a2.1 2.1 0 0 1 1.01-.237q.581 0 1.02.237c.292.158.513.379.678.655.158.285.245.608.245.98v1.855c0 .371-.079.695-.245.98a1.67 1.67 0 0 1-.679.663 2.1 2.1 0 0 1-1.018.237c-.387 0-.719-.08-1.011-.237m1.864-.743c.22-.22.323-.505.323-.868v-1.895q-.002-.546-.323-.877c-.222-.221-.506-.332-.861-.332q-.534 0-.853.332c-.213.221-.324.513-.324.877v1.895c0 .363.11.647.324.868q.32.332.853.332.531 0 .86-.332M73.29 90.88s-.032-.048-.032-.087v-5.228s.008-.063.031-.087c.024-.023.048-.031.087-.031h.498c.063 0 .11.023.142.079l2.385 3.861s.023.024.031.016c.008 0 .016-.016.016-.032v-3.806s.008-.063.032-.087c.023-.023.047-.031.087-.031h.513s.063.008.087.031c.023.024.031.048.031.087v5.228s-.008.063-.031.087c-.024.023-.048.031-.087.031h-.506c-.063 0-.11-.023-.142-.079l-2.385-3.885s-.023-.024-.031-.024-.016.016-.016.032v3.83s0 .063-.024.087c-.023.023-.047.031-.087.031h-.513s-.063-.008-.087-.031"/></svg>