<svg width="266" height="308" viewBox="0 0 266 308" fill="none" xmlns="http://www.w3.org/2000/svg">
<path fill-rule="evenodd" clip-rule="evenodd" d="M-53.5483 -5.32599C-53.4543 -5.5289 -53.3633 -5.83175 -53.1694 -6.03765L-44.1329 -25.0164L-39.2436 -18.7598C-37.8904 -16.9995 -37.1638 -16.1208 -37.0309 -15.0243C-36.8981 -13.9278 -37.3679 -12.9133 -38.4076 -10.8813L-42.6424 -1.95065C-45.2827 3.43071 -46.0315 5.15388 -46.2865 6.66218C-47.6555 14.4066 -43.5347 18.3851 -35.5186 22.1471C-27.4995 26.009 -21.8751 26.7411 -16.7539 20.6852C-15.7873 19.5558 -14.9355 17.9297 -12.3982 12.4513L-5.71109 -1.45489C-4.77135 -3.4839 -4.30148 -4.4984 -3.41684 -5.0251C-2.53221 -5.55179 -1.43269 -5.58468 0.866283 -5.65347L8.76573 -5.78976L-2.72004 18.2645C-2.81402 18.4674 -2.90499 18.7702 -3.09892 18.9761C-5.16933 23.34 -6.67293 26.5864 -8.80316 28.9512C-18.1818 39.8365 -29.5396 38.0754 -40.7051 32.7069C-51.8706 27.3384 -60.4032 19.6902 -57.8262 5.50677C-57.2252 2.18733 -55.6187 -0.962134 -53.5483 -5.32599Z" fill="url(#paint0_linear_3346_86985)"/>
<path fill-rule="evenodd" clip-rule="evenodd" d="M-11.5218 88.5591C-11.7276 88.3652 -11.8336 88.1683 -12.0395 87.9744L-25.4302 71.7676L-17.6815 69.935C-15.4944 69.4694 -14.4039 69.1366 -13.3924 69.5066C-12.3809 69.8765 -11.6543 70.7551 -10.2041 72.4125L-3.87351 80.0266C-0.0346139 84.6138 1.20972 86.0773 2.4361 86.941C8.87384 91.4505 14.2146 89.3898 21.047 83.6829C27.8794 77.9761 30.9374 73.1825 27.6204 65.9784C26.9818 64.697 25.8375 63.2305 21.9956 58.5433L12.135 46.6329C10.6818 44.8756 9.95518 43.9969 9.82531 43.0003C9.69245 41.9038 10.1623 40.8893 11.0021 38.8633L14.1883 31.6648L31.2089 52.165C31.4148 52.3589 31.5208 52.5558 31.7267 52.7497C34.839 56.4583 37.1217 59.1913 38.4079 62.0541C44.3032 75.1837 37.9843 84.6769 28.4159 92.5666C18.8476 100.456 8.37796 104.971 -3.47405 96.7221C-6.22667 95.0037 -8.40945 92.2677 -11.5218 88.5591Z" fill="url(#paint1_linear_3346_86985)"/>
<path fill-rule="evenodd" clip-rule="evenodd" d="M-81.4023 26.7213C-81.5963 26.9272 -81.6902 27.1301 -81.8842 27.336L-94.3849 44.2174L-97.8987 37.1193C-98.8582 35.1471 -99.3908 34.0626 -99.3208 33.06C-99.2537 31.9575 -98.578 31.1369 -97.2324 29.2959L-91.3654 21.4169C-87.8076 16.6083 -86.653 15.0731 -86.1921 13.7587C-83.3118 6.3693 -86.551 1.7641 -93.7124 -3.5241C-100.774 -8.81528 -106.231 -10.6529 -112.388 -5.76658C-113.56 -4.8311 -114.718 -3.39585 -118.276 1.41271L-127.51 13.7944C-128.855 15.6355 -129.531 16.4561 -130.518 16.8858C-131.506 17.3155 -132.615 17.0485 -134.825 16.7145L-142.57 15.3455L-126.699 -5.93866C-126.505 -6.14457 -126.411 -6.34745 -126.217 -6.55335C-123.332 -10.4414 -121.217 -13.3059 -118.675 -15.2828C-107.335 -24.1259 -96.6107 -20.1449 -86.6848 -12.7384C-76.7588 -5.3319 -69.9806 3.8695 -75.1834 17.2311C-76.402 19.9688 -78.5173 22.8333 -81.4023 26.7213Z" fill="url(#paint2_linear_3346_86985)"/>
<path fill-rule="evenodd" clip-rule="evenodd" d="M-140.109 -82.9721C-139.809 -82.9811 -139.606 -82.8871 -139.306 -82.896L-118.511 -80.0167L-123.018 -73.479C-124.263 -71.6409 -124.936 -70.7204 -125.923 -70.2906C-126.911 -69.8609 -128.017 -70.0279 -130.228 -70.362L-139.971 -71.6712C-145.898 -72.4943 -147.806 -72.7373 -149.2 -72.4955C-156.972 -71.4626 -159.522 -66.3841 -160.758 -57.5432C-161.994 -48.7023 -160.927 -43.1317 -153.731 -40.0455C-152.414 -39.4846 -150.503 -39.1416 -144.576 -38.3185L-129.305 -36.1743C-127.094 -35.8402 -125.988 -35.6732 -125.168 -34.9975C-124.347 -34.3217 -124.014 -33.2312 -123.252 -31.153L-120.726 -23.6252L-147.045 -27.2397C-147.345 -27.2307 -147.548 -27.3247 -147.848 -27.3158C-152.67 -27.9718 -156.186 -28.4669 -159.124 -29.6796C-172.3 -35.3881 -174.038 -46.6411 -172.403 -58.8955C-170.769 -71.1499 -165.98 -81.5978 -151.728 -83.4248C-148.347 -84.1262 -144.831 -83.6312 -140.109 -82.9721Z" fill="url(#paint3_linear_3346_86985)"/>
<path fill-rule="evenodd" clip-rule="evenodd" d="M33.3929 -58.75C33.4019 -58.4501 33.4079 -58.2502 33.4168 -57.9503L33.0453 -36.9298L26.0318 -40.6217C23.9998 -41.6615 23.0852 -42.1343 22.4556 -43.1159C21.9289 -44.0005 21.896 -45.1001 21.9272 -47.402L22.1339 -57.2126C22.2543 -63.2189 22.1975 -65.118 21.8557 -66.5084C19.9262 -74.1542 14.4688 -75.9918 5.66079 -76.1284C-3.24719 -76.262 -8.59992 -74.6013 -10.8745 -67.0298C-11.2325 -65.6185 -11.3755 -63.7134 -11.496 -57.7071L-11.7351 -42.293C-11.7693 -40.091 -11.8333 -38.8885 -12.4091 -38.071C-12.982 -37.1534 -13.9695 -36.7237 -16.0417 -35.7613L-23.1428 -32.3474L-22.7388 -58.9714C-22.7478 -59.2713 -22.7538 -59.4712 -22.7627 -59.771C-22.7064 -64.5749 -22.6141 -68.1793 -21.7043 -71.2078C-17.613 -84.9363 -6.60173 -88.067 5.70773 -87.9351C18.0172 -87.8032 29.0289 -84.2309 32.5462 -70.3299C33.5415 -67.1582 33.5462 -63.6568 33.3929 -58.75Z" fill="url(#paint4_linear_3346_86985)"/>
<path fill-rule="evenodd" clip-rule="evenodd" d="M9.27991 -296.235C9.08299 -296.129 8.78611 -296.02 8.58919 -295.914L-10.345 -286.744L-10.2814 -294.649C-10.2472 -296.851 -10.2831 -298.051 -9.70733 -298.868C-9.13451 -299.786 -8.14693 -300.216 -6.07777 -301.278L2.79858 -305.545C8.22135 -308.209 9.89666 -309.059 10.9693 -309.992C16.917 -315.172 16.1468 -320.851 12.3062 -328.84C8.46554 -336.829 4.54165 -340.913 -3.21898 -339.481C-4.61236 -339.239 -6.39063 -338.485 -11.8134 -335.822L-25.7187 -329.103C-27.7908 -328.141 -28.7754 -327.611 -29.781 -327.781C-30.8835 -327.848 -31.707 -328.624 -33.5481 -329.969L-39.7949 -334.785L-15.8317 -346.407C-15.6348 -346.512 -15.3379 -346.621 -15.141 -346.727C-10.8028 -348.858 -7.54615 -350.356 -4.46249 -350.949C9.66536 -353.572 17.4222 -345.1 22.7579 -333.955C28.0936 -322.81 29.9338 -311.46 19.2109 -302.035C16.8748 -299.864 13.6181 -298.366 9.27991 -296.235Z" fill="url(#paint5_linear_3346_86985)"/>
<path fill-rule="evenodd" clip-rule="evenodd" d="M-127.731 133.455C-127.64 133.152 -127.646 132.952 -127.555 132.649L-122.765 112.197L-116.712 117.218C-114.968 118.666 -114.147 119.342 -113.817 120.333C-113.488 121.323 -113.754 122.432 -114.288 124.649L-116.503 134.219C-117.829 140.061 -118.275 141.876 -118.23 143.375C-117.894 151.268 -113.103 154.226 -104.438 156.268C-95.7735 158.31 -90.1879 157.743 -86.3931 150.826C-85.7323 149.506 -85.1864 147.689 -83.8605 141.846L-80.3079 126.833C-79.774 124.616 -79.507 123.508 -78.8282 122.787C-78.0495 122.064 -76.959 121.731 -74.7719 121.265L-67.1232 119.436L-73.1516 145.328C-73.2426 145.63 -73.2366 145.83 -73.3276 146.133C-74.3865 150.867 -75.1844 154.292 -76.7 157.139C-83.5259 169.749 -95.0088 170.493 -106.999 167.65C-118.99 164.807 -128.965 159.103 -129.592 144.815C-129.685 141.717 -128.89 138.191 -127.731 133.455Z" fill="url(#paint6_linear_3346_86985)"/>
<path fill-rule="evenodd" clip-rule="evenodd" d="M-57.0902 100.327C-57.3871 100.436 -57.587 100.442 -57.8839 100.551L-78.0103 106.656L-76.6413 98.9112C-76.3073 96.7002 -76.0403 95.5918 -75.3645 94.7712C-74.6888 93.9506 -73.5982 93.6179 -71.4172 92.9523L-61.9992 90.0694C-56.2496 88.2966 -54.4654 87.743 -53.1869 87.0045C-46.5096 82.8029 -46.3801 77.0965 -48.9333 68.6691C-51.4895 60.1417 -54.7287 55.5365 -62.6281 55.6728C-64.0275 55.7147 -65.9147 56.1713 -71.6642 57.9441L-86.4379 62.3879C-88.619 63.0534 -89.7096 63.3862 -90.7181 63.1162C-91.7266 62.8462 -92.5502 62.0705 -94.1003 60.4161L-99.5744 54.6773L-74.0923 47.0118C-73.7954 46.9028 -73.5955 46.8969 -73.2986 46.7879C-68.6396 45.348 -65.268 44.3467 -62.0695 44.251C-47.6729 43.9203 -41.3855 53.4365 -37.8281 65.3355C-34.2736 77.1344 -34.2296 88.6383 -46.4057 96.3058C-49.0596 97.8859 -52.4312 98.8872 -57.0902 100.327Z" fill="url(#paint7_linear_3346_86985)"/>
<path fill-rule="evenodd" clip-rule="evenodd" d="M-203.387 -1.04305C-203.293 -1.24596 -203.202 -1.5488 -203.008 -1.75471L-193.869 -20.6365L-189.08 -14.3769C-187.726 -12.6166 -187 -11.7379 -186.967 -10.6384C-186.834 -9.54189 -187.304 -8.52738 -188.347 -6.59534L-192.684 2.23835C-195.325 7.6197 -196.073 9.34288 -196.331 10.7512C-197.8 18.4986 -193.679 22.4771 -185.76 26.3421C-177.841 30.207 -172.117 30.9361 -166.99 25.0802C-166.023 23.9507 -165.171 22.3245 -162.531 16.9432L-155.744 3.03396C-154.804 1.00495 -154.234 -0.0125444 -153.35 -0.539236C-152.465 -1.06593 -151.366 -1.09882 -149.067 -1.16761L-141.167 -1.3039L-152.756 22.6534C-152.85 22.8563 -153.041 23.1621 -153.135 23.365C-155.205 27.7289 -156.812 30.8784 -158.939 33.3431C-168.421 44.1315 -179.781 42.2704 -190.847 36.8989C-201.913 31.5274 -210.248 23.7732 -207.671 9.58983C-207.064 6.47027 -205.558 3.3238 -203.387 -1.04305Z" fill="url(#paint8_linear_3346_86985)"/>
<path fill-rule="evenodd" clip-rule="evenodd" d="M-69.2557 -85.5922C-68.9559 -85.6012 -68.756 -85.6071 -68.4561 -85.6161L-47.4535 -85.8443L-50.9425 -78.7368C-51.8823 -76.7078 -52.4521 -75.6903 -53.3367 -75.1636C-54.2214 -74.6369 -55.3209 -74.604 -57.6199 -74.5352L-67.5214 -74.4391C-73.5217 -74.3596 -75.4209 -74.3028 -76.8083 -73.8611C-84.3481 -71.7346 -86.0857 -66.2802 -86.0195 -57.3782C-85.9532 -48.4762 -84.0925 -43.1295 -76.4301 -41.1577C-75.0188 -40.7998 -73.1166 -40.7567 -67.1163 -40.8362L-51.7142 -40.9968C-49.5152 -41.0626 -48.3127 -40.9986 -47.3982 -40.5257C-46.4807 -39.9529 -45.951 -38.9683 -44.9916 -36.9961L-41.3807 -30.001L-67.9838 -29.7052C-68.2837 -29.6963 -68.4836 -29.6903 -68.7835 -29.6813C-73.6843 -29.6347 -77.1857 -29.63 -80.2113 -30.4399C-94.1277 -34.1254 -97.5553 -45.0277 -97.6262 -57.4312C-97.7972 -69.8316 -94.6247 -80.8314 -80.7356 -84.7485C-77.655 -85.4409 -74.0566 -85.5486 -69.2557 -85.5922Z" fill="url(#paint9_linear_3346_86985)"/>
<path fill-rule="evenodd" clip-rule="evenodd" d="M-38.0988 163.287C-38.3017 163.193 -38.6046 163.102 -38.8105 162.908L-57.7862 153.972L-51.6296 149.086C-49.8693 147.732 -48.9906 147.006 -47.8941 146.873C-46.7976 146.74 -45.7831 147.21 -43.7541 148.15L-34.8264 152.285C-29.3481 154.822 -27.6249 155.571 -26.2166 155.829C-18.4722 157.198 -14.4966 152.977 -10.7347 144.961C-6.97271 136.945 -6.24059 131.32 -12.2965 126.199C-13.4259 125.232 -15.0521 124.381 -20.5304 121.843L-34.5336 115.259C-36.5626 114.32 -37.5771 113.85 -38.2037 112.968C-38.8304 112.086 -38.7633 110.984 -38.8321 108.685L-39.0684 100.788L-15.0201 112.074C-14.8172 112.168 -14.5143 112.259 -14.3084 112.453C-9.94456 114.524 -6.69816 116.027 -4.33638 118.057C6.54598 127.336 4.88481 138.691 -0.380731 149.953C-5.64927 161.116 -13.2945 169.748 -27.4749 167.271C-30.4885 166.861 -33.635 165.355 -38.0988 163.287Z" fill="url(#paint10_linear_3346_86985)"/>
<path fill-rule="evenodd" clip-rule="evenodd" d="M209.708 -24.1074C209.911 -24.0134 210.217 -23.8224 210.419 -23.7285L229.116 -14.0833L222.754 -9.39093C220.893 -8.0347 220.012 -7.40805 219.015 -7.27818C217.916 -7.24528 217.001 -7.71814 214.969 -8.75785L206.229 -13.2985C200.845 -16.0387 199.219 -16.8905 197.811 -17.1484C190.057 -18.8173 186.076 -14.7964 182.011 -6.87133C177.946 1.05377 177.011 6.5842 182.876 12.0112C183.905 12.9809 185.635 13.9296 190.919 16.6728L204.637 23.7657C206.669 24.8054 207.584 25.2783 208.213 26.2599C208.74 27.1445 208.773 28.244 208.742 30.546L208.678 38.4514L185.003 26.254C184.8 26.16 184.494 25.9691 184.291 25.8751C180.024 23.7018 176.872 21.9953 174.507 19.865C163.913 10.1775 166.077 -1.09223 171.748 -12.1668C177.422 -23.1414 185.379 -31.383 199.472 -28.5032C202.189 -27.9842 205.338 -26.3777 209.708 -24.1074Z" fill="url(#paint11_linear_3346_86985)"/>
<path fill-rule="evenodd" clip-rule="evenodd" d="M233.728 36.4014C234.028 36.3924 234.228 36.3864 234.528 36.3774L255.488 34.7499L252.505 42.0424C251.668 44.1683 251.199 45.1828 250.417 45.8065C249.535 46.4331 248.436 46.466 246.243 46.7317L236.462 47.5246C230.474 48.0039 228.577 48.1607 227.193 48.7023C219.768 51.3255 218.433 56.8679 219.099 65.752C219.765 74.636 221.923 79.8739 229.67 81.3428C231.079 81.6008 232.978 81.544 238.966 81.0647L254.338 79.9045C256.534 79.7387 257.731 79.6029 258.648 80.1757C259.563 80.6485 260.193 81.6301 261.352 83.5964L265.456 90.3766L238.904 92.3716C238.604 92.3806 238.404 92.3866 238.105 92.3955C233.313 92.739 229.72 93.0466 226.601 92.4396C212.511 89.6597 208.39 78.9782 207.423 66.7016C206.452 54.3251 208.919 43.1463 222.481 38.3386C225.344 37.0524 228.936 36.7448 233.728 36.4014Z" fill="url(#paint12_linear_3346_86985)"/>
<path fill-rule="evenodd" clip-rule="evenodd" d="M93.8162 -2.03164C93.8072 -2.33149 93.9012 -2.5344 93.8922 -2.83426L97.0714 -23.6387L103.512 -19.0292C105.35 -17.7836 106.271 -17.1108 106.7 -16.1232C107.13 -15.1356 106.963 -14.0302 106.629 -11.8192L105.12 -2.06969C104.197 3.86056 103.954 5.76868 104.196 7.16206C105.132 15.0376 110.21 17.5869 118.954 18.926C127.698 20.2651 133.372 19.295 136.558 12.0964C137.119 10.7791 137.465 8.96795 138.385 2.93774L140.729 -12.3392C141.063 -14.5502 141.23 -15.6557 141.906 -16.4763C142.581 -17.2968 143.672 -17.6296 145.753 -18.2921L153.284 -20.7184L149.27 5.61341C149.279 5.91327 149.185 6.11618 149.194 6.41603C148.438 11.2408 147.942 14.7572 146.627 17.5978C140.815 30.6774 129.459 32.3178 117.199 30.4836C104.939 28.6495 94.5877 23.7568 92.9606 9.49911C92.4621 6.21256 93.0601 2.79312 93.8162 -2.03164Z" fill="url(#paint13_linear_3346_86985)"/>
<path fill-rule="evenodd" clip-rule="evenodd" d="M108.376 -63.7947C108.385 -63.4948 108.391 -63.2949 108.4 -62.995L110.127 -42.0373L102.738 -44.9176C100.612 -45.7544 99.6001 -46.1243 98.9735 -47.006C98.3468 -47.8876 98.214 -48.9841 98.0482 -51.1802L97.2553 -60.9608C96.7761 -66.9492 96.5193 -68.8424 96.0776 -70.2298C93.3545 -77.6517 87.8121 -78.9865 79.031 -78.2236C70.1499 -77.4576 64.9121 -75.3 63.546 -67.4556C63.2881 -66.0473 63.3449 -64.1481 63.9241 -58.1628L65.1843 -42.7936C65.3501 -40.5976 65.4859 -39.4011 65.013 -38.4865C64.5402 -37.572 63.5586 -36.9424 61.6923 -35.786L54.9121 -31.6814L52.7172 -58.2277C52.7082 -58.5275 52.7022 -58.7274 52.6933 -59.0273C52.2499 -63.8162 51.9422 -67.4086 52.5492 -70.5281C55.2292 -84.6146 65.8078 -88.8328 78.1813 -89.9034C90.4548 -90.9709 101.731 -88.607 106.735 -75.1507C107.625 -72.1759 107.929 -68.6835 108.376 -63.7947Z" fill="url(#paint14_linear_3346_86985)"/>
<path fill-rule="evenodd" clip-rule="evenodd" d="M97.302 141.228C97.1931 140.931 97.1871 140.731 97.0782 140.435L90.9736 120.308L98.718 121.677C100.929 122.011 102.037 122.278 102.858 122.954C103.679 123.63 104.011 124.72 104.577 126.904L107.46 136.322C109.233 142.072 109.786 143.856 110.525 145.135C114.726 151.812 120.433 151.941 128.86 149.388C137.288 146.835 141.993 143.593 141.856 135.693C141.815 134.294 141.358 132.407 139.585 126.657L135.141 111.883C134.476 109.702 134.143 108.612 134.413 107.603C134.683 106.595 135.459 105.771 137.113 104.221L142.852 98.747L150.517 124.229C150.626 124.526 150.632 124.726 150.741 125.023C152.181 129.682 153.183 133.053 153.278 136.252C153.609 150.649 144.093 156.936 132.194 160.493C120.395 164.048 108.891 164.092 101.223 151.916C99.7433 149.259 98.742 145.887 97.302 141.228Z" fill="url(#paint15_linear_3346_86985)"/>
<path fill-rule="evenodd" clip-rule="evenodd" d="M71.6254 118.986C71.8313 119.18 71.9372 119.377 72.1431 119.571L85.2399 135.987L77.4852 137.619C75.2982 138.085 74.2046 138.318 73.1931 137.948C72.1816 137.578 71.455 136.699 70.1018 134.939L63.9682 127.219C60.2262 122.529 58.9819 121.065 57.8555 120.198C51.5147 115.586 46.171 117.547 39.2326 123.057C32.2943 128.567 29.1363 133.363 32.2534 140.573C32.792 141.858 33.9394 143.424 37.6813 148.114L47.248 160.234C48.6013 161.994 49.3279 162.873 49.4607 163.969C49.5936 165.066 49.1237 166.08 48.184 168.109L44.7979 175.314L28.268 154.499C28.0621 154.305 27.9562 154.108 27.7503 153.914C24.735 150.102 22.5522 147.366 21.263 144.404C15.6646 131.165 22.1864 121.766 31.8607 114.073C41.5349 106.38 52.2135 102.159 63.7716 110.617C66.4273 112.439 68.61 115.175 71.6254 118.986Z" fill="url(#paint16_linear_3346_86985)"/>
<path fill-rule="evenodd" clip-rule="evenodd" d="M180.633 47.3941C180.839 47.5881 181.045 47.782 181.151 47.9789L195.905 62.9444L188.374 65.3707C186.193 66.0362 185.203 66.366 184.097 66.199C183.088 65.929 182.265 65.1533 180.715 63.4989L173.802 56.5025C169.573 52.2271 168.231 50.8666 167.011 50.2028C160.188 46.205 155.062 48.7595 148.745 54.9512C142.427 61.1429 139.778 66.2244 143.686 73.1106C144.424 74.3891 145.666 75.7526 149.895 80.028L160.729 91.0089C162.276 92.5633 163.102 93.439 163.332 94.4326C163.562 95.4262 163.195 96.5376 162.458 98.6606L159.881 106.141L141.206 87.1911C141 86.9971 140.794 86.8032 140.588 86.6093C137.182 83.1096 134.705 80.5825 133.122 77.8286C126.145 65.3317 131.646 55.2626 140.491 46.5943C149.336 37.9259 159.479 32.5201 171.901 39.7519C174.75 41.3674 177.227 43.8945 180.633 47.3941Z" fill="url(#paint17_linear_3346_86985)"/>
<path fill-rule="evenodd" clip-rule="evenodd" d="M18.9638 10.7126C18.8549 10.4157 18.8489 10.2158 18.74 9.91894L14.0257 -10.5492L21.6851 -8.67745C23.9021 -8.14351 24.9106 -7.87356 25.7342 -7.09785C26.4578 -6.31916 26.6906 -5.22563 27.2562 -3.04155L29.4454 6.5973C30.8213 12.4588 31.275 14.246 31.9136 15.5275C35.6244 22.5196 41.3398 22.9489 49.985 20.9895C58.6303 19.03 63.4443 16.0848 63.8078 8.17037C63.8659 6.76801 63.5092 4.87781 62.1333 -0.983657L58.6801 -16.0872C58.2145 -18.2742 57.8817 -19.3647 58.2516 -20.3762C58.6215 -21.3878 59.5002 -22.1144 61.1576 -23.5646L67.2083 -28.6478L73.1865 -2.71498C73.2954 -2.41812 73.3014 -2.2182 73.4103 -1.92133C74.5534 2.8466 75.2549 6.22713 75.1506 9.43169C74.5787 23.7552 64.5448 29.4578 52.522 32.2186C40.4991 34.9794 29.0714 34.2208 22.1915 21.6209C20.9083 18.8581 20.1069 15.4805 18.9638 10.7126Z" fill="url(#paint18_linear_3346_86985)"/>
<path fill-rule="evenodd" clip-rule="evenodd" d="M75.1087 94.9712C74.9058 94.8773 74.603 94.7863 74.3001 94.6953L54.5756 87.4819L60.3174 82.1078C61.9718 80.5577 62.7505 79.8341 63.8441 79.6012C64.8376 79.3714 65.9491 79.7384 68.0751 80.5751L77.2817 84.0013C82.9449 86.0329 84.6651 86.6817 86.1704 86.8368C93.9938 87.5031 97.5606 82.9944 100.614 74.6994C103.667 66.4044 103.897 60.695 97.4558 56.0855C96.2294 55.2218 94.5093 54.573 88.843 52.4415L74.376 47.0717C72.253 46.3349 71.2385 45.865 70.5148 45.0863C69.8882 44.2047 69.7554 43.1081 69.4896 40.9151L68.6536 33.0366L93.6387 42.1935C93.9415 42.2845 94.1444 42.3784 94.4473 42.4694C98.9991 44.134 102.337 45.3347 104.895 47.2591C116.55 55.6143 115.892 67.0391 111.638 78.6715C107.384 90.3039 100.453 99.4153 86.2115 98.2407C82.998 97.8366 79.6606 96.6359 75.1087 94.9712Z" fill="url(#paint19_linear_3346_86985)"/>
<path fill-rule="evenodd" clip-rule="evenodd" d="M2.94251 227.589C2.73961 227.495 2.43676 227.404 2.23386 227.31L-17.1178 219.185L-11.17 214.005C-9.51267 212.555 -8.63401 211.828 -7.54048 211.595C-6.44396 211.462 -5.43244 211.832 -3.40343 212.772L5.71516 216.601C11.2875 218.935 13.0076 219.584 14.413 219.742C22.2454 220.708 25.9211 216.497 29.3772 208.29C32.8333 200.083 33.2656 194.467 27.0158 189.552C25.8893 188.685 24.1632 187.836 18.5939 185.602L4.30877 179.626C2.28275 178.787 1.1683 178.32 0.541644 177.438C-0.0850091 176.556 -0.117891 175.457 -0.283645 173.261L-0.819771 165.373L23.6984 175.645C23.9013 175.739 24.2041 175.83 24.407 175.924C28.8649 177.791 32.1083 179.195 34.667 181.119C45.9372 189.986 44.7788 201.426 40.016 212.773C35.2562 224.221 27.9169 233.044 13.7544 231.167C10.6438 230.86 7.40334 229.556 2.94251 227.589Z" fill="url(#paint20_linear_3346_86985)"/>
<path fill-rule="evenodd" clip-rule="evenodd" d="M-77.2144 226.886C-77.4202 226.692 -77.6232 226.598 -77.829 226.404L-94.9983 214.312L-88.0092 210.501C-86.04 209.442 -85.0554 208.912 -83.9529 208.979C-82.8504 209.046 -81.9299 209.719 -80.0918 210.965L-72.0189 216.626C-67.1134 220.08 -65.4812 221.132 -64.1668 221.593C-56.6834 224.27 -52.1841 220.834 -47.0988 213.579C-42.0135 206.324 -40.3758 200.872 -45.3591 194.819C-46.2916 193.746 -47.8268 192.591 -52.7323 189.137L-65.4019 180.312C-67.24 179.066 -68.1605 178.393 -68.5903 177.406C-69.02 176.418 -68.853 175.312 -68.5189 173.101L-67.3528 165.263L-45.5868 180.519C-45.381 180.713 -45.1781 180.807 -44.9722 181.001C-40.9872 183.783 -38.1256 185.798 -36.0518 188.237C-26.9178 199.269 -30.493 210.181 -37.5937 220.298C-44.6943 230.415 -53.6838 237.587 -67.2363 232.69C-70.3678 231.683 -73.2294 229.668 -77.2144 226.886Z" fill="url(#paint21_linear_3346_86985)"/>
<path fill-rule="evenodd" clip-rule="evenodd" d="M-6.82951 245.389C-6.62662 245.483 -6.32077 245.674 -6.11787 245.768L11.9151 256.633L5.2378 260.835C3.37155 261.991 2.38995 262.621 1.29043 262.654C0.190917 262.687 -0.726618 262.114 -2.66165 260.971L-11.1164 255.922C-16.3099 252.876 -17.9391 251.924 -19.3504 251.566C-26.9158 249.491 -31.2062 253.221 -35.7827 260.762C-40.3593 268.302 -41.5912 273.941 -36.1201 279.58C-35.0876 280.65 -33.5584 281.605 -28.362 284.751L-15.1196 292.658C-13.1846 293.801 -12.267 294.373 -11.7373 295.358C-11.2077 296.343 -11.3747 297.448 -11.5088 299.653L-12.0722 307.574L-34.8898 293.95C-35.0927 293.856 -35.3986 293.665 -35.6015 293.571C-39.7774 291.095 -42.8329 289.285 -45.0037 286.949C-54.9194 276.541 -52.1498 265.453 -45.7638 254.858C-39.3778 244.262 -30.906 236.505 -17.0835 240.393C-14.0609 241.103 -11.0054 242.913 -6.82951 245.389Z" fill="url(#paint22_linear_3346_86985)"/>
<path fill-rule="evenodd" clip-rule="evenodd" d="M42.9143 292.923C42.7114 292.829 42.4085 292.738 42.2056 292.644L22.578 285.327L28.3199 279.953C29.9743 278.403 30.753 277.679 31.8465 277.447C32.8401 277.217 33.9515 277.584 36.0775 278.421L45.2841 281.847C50.9504 283.978 52.6676 284.527 54.1729 284.682C61.9963 285.349 65.566 280.94 68.7193 272.642C71.8725 264.344 72.1019 258.634 65.6612 254.025C64.5347 253.158 62.7146 252.512 57.1483 250.378L42.6812 245.008C40.5583 244.271 39.5437 243.801 38.9201 243.02C38.2934 242.138 38.1606 241.042 37.8949 238.849L37.0589 230.97L61.9499 240.33C62.2528 240.421 62.4557 240.515 62.6586 240.609C67.2104 242.273 70.5508 243.574 73.1065 245.398C84.7646 253.854 84.006 265.281 79.649 276.817C75.2921 288.352 68.1615 297.47 53.9171 296.195C50.7065 295.891 47.4661 294.587 42.9143 292.923Z" fill="url(#paint23_linear_3346_86985)"/>
<path fill-rule="evenodd" clip-rule="evenodd" d="M141.076 213.251C140.97 213.054 140.764 212.86 140.655 212.564L128.437 195.421L136.203 194.189C138.393 193.823 139.49 193.69 140.501 194.06C141.513 194.43 142.142 195.411 143.396 197.175L149.139 205.207C152.587 210.106 153.731 211.572 154.86 212.539C161.013 217.557 166.363 215.796 173.613 210.677C180.863 205.558 184.227 200.955 181.504 193.533C180.962 192.149 179.915 190.58 176.467 185.681L167.485 173.044C166.229 171.18 165.502 170.302 165.469 169.202C165.436 168.103 165.909 167.188 166.949 165.156L170.641 158.143L186.095 179.79C186.301 179.984 186.41 180.281 186.516 180.478C189.334 184.395 191.423 187.334 192.512 190.303C197.417 203.762 190.386 212.876 180.294 219.981C170.205 227.186 159.309 230.814 148.233 221.741C145.883 220.111 143.897 217.269 141.076 213.251Z" fill="url(#paint24_linear_3346_86985)"/>
<path fill-rule="evenodd" clip-rule="evenodd" d="M137.724 -42.5628C137.518 -42.7568 137.315 -42.8507 137.109 -43.0446L120.515 -55.9542L127.617 -59.3681C129.689 -60.3305 130.673 -60.8602 131.679 -60.6902C132.781 -60.6231 133.605 -59.8474 135.346 -58.4988L143.131 -52.4289C147.843 -48.7682 149.378 -47.6136 150.695 -47.0528C157.988 -44.0695 162.696 -47.2117 168.19 -54.1791C173.684 -61.1466 175.525 -66.504 170.832 -72.8665C169.997 -74.0421 168.561 -75.1997 163.747 -78.9573L151.559 -88.3971C149.818 -89.7456 148.897 -90.4184 148.568 -91.409C148.238 -92.3995 148.405 -93.505 148.839 -95.719L150.408 -103.469L171.404 -87.19C171.61 -86.9961 171.813 -86.9021 172.019 -86.7082C175.81 -83.7202 178.674 -81.605 180.551 -79.06C189.101 -67.5105 185.017 -56.8836 177.407 -47.0516C169.798 -37.2196 160.49 -30.6384 147.22 -36.144C144.382 -37.3596 141.515 -39.5748 137.724 -42.5628Z" fill="url(#paint25_linear_3346_86985)"/>
<path fill-rule="evenodd" clip-rule="evenodd" d="M219.693 112.355C219.899 112.549 220.105 112.743 220.211 112.94L234.865 127.908L227.334 130.335C225.153 131 224.163 131.33 223.054 131.063C222.046 130.793 221.222 130.017 219.672 128.363L212.76 121.366C208.53 117.091 207.189 115.731 205.968 115.067C199.146 111.069 194.02 113.623 187.702 119.815C181.384 126.007 178.735 131.088 182.543 137.978C183.282 139.256 184.523 140.62 188.753 144.895L199.589 155.976C201.139 157.63 201.963 158.406 202.192 159.399C202.422 160.393 202.055 161.505 201.318 163.628L198.741 171.108L180.163 152.055C179.957 151.861 179.751 151.667 179.645 151.47C176.239 147.971 173.762 145.443 172.279 142.687C165.299 130.09 170.904 120.118 179.748 111.449C188.593 102.781 198.739 97.4751 211.161 104.707C213.81 106.328 216.287 108.855 219.693 112.355Z" fill="url(#paint26_linear_3346_86985)"/>
<path fill-rule="evenodd" clip-rule="evenodd" d="M-8.66867 -250.778C-8.6597 -250.478 -8.75368 -250.275 -8.74471 -249.975L-11.2213 -229.092L-17.853 -233.396C-19.691 -234.641 -20.7085 -235.211 -21.1382 -236.199C-21.568 -237.186 -21.5009 -238.289 -21.1669 -240.5L-20.0576 -250.237C-19.3345 -256.161 -19.1914 -258.067 -19.4361 -259.56C-20.6689 -267.327 -25.7445 -269.776 -34.5794 -270.812C-43.4143 -271.848 -48.9819 -270.681 -51.9652 -263.389C-52.526 -262.071 -52.7691 -260.163 -53.4922 -254.239L-55.3336 -238.877C-55.5677 -236.669 -55.7347 -235.564 -56.4105 -234.743C-57.0863 -233.923 -58.1738 -233.49 -60.2519 -232.727L-67.6738 -230.004L-64.5621 -256.409C-64.5711 -256.709 -64.4771 -256.912 -64.486 -257.212C-63.9299 -262.03 -63.5348 -265.544 -62.3221 -268.481C-56.9165 -281.749 -45.5724 -283.789 -33.324 -282.355C-21.0757 -280.92 -10.5338 -276.334 -8.30992 -262.194C-7.71743 -259.11 -8.11254 -255.597 -8.66867 -250.778Z" fill="url(#paint27_linear_3346_86985)"/>
<path fill-rule="evenodd" clip-rule="evenodd" d="M-0.839277 -162.973C-1.13915 -162.964 -1.34204 -163.058 -1.64191 -163.049L-22.5134 -165.126L-18.3097 -171.754C-17.0671 -173.692 -16.4943 -174.61 -15.5067 -175.04C-14.5191 -175.469 -13.4166 -175.402 -11.2086 -175.168L-1.37413 -174.162C4.64711 -173.542 6.45227 -173.396 7.94562 -173.64C15.7092 -174.973 18.0556 -180.146 18.8919 -188.975C19.7283 -197.804 18.5613 -203.371 11.1748 -206.151C9.85744 -206.712 7.94931 -206.955 1.93105 -207.476L-13.4219 -209.017C-15.6299 -209.251 -16.7324 -209.318 -17.6529 -209.991C-18.4735 -210.667 -18.9032 -211.654 -19.6687 -213.833L-22.4918 -221.251L4.00103 -218.542C4.30089 -218.551 4.50379 -218.457 4.80366 -218.466C9.61946 -218.01 13.1328 -217.615 16.0674 -216.502C29.429 -211.3 31.6661 -200.062 30.3347 -187.716C29.1032 -175.374 24.7164 -164.838 10.5825 -162.414C7.4899 -162.122 3.97652 -162.517 -0.839277 -162.973Z" fill="url(#paint28_linear_3346_86985)"/>
<path fill-rule="evenodd" clip-rule="evenodd" d="M-83.3998 -254.045C-83.3908 -253.745 -83.3848 -253.545 -83.3759 -253.245L-81.7483 -232.284L-89.0408 -235.267C-91.1667 -236.104 -92.1812 -236.574 -92.8049 -237.356C-93.4315 -238.238 -93.5644 -239.334 -93.7301 -241.53L-94.523 -251.311C-95.0023 -257.299 -95.1591 -259.195 -95.7007 -260.58C-98.4239 -268.001 -103.966 -269.336 -112.75 -268.673C-121.535 -268.01 -126.869 -265.75 -128.338 -258.002C-128.596 -256.594 -128.539 -254.695 -128.06 -248.707L-126.8 -233.337C-126.634 -231.141 -126.498 -229.945 -126.971 -229.03C-127.444 -228.116 -128.426 -227.486 -130.292 -226.33L-137.072 -222.225L-139.167 -248.774C-139.176 -249.074 -139.182 -249.274 -139.191 -249.574C-139.535 -254.366 -139.842 -257.958 -139.235 -261.078C-136.555 -275.164 -125.877 -279.386 -113.5 -280.356C-101.124 -281.327 -89.9478 -278.96 -85.0401 -265.401C-84.0508 -262.429 -83.7462 -258.936 -83.3998 -254.045Z" fill="url(#paint29_linear_3346_86985)"/>
<path fill-rule="evenodd" clip-rule="evenodd" d="M-131.301 -360.36C-131.507 -360.554 -131.709 -360.647 -132.015 -360.838L-149.473 -372.522L-142.586 -376.429C-140.62 -377.589 -139.635 -378.118 -138.633 -378.048C-137.53 -377.981 -136.613 -377.408 -134.775 -376.163L-126.608 -370.705C-121.605 -367.353 -119.976 -366.401 -118.662 -365.94C-111.184 -363.463 -106.688 -366.999 -101.806 -374.348C-96.9234 -381.697 -95.3887 -387.246 -100.569 -393.193C-101.501 -394.266 -103.037 -395.42 -108.036 -398.672L-120.897 -407.192C-122.735 -408.437 -123.652 -409.01 -124.182 -409.995C-124.612 -410.982 -124.445 -412.088 -124.211 -414.296L-123.244 -422.128L-101.093 -407.384C-100.888 -407.19 -100.685 -407.096 -100.379 -406.905C-96.2969 -404.226 -93.4353 -402.211 -91.2645 -399.875C-81.8366 -389.052 -85.209 -378.046 -92.0037 -367.738C-98.8985 -357.427 -107.685 -350.161 -121.326 -354.655C-124.257 -355.668 -127.219 -357.68 -131.301 -360.36Z" fill="url(#paint30_linear_3346_86985)"/>
<path fill-rule="evenodd" clip-rule="evenodd" d="M-133.003 -296.88C-133.197 -296.674 -133.391 -296.469 -133.585 -296.263L-148.55 -281.508L-150.977 -289.039C-151.642 -291.22 -152.072 -292.208 -151.805 -293.316C-151.535 -294.325 -150.759 -295.149 -149.205 -296.696L-142.208 -303.608C-137.933 -307.838 -136.672 -309.176 -135.912 -310.499C-132.014 -317.319 -134.568 -322.445 -140.76 -328.763C-146.952 -335.08 -152.03 -337.629 -158.919 -333.822C-160.198 -333.083 -161.561 -331.842 -165.837 -327.612L-176.818 -316.779C-178.372 -315.232 -179.248 -314.405 -180.241 -314.175C-181.235 -313.945 -182.346 -314.312 -184.469 -315.049L-191.95 -317.627L-173 -336.302C-172.806 -336.508 -172.612 -336.714 -172.418 -336.919C-169.018 -340.323 -166.491 -342.799 -163.737 -344.382C-151.24 -351.359 -141.174 -345.958 -132.406 -337.116C-123.638 -328.274 -118.335 -318.228 -125.464 -305.71C-127.076 -302.76 -129.603 -300.283 -133.003 -296.88Z" fill="url(#paint31_linear_3346_86985)"/>
<path fill-rule="evenodd" clip-rule="evenodd" d="M-81.119 -127.656C-81.0101 -127.359 -81.0041 -127.159 -80.8952 -126.863L-75.7841 -106.506L-83.5375 -108.175C-85.7515 -108.609 -86.8599 -108.876 -87.5835 -109.655C-88.3072 -110.434 -88.6399 -111.524 -89.2055 -113.708L-91.5916 -123.241C-93.0675 -129.1 -93.5212 -130.887 -94.2597 -132.165C-98.1674 -139.051 -103.78 -139.384 -112.419 -137.224C-121.058 -135.065 -125.87 -132.02 -126.033 -124.111C-126.091 -122.709 -125.635 -120.822 -124.159 -114.963L-120.412 -100.069C-119.846 -97.8847 -119.613 -96.7912 -119.883 -95.7827C-120.253 -94.7712 -121.032 -94.0476 -122.789 -92.5944L-128.737 -87.4142L-135.212 -113.232C-135.321 -113.529 -135.327 -113.729 -135.436 -114.026C-136.576 -118.694 -137.48 -122.168 -137.376 -125.373C-137.104 -139.687 -127.176 -145.587 -115.262 -148.645C-103.248 -151.705 -91.8263 -151.147 -84.7495 -138.653C-83.1634 -135.799 -82.3621 -132.421 -81.119 -127.656Z" fill="url(#paint32_linear_3346_86985)"/>
<path fill-rule="evenodd" clip-rule="evenodd" d="M-73.4733 -216.525C-73.1734 -216.534 -72.9735 -216.54 -72.6736 -216.549L-51.701 -217.776L-54.7842 -210.481C-55.624 -208.455 -56.0909 -207.34 -56.9755 -206.814C-57.8571 -206.187 -58.9567 -206.154 -61.2526 -205.985L-71.0393 -205.392C-77.0306 -205.013 -78.9268 -204.856 -80.3142 -204.415C-87.742 -201.891 -89.2768 -196.343 -88.7138 -187.556C-88.1477 -178.669 -86.0901 -173.428 -78.3367 -171.759C-76.9284 -171.501 -75.0292 -171.558 -69.0349 -171.837L-53.6567 -172.798C-51.4607 -172.963 -50.2612 -172.999 -49.3467 -172.526C-48.4321 -172.054 -47.8025 -171.072 -46.7431 -169.103L-42.8354 -162.217L-69.3996 -160.621C-69.6995 -160.612 -69.8994 -160.606 -70.1993 -160.598C-74.9941 -160.354 -78.5865 -160.046 -81.7091 -160.753C-95.7045 -163.736 -99.7289 -174.521 -100.397 -186.806C-101.167 -199.189 -98.4975 -210.273 -84.9323 -214.981C-81.8635 -216.073 -78.3681 -216.278 -73.4733 -216.525Z" fill="url(#paint33_linear_3346_86985)"/>
<path fill-rule="evenodd" clip-rule="evenodd" d="M-173.266 -274.966C-173.063 -274.872 -172.757 -274.681 -172.554 -274.587L-153.766 -265.245L-160.126 -260.453C-161.886 -259.1 -162.868 -258.47 -163.864 -258.34C-164.961 -258.207 -165.878 -258.78 -167.907 -259.72L-176.744 -264.158C-182.125 -266.798 -183.852 -267.647 -185.26 -267.905C-193.01 -269.473 -196.989 -265.353 -200.954 -257.431C-204.918 -249.508 -205.751 -243.881 -199.889 -238.554C-198.859 -237.584 -197.133 -236.736 -191.749 -233.995L-177.936 -227.105C-175.904 -226.066 -174.89 -225.596 -174.363 -224.711C-173.837 -223.826 -173.804 -222.727 -173.835 -220.425L-173.798 -212.523L-197.568 -224.517C-197.771 -224.611 -198.077 -224.802 -198.279 -224.896C-202.646 -227.066 -205.796 -228.673 -208.161 -230.803C-218.852 -240.388 -216.888 -251.651 -211.317 -262.723C-205.745 -273.795 -197.891 -282.133 -183.802 -279.353C-180.782 -278.743 -177.633 -277.137 -173.266 -274.966Z" fill="url(#paint34_linear_3346_86985)"/>
<path fill-rule="evenodd" clip-rule="evenodd" d="M-133.321 -210.532C-133.118 -210.438 -132.812 -210.247 -132.609 -210.153L-114.297 -199.996L-120.866 -195.498C-122.729 -194.242 -123.611 -193.615 -124.71 -193.582C-125.81 -193.549 -126.727 -194.122 -128.759 -195.162L-137.405 -199.905C-142.695 -202.848 -144.321 -203.7 -145.733 -204.058C-153.392 -205.93 -157.58 -202.103 -161.847 -194.272C-166.115 -186.441 -167.25 -180.904 -161.582 -175.371C-160.552 -174.402 -158.923 -173.45 -153.633 -170.507L-140.103 -163.008C-138.171 -161.965 -137.153 -161.396 -136.623 -160.411C-136.097 -159.526 -136.161 -158.324 -136.295 -156.119L-136.658 -148.204L-159.955 -161.114C-160.158 -161.208 -160.464 -161.398 -160.666 -161.492C-164.939 -163.866 -167.992 -165.575 -170.26 -167.808C-180.466 -177.908 -178.099 -189.083 -172.019 -199.87C-165.939 -210.657 -157.776 -218.704 -143.869 -215.319C-140.646 -214.615 -137.491 -212.808 -133.321 -210.532Z" fill="url(#paint35_linear_3346_86985)"/>
<path fill-rule="evenodd" clip-rule="evenodd" d="M-74.1834 -347.262C-73.8836 -347.271 -73.6807 -347.177 -73.3808 -347.186L-52.5123 -345.209L-56.713 -338.48C-57.8556 -336.545 -58.5284 -335.625 -59.4131 -335.098C-60.4006 -334.668 -61.5031 -334.735 -63.7111 -334.97L-73.5426 -335.876C-79.5609 -336.396 -81.3661 -336.542 -82.8594 -336.297C-90.62 -334.865 -92.8664 -329.695 -93.7028 -320.866C-94.5391 -312.037 -93.2721 -306.473 -85.8857 -303.692C-84.5683 -303.132 -82.6632 -302.988 -76.6419 -302.368L-61.292 -300.927C-59.084 -300.693 -57.9815 -300.626 -57.0609 -299.953C-56.2404 -299.277 -55.8106 -298.289 -54.9482 -296.214L-52.128 -288.895L-78.515 -291.407C-78.8148 -291.398 -79.0177 -291.492 -79.3176 -291.483C-84.1334 -291.94 -87.6438 -292.235 -90.6783 -293.344C-104.137 -298.444 -106.374 -309.682 -105.239 -321.922C-104.105 -334.161 -99.8241 -344.894 -85.6932 -347.418C-82.5096 -348.013 -78.9992 -347.718 -74.1834 -347.262Z" fill="url(#paint36_linear_3346_86985)"/>
<path fill-rule="evenodd" clip-rule="evenodd" d="M-61.4393 -121.942C-61.4483 -122.242 -61.4543 -122.442 -61.4633 -122.742L-63.1908 -143.7L-55.7984 -140.719C-53.6724 -139.882 -52.6609 -139.513 -52.0342 -138.631C-51.4076 -137.749 -51.2747 -136.653 -51.109 -134.457L-50.3161 -124.676C-49.8368 -118.688 -49.5801 -116.795 -49.1384 -115.407C-46.4152 -107.985 -40.8728 -106.65 -32.0917 -107.413C-23.2106 -108.179 -17.9728 -110.337 -16.6038 -118.081C-16.3458 -119.49 -16.4026 -121.389 -16.9819 -127.374L-18.2421 -142.743C-18.4078 -144.939 -18.5437 -146.136 -18.0708 -147.05C-17.5979 -147.965 -16.6163 -148.595 -14.7501 -149.751L-7.96981 -153.855L-5.77493 -127.309C-5.76596 -127.009 -5.75998 -126.809 -5.75101 -126.51C-5.30759 -121.721 -5.00002 -118.128 -5.607 -115.009C-8.28693 -100.922 -18.9655 -96.7011 -31.239 -95.6336C-43.5126 -94.566 -54.7883 -96.9299 -59.696 -110.489C-60.6883 -113.561 -60.9959 -117.153 -61.4393 -121.942Z" fill="url(#paint37_linear_3346_86985)"/>
<path fill-rule="evenodd" clip-rule="evenodd" d="M42.1251 -97.9287C41.8253 -97.9197 41.6254 -97.9137 41.3255 -97.9047L20.3439 -96.9769L23.53 -104.175C24.4697 -106.204 24.9396 -107.219 25.8213 -107.846C26.7029 -108.472 27.8024 -108.505 30.1014 -108.574L39.994 -108.97C45.9883 -109.249 47.8845 -109.406 49.2719 -109.848C56.8027 -112.274 58.3405 -117.722 57.9743 -126.615C57.6082 -135.509 55.5506 -140.749 47.8941 -142.521C46.4828 -142.879 44.5837 -142.822 38.5893 -142.543L23.2022 -141.882C21.0032 -141.817 19.8037 -141.781 18.8892 -142.254C17.9746 -142.726 17.4449 -143.711 16.2856 -145.677L12.4779 -152.566L39.057 -153.662C39.3569 -153.671 39.5568 -153.677 39.8567 -153.686C44.7515 -153.932 48.2499 -154.037 51.3725 -153.33C65.3739 -150.147 69.1013 -139.254 69.6691 -126.965C70.2369 -114.677 67.3702 -103.486 53.696 -99.0752C50.5184 -98.2798 46.92 -98.1722 42.1251 -97.9287Z" fill="url(#paint38_linear_3346_86985)"/>
<path fill-rule="evenodd" clip-rule="evenodd" d="M204.728 -284.175C204.934 -283.981 205.137 -283.887 205.443 -283.696L222.803 -271.91L215.917 -268.002C213.948 -266.943 212.966 -266.313 211.963 -266.383C210.861 -266.45 209.943 -267.023 208.102 -268.369L199.932 -273.927C194.93 -277.279 193.398 -278.333 191.983 -278.791C184.503 -281.369 180.007 -277.833 175.024 -270.48C170.042 -263.128 168.504 -257.68 173.587 -251.629C174.52 -250.556 176.055 -249.402 181.058 -246.05L193.824 -237.328C195.662 -236.082 196.583 -235.409 197.013 -234.422C197.442 -233.434 197.275 -232.329 197.041 -230.121L195.975 -222.285L173.918 -237.232C173.712 -237.426 173.509 -237.52 173.203 -237.711C169.221 -240.393 166.26 -242.406 164.186 -244.845C154.855 -255.771 158.331 -266.679 165.225 -276.99C172.12 -287.301 181.11 -294.473 194.653 -289.876C197.782 -288.969 200.743 -286.957 204.728 -284.175Z" fill="url(#paint39_linear_3346_86985)"/>
<path fill-rule="evenodd" clip-rule="evenodd" d="M205.751 -179.759C205.545 -179.953 205.439 -180.149 205.233 -180.343L191.549 -196.341L199.195 -198.271C201.379 -198.836 202.472 -199.069 203.481 -198.799C204.492 -198.429 205.216 -197.651 206.669 -195.893L213.097 -188.382C217.035 -183.798 218.277 -182.434 219.503 -181.571C226.038 -177.164 231.276 -179.322 238.005 -185.126C244.734 -190.929 247.693 -195.72 244.376 -202.924C243.737 -204.206 242.593 -205.672 238.654 -210.256L228.599 -221.961C227.149 -223.618 226.422 -224.497 226.29 -225.593C226.157 -226.69 226.527 -227.701 227.466 -229.73L230.55 -237.026L247.861 -216.835C248.067 -216.641 248.173 -216.444 248.379 -216.25C251.491 -212.541 253.871 -209.911 255.157 -207.048C261.249 -194.025 255.033 -184.435 245.671 -176.351C236.308 -168.267 225.742 -163.649 213.896 -171.699C211.243 -173.42 208.963 -176.053 205.751 -179.759Z" fill="url(#paint40_linear_3346_86985)"/>
<path fill-rule="evenodd" clip-rule="evenodd" d="M112.999 -287.133C113.298 -287.142 113.498 -287.148 113.798 -287.157L134.783 -287.985L131.497 -280.783C130.557 -278.754 130.087 -277.74 129.205 -277.113C128.324 -276.486 127.224 -276.454 124.925 -276.385L115.033 -275.989C109.038 -275.709 107.139 -275.652 105.752 -275.211C98.221 -272.784 96.6833 -267.336 97.0494 -258.443C97.4155 -249.55 99.3732 -244.306 107.133 -242.437C108.544 -242.079 110.443 -242.136 116.437 -242.416L131.924 -243.079C134.123 -243.145 135.323 -243.181 136.237 -242.708C137.152 -242.235 137.682 -241.25 138.741 -239.281L142.549 -232.392L115.97 -231.297C115.67 -231.288 115.47 -231.282 115.17 -231.273C110.275 -231.026 106.777 -230.922 103.654 -231.629C89.6498 -234.911 85.9254 -245.705 85.4546 -258.096C84.9838 -270.488 87.7535 -281.575 101.428 -285.986C104.605 -286.782 108.101 -286.986 112.999 -287.133Z" fill="url(#paint41_linear_3346_86985)"/>
<path fill-rule="evenodd" clip-rule="evenodd" d="M114.845 -362.522C114.545 -362.513 114.348 -362.407 114.048 -362.398L93.471 -357.981L95.4428 -365.643C95.9767 -367.86 96.2466 -368.868 97.0253 -369.592C97.804 -370.316 98.8976 -370.548 101.085 -371.014L110.726 -373.103C116.591 -374.379 118.478 -374.836 119.76 -375.475C126.755 -379.085 127.384 -384.807 125.524 -393.455C123.665 -402.103 120.817 -407.02 112.899 -407.484C111.497 -407.542 109.607 -407.185 103.739 -406.009L88.6298 -402.756C86.4427 -402.29 85.3492 -402.057 84.3377 -402.427C83.3262 -402.797 82.5996 -403.676 81.2463 -405.436L76.36 -411.593L102.405 -417.174C102.705 -417.183 102.902 -417.289 103.201 -417.298C107.972 -418.341 111.453 -419.046 114.56 -418.838C128.893 -417.967 134.396 -407.927 136.957 -395.898C139.52 -383.769 138.562 -372.335 125.853 -365.752C123.093 -364.369 119.616 -363.565 114.845 -362.522Z" fill="url(#paint42_linear_3346_86985)"/>
<path fill-rule="evenodd" clip-rule="evenodd" d="M49.13 -308.532C49.024 -308.729 48.8152 -309.023 48.7092 -309.22L36.785 -326.571L44.6546 -327.707C46.8476 -327.973 47.9411 -328.206 48.9556 -327.736C49.9701 -327.266 50.5967 -326.384 51.853 -324.521L57.3989 -316.383C60.8499 -311.384 61.8943 -309.915 63.0238 -308.948C69.0796 -303.827 74.5323 -305.491 81.7854 -310.51C89.1385 -315.532 92.5054 -320.035 89.9821 -327.463C89.5404 -328.85 88.493 -330.419 85.045 -335.318L76.26 -348.061C75.0037 -349.925 74.377 -350.806 74.3441 -351.906C74.3112 -353.005 74.884 -353.923 75.9237 -355.955L79.7186 -362.871L94.7821 -340.912C94.888 -340.715 95.0969 -340.421 95.2028 -340.224C97.9243 -336.204 100.013 -333.265 101.002 -330.293C105.71 -316.728 98.4737 -307.808 88.3787 -300.803C78.1837 -293.795 67.2843 -290.267 56.302 -299.543C53.9373 -301.673 51.9484 -304.615 49.13 -308.532Z" fill="url(#paint43_linear_3346_86985)"/>
<path fill-rule="evenodd" clip-rule="evenodd" d="M134.21 -106.486C134.016 -106.28 133.82 -106.175 133.626 -105.969L117.728 -92.2871L115.798 -99.9328C115.233 -102.117 115 -103.21 115.27 -104.219C115.64 -105.23 116.418 -105.954 118.176 -107.407L125.687 -113.835C130.271 -117.774 131.635 -119.015 132.498 -120.241C136.905 -126.776 134.747 -132.014 128.943 -138.743C123.14 -145.473 118.349 -148.431 111.148 -145.014C109.866 -144.375 108.4 -143.231 103.816 -139.292L92.1112 -129.238C90.4538 -127.787 89.5752 -127.061 88.4816 -126.828C87.3851 -126.695 86.3736 -127.065 84.3446 -128.005L77.0491 -131.088L97.2404 -148.399C97.4344 -148.605 97.6313 -148.711 97.8252 -148.917C101.531 -152.129 104.164 -154.409 107.027 -155.695C120.05 -161.788 129.637 -155.672 137.724 -146.209C145.811 -136.747 150.423 -126.38 142.376 -114.434C140.649 -111.981 137.916 -109.699 134.21 -106.486Z" fill="url(#paint44_linear_3346_86985)"/>
<path fill-rule="evenodd" clip-rule="evenodd" d="M176.601 -180.987C176.507 -180.785 176.316 -180.479 176.222 -180.276L165.866 -161.958L161.467 -168.529C160.211 -170.393 159.584 -171.274 159.551 -172.374C159.518 -173.473 160.091 -174.391 161.134 -176.323L165.98 -184.872C168.927 -190.062 169.775 -191.788 170.133 -193.199C172.005 -200.859 168.178 -205.046 160.544 -209.42C152.81 -213.791 147.273 -214.926 141.64 -209.255C140.571 -208.222 139.619 -206.593 136.673 -201.402L129.071 -187.969C127.929 -186.034 127.459 -185.02 126.474 -184.49C125.59 -183.963 124.387 -184.027 122.182 -184.161L114.268 -184.525L127.38 -207.727C127.474 -207.93 127.665 -208.236 127.759 -208.439C130.132 -212.712 131.841 -215.764 134.074 -218.032C144.174 -228.239 155.355 -225.672 166.142 -219.592C176.929 -213.512 184.88 -205.246 181.394 -191.335C180.684 -188.313 178.975 -185.26 176.601 -180.987Z" fill="url(#paint45_linear_3346_86985)"/>
<path fill-rule="evenodd" clip-rule="evenodd" d="M31.0748 -229.857C30.7719 -229.948 30.572 -229.942 30.2691 -230.033L9.90471 -235.226L15.0289 -241.182C16.4774 -242.927 17.2531 -243.75 18.2437 -244.08C19.2343 -244.41 20.3427 -244.143 22.5597 -243.609L32.1362 -241.194C37.9844 -239.668 39.7956 -239.322 41.2949 -239.367C49.1944 -239.503 52.2524 -244.297 54.3941 -252.965C56.5389 -261.533 56.1685 -267.224 49.3489 -271.122C48.1255 -271.886 46.3113 -272.332 40.4631 -273.858L25.4441 -277.61C23.2272 -278.144 22.2187 -278.414 21.3951 -279.19C20.6715 -279.968 20.4387 -281.062 19.9731 -283.249L18.2405 -291.001L44.0473 -284.47C44.3502 -284.379 44.5501 -284.385 44.853 -284.294C49.5897 -283.135 53.0181 -282.237 55.7677 -280.618C68.2865 -273.49 68.7274 -262.098 65.6848 -250.101C62.6422 -238.105 56.7321 -228.324 42.4355 -227.996C39.2399 -227.8 35.8115 -228.698 31.0748 -229.857Z" fill="url(#paint46_linear_3346_86985)"/>
<path fill-rule="evenodd" clip-rule="evenodd" d="M41.3687 -360.624C41.0718 -360.515 40.8719 -360.509 40.575 -360.4L20.3307 -354.892L21.8996 -362.642C22.3336 -364.856 22.6005 -365.965 23.2793 -366.685C23.9551 -367.506 25.0486 -367.739 27.2326 -368.304L36.7596 -370.89C42.5151 -372.463 44.3993 -373.02 45.5778 -373.755C52.3611 -377.76 52.6904 -383.472 50.3342 -392.006C47.9779 -400.539 44.9327 -405.35 37.0302 -405.314C35.6279 -405.372 33.7407 -404.915 27.9851 -403.342L13.0995 -399.295C10.9155 -398.73 9.82491 -398.397 8.81339 -398.767C7.80487 -399.037 7.07827 -399.916 5.5281 -401.57L0.247948 -407.515L25.951 -414.487C26.2478 -414.595 26.4477 -414.601 26.7446 -414.71C31.4096 -415.95 34.8811 -416.955 37.9857 -416.848C52.2943 -416.775 58.3878 -407.053 61.6453 -395.145C64.9029 -383.237 64.5471 -371.722 52.1591 -364.448C49.5052 -362.868 46.0307 -361.964 41.3687 -360.624Z" fill="url(#paint47_linear_3346_86985)"/>
<path fill-rule="evenodd" clip-rule="evenodd" d="M73.0671 -220.709C73.367 -220.718 73.5639 -220.824 73.8638 -220.833L94.5618 -224.553L92.3871 -216.985C91.7502 -214.865 91.4833 -213.757 90.7046 -213.033C89.9259 -212.309 88.8324 -212.076 86.6423 -211.711L76.9915 -209.921C71.1211 -208.845 69.2308 -208.489 67.9494 -207.85C60.8483 -204.436 60.0162 -198.809 61.6788 -190.055C63.2414 -181.297 65.9897 -176.377 73.8161 -175.611C75.2215 -175.453 77.1117 -175.81 82.9821 -176.886L98.2065 -179.642C100.397 -180.008 101.49 -180.241 102.502 -179.871C103.513 -179.501 104.14 -178.619 105.496 -176.759L110.288 -170.4L84.1197 -165.615C83.8198 -165.606 83.6229 -165.5 83.3231 -165.491C78.5462 -164.648 75.0657 -163.943 71.9551 -164.25C57.6106 -165.522 52.4018 -175.771 50.2378 -187.912C48.0737 -200.052 49.3321 -211.495 62.2527 -217.684C64.8097 -219.161 68.2902 -219.866 73.0671 -220.709Z" fill="url(#paint48_linear_3346_86985)"/>
<path fill-rule="evenodd" clip-rule="evenodd" d="M180.791 -104.479C180.588 -104.573 180.286 -104.663 180.083 -104.757L160.546 -112.377L166.391 -117.654C168.045 -119.204 168.924 -119.931 169.917 -120.16C170.911 -120.39 172.025 -119.923 174.051 -119.084L183.261 -115.557C188.827 -113.423 190.648 -112.777 192.053 -112.619C199.879 -111.853 203.549 -116.264 206.705 -124.462C209.861 -132.661 210.191 -138.373 203.847 -143.085C202.721 -143.952 200.997 -144.701 195.331 -146.832L180.958 -152.405C178.832 -153.242 177.821 -153.612 177.194 -154.493C176.567 -155.375 176.434 -156.471 176.269 -158.668L175.533 -166.549L200.333 -156.886C200.636 -156.795 200.838 -156.701 201.041 -156.607C205.596 -154.843 208.837 -153.539 211.392 -151.715C222.953 -143.157 221.995 -131.723 217.538 -120.184C213.081 -108.646 206.048 -99.6317 191.697 -101.103C188.584 -101.51 185.246 -102.711 180.791 -104.479Z" fill="url(#paint49_linear_3346_86985)"/>
<defs>
<linearGradient id="paint0_linear_3346_86985" x1="209.001" y1="232.5" x2="-260.275" y2="-265.491" gradientUnits="userSpaceOnUse">
<stop stop-color="white" stop-opacity="0"/>
<stop offset="1" stop-color="white"/>
</linearGradient>
<linearGradient id="paint1_linear_3346_86985" x1="209.001" y1="232.5" x2="-260.275" y2="-265.491" gradientUnits="userSpaceOnUse">
<stop stop-color="white" stop-opacity="0"/>
<stop offset="1" stop-color="white"/>
</linearGradient>
<linearGradient id="paint2_linear_3346_86985" x1="209.001" y1="232.5" x2="-260.275" y2="-265.491" gradientUnits="userSpaceOnUse">
<stop stop-color="white" stop-opacity="0"/>
<stop offset="1" stop-color="white"/>
</linearGradient>
<linearGradient id="paint3_linear_3346_86985" x1="209.001" y1="232.5" x2="-260.275" y2="-265.491" gradientUnits="userSpaceOnUse">
<stop stop-color="white" stop-opacity="0"/>
<stop offset="1" stop-color="white"/>
</linearGradient>
<linearGradient id="paint4_linear_3346_86985" x1="209.001" y1="232.5" x2="-260.275" y2="-265.491" gradientUnits="userSpaceOnUse">
<stop stop-color="white" stop-opacity="0"/>
<stop offset="1" stop-color="white"/>
</linearGradient>
<linearGradient id="paint5_linear_3346_86985" x1="209.001" y1="232.5" x2="-260.275" y2="-265.491" gradientUnits="userSpaceOnUse">
<stop stop-color="white" stop-opacity="0"/>
<stop offset="1" stop-color="white"/>
</linearGradient>
<linearGradient id="paint6_linear_3346_86985" x1="209.001" y1="232.5" x2="-260.275" y2="-265.491" gradientUnits="userSpaceOnUse">
<stop stop-color="white" stop-opacity="0"/>
<stop offset="1" stop-color="white"/>
</linearGradient>
<linearGradient id="paint7_linear_3346_86985" x1="209.001" y1="232.5" x2="-260.275" y2="-265.491" gradientUnits="userSpaceOnUse">
<stop stop-color="white" stop-opacity="0"/>
<stop offset="1" stop-color="white"/>
</linearGradient>
<linearGradient id="paint8_linear_3346_86985" x1="209.001" y1="232.5" x2="-260.275" y2="-265.491" gradientUnits="userSpaceOnUse">
<stop stop-color="white" stop-opacity="0"/>
<stop offset="1" stop-color="white"/>
</linearGradient>
<linearGradient id="paint9_linear_3346_86985" x1="209.001" y1="232.5" x2="-260.275" y2="-265.491" gradientUnits="userSpaceOnUse">
<stop stop-color="white" stop-opacity="0"/>
<stop offset="1" stop-color="white"/>
</linearGradient>
<linearGradient id="paint10_linear_3346_86985" x1="209.001" y1="232.5" x2="-260.275" y2="-265.491" gradientUnits="userSpaceOnUse">
<stop stop-color="white" stop-opacity="0"/>
<stop offset="1" stop-color="white"/>
</linearGradient>
<linearGradient id="paint11_linear_3346_86985" x1="209.001" y1="232.5" x2="-260.275" y2="-265.491" gradientUnits="userSpaceOnUse">
<stop stop-color="white" stop-opacity="0"/>
<stop offset="1" stop-color="white"/>
</linearGradient>
<linearGradient id="paint12_linear_3346_86985" x1="209.001" y1="232.5" x2="-260.275" y2="-265.491" gradientUnits="userSpaceOnUse">
<stop stop-color="white" stop-opacity="0"/>
<stop offset="1" stop-color="white"/>
</linearGradient>
<linearGradient id="paint13_linear_3346_86985" x1="209.001" y1="232.5" x2="-260.275" y2="-265.491" gradientUnits="userSpaceOnUse">
<stop stop-color="white" stop-opacity="0"/>
<stop offset="1" stop-color="white"/>
</linearGradient>
<linearGradient id="paint14_linear_3346_86985" x1="209.001" y1="232.5" x2="-260.275" y2="-265.491" gradientUnits="userSpaceOnUse">
<stop stop-color="white" stop-opacity="0"/>
<stop offset="1" stop-color="white"/>
</linearGradient>
<linearGradient id="paint15_linear_3346_86985" x1="209.001" y1="232.5" x2="-260.275" y2="-265.491" gradientUnits="userSpaceOnUse">
<stop stop-color="white" stop-opacity="0"/>
<stop offset="1" stop-color="white"/>
</linearGradient>
<linearGradient id="paint16_linear_3346_86985" x1="209.001" y1="232.5" x2="-260.275" y2="-265.491" gradientUnits="userSpaceOnUse">
<stop stop-color="white" stop-opacity="0"/>
<stop offset="1" stop-color="white"/>
</linearGradient>
<linearGradient id="paint17_linear_3346_86985" x1="209.001" y1="232.5" x2="-260.275" y2="-265.491" gradientUnits="userSpaceOnUse">
<stop stop-color="white" stop-opacity="0"/>
<stop offset="1" stop-color="white"/>
</linearGradient>
<linearGradient id="paint18_linear_3346_86985" x1="209.001" y1="232.5" x2="-260.275" y2="-265.491" gradientUnits="userSpaceOnUse">
<stop stop-color="white" stop-opacity="0"/>
<stop offset="1" stop-color="white"/>
</linearGradient>
<linearGradient id="paint19_linear_3346_86985" x1="209.001" y1="232.5" x2="-260.275" y2="-265.491" gradientUnits="userSpaceOnUse">
<stop stop-color="white" stop-opacity="0"/>
<stop offset="1" stop-color="white"/>
</linearGradient>
<linearGradient id="paint20_linear_3346_86985" x1="209.001" y1="232.5" x2="-260.275" y2="-265.491" gradientUnits="userSpaceOnUse">
<stop stop-color="white" stop-opacity="0"/>
<stop offset="1" stop-color="white"/>
</linearGradient>
<linearGradient id="paint21_linear_3346_86985" x1="209.001" y1="232.5" x2="-260.275" y2="-265.491" gradientUnits="userSpaceOnUse">
<stop stop-color="white" stop-opacity="0"/>
<stop offset="1" stop-color="white"/>
</linearGradient>
<linearGradient id="paint22_linear_3346_86985" x1="209.001" y1="232.5" x2="-260.275" y2="-265.491" gradientUnits="userSpaceOnUse">
<stop stop-color="white" stop-opacity="0"/>
<stop offset="1" stop-color="white"/>
</linearGradient>
<linearGradient id="paint23_linear_3346_86985" x1="209.001" y1="232.5" x2="-260.275" y2="-265.491" gradientUnits="userSpaceOnUse">
<stop stop-color="white" stop-opacity="0"/>
<stop offset="1" stop-color="white"/>
</linearGradient>
<linearGradient id="paint24_linear_3346_86985" x1="209.001" y1="232.5" x2="-260.275" y2="-265.491" gradientUnits="userSpaceOnUse">
<stop stop-color="white" stop-opacity="0"/>
<stop offset="1" stop-color="white"/>
</linearGradient>
<linearGradient id="paint25_linear_3346_86985" x1="209.001" y1="232.5" x2="-260.275" y2="-265.491" gradientUnits="userSpaceOnUse">
<stop stop-color="white" stop-opacity="0"/>
<stop offset="1" stop-color="white"/>
</linearGradient>
<linearGradient id="paint26_linear_3346_86985" x1="209.001" y1="232.5" x2="-260.275" y2="-265.491" gradientUnits="userSpaceOnUse">
<stop stop-color="white" stop-opacity="0"/>
<stop offset="1" stop-color="white"/>
</linearGradient>
<linearGradient id="paint27_linear_3346_86985" x1="209.001" y1="232.5" x2="-260.275" y2="-265.491" gradientUnits="userSpaceOnUse">
<stop stop-color="white" stop-opacity="0"/>
<stop offset="1" stop-color="white"/>
</linearGradient>
<linearGradient id="paint28_linear_3346_86985" x1="209.001" y1="232.5" x2="-260.275" y2="-265.491" gradientUnits="userSpaceOnUse">
<stop stop-color="white" stop-opacity="0"/>
<stop offset="1" stop-color="white"/>
</linearGradient>
<linearGradient id="paint29_linear_3346_86985" x1="209.001" y1="232.5" x2="-260.275" y2="-265.491" gradientUnits="userSpaceOnUse">
<stop stop-color="white" stop-opacity="0"/>
<stop offset="1" stop-color="white"/>
</linearGradient>
<linearGradient id="paint30_linear_3346_86985" x1="209.001" y1="232.5" x2="-260.275" y2="-265.491" gradientUnits="userSpaceOnUse">
<stop stop-color="white" stop-opacity="0"/>
<stop offset="1" stop-color="white"/>
</linearGradient>
<linearGradient id="paint31_linear_3346_86985" x1="209.001" y1="232.5" x2="-260.275" y2="-265.491" gradientUnits="userSpaceOnUse">
<stop stop-color="white" stop-opacity="0"/>
<stop offset="1" stop-color="white"/>
</linearGradient>
<linearGradient id="paint32_linear_3346_86985" x1="209.001" y1="232.5" x2="-260.275" y2="-265.491" gradientUnits="userSpaceOnUse">
<stop stop-color="white" stop-opacity="0"/>
<stop offset="1" stop-color="white"/>
</linearGradient>
<linearGradient id="paint33_linear_3346_86985" x1="209.001" y1="232.5" x2="-260.275" y2="-265.491" gradientUnits="userSpaceOnUse">
<stop stop-color="white" stop-opacity="0"/>
<stop offset="1" stop-color="white"/>
</linearGradient>
<linearGradient id="paint34_linear_3346_86985" x1="209.001" y1="232.5" x2="-260.275" y2="-265.491" gradientUnits="userSpaceOnUse">
<stop stop-color="white" stop-opacity="0"/>
<stop offset="1" stop-color="white"/>
</linearGradient>
<linearGradient id="paint35_linear_3346_86985" x1="209.001" y1="232.5" x2="-260.275" y2="-265.491" gradientUnits="userSpaceOnUse">
<stop stop-color="white" stop-opacity="0"/>
<stop offset="1" stop-color="white"/>
</linearGradient>
<linearGradient id="paint36_linear_3346_86985" x1="209.001" y1="232.5" x2="-260.275" y2="-265.491" gradientUnits="userSpaceOnUse">
<stop stop-color="white" stop-opacity="0"/>
<stop offset="1" stop-color="white"/>
</linearGradient>
<linearGradient id="paint37_linear_3346_86985" x1="209.001" y1="232.5" x2="-260.275" y2="-265.491" gradientUnits="userSpaceOnUse">
<stop stop-color="white" stop-opacity="0"/>
<stop offset="1" stop-color="white"/>
</linearGradient>
<linearGradient id="paint38_linear_3346_86985" x1="209.001" y1="232.5" x2="-260.275" y2="-265.491" gradientUnits="userSpaceOnUse">
<stop stop-color="white" stop-opacity="0"/>
<stop offset="1" stop-color="white"/>
</linearGradient>
<linearGradient id="paint39_linear_3346_86985" x1="209.001" y1="232.5" x2="-260.275" y2="-265.491" gradientUnits="userSpaceOnUse">
<stop stop-color="white" stop-opacity="0"/>
<stop offset="1" stop-color="white"/>
</linearGradient>
<linearGradient id="paint40_linear_3346_86985" x1="209.001" y1="232.5" x2="-260.275" y2="-265.491" gradientUnits="userSpaceOnUse">
<stop stop-color="white" stop-opacity="0"/>
<stop offset="1" stop-color="white"/>
</linearGradient>
<linearGradient id="paint41_linear_3346_86985" x1="209.001" y1="232.5" x2="-260.275" y2="-265.491" gradientUnits="userSpaceOnUse">
<stop stop-color="white" stop-opacity="0"/>
<stop offset="1" stop-color="white"/>
</linearGradient>
<linearGradient id="paint42_linear_3346_86985" x1="209.001" y1="232.5" x2="-260.275" y2="-265.491" gradientUnits="userSpaceOnUse">
<stop stop-color="white" stop-opacity="0"/>
<stop offset="1" stop-color="white"/>
</linearGradient>
<linearGradient id="paint43_linear_3346_86985" x1="209.001" y1="232.5" x2="-260.275" y2="-265.491" gradientUnits="userSpaceOnUse">
<stop stop-color="white" stop-opacity="0"/>
<stop offset="1" stop-color="white"/>
</linearGradient>
<linearGradient id="paint44_linear_3346_86985" x1="209.001" y1="232.5" x2="-260.275" y2="-265.491" gradientUnits="userSpaceOnUse">
<stop stop-color="white" stop-opacity="0"/>
<stop offset="1" stop-color="white"/>
</linearGradient>
<linearGradient id="paint45_linear_3346_86985" x1="209.001" y1="232.5" x2="-260.275" y2="-265.491" gradientUnits="userSpaceOnUse">
<stop stop-color="white" stop-opacity="0"/>
<stop offset="1" stop-color="white"/>
</linearGradient>
<linearGradient id="paint46_linear_3346_86985" x1="209.001" y1="232.5" x2="-260.275" y2="-265.491" gradientUnits="userSpaceOnUse">
<stop stop-color="white" stop-opacity="0"/>
<stop offset="1" stop-color="white"/>
</linearGradient>
<linearGradient id="paint47_linear_3346_86985" x1="209.001" y1="232.5" x2="-260.275" y2="-265.491" gradientUnits="userSpaceOnUse">
<stop stop-color="white" stop-opacity="0"/>
<stop offset="1" stop-color="white"/>
</linearGradient>
<linearGradient id="paint48_linear_3346_86985" x1="209.001" y1="232.5" x2="-260.275" y2="-265.491" gradientUnits="userSpaceOnUse">
<stop stop-color="white" stop-opacity="0"/>
<stop offset="1" stop-color="white"/>
</linearGradient>
<linearGradient id="paint49_linear_3346_86985" x1="209.001" y1="232.5" x2="-260.275" y2="-265.491" gradientUnits="userSpaceOnUse">
<stop stop-color="white" stop-opacity="0"/>
<stop offset="1" stop-color="white"/>
</linearGradient>
</defs>
</svg>
