<svg xmlns="http://www.w3.org/2000/svg" width="229" height="288" viewBox="0 0 229 288" fill="none">
    <g opacity="0.5">
      <path fill-rule="evenodd" clip-rule="evenodd" d="M-79.5574 -23.4545C-79.7539 -23.3561 -80.0487 -23.2578 -80.2452 -23.0611L-98.6211 -13.6211L-92.332 -8.99936C-90.5632 -7.72102 -89.6788 -7.0327 -88.5979 -6.93437C-87.517 -6.83603 -86.5343 -7.3277 -84.569 -8.40938L-75.9215 -12.8344C-70.7134 -15.5877 -69.0428 -16.3744 -67.5688 -16.6694C-60.0023 -18.2428 -55.9734 -14.3094 -52.0427 -6.54102C-48.0138 1.22736 -47.1294 6.73402 -52.9271 11.9457C-54.0081 12.9291 -55.5803 13.8141 -60.8867 16.4691L-74.3492 23.4508C-76.3146 24.4341 -77.2972 24.9258 -77.7886 25.8108C-78.2799 26.6958 -78.2799 27.7775 -78.2799 30.0392L-78.1816 37.8075L-54.8925 25.8108C-54.6959 25.7125 -54.4011 25.6141 -54.2046 25.4175C-49.9791 23.2541 -46.8346 21.6808 -44.5744 19.5174C-34.1582 9.97906 -36.2218 -1.13266 -41.823 -11.9494C-47.4242 -22.7661 -55.1873 -30.9278 -69.0428 -27.9778C-72.2856 -27.2895 -75.3319 -25.6178 -79.5574 -23.4545Z" fill="url(#paint0_radial_3470_82070)"/>
      <path fill-rule="evenodd" clip-rule="evenodd" d="M13.8942 15.0924C13.6977 14.8957 13.5012 14.7974 13.3046 14.6007L-3.00763 1.91566L-4.57991 9.58571C-4.97298 11.7491 -5.26778 12.8307 -4.87471 13.8141C-4.48164 14.7974 -3.59724 15.4857 -1.92671 16.8624L5.7381 22.8608C10.3566 26.4991 11.8306 27.6791 12.715 28.8591C17.3336 35.0542 15.4665 40.3642 10.0618 47.2476C4.65715 54.1309 0.03862 57.2776 -7.13484 54.2292C-8.41231 53.6392 -9.88631 52.5576 -14.6031 48.9192L-26.5917 39.5775C-28.3604 38.2008 -29.2449 37.5125 -30.2275 37.4142C-31.3085 37.3158 -32.2911 37.8075 -34.2565 38.6925L-41.2334 42.0359L-20.5974 58.1626C-20.4008 58.3593 -20.2043 58.4576 -20.0078 58.6543C-16.2736 61.6043 -13.5222 63.7676 -10.6724 64.9476C2.39703 70.356 11.5358 63.866 19.0041 54.2292C26.4724 44.5925 30.5996 34.1691 22.1486 22.7624C20.3798 20.1074 17.6284 18.0424 13.8942 15.0924Z" fill="url(#paint1_radial_3470_82070)"/>
      <path fill-rule="evenodd" clip-rule="evenodd" d="M-48.8982 -51.7746C-48.7017 -51.9713 -48.5051 -52.0696 -48.3086 -52.2663L-32.0946 -65.0497L-39.1698 -68.2947C-41.1351 -69.1797 -42.2161 -69.6713 -43.1987 -69.573C-44.2797 -69.4747 -45.0658 -68.7863 -46.8346 -67.4097L-54.4012 -61.4113C-59.0197 -57.7729 -60.4937 -56.5929 -61.7711 -56.1013C-68.9446 -53.0529 -73.5631 -56.1013 -78.9678 -62.9846C-84.3725 -69.7697 -86.3378 -75.0797 -81.7193 -81.2747C-80.8349 -82.4547 -79.4591 -83.6347 -74.8406 -87.2731L-62.9503 -96.7131C-61.1815 -98.0898 -60.3954 -98.7781 -60.0023 -99.7615C-59.6093 -100.745 -59.9041 -101.826 -60.2971 -103.99L-61.8694 -111.562L-82.3089 -95.3365C-82.5054 -95.1398 -82.7019 -95.0415 -82.8985 -94.8448C-86.6326 -91.8948 -89.3841 -89.7314 -91.2512 -87.1748C-99.6038 -75.768 -95.3784 -65.3447 -87.8118 -55.8063C-80.2453 -46.2679 -71.0082 -39.8762 -58.037 -45.3829C-55.3838 -46.6612 -52.6323 -48.8246 -48.8982 -51.7746Z" fill="url(#paint2_radial_3470_82070)"/>
      <path fill-rule="evenodd" clip-rule="evenodd" d="M-158.367 -106.252C-158.367 -105.957 -158.269 -105.76 -158.269 -105.465L-154.83 -85.1097L-148.541 -89.7314C-146.772 -91.0098 -145.887 -91.6981 -145.494 -92.6814C-145.101 -93.6648 -145.298 -94.7465 -145.691 -96.9098L-147.263 -106.448C-148.246 -112.25 -148.541 -114.118 -148.344 -115.495C-147.558 -123.165 -142.645 -125.82 -133.997 -127.295C-125.35 -128.77 -119.847 -127.885 -116.604 -120.903C-116.014 -119.625 -115.621 -117.757 -114.639 -111.955L-112.084 -97.0081C-111.691 -94.8448 -111.494 -93.7631 -110.806 -92.9765C-110.118 -92.1898 -109.037 -91.8948 -106.974 -91.2064L-99.5056 -88.9448L-103.829 -114.708C-103.829 -115.003 -103.928 -115.2 -103.928 -115.495C-104.714 -120.215 -105.303 -123.657 -106.581 -126.508C-112.575 -139.292 -123.679 -140.668 -135.668 -138.702C-147.656 -136.735 -157.778 -131.72 -159.153 -117.658C-159.743 -114.315 -159.153 -110.873 -158.367 -106.252Z" fill="url(#paint3_radial_3470_82070)"/>
      <path fill-rule="evenodd" clip-rule="evenodd" d="M-129.477 63.571C-129.182 63.571 -128.986 63.571 -128.691 63.571L-108.055 62.5876L-111.887 55.8026C-112.968 53.8359 -113.459 52.9509 -114.442 52.3609C-115.326 51.8692 -116.407 51.8692 -118.668 51.9676L-128.298 52.4592C-134.194 52.7542 -136.061 52.7542 -137.436 52.4592C-145.003 50.7876 -146.968 45.4775 -147.361 36.8242C-147.754 28.0724 -146.28 22.7624 -138.91 20.3041C-137.535 19.9108 -135.668 19.7141 -129.772 19.4191L-114.639 18.7307C-112.477 18.6324 -111.298 18.5341 -110.511 17.9441C-109.627 17.3541 -109.234 16.3707 -108.35 14.3057L-105.205 7.22569L-131.344 8.4057C-131.639 8.4057 -131.835 8.4057 -132.13 8.4057C-136.847 8.60237 -140.384 8.79903 -143.332 9.78236C-156.697 14.2074 -159.448 25.1225 -158.957 37.2175C-158.466 49.3126 -154.633 60.0309 -140.876 63.0793C-137.731 63.9643 -134.292 63.866 -129.477 63.571Z" fill="url(#paint4_radial_3470_82070)"/>
      <path fill-rule="evenodd" clip-rule="evenodd" d="M-363.45 46.8542C-363.352 46.6575 -363.253 46.3625 -363.155 46.1659L-354.704 27.2858L-362.467 27.5808C-364.629 27.6791 -365.808 27.6791 -366.594 28.2691C-367.479 28.8591 -367.872 29.8425 -368.855 31.9075L-372.785 40.7575C-375.242 46.1659 -376.028 47.8376 -376.912 48.9192C-381.826 54.9176 -387.427 54.3276 -395.387 50.7876C-403.346 47.2475 -407.473 43.5109 -406.294 35.8408C-406.098 34.4642 -405.41 32.6942 -402.953 27.2858L-396.762 13.4207C-395.878 11.3557 -395.387 10.3724 -395.583 9.38904C-395.681 8.30737 -396.467 7.52071 -397.843 5.75069L-402.757 -0.247681L-413.468 23.6474C-413.566 23.8441 -413.664 24.1391 -413.762 24.3358C-415.728 28.6625 -417.103 31.9075 -417.595 34.9558C-419.757 48.9192 -411.207 56.2943 -400.103 61.211C-388.999 66.1276 -377.797 67.6026 -368.855 56.7859C-366.791 54.4259 -365.415 51.1809 -363.45 46.8542Z" fill="url(#paint5_radial_3470_82070)"/>
      <path fill-rule="evenodd" clip-rule="evenodd" d="M54.5766 -100.45C54.2818 -100.351 54.0853 -100.351 53.7905 -100.253L33.8424 -94.9431L38.9522 -89.1414C40.4262 -87.4698 41.1141 -86.6831 42.0968 -86.3881C43.0794 -86.0931 44.1604 -86.3881 46.3222 -86.9781L55.6576 -89.4364C61.357 -90.9114 63.1258 -91.4031 64.5998 -91.4031C72.3629 -91.3048 75.4092 -86.6831 77.6693 -78.2264C79.9294 -69.7697 79.5364 -64.263 72.8542 -60.3296C71.5768 -59.6413 69.808 -59.0513 64.1085 -57.5763L49.4668 -53.6429C47.3049 -53.0529 46.224 -52.7579 45.5361 -52.0696C44.8482 -51.2829 44.5534 -50.2013 44.1604 -48.0379L42.5881 -40.4662L67.8426 -47.1529C68.1374 -47.2512 68.334 -47.2512 68.6288 -47.3496C73.2473 -48.5296 76.5884 -49.4146 79.3398 -50.9879C91.5249 -58.0679 91.918 -69.3763 88.7734 -81.0781C85.6289 -92.7798 79.7329 -102.416 65.6808 -102.613C62.6345 -102.613 59.1952 -101.728 54.5766 -100.45Z" fill="url(#paint6_radial_3470_82070)"/>
      <path fill-rule="evenodd" clip-rule="evenodd" d="M24.114 -30.0428C24.2122 -30.3378 24.2122 -30.5345 24.3105 -30.8295L29.7152 -50.7912L22.1486 -49.2179C19.9868 -48.8246 18.9058 -48.5296 18.1197 -47.8412C17.3336 -47.1529 17.0388 -46.0712 16.4492 -43.9079L13.8942 -34.5662C12.322 -28.8628 11.8306 -27.0928 11.1428 -25.8145C7.2121 -19.1278 1.6109 -18.8328 -6.74178 -21.0944C-15.1927 -23.3561 -19.8112 -26.4045 -19.9095 -34.1728C-19.9095 -35.5495 -19.5164 -37.4179 -17.9442 -43.1212L-14.0135 -57.7729C-13.4239 -59.9363 -13.1291 -61.018 -13.4239 -62.0013C-13.7187 -62.9846 -14.5049 -63.7713 -16.1754 -65.2463L-21.9731 -70.458L-28.7535 -45.1862C-28.8518 -44.8912 -28.8518 -44.6945 -28.95 -44.3996C-30.2275 -39.7779 -31.1119 -36.4345 -31.1119 -33.2878C-31.0137 -19.1278 -21.4818 -13.2277 -9.68977 -10.0811C2.00397 -6.93437 13.3046 -7.22939 20.4781 -19.4228C21.9521 -22.0778 22.8365 -25.4211 24.114 -30.0428Z" fill="url(#paint7_radial_3470_82070)"/>
      <path fill-rule="evenodd" clip-rule="evenodd" d="M-79.7539 -170.857C-79.9505 -170.758 -80.2453 -170.66 -80.4418 -170.463L-98.7194 -160.925L-92.4303 -156.402C-90.6615 -155.123 -89.7771 -154.435 -88.6962 -154.435C-87.6153 -154.337 -86.6326 -154.828 -84.7655 -155.91L-76.2163 -160.433C-71.0082 -163.187 -69.3377 -163.973 -67.9619 -164.268C-60.3954 -165.94 -56.3665 -162.007 -52.3375 -154.337C-48.3086 -146.667 -47.4242 -141.062 -53.0254 -135.85C-54.1063 -134.867 -55.6786 -133.982 -60.8867 -131.228L-74.3493 -124.148C-76.3146 -123.165 -77.2973 -122.575 -77.7886 -121.69C-78.2799 -120.805 -78.2799 -119.723 -78.2799 -117.462L-78.1817 -109.693L-54.9907 -121.788C-54.7942 -121.887 -54.4994 -122.083 -54.3029 -122.182C-50.0774 -124.345 -47.0311 -126.017 -44.6727 -128.18C-34.3547 -137.817 -36.5166 -148.928 -42.1178 -159.647C-47.719 -170.365 -55.5803 -178.33 -69.4359 -175.38C-72.4822 -174.692 -75.5285 -173.119 -79.7539 -170.857Z" fill="url(#paint8_radial_3470_82070)"/>
      <path fill-rule="evenodd" clip-rule="evenodd" d="M-158.859 -36.5329C-158.859 -36.2378 -158.859 -36.0412 -158.859 -35.7462L-158.466 -15.0961L-151.587 -18.7344C-149.622 -19.7178 -148.639 -20.3078 -148.148 -21.1928C-147.656 -22.0778 -147.656 -23.1594 -147.656 -25.4211L-147.853 -35.1562C-147.951 -41.0562 -147.951 -42.9245 -147.558 -44.3012C-145.691 -51.7746 -140.384 -53.6429 -131.639 -53.8396C-122.893 -54.0363 -117.587 -52.3646 -115.425 -44.8912C-115.032 -43.5145 -114.933 -41.6462 -114.835 -35.7462L-114.54 -20.6028C-114.54 -18.4394 -114.442 -17.2594 -113.951 -16.3744C-113.361 -15.4894 -112.378 -14.9977 -110.413 -14.1127L-103.436 -10.7694L-103.928 -36.9262C-103.928 -37.2212 -103.928 -37.4179 -103.928 -37.7129C-104.026 -42.5312 -104.124 -45.9729 -105.008 -48.9229C-109.037 -62.493 -119.847 -65.5413 -132.032 -65.2463C-144.217 -65.0496 -154.928 -61.608 -158.367 -47.8412C-158.957 -44.7929 -158.957 -41.2529 -158.859 -36.5329Z" fill="url(#paint9_radial_3470_82070)"/>
      <path fill-rule="evenodd" clip-rule="evenodd" d="M86.5133 -13.2277C86.415 -13.4244 86.3168 -13.7194 86.1202 -13.9161L76.7849 -32.3045L72.1664 -26.1095C70.8889 -24.3395 70.201 -23.4545 70.1028 -22.3728C70.0045 -21.2911 70.4958 -20.3078 71.4785 -18.3411L75.8022 -9.68773C78.4554 -4.3777 79.2416 -2.70602 79.5364 -1.32936C81.1086 6.24234 77.0797 10.274 69.3166 14.2074C61.5536 18.1407 56.0506 19.0257 50.8425 13.224C49.8598 12.1424 48.9754 10.569 46.3222 5.25902L39.4436 -8.31105C38.4609 -10.2777 37.9696 -11.2611 37.0852 -11.8511C36.2008 -12.4411 35.1198 -12.3427 32.8597 -12.3427H25.0966L36.8886 10.9624C36.9869 11.159 37.0852 11.4541 37.2817 11.6507C39.4436 15.8791 41.0158 19.0257 43.0794 21.2874C52.513 31.7108 63.6172 29.7441 74.5248 24.2374C85.3341 18.7307 93.5885 10.9624 90.7388 -2.90269C90.2474 -5.85271 88.6752 -8.90105 86.5133 -13.2277Z" fill="url(#paint10_radial_3470_82070)"/>
      <path fill-rule="evenodd" clip-rule="evenodd" d="M-90.2685 235.852C-90.1702 236.048 -89.9737 236.343 -89.8754 236.54L-79.8522 254.634L-75.4302 248.242C-74.1527 246.374 -73.5631 245.488 -73.4649 244.505C-73.4649 243.423 -73.9562 242.538 -75.0371 240.572L-79.7539 232.115C-82.6037 226.903 -83.4881 225.33 -83.7829 223.953C-85.6499 216.382 -81.8175 212.35 -74.1527 208.122C-66.4879 203.893 -61.0833 202.812 -55.5803 208.417C-54.5977 209.4 -53.615 211.072 -50.7653 216.185L-43.3953 229.46C-42.3143 231.427 -41.823 232.312 -40.8403 232.902C-39.9559 233.393 -38.875 233.393 -36.6149 233.295L-28.8518 233L-41.5282 210.088C-41.6265 209.892 -41.823 209.597 -41.9213 209.4C-44.1814 205.27 -45.9502 202.222 -48.1121 199.96C-57.9387 189.832 -68.9446 192.29 -79.6557 198.19C-90.2685 204.09 -98.1298 212.153 -94.887 225.92C-94.2974 228.575 -92.6269 231.623 -90.2685 235.852Z" fill="url(#paint11_radial_3470_82070)"/>
      <path fill-rule="evenodd" clip-rule="evenodd" d="M-30.1293 257.682C-30.1293 257.977 -30.1293 258.174 -30.1293 258.469L-31.1119 279.119L-24.0367 275.972C-21.9731 275.087 -20.9905 274.595 -20.4009 273.809C-19.8113 272.924 -19.8113 271.842 -19.6147 269.679L-19.1234 260.042C-18.8286 254.142 -18.7303 252.274 -18.239 250.897C-15.8806 243.522 -10.4759 242.047 -1.73019 242.44C7.01553 242.833 12.2237 244.8 13.8942 252.372C14.189 253.749 14.189 255.617 13.8942 261.517L13.2064 276.66C13.1081 278.824 13.0098 280.004 13.5994 280.889C14.0907 281.774 15.0734 282.364 17.0387 283.445L23.8191 287.28L24.9984 261.124C24.9984 260.829 24.9984 260.632 24.9984 260.337C25.1949 255.617 25.3914 252.077 24.7036 249.029C21.559 235.262 10.9462 231.525 -1.14059 230.935C-13.3257 230.345 -24.2332 233.098 -28.557 246.57C-29.7362 249.422 -29.9327 252.962 -30.1293 257.682Z" fill="url(#paint12_radial_3470_82070)"/>
      <path fill-rule="evenodd" clip-rule="evenodd" d="M-71.9909 121.293C-72.2857 121.293 -72.4822 121.391 -72.777 121.391L-93.1182 125.128L-88.4014 131.323C-87.1239 133.093 -86.4361 133.978 -85.4534 134.371C-84.4707 134.765 -83.3898 134.568 -81.2279 134.175L-71.696 132.405C-65.8983 131.323 -64.0313 131.028 -62.6555 131.225C-54.8925 131.913 -52.2393 136.83 -50.667 145.385C-49.0947 153.94 -49.8809 159.545 -56.8578 162.888C-58.1353 163.478 -59.9041 163.871 -65.8 164.953L-80.7366 167.706C-82.8985 168.1 -83.9794 168.296 -84.7655 168.985C-85.5517 169.673 -85.8465 170.755 -86.4361 172.82L-88.5979 180.293L-62.8521 175.573C-62.5573 175.573 -62.3607 175.475 -62.0659 175.475C-57.3491 174.59 -53.9098 174 -51.1583 172.623C-38.4819 166.526 -37.2045 155.316 -39.3663 143.32C-41.5282 131.323 -46.6381 121.293 -60.6902 120.113C-63.933 119.72 -67.2741 120.408 -71.9909 121.293Z" fill="url(#paint13_radial_3470_82070)"/>
      <path fill-rule="evenodd" clip-rule="evenodd" d="M-132.228 137.42C-131.934 137.42 -131.737 137.42 -131.442 137.42L-110.806 138.501L-113.852 131.323C-114.737 129.258 -115.13 128.275 -116.014 127.685C-116.899 127.095 -117.98 126.996 -120.142 126.898L-129.772 126.406C-135.668 126.111 -137.535 125.915 -138.91 125.521C-146.28 123.063 -147.754 117.655 -147.263 109.001C-146.772 100.249 -144.806 95.0378 -137.142 93.4644C-135.766 93.1694 -133.899 93.1694 -128.003 93.5628L-112.87 94.3495C-110.708 94.4478 -109.529 94.5461 -108.644 94.0544C-107.76 93.5628 -107.17 92.5794 -106.089 90.7111L-102.257 83.9261L-128.396 82.5494C-128.691 82.5494 -128.887 82.5494 -129.182 82.5494C-133.899 82.2544 -137.436 82.0577 -140.483 82.7461C-154.24 85.7944 -158.072 96.3161 -158.76 108.51C-159.448 120.605 -156.795 131.618 -143.431 136.141C-140.483 136.928 -137.043 137.125 -132.228 137.42Z" fill="url(#paint14_radial_3470_82070)"/>
      <path fill-rule="evenodd" clip-rule="evenodd" d="M68.8253 120.506C68.5305 120.408 68.334 120.408 68.0392 120.31L48.091 114.901L49.6633 122.473C50.0564 124.636 50.3512 125.718 51.039 126.505C51.7269 127.291 52.8078 127.586 54.9697 128.078L64.305 130.635C70.0045 132.208 71.7733 132.7 73.0508 133.388C79.7329 137.321 80.0277 142.926 77.7676 151.285C75.5074 159.643 72.4612 164.363 64.6981 164.461C63.3224 164.461 61.4553 164.068 55.7558 162.495L41.1141 158.561C38.9522 157.971 37.8713 157.676 36.8886 157.971C35.906 158.266 35.1198 159.053 33.6458 160.725L28.4377 166.526L53.6922 173.311C53.987 173.41 54.1836 173.41 54.4784 173.508C59.0969 174.786 62.438 175.672 65.5825 175.672C79.7329 175.573 85.6289 166.035 88.7734 154.235C91.918 142.533 91.6232 131.225 79.4381 124.046C76.7849 122.67 73.4438 121.785 68.8253 120.506Z" fill="url(#paint15_radial_3470_82070)"/>
      <path fill-rule="evenodd" clip-rule="evenodd" d="M46.224 95.9228C46.4205 96.1194 46.617 96.2178 46.8136 96.4144L63.3224 108.805L64.6981 101.134C65.0912 98.9711 65.2877 97.8894 64.8946 96.9061C64.5016 95.9228 63.6172 95.2344 61.8484 93.9561L54.0853 88.1544C49.3685 84.6144 47.8945 83.4344 47.0101 82.3527C42.2933 76.256 44.0621 70.946 49.2702 63.9643C54.4784 56.9826 59.0969 53.7376 66.2704 56.5893C67.5479 57.0809 69.1201 58.1626 73.8369 61.7026L86.022 70.7493C87.7908 72.0277 88.6752 72.716 89.7561 72.8143C90.8371 72.9127 91.8197 72.421 93.785 71.4377L100.762 67.8977L79.8312 52.2626C79.6346 52.0659 79.4381 51.9676 79.2416 51.7709C75.4092 48.9192 72.6577 46.8542 69.7097 45.6742C56.542 40.5609 47.5014 47.2475 40.2297 56.9826C32.958 66.7176 29.1256 77.3377 37.773 88.4494C39.6401 91.0061 42.3916 93.0711 46.224 95.9228Z" fill="url(#paint16_radial_3470_82070)"/>
      <path fill-rule="evenodd" clip-rule="evenodd" d="M-20.8922 205.172C-20.6956 205.368 -20.4991 205.565 -20.3026 205.663L-5.16951 219.725L-3.00763 212.252C-2.41803 210.088 -2.12323 209.105 -2.31976 208.023C-2.61456 207.04 -3.40071 206.253 -5.07124 204.778L-12.1464 198.19C-16.4702 194.158 -17.8459 192.88 -18.5338 191.7C-22.661 185.112 -20.3026 179.998 -14.4066 173.606C-8.51057 167.215 -3.59724 164.461 3.28143 168.1C4.5589 168.788 5.93463 169.968 10.2584 174L21.3625 184.325C22.9348 185.8 23.8192 186.587 24.8018 186.783C25.7845 186.98 26.8654 186.587 28.929 185.8L36.2008 183.047L17.0388 165.248C16.8422 165.051 16.6457 164.855 16.4492 164.658C12.9116 161.413 10.3566 159.053 7.60515 157.578C-4.87471 151.088 -14.6031 156.791 -22.8575 165.74C-31.1119 174.688 -36.1235 184.817 -28.6553 196.813C-26.9847 199.567 -24.4298 201.927 -20.8922 205.172Z" fill="url(#paint17_radial_3470_82070)"/>
      <path fill-rule="evenodd" clip-rule="evenodd" d="M-61.6729 47.3459C-61.9677 47.2475 -62.1642 47.2475 -62.459 47.1492L-82.7019 43.1175L-80.6383 50.5909C-80.0487 52.7542 -79.7539 53.7376 -78.9678 54.5242C-78.1817 55.2126 -77.1007 55.4093 -74.9389 55.9009L-65.407 57.7693C-59.6093 58.9493 -57.8405 59.3426 -56.563 59.9326C-49.5861 63.3743 -48.9965 68.9793 -50.667 77.5344C-52.3375 86.0894 -55.089 90.9077 -62.8521 91.4977C-64.2278 91.5961 -66.0949 91.3011 -71.8926 90.1211L-86.8292 87.1711C-88.991 86.7777 -90.0719 86.4828 -91.0546 86.8761C-92.0373 87.2694 -92.7252 88.1544 -94.1009 89.8261L-98.916 95.9228L-73.2683 101.036C-72.9735 101.134 -72.777 101.134 -72.4822 101.233C-67.7654 102.216 -64.4243 102.806 -61.2798 102.609C-47.2277 101.626 -41.9213 91.5961 -39.5629 79.6977C-37.2045 67.7993 -38.2854 56.5893 -50.8635 50.1976C-53.615 49.0176 -56.9561 48.3292 -61.6729 47.3459Z" fill="url(#paint18_radial_3470_82070)"/>
      <path fill-rule="evenodd" clip-rule="evenodd" d="M22.7382 100.053C22.64 99.8561 22.5417 99.5612 22.4434 99.2661L14.7786 80.0911L9.66876 85.8927C8.19476 87.5644 7.5069 88.3511 7.31036 89.4328C7.11383 90.4161 7.5069 91.4977 8.3913 93.5628L12.0272 102.511C14.189 108.018 14.8769 109.69 15.0734 111.165C15.9578 118.835 11.6341 122.473 3.57623 125.718C-4.48164 128.963 -10.0828 129.356 -14.7996 123.161C-15.684 121.981 -16.3719 120.31 -18.632 114.803L-24.3315 100.741C-25.1177 98.6761 -25.609 97.6928 -26.3951 97.0045C-27.2795 96.4145 -28.3604 96.3161 -30.5223 96.1194L-38.2854 95.5294L-28.557 119.818C-28.4587 120.113 -28.3605 120.31 -28.2622 120.605C-26.4934 125.03 -25.2159 128.275 -23.2506 130.733C-14.7014 141.943 -3.49896 140.96 7.8017 136.436C19.1024 131.913 27.8481 124.833 26.2758 110.87C25.7845 107.723 24.507 104.478 22.7382 100.053Z" fill="url(#paint19_radial_3470_82070)"/>
      <path fill-rule="evenodd" clip-rule="evenodd" d="M150.878 25.2208C150.78 25.0241 150.681 24.7291 150.583 24.5324L142.034 5.75069L137.121 11.749C135.745 13.4207 135.057 14.3057 134.861 15.3874C134.762 16.4691 135.155 17.4524 136.138 19.4191L140.167 28.2691C142.624 33.6775 143.311 35.3492 143.508 36.7258C144.687 44.3959 140.658 48.1326 132.699 51.7709C124.739 55.4093 119.236 55.9993 114.225 50.0009C113.34 48.9192 112.456 47.2476 110.097 41.8392L103.808 27.9741C102.924 26.0074 102.433 24.9258 101.548 24.3358C100.664 23.7458 99.5828 23.7458 97.4209 23.6474L89.6578 23.3524L100.467 47.1492C100.565 47.3459 100.664 47.6409 100.762 47.8375C102.727 52.1642 104.201 55.3109 106.167 57.7693C115.207 68.586 126.41 67.111 137.415 62.0959C148.52 57.0809 156.971 49.6076 154.71 35.7425C154.317 32.6942 152.942 29.5475 150.878 25.2208Z" fill="url(#paint20_radial_3470_82070)"/>
      <path fill-rule="evenodd" clip-rule="evenodd" d="M147.832 -53.5446C147.635 -53.7413 147.537 -53.9379 147.34 -54.1346L134.959 -70.6547L131.421 -63.673C130.439 -61.7063 129.947 -60.723 130.045 -59.6413C130.144 -58.5596 130.832 -57.6746 132.109 -55.9046L137.907 -48.1362C141.444 -43.4162 142.525 -41.8429 143.017 -40.5645C145.866 -33.2878 142.624 -28.7645 135.647 -23.5528C128.67 -18.3411 123.363 -16.5711 117.271 -21.2911C116.19 -22.1761 115.011 -23.6511 111.473 -28.3712L102.433 -40.5645C101.155 -42.3345 100.467 -43.2196 99.4845 -43.6129C98.5018 -44.0062 97.4209 -43.8096 95.259 -43.4162L87.5943 -42.0396L103.219 -21.0944C103.415 -20.8978 103.513 -20.7011 103.71 -20.5045C106.56 -16.6694 108.623 -13.9161 111.08 -11.9494C122.184 -3.29602 132.797 -7.13104 142.525 -14.4077C152.254 -21.6844 159.034 -30.7312 153.826 -43.9079C152.745 -46.9562 150.681 -49.7096 147.832 -53.5446Z" fill="url(#paint21_radial_3470_82070)"/>
      <path fill-rule="evenodd" clip-rule="evenodd" d="M168.075 15.0924C168.173 15.2891 168.369 15.5841 168.468 15.7807L179.67 33.1858L183.601 26.4991C184.682 24.6308 185.271 23.6474 185.271 22.5658C185.271 21.4841 184.682 20.5991 183.503 18.7307L178.294 10.569C175.15 5.55402 174.167 3.98067 173.774 2.604C171.514 -4.77104 175.052 -9.09772 182.323 -13.8177C189.595 -18.5378 195.098 -19.9144 200.797 -14.7027C201.878 -13.7194 202.861 -12.2444 206.104 -7.22939L214.26 5.55402C215.439 7.42235 216.029 8.30736 217.011 8.79903C217.994 9.2907 219.075 9.09404 221.237 8.89737L229 8.1107L214.948 -13.9161C214.85 -14.1127 214.653 -14.4077 214.555 -14.6044C212 -18.6361 210.133 -21.5861 207.774 -23.6511C197.26 -33.0912 186.451 -30.0428 176.231 -23.4545C166.011 -16.8661 158.641 -8.31105 162.867 5.16068C163.653 8.1107 165.52 11.0607 168.075 15.0924Z" fill="url(#paint22_radial_3470_82070)"/>
      <path fill-rule="evenodd" clip-rule="evenodd" d="M216.225 62.5876C216.127 62.3909 216.029 62.0959 215.931 61.8993L208.167 42.8225L203.058 48.6242C201.584 50.2959 200.896 51.0826 200.699 52.1642C200.503 53.1476 200.896 54.2292 201.78 56.2943L205.416 65.2426C207.676 70.7493 208.266 72.421 208.462 73.896C209.347 81.566 205.121 85.2044 197.063 88.5477C189.005 91.8911 183.404 92.2844 178.687 86.0894C177.803 85.0077 177.115 83.2377 174.855 77.8294L169.156 63.7676C168.369 61.7026 167.878 60.7193 167.092 60.1293C166.208 59.5393 165.127 59.4409 162.965 59.2443L155.202 58.6543L165.127 82.8444C165.225 83.1394 165.323 83.3361 165.421 83.5327C167.19 87.9578 168.566 91.2028 170.433 93.6611C179.081 104.871 190.283 103.789 201.485 99.1678C212.688 94.5461 221.433 87.2694 219.763 73.306C219.37 70.1593 217.994 67.0126 216.225 62.5876Z" fill="url(#paint23_radial_3470_82070)"/>
      <path fill-rule="evenodd" clip-rule="evenodd" d="M140.855 161.413C140.658 161.315 140.462 161.118 140.167 161.02L122.97 149.515L121.988 157.185C121.693 159.348 121.595 160.43 121.988 161.413C122.381 162.396 123.363 162.986 125.132 164.166L133.19 169.575C138.103 172.82 139.577 173.901 140.56 174.983C145.67 180.883 144.098 186.193 139.283 193.47C134.467 200.747 130.045 204.188 122.675 201.73C121.3 201.238 119.727 200.255 114.814 197.01L102.138 188.553C100.271 187.373 99.3862 186.685 98.3053 186.685C97.2244 186.685 96.34 187.177 94.3746 188.258L87.5943 192.093L109.311 206.647C109.508 206.843 109.803 206.942 109.999 207.04C113.93 209.695 116.878 211.662 119.826 212.645C133.19 217.07 141.936 209.892 148.618 199.763C155.398 189.635 158.641 178.818 149.404 168.198C147.733 165.936 144.884 164.068 140.855 161.413Z" fill="url(#paint24_radial_3470_82070)"/>
      <path fill-rule="evenodd" clip-rule="evenodd" d="M-110.511 165.641C-110.708 165.445 -110.806 165.248 -111.003 165.051L-124.17 149.121L-127.315 156.201C-128.199 158.266 -128.691 159.25 -128.494 160.233C-128.396 161.315 -127.61 162.101 -126.234 163.773L-120.043 171.246C-116.309 175.77 -115.13 177.245 -114.54 178.523C-111.396 185.603 -114.344 190.323 -121.026 195.928C-127.708 201.533 -132.916 203.5 -139.304 199.075C-140.483 198.288 -141.662 196.912 -145.494 192.29L-155.124 180.588C-156.5 178.917 -157.188 178.032 -158.171 177.737C-159.153 177.441 -160.234 177.638 -162.396 178.13L-169.963 179.9L-153.356 200.058C-153.159 200.255 -153.061 200.452 -152.864 200.648C-149.818 204.287 -147.656 207.04 -145.101 208.81C-133.506 216.873 -123.188 212.547 -113.754 204.778C-104.321 197.01 -98.1298 187.668 -103.928 174.786C-105.205 172.033 -107.465 169.28 -110.511 165.641Z" fill="url(#paint25_radial_3470_82070)"/>
      <path fill-rule="evenodd" clip-rule="evenodd" d="M44.0621 241.653C44.2586 241.85 44.4552 242.047 44.6517 242.145L59.7848 256.109L61.9466 248.635C62.5362 246.472 62.831 245.488 62.5362 244.407C62.2414 243.423 61.4553 242.637 59.7848 241.162L52.7096 234.573C48.3858 230.542 47.0101 229.263 46.3222 228.083C42.195 221.495 44.5534 216.382 50.4494 209.99C56.3454 203.598 61.2588 200.845 68.1374 204.385C69.4149 205.073 70.7906 206.253 75.1144 210.285L86.3168 220.61C87.9873 222.085 88.7734 222.872 89.7561 223.068C90.7388 223.265 91.8197 222.872 93.8833 222.085L101.155 219.332L81.8948 201.632C81.6982 201.435 81.5017 201.238 81.3052 201.14C77.7676 197.895 75.2126 195.535 72.4612 194.158C59.883 187.668 50.2529 193.47 41.9985 202.418C33.7441 211.367 28.8308 221.495 36.299 233.492C37.9696 236.048 40.5245 238.408 44.0621 241.653Z" fill="url(#paint26_radial_3470_82070)"/>
      <path fill-rule="evenodd" clip-rule="evenodd" d="M-319.328 27.8758C-319.033 27.8758 -318.837 27.7775 -318.542 27.7775L-298.103 24.7291L-302.525 18.3374C-303.802 16.5674 -304.392 15.5841 -305.374 15.1907C-306.357 14.7974 -307.438 14.8957 -309.6 15.2891L-319.132 16.6657C-324.929 17.5507 -326.796 17.7474 -328.27 17.5508C-335.935 16.5674 -338.49 11.6507 -339.768 2.99734C-341.045 -5.65604 -340.062 -11.1627 -332.987 -14.3094C-331.71 -14.8994 -329.843 -15.1944 -324.045 -16.0794L-309.01 -18.3411C-306.848 -18.6361 -305.767 -18.8328 -304.981 -19.5211C-304.195 -20.2094 -303.802 -21.2911 -303.114 -23.3561L-300.657 -30.7312L-326.502 -26.8961C-326.796 -26.8961 -326.993 -26.7978 -327.288 -26.7978C-332.005 -26.1095 -335.444 -25.6178 -338.294 -24.3395C-351.167 -18.6361 -352.837 -7.42606 -351.068 4.57068C-349.299 16.5674 -344.484 26.7941 -330.531 28.5641C-327.484 29.0558 -324.045 28.5641 -319.328 27.8758Z" fill="url(#paint27_radial_3470_82070)"/>
      <path fill-rule="evenodd" clip-rule="evenodd" d="M-232.853 32.9892C-232.853 32.6942 -232.952 32.4975 -232.952 32.2025L-235.605 11.749L-241.992 16.0757C-243.859 17.3541 -244.744 17.9441 -245.137 18.9274C-245.53 19.9108 -245.432 20.9924 -245.137 23.1558L-243.859 32.7925C-243.073 38.6925 -242.877 40.4625 -243.073 41.9375C-244.154 49.6076 -249.166 52.0659 -257.813 53.1476C-266.461 54.2292 -271.964 53.2459 -274.912 46.0676C-275.501 44.7892 -275.796 42.9209 -276.484 37.0208L-278.449 21.9758C-278.744 19.8124 -278.842 18.7307 -279.53 17.8457C-280.218 17.0591 -281.201 16.6657 -283.363 15.9774L-290.733 13.4207L-287.293 39.3808C-287.293 39.6759 -287.195 39.8725 -287.195 40.1675C-286.605 44.8875 -286.114 48.3292 -284.935 51.1809C-279.432 64.161 -268.328 66.0293 -256.241 64.3576C-244.154 62.7843 -233.934 58.1626 -231.969 44.1992C-231.772 41.1508 -232.264 37.7092 -232.853 32.9892Z" fill="url(#paint28_radial_3470_82070)"/>
      <path fill-rule="evenodd" clip-rule="evenodd" d="M-324.733 -45.4812C-324.438 -45.4812 -324.241 -45.4812 -323.947 -45.4812L-303.311 -44.4979L-306.455 -51.5779C-307.34 -53.6429 -307.831 -54.6263 -308.617 -55.2163C-309.501 -55.8063 -310.582 -55.9046 -312.744 -56.0029L-322.374 -56.4946C-328.27 -56.7896 -330.137 -56.8879 -331.513 -57.3796C-338.883 -59.838 -340.357 -65.2463 -339.964 -73.8997C-339.571 -82.5531 -337.507 -87.8631 -329.941 -89.5348C-328.565 -89.8298 -326.698 -89.8298 -320.802 -89.5348L-305.669 -88.7481C-303.507 -88.6498 -302.328 -88.5514 -301.444 -89.0431C-300.559 -89.5348 -299.97 -90.5181 -298.889 -92.3864L-295.056 -99.1715L-321.195 -100.45C-321.49 -100.45 -321.687 -100.45 -321.981 -100.45C-326.698 -100.646 -330.236 -100.843 -333.282 -100.155C-347.039 -97.1065 -350.872 -86.4864 -351.461 -74.293C-352.051 -62.0996 -349.398 -51.1846 -335.935 -46.7596C-332.987 -45.8746 -329.548 -45.6779 -324.733 -45.4812Z" fill="url(#paint29_radial_3470_82070)"/>
      <path fill-rule="evenodd" clip-rule="evenodd" d="M-430.566 -89.4364C-430.763 -89.6331 -430.861 -89.8298 -431.057 -90.1248L-443.046 -106.94L-446.682 -100.056C-447.763 -98.0898 -448.254 -97.1065 -448.156 -96.1231C-448.057 -95.0415 -447.468 -94.1564 -446.19 -92.3864L-440.589 -84.5197C-437.15 -79.7014 -436.167 -78.128 -435.676 -76.8497C-433.023 -69.573 -436.364 -65.0497 -443.439 -60.0346C-450.514 -55.0196 -455.919 -53.3479 -461.913 -58.2646C-462.994 -59.1496 -464.173 -60.6246 -467.514 -65.443L-476.26 -77.833C-477.537 -79.6031 -478.127 -80.4881 -479.11 -80.9797C-480.092 -81.3731 -481.173 -81.1764 -483.335 -80.8814L-491 -79.7014L-475.867 -58.3629C-475.67 -58.1663 -475.572 -57.9696 -475.376 -57.6746C-472.624 -53.7413 -470.561 -50.9879 -468.202 -48.9229C-457.295 -39.9745 -446.583 -43.6129 -436.659 -50.5946C-426.734 -57.6746 -419.855 -66.5247 -424.67 -79.7997C-425.751 -82.6514 -427.815 -85.5031 -430.566 -89.4364Z" fill="url(#paint30_radial_3470_82070)"/>
      <path fill-rule="evenodd" clip-rule="evenodd" d="M-368.265 -92.9765C-368.068 -93.1731 -367.872 -93.3698 -367.675 -93.5665L-353.623 -108.71L-361.091 -110.873C-363.253 -111.463 -364.236 -111.857 -365.317 -111.562C-366.3 -111.267 -367.086 -110.48 -368.56 -108.907L-375.144 -101.826C-379.172 -97.4998 -380.45 -96.2215 -381.727 -95.4348C-388.311 -91.4031 -393.421 -93.7631 -399.809 -99.6632C-406.196 -105.563 -408.849 -110.48 -405.311 -117.363C-404.624 -118.642 -403.444 -120.018 -399.415 -124.345L-389.097 -135.457C-387.623 -137.03 -386.837 -137.915 -386.641 -138.898C-386.444 -139.882 -386.837 -140.963 -387.623 -143.028L-390.375 -150.305L-408.161 -131.13C-408.358 -130.933 -408.554 -130.737 -408.751 -130.54C-411.994 -127.098 -414.352 -124.542 -415.826 -121.788C-422.312 -109.3 -416.71 -99.5648 -407.768 -91.2065C-398.826 -82.8481 -388.803 -77.9314 -376.716 -85.3064C-373.866 -86.9781 -371.508 -89.5348 -368.265 -92.9765Z" fill="url(#paint31_radial_3470_82070)"/>
      <path fill-rule="evenodd" clip-rule="evenodd" d="M-200.524 -46.9562C-200.229 -46.8579 -200.032 -46.8579 -199.738 -46.7596L-179.593 -42.3345L-181.46 -49.9063C-181.951 -52.0696 -182.246 -53.1513 -183.032 -53.8396C-183.818 -54.5279 -184.899 -54.8229 -187.061 -55.3146L-196.495 -57.3796C-202.292 -58.658 -204.061 -59.0513 -205.339 -59.7396C-212.217 -63.378 -212.709 -68.8847 -210.842 -77.4397C-208.975 -85.9948 -206.125 -90.8131 -198.362 -91.2064C-196.986 -91.3048 -195.119 -90.9114 -189.321 -89.6331L-174.581 -86.3881C-172.419 -85.8964 -171.339 -85.6998 -170.356 -85.9948C-169.373 -86.3881 -168.685 -87.1748 -167.31 -88.9448L-162.396 -94.9431L-187.946 -100.548C-188.24 -100.646 -188.437 -100.646 -188.732 -100.745C-193.35 -101.728 -196.79 -102.515 -199.934 -102.318C-213.986 -101.63 -219.489 -91.6981 -222.142 -79.8981C-224.796 -67.9997 -223.911 -56.7896 -211.431 -50.2012C-208.582 -48.7262 -205.24 -48.0379 -200.524 -46.9562Z" fill="url(#paint32_radial_3470_82070)"/>
      <path fill-rule="evenodd" clip-rule="evenodd" d="M-287.588 -36.8279C-287.588 -36.5329 -287.588 -36.3362 -287.588 -36.0412L-288.178 -15.3911L-281.102 -18.6361C-279.137 -19.5211 -278.056 -20.0128 -277.565 -20.8978C-276.975 -21.7828 -276.975 -22.8645 -276.877 -25.1261L-276.582 -34.7628C-276.386 -40.6629 -276.287 -42.5312 -275.894 -43.9079C-273.634 -51.2829 -268.229 -52.9546 -259.582 -52.6596C-250.836 -52.3646 -245.628 -50.4962 -243.761 -42.9245C-243.466 -41.5479 -243.466 -39.6795 -243.565 -33.7795L-244.056 -18.6361C-244.154 -16.4727 -244.154 -15.2927 -243.663 -14.4077C-243.171 -13.5227 -242.189 -12.9327 -240.223 -11.9494L-233.345 -8.31105L-232.559 -34.4678C-232.559 -34.7628 -232.559 -34.9595 -232.559 -35.2545C-232.46 -39.9745 -232.264 -43.5146 -233.05 -46.5629C-236.391 -60.2313 -247.102 -63.8697 -259.189 -64.1646C-271.374 -64.558 -282.183 -61.608 -286.409 -48.1362C-287.391 -45.0879 -287.49 -41.6462 -287.588 -36.8279Z" fill="url(#paint33_radial_3470_82070)"/>
      <path fill-rule="evenodd" clip-rule="evenodd" d="M-347.924 -133.195C-347.826 -132.998 -347.629 -132.703 -347.531 -132.507L-337.802 -114.315L-333.282 -120.707C-332.005 -122.477 -331.415 -123.46 -331.317 -124.443C-331.218 -125.525 -331.808 -126.41 -332.791 -128.377L-337.409 -136.932C-340.161 -142.143 -341.045 -143.815 -341.34 -145.192C-343.109 -152.763 -339.178 -156.795 -331.513 -160.925C-323.848 -165.055 -318.345 -166.038 -312.941 -160.433C-311.958 -159.45 -311.074 -157.778 -308.224 -152.567L-301.051 -139.193C-299.97 -137.227 -299.478 -136.243 -298.594 -135.752C-297.709 -135.26 -296.629 -135.26 -294.368 -135.358L-286.605 -135.555L-299.085 -158.565C-299.183 -158.762 -299.38 -159.057 -299.478 -159.253C-301.738 -163.482 -303.409 -166.53 -305.571 -168.792C-315.299 -179.019 -326.305 -176.757 -337.016 -170.955C-347.727 -165.153 -355.687 -157.188 -352.542 -143.422C-351.854 -140.472 -350.184 -137.423 -347.924 -133.195Z" fill="url(#paint34_radial_3470_82070)"/>
      <path fill-rule="evenodd" clip-rule="evenodd" d="M-283.461 -95.8281C-283.362 -95.6315 -283.166 -95.3365 -283.068 -95.1398L-272.553 -77.4397L-268.328 -84.0281C-267.148 -85.8964 -266.559 -86.7814 -266.559 -87.8631C-266.559 -88.9448 -267.148 -89.8298 -268.229 -91.7964L-273.143 -100.155C-276.189 -105.268 -277.073 -106.842 -277.467 -108.218C-279.53 -115.692 -275.894 -119.92 -268.328 -124.345C-260.761 -128.77 -255.357 -130.048 -249.755 -124.64C-248.773 -123.657 -247.79 -122.083 -244.744 -116.97L-236.981 -103.892C-235.9 -102.023 -235.31 -101.04 -234.327 -100.548C-233.443 -100.056 -232.264 -100.155 -230.102 -100.351L-222.339 -100.941L-235.703 -123.46C-235.801 -123.657 -235.998 -123.952 -236.096 -124.148C-238.553 -128.278 -240.322 -131.228 -242.582 -133.392C-252.802 -143.127 -263.709 -140.472 -274.125 -134.178C-284.542 -127.885 -292.207 -119.625 -288.472 -106.055C-287.686 -102.908 -285.819 -99.8598 -283.461 -95.8281Z" fill="url(#paint35_radial_3470_82070)"/>
      <path fill-rule="evenodd" clip-rule="evenodd" d="M-416.023 -33.6812C-416.023 -33.3862 -415.924 -33.1895 -415.924 -32.8945L-413.369 -12.4411L-406.884 -16.7678C-405.017 -17.9478 -404.132 -18.6361 -403.641 -19.5211C-403.248 -20.5045 -403.346 -21.5861 -403.641 -23.7495L-404.82 -33.3862C-405.508 -39.2862 -405.705 -41.0562 -405.508 -42.5312C-404.329 -50.2012 -399.317 -52.5613 -390.67 -53.6429C-382.022 -54.7246 -376.519 -53.6429 -373.571 -46.4646C-372.982 -45.1862 -372.785 -43.3179 -371.999 -37.4179L-370.132 -22.3728C-369.837 -20.2094 -369.739 -19.1278 -369.051 -18.2428C-368.363 -17.4561 -367.38 -17.0628 -365.317 -16.2761L-358.045 -13.7194L-361.288 -39.5812C-361.288 -39.8762 -361.386 -40.0729 -361.386 -40.3679C-361.976 -45.0879 -362.369 -48.5296 -363.548 -51.4796C-368.953 -64.558 -380.057 -66.4263 -392.045 -64.9513C-404.034 -63.4763 -414.45 -58.953 -416.514 -44.9896C-417.005 -41.8429 -416.612 -38.4012 -416.023 -33.6812Z" fill="url(#paint36_radial_3470_82070)"/>
      <path fill-rule="evenodd" clip-rule="evenodd" d="M-194.333 -27.7811C-194.628 -27.7811 -194.824 -27.7811 -195.119 -27.7811L-215.755 -28.8628L-212.61 -21.6844C-211.726 -19.6194 -211.333 -18.6361 -210.449 -18.0461C-209.564 -17.4561 -208.483 -17.3578 -206.321 -17.2594L-196.691 -16.7678C-190.795 -16.4728 -188.928 -16.2761 -187.552 -15.8828C-180.182 -13.4244 -178.708 -8.01605 -179.2 0.637314C-179.691 9.38902 -181.656 14.6007 -189.223 16.1741C-190.599 16.4691 -192.466 16.4691 -198.362 16.0757L-213.495 15.2891C-215.657 15.1907 -216.836 15.0924 -217.72 15.5841C-218.605 16.0757 -219.194 17.0591 -220.275 18.9274L-224.108 25.7124L-197.969 27.0891C-197.674 27.0891 -197.477 27.0891 -197.183 27.0891C-192.466 27.3841 -188.928 27.5808 -185.882 26.8925C-172.125 23.8441 -168.292 13.224 -167.604 1.12898C-166.916 -10.9661 -169.57 -21.9795 -183.032 -26.4045C-186.078 -27.2895 -189.616 -27.4861 -194.333 -27.7811Z" fill="url(#paint37_radial_3470_82070)"/>
      <path fill-rule="evenodd" clip-rule="evenodd" d="M-167.703 73.306C-167.703 73.011 -167.703 72.8143 -167.703 72.5193L-167.408 51.8692L-174.385 55.2126C-176.35 56.1959 -177.333 56.6876 -177.922 57.5726C-178.512 58.4576 -178.512 59.5393 -178.512 61.801L-178.61 71.536C-178.708 77.436 -178.807 79.3044 -179.2 80.681C-181.362 88.1544 -186.668 89.8261 -195.414 89.7278C-204.16 89.6294 -209.368 87.7611 -211.333 80.2877C-211.726 78.911 -211.726 77.0427 -211.628 71.1427L-211.431 55.9993C-211.431 53.8359 -211.431 52.6559 -211.923 51.7709C-212.414 50.8859 -213.397 50.3942 -215.362 49.3126L-222.241 45.7726L-222.535 71.9293C-222.535 72.2243 -222.535 72.421 -222.535 72.716C-222.634 77.5344 -222.634 80.976 -221.848 84.0244C-218.31 97.6928 -207.501 101.036 -195.414 101.233C-183.327 101.43 -172.419 98.2828 -168.489 84.7127C-167.801 81.566 -167.801 78.026 -167.703 73.306Z" fill="url(#paint38_radial_3470_82070)"/>
      <path fill-rule="evenodd" clip-rule="evenodd" d="M-345.86 238.605C-345.664 238.802 -345.565 238.999 -345.369 239.294L-333.282 256.01L-329.646 249.127C-328.663 247.16 -328.074 246.177 -328.172 245.194C-328.27 244.112 -328.86 243.227 -330.236 241.457L-335.935 233.59C-339.375 228.772 -340.455 227.297 -340.947 225.92C-343.698 218.643 -340.357 214.12 -333.282 209.007C-326.207 203.893 -320.9 202.222 -314.808 207.04C-313.727 207.925 -312.548 209.4 -309.108 214.218L-300.166 226.51C-298.889 228.28 -298.201 229.165 -297.218 229.558C-296.235 229.952 -295.154 229.755 -292.993 229.46L-285.328 228.182L-300.657 206.942C-300.854 206.745 -300.952 206.548 -301.149 206.253C-303.9 202.418 -305.964 199.567 -308.421 197.6C-319.426 188.75 -330.039 192.487 -339.964 199.567C-349.889 206.647 -356.669 215.693 -351.756 228.87C-350.773 231.918 -348.71 234.77 -345.86 238.605Z" fill="url(#paint39_radial_3470_82070)"/>
      <path fill-rule="evenodd" clip-rule="evenodd" d="M-243.27 236.54C-243.466 236.343 -243.663 236.245 -243.859 236.048L-259.975 223.068L-261.646 230.64C-262.137 232.803 -262.333 233.885 -262.039 234.868C-261.646 235.852 -260.859 236.54 -259.091 237.917L-251.524 244.013C-246.906 247.75 -245.53 248.93 -244.645 250.11C-240.125 256.404 -242.09 261.615 -247.593 268.4C-253.096 275.185 -257.715 278.234 -264.888 275.185C-266.166 274.595 -267.64 273.514 -272.258 269.777L-284.05 260.239C-285.721 258.862 -286.605 258.174 -287.686 258.075C-288.767 257.977 -289.75 258.37 -291.715 259.354L-298.79 262.599L-278.449 279.02C-278.253 279.217 -278.056 279.315 -277.86 279.512C-274.125 282.462 -271.472 284.724 -268.623 285.904C-255.651 291.509 -246.414 285.117 -238.749 275.677C-231.085 266.237 -226.859 255.715 -235.114 244.309C-236.882 241.752 -239.536 239.588 -243.27 236.54Z" fill="url(#paint40_radial_3470_82070)"/>
      <path fill-rule="evenodd" clip-rule="evenodd" d="M-351.461 148.531C-351.461 148.826 -351.461 149.023 -351.461 149.318L-351.658 169.968L-344.681 166.526C-342.716 165.543 -341.733 165.051 -341.143 164.166C-340.554 163.281 -340.554 162.2 -340.554 159.938L-340.455 150.203C-340.357 144.303 -340.357 142.435 -339.964 141.058C-337.802 133.585 -332.496 131.913 -323.75 132.011C-315.004 132.11 -309.796 133.88 -307.733 141.451C-307.34 142.828 -307.34 144.696 -307.438 150.596L-307.634 165.838C-307.634 168.001 -307.634 169.181 -307.143 170.066C-306.652 170.951 -305.669 171.443 -303.704 172.426L-296.825 175.967L-296.53 149.81C-296.53 149.515 -296.53 149.318 -296.53 149.023C-296.432 144.205 -296.432 140.763 -297.218 137.715C-300.854 124.046 -311.565 120.703 -323.75 120.605C-335.935 120.506 -346.745 123.555 -350.675 137.125C-351.363 140.271 -351.461 143.713 -351.461 148.531Z" fill="url(#paint41_radial_3470_82070)"/>
      <path fill-rule="evenodd" clip-rule="evenodd" d="M-425.456 152.563C-425.456 152.268 -425.358 152.071 -425.358 151.776L-421.624 131.421L-429.092 133.585C-431.254 134.175 -432.237 134.47 -432.924 135.256C-433.612 136.043 -433.809 137.125 -434.202 139.288L-435.971 148.826C-437.052 154.628 -437.445 156.496 -438.034 157.775C-441.375 164.756 -446.977 165.543 -455.526 163.97C-464.075 162.396 -468.988 159.741 -469.676 151.973C-469.774 150.596 -469.48 148.728 -468.497 142.926L-465.745 127.98C-465.352 125.816 -465.156 124.735 -465.549 123.751C-465.942 122.768 -466.826 122.08 -468.595 120.801L-474.786 116.18L-479.503 141.943C-479.503 142.238 -479.601 142.435 -479.601 142.73C-480.485 147.45 -481.075 150.891 -480.78 153.94C-479.503 168.001 -469.48 173.115 -457.589 175.278C-445.601 177.441 -434.398 176.163 -428.306 163.478C-427.028 160.725 -426.341 157.283 -425.456 152.563Z" fill="url(#paint42_radial_3470_82070)"/>
      <path fill-rule="evenodd" clip-rule="evenodd" d="M-374.357 86.3844C-374.554 86.2861 -374.849 86.0894 -375.045 85.9911L-392.439 74.781L-393.323 82.5494C-393.519 84.7127 -393.716 85.7944 -393.225 86.7777C-392.733 87.7611 -391.849 88.3511 -389.982 89.5311L-381.826 94.7428C-376.814 97.9878 -375.34 98.9711 -374.357 100.053C-369.149 105.854 -370.623 111.263 -375.34 118.54C-380.057 125.915 -384.381 129.356 -391.751 127.095C-393.126 126.701 -394.699 125.718 -399.612 122.473L-412.387 114.213C-414.254 113.033 -415.138 112.443 -416.219 112.443C-417.3 112.443 -418.184 113.033 -420.15 114.115L-426.832 118.048L-404.82 132.208C-404.624 132.306 -404.329 132.503 -404.132 132.601C-400.103 135.158 -397.155 137.125 -394.207 138.01C-380.745 142.238 -372.196 134.863 -365.612 124.735C-359.028 114.508 -355.883 103.691 -365.317 93.1694C-367.479 90.9077 -370.427 89.0394 -374.357 86.3844Z" fill="url(#paint43_radial_3470_82070)"/>
      <path fill-rule="evenodd" clip-rule="evenodd" d="M-173.402 164.068C-173.206 163.871 -173.107 163.675 -172.911 163.478L-159.94 147.45L-167.506 145.778C-169.668 145.286 -170.749 145.09 -171.732 145.385C-172.714 145.778 -173.402 146.565 -174.778 148.335L-180.87 155.906C-184.604 160.528 -185.784 161.905 -186.963 162.79C-193.252 167.313 -198.46 165.346 -205.241 159.84C-212.021 154.333 -215.067 149.711 -211.923 142.533C-211.333 141.255 -210.252 139.78 -206.518 135.158L-196.986 123.358C-195.61 121.686 -194.922 120.801 -194.726 119.72C-194.628 118.638 -195.021 117.655 -196.003 115.688L-199.246 108.608L-215.657 128.963C-215.853 129.16 -215.952 129.356 -216.148 129.553C-219.194 133.29 -221.356 135.945 -222.535 138.796C-228.137 151.776 -221.848 161.02 -212.316 168.69C-202.784 176.36 -192.466 180.588 -180.969 172.328C-178.61 170.558 -176.448 167.805 -173.402 164.068Z" fill="url(#paint44_radial_3470_82070)"/>
      <path fill-rule="evenodd" clip-rule="evenodd" d="M-245.333 207.925C-245.137 207.827 -244.842 207.63 -244.645 207.532L-226.957 196.813L-233.541 192.683C-235.408 191.503 -236.293 190.913 -237.374 190.913C-238.455 190.913 -239.339 191.503 -241.206 192.585L-249.461 197.6C-254.472 200.648 -256.143 201.533 -257.518 201.927C-264.987 203.992 -269.212 200.353 -273.732 192.978C-278.253 185.505 -279.53 180.097 -274.125 174.393C-273.143 173.311 -271.571 172.328 -266.559 169.28L-253.588 161.413C-251.721 160.233 -250.738 159.741 -250.247 158.758C-249.755 157.873 -249.854 156.693 -250.05 154.53L-250.64 146.761L-273.045 160.331C-273.241 160.43 -273.536 160.626 -273.732 160.725C-277.86 163.183 -280.808 164.953 -282.969 167.215C-292.698 177.441 -289.848 188.357 -283.559 198.78C-277.27 209.203 -268.917 216.775 -255.357 212.94C-252.409 212.153 -249.461 210.383 -245.333 207.925Z" fill="url(#paint45_radial_3470_82070)"/>
      <path fill-rule="evenodd" clip-rule="evenodd" d="M-297.611 66.3243C-297.709 66.0293 -297.709 65.8326 -297.808 65.5376L-303.507 45.6742L-309.207 50.8859C-310.877 52.3609 -311.663 53.1476 -311.958 54.1309C-312.253 55.1143 -311.958 56.1959 -311.369 58.3593L-308.715 67.701C-307.045 73.4043 -306.652 75.1744 -306.652 76.6494C-306.553 84.4178 -311.172 87.5644 -319.623 89.9244C-327.976 92.2845 -333.577 92.0878 -337.606 85.4994C-338.392 84.3194 -338.883 82.5494 -340.554 76.846L-344.681 62.1943C-345.271 60.0309 -345.565 59.0476 -346.351 58.2609C-347.138 57.5726 -348.219 57.3759 -350.38 56.9826L-358.045 55.5076L-350.872 80.681C-350.773 80.976 -350.773 81.1727 -350.675 81.4677C-349.398 86.0894 -348.415 89.4327 -346.745 92.0878C-339.375 104.183 -328.172 104.281 -316.478 100.938C-304.785 97.5945 -295.351 91.4978 -295.449 77.436C-295.351 74.2894 -296.334 70.946 -297.611 66.3243Z" fill="url(#paint46_radial_3470_82070)"/>
      <path fill-rule="evenodd" clip-rule="evenodd" d="M-425.751 80.2877C-425.653 79.9927 -425.653 79.7961 -425.554 79.501L-420.739 59.4409L-428.306 61.211C-430.468 61.7026 -431.549 61.9976 -432.237 62.686C-433.023 63.3743 -433.219 64.456 -433.711 66.6193L-435.971 76.0594C-437.346 81.7627 -437.838 83.6311 -438.526 84.8111C-442.26 91.5961 -447.861 92.0878 -456.312 90.0227C-464.763 87.9577 -469.578 85.106 -469.774 77.3377C-469.873 75.961 -469.48 74.0927 -468.104 68.3893L-464.566 53.6393C-464.075 51.4759 -463.78 50.3942 -464.173 49.4109C-464.468 48.4276 -465.352 47.7392 -467.023 46.2642L-473.017 41.2492L-479.11 66.7177C-479.208 67.0126 -479.208 67.2093 -479.306 67.5043C-480.387 72.126 -481.272 75.5677 -481.075 78.616C-480.584 92.6778 -470.855 98.3811 -459.063 101.233C-447.271 104.085 -435.971 103.396 -429.19 91.0061C-427.716 88.3511 -426.93 84.9094 -425.751 80.2877Z" fill="url(#paint47_radial_3470_82070)"/>
      <path fill-rule="evenodd" clip-rule="evenodd" d="M-287.391 107.329C-287.391 107.625 -287.49 107.821 -287.49 108.116L-290.536 128.57L-283.166 126.21C-281.102 125.521 -280.021 125.226 -279.334 124.44C-278.646 123.653 -278.449 122.571 -278.154 120.408L-276.68 110.87C-275.796 105.068 -275.501 103.199 -274.912 101.921C-271.767 94.8411 -266.264 93.8578 -257.617 95.2345C-248.969 96.5128 -244.056 99.0695 -243.073 106.74C-242.877 108.116 -243.171 109.985 -244.056 115.786L-246.316 130.831C-246.611 132.995 -246.807 134.076 -246.414 135.06C-246.021 136.043 -245.137 136.633 -243.27 137.911L-236.882 142.435L-232.952 116.573C-232.952 116.278 -232.853 116.081 -232.853 115.786C-232.166 111.066 -231.576 107.625 -231.969 104.576C-233.64 90.5144 -243.859 85.6961 -255.848 83.9261C-267.836 82.1561 -279.039 83.7294 -284.738 96.6111C-286.114 99.1678 -286.704 102.609 -287.391 107.329Z" fill="url(#paint48_radial_3470_82070)"/>
      <path fill-rule="evenodd" clip-rule="evenodd" d="M-170.061 209.793C-170.159 209.597 -170.258 209.302 -170.356 209.105L-178.414 190.127L-183.425 196.027C-184.899 197.698 -185.587 198.583 -185.784 199.567C-185.98 200.55 -185.489 201.632 -184.604 203.598L-180.87 212.547C-178.61 217.955 -177.922 219.725 -177.726 221.102C-176.743 228.772 -180.969 232.508 -188.928 235.852C-196.888 239.195 -202.489 239.687 -207.304 233.59C-208.188 232.508 -208.975 230.837 -211.235 225.33L-217.131 211.367C-218.015 209.302 -218.408 208.318 -219.293 207.728C-220.177 207.138 -221.258 207.04 -223.42 206.942L-231.183 206.45L-220.963 230.542C-220.865 230.837 -220.767 231.033 -220.668 231.23C-218.801 235.655 -217.426 238.802 -215.559 241.26C-206.813 252.372 -195.61 251.094 -184.408 246.374C-173.206 241.653 -164.558 234.475 -166.425 220.413C-166.917 217.365 -168.194 214.12 -170.061 209.793Z" fill="url(#paint49_radial_3470_82070)"/>
    </g>
    <defs>
      <radialGradient id="paint0_radial_3470_82070" cx="0" cy="0" r="1" gradientTransform="matrix(331.65 -0.737497 -0.475497 -214.122 -102.355 38.1216)" gradientUnits="userSpaceOnUse">
        <stop stop-color="#121B38"/>
        <stop offset="1" stop-color="#121B38" stop-opacity="0"/>
      </radialGradient>
      <radialGradient id="paint1_radial_3470_82070" cx="0" cy="0" r="1" gradientTransform="matrix(331.65 -0.737497 -0.475497 -214.122 -102.355 38.1216)" gradientUnits="userSpaceOnUse">
        <stop stop-color="#121B38"/>
        <stop offset="1" stop-color="#121B38" stop-opacity="0"/>
      </radialGradient>
      <radialGradient id="paint2_radial_3470_82070" cx="0" cy="0" r="1" gradientTransform="matrix(331.65 -0.737497 -0.475497 -214.122 -102.355 38.1216)" gradientUnits="userSpaceOnUse">
        <stop stop-color="#121B38"/>
        <stop offset="1" stop-color="#121B38" stop-opacity="0"/>
      </radialGradient>
      <radialGradient id="paint3_radial_3470_82070" cx="0" cy="0" r="1" gradientTransform="matrix(331.65 -0.737497 -0.475497 -214.122 -102.355 38.1216)" gradientUnits="userSpaceOnUse">
        <stop stop-color="#121B38"/>
        <stop offset="1" stop-color="#121B38" stop-opacity="0"/>
      </radialGradient>
      <radialGradient id="paint4_radial_3470_82070" cx="0" cy="0" r="1" gradientTransform="matrix(331.65 -0.737497 -0.475497 -214.122 -102.355 38.1216)" gradientUnits="userSpaceOnUse">
        <stop stop-color="#121B38"/>
        <stop offset="1" stop-color="#121B38" stop-opacity="0"/>
      </radialGradient>
      <radialGradient id="paint5_radial_3470_82070" cx="0" cy="0" r="1" gradientTransform="matrix(331.65 -0.737497 -0.475497 -214.122 -102.355 38.1216)" gradientUnits="userSpaceOnUse">
        <stop stop-color="#121B38"/>
        <stop offset="1" stop-color="#121B38" stop-opacity="0"/>
      </radialGradient>
      <radialGradient id="paint6_radial_3470_82070" cx="0" cy="0" r="1" gradientTransform="matrix(331.65 -0.737497 -0.475497 -214.122 -102.355 38.1216)" gradientUnits="userSpaceOnUse">
        <stop stop-color="#121B38"/>
        <stop offset="1" stop-color="#121B38" stop-opacity="0"/>
      </radialGradient>
      <radialGradient id="paint7_radial_3470_82070" cx="0" cy="0" r="1" gradientTransform="matrix(331.65 -0.737497 -0.475497 -214.122 -102.355 38.1216)" gradientUnits="userSpaceOnUse">
        <stop stop-color="#121B38"/>
        <stop offset="1" stop-color="#121B38" stop-opacity="0"/>
      </radialGradient>
      <radialGradient id="paint8_radial_3470_82070" cx="0" cy="0" r="1" gradientTransform="matrix(331.65 -0.737497 -0.475497 -214.122 -102.355 38.1216)" gradientUnits="userSpaceOnUse">
        <stop stop-color="#121B38"/>
        <stop offset="1" stop-color="#121B38" stop-opacity="0"/>
      </radialGradient>
      <radialGradient id="paint9_radial_3470_82070" cx="0" cy="0" r="1" gradientTransform="matrix(331.65 -0.737497 -0.475497 -214.122 -102.355 38.1216)" gradientUnits="userSpaceOnUse">
        <stop stop-color="#121B38"/>
        <stop offset="1" stop-color="#121B38" stop-opacity="0"/>
      </radialGradient>
      <radialGradient id="paint10_radial_3470_82070" cx="0" cy="0" r="1" gradientTransform="matrix(331.65 -0.737497 -0.475497 -214.122 -102.355 38.1216)" gradientUnits="userSpaceOnUse">
        <stop stop-color="#121B38"/>
        <stop offset="1" stop-color="#121B38" stop-opacity="0"/>
      </radialGradient>
      <radialGradient id="paint11_radial_3470_82070" cx="0" cy="0" r="1" gradientTransform="matrix(331.65 -0.737497 -0.475497 -214.122 -102.355 38.1216)" gradientUnits="userSpaceOnUse">
        <stop stop-color="#121B38"/>
        <stop offset="1" stop-color="#121B38" stop-opacity="0"/>
      </radialGradient>
      <radialGradient id="paint12_radial_3470_82070" cx="0" cy="0" r="1" gradientTransform="matrix(331.65 -0.737497 -0.475497 -214.122 -102.355 38.1216)" gradientUnits="userSpaceOnUse">
        <stop stop-color="#121B38"/>
        <stop offset="1" stop-color="#121B38" stop-opacity="0"/>
      </radialGradient>
      <radialGradient id="paint13_radial_3470_82070" cx="0" cy="0" r="1" gradientTransform="matrix(331.65 -0.737497 -0.475497 -214.122 -102.355 38.1216)" gradientUnits="userSpaceOnUse">
        <stop stop-color="#121B38"/>
        <stop offset="1" stop-color="#121B38" stop-opacity="0"/>
      </radialGradient>
      <radialGradient id="paint14_radial_3470_82070" cx="0" cy="0" r="1" gradientTransform="matrix(331.65 -0.737497 -0.475497 -214.122 -102.355 38.1216)" gradientUnits="userSpaceOnUse">
        <stop stop-color="#121B38"/>
        <stop offset="1" stop-color="#121B38" stop-opacity="0"/>
      </radialGradient>
      <radialGradient id="paint15_radial_3470_82070" cx="0" cy="0" r="1" gradientTransform="matrix(331.65 -0.737497 -0.475497 -214.122 -102.355 38.1216)" gradientUnits="userSpaceOnUse">
        <stop stop-color="#121B38"/>
        <stop offset="1" stop-color="#121B38" stop-opacity="0"/>
      </radialGradient>
      <radialGradient id="paint16_radial_3470_82070" cx="0" cy="0" r="1" gradientTransform="matrix(331.65 -0.737497 -0.475497 -214.122 -102.355 38.1216)" gradientUnits="userSpaceOnUse">
        <stop stop-color="#121B38"/>
        <stop offset="1" stop-color="#121B38" stop-opacity="0"/>
      </radialGradient>
      <radialGradient id="paint17_radial_3470_82070" cx="0" cy="0" r="1" gradientTransform="matrix(331.65 -0.737497 -0.475497 -214.122 -102.355 38.1216)" gradientUnits="userSpaceOnUse">
        <stop stop-color="#121B38"/>
        <stop offset="1" stop-color="#121B38" stop-opacity="0"/>
      </radialGradient>
      <radialGradient id="paint18_radial_3470_82070" cx="0" cy="0" r="1" gradientTransform="matrix(331.65 -0.737497 -0.475497 -214.122 -102.355 38.1216)" gradientUnits="userSpaceOnUse">
        <stop stop-color="#121B38"/>
        <stop offset="1" stop-color="#121B38" stop-opacity="0"/>
      </radialGradient>
      <radialGradient id="paint19_radial_3470_82070" cx="0" cy="0" r="1" gradientTransform="matrix(331.65 -0.737497 -0.475497 -214.122 -102.355 38.1216)" gradientUnits="userSpaceOnUse">
        <stop stop-color="#121B38"/>
        <stop offset="1" stop-color="#121B38" stop-opacity="0"/>
      </radialGradient>
      <radialGradient id="paint20_radial_3470_82070" cx="0" cy="0" r="1" gradientTransform="matrix(331.65 -0.737497 -0.475497 -214.122 -102.355 38.1216)" gradientUnits="userSpaceOnUse">
        <stop stop-color="#121B38"/>
        <stop offset="1" stop-color="#121B38" stop-opacity="0"/>
      </radialGradient>
      <radialGradient id="paint21_radial_3470_82070" cx="0" cy="0" r="1" gradientTransform="matrix(331.65 -0.737497 -0.475497 -214.122 -102.355 38.1216)" gradientUnits="userSpaceOnUse">
        <stop stop-color="#121B38"/>
        <stop offset="1" stop-color="#121B38" stop-opacity="0"/>
      </radialGradient>
      <radialGradient id="paint22_radial_3470_82070" cx="0" cy="0" r="1" gradientTransform="matrix(331.65 -0.737497 -0.475497 -214.122 -102.355 38.1216)" gradientUnits="userSpaceOnUse">
        <stop stop-color="#121B38"/>
        <stop offset="1" stop-color="#121B38" stop-opacity="0"/>
      </radialGradient>
      <radialGradient id="paint23_radial_3470_82070" cx="0" cy="0" r="1" gradientTransform="matrix(331.65 -0.737497 -0.475497 -214.122 -102.355 38.1216)" gradientUnits="userSpaceOnUse">
        <stop stop-color="#121B38"/>
        <stop offset="1" stop-color="#121B38" stop-opacity="0"/>
      </radialGradient>
      <radialGradient id="paint24_radial_3470_82070" cx="0" cy="0" r="1" gradientTransform="matrix(331.65 -0.737497 -0.475497 -214.122 -102.355 38.1216)" gradientUnits="userSpaceOnUse">
        <stop stop-color="#121B38"/>
        <stop offset="1" stop-color="#121B38" stop-opacity="0"/>
      </radialGradient>
      <radialGradient id="paint25_radial_3470_82070" cx="0" cy="0" r="1" gradientTransform="matrix(331.65 -0.737497 -0.475497 -214.122 -102.355 38.1216)" gradientUnits="userSpaceOnUse">
        <stop stop-color="#121B38"/>
        <stop offset="1" stop-color="#121B38" stop-opacity="0"/>
      </radialGradient>
      <radialGradient id="paint26_radial_3470_82070" cx="0" cy="0" r="1" gradientTransform="matrix(331.65 -0.737497 -0.475497 -214.122 -102.355 38.1216)" gradientUnits="userSpaceOnUse">
        <stop stop-color="#121B38"/>
        <stop offset="1" stop-color="#121B38" stop-opacity="0"/>
      </radialGradient>
      <radialGradient id="paint27_radial_3470_82070" cx="0" cy="0" r="1" gradientTransform="matrix(331.65 -0.737497 -0.475497 -214.122 -102.355 38.1216)" gradientUnits="userSpaceOnUse">
        <stop stop-color="#121B38"/>
        <stop offset="1" stop-color="#121B38" stop-opacity="0"/>
      </radialGradient>
      <radialGradient id="paint28_radial_3470_82070" cx="0" cy="0" r="1" gradientTransform="matrix(331.65 -0.737497 -0.475497 -214.122 -102.355 38.1216)" gradientUnits="userSpaceOnUse">
        <stop stop-color="#121B38"/>
        <stop offset="1" stop-color="#121B38" stop-opacity="0"/>
      </radialGradient>
      <radialGradient id="paint29_radial_3470_82070" cx="0" cy="0" r="1" gradientTransform="matrix(331.65 -0.737497 -0.475497 -214.122 -102.355 38.1216)" gradientUnits="userSpaceOnUse">
        <stop stop-color="#121B38"/>
        <stop offset="1" stop-color="#121B38" stop-opacity="0"/>
      </radialGradient>
      <radialGradient id="paint30_radial_3470_82070" cx="0" cy="0" r="1" gradientTransform="matrix(331.65 -0.737497 -0.475497 -214.122 -102.355 38.1216)" gradientUnits="userSpaceOnUse">
        <stop stop-color="#121B38"/>
        <stop offset="1" stop-color="#121B38" stop-opacity="0"/>
      </radialGradient>
      <radialGradient id="paint31_radial_3470_82070" cx="0" cy="0" r="1" gradientTransform="matrix(331.65 -0.737497 -0.475497 -214.122 -102.355 38.1216)" gradientUnits="userSpaceOnUse">
        <stop stop-color="#121B38"/>
        <stop offset="1" stop-color="#121B38" stop-opacity="0"/>
      </radialGradient>
      <radialGradient id="paint32_radial_3470_82070" cx="0" cy="0" r="1" gradientTransform="matrix(331.65 -0.737497 -0.475497 -214.122 -102.355 38.1216)" gradientUnits="userSpaceOnUse">
        <stop stop-color="#121B38"/>
        <stop offset="1" stop-color="#121B38" stop-opacity="0"/>
      </radialGradient>
      <radialGradient id="paint33_radial_3470_82070" cx="0" cy="0" r="1" gradientTransform="matrix(331.65 -0.737497 -0.475497 -214.122 -102.355 38.1216)" gradientUnits="userSpaceOnUse">
        <stop stop-color="#121B38"/>
        <stop offset="1" stop-color="#121B38" stop-opacity="0"/>
      </radialGradient>
      <radialGradient id="paint34_radial_3470_82070" cx="0" cy="0" r="1" gradientTransform="matrix(331.65 -0.737497 -0.475497 -214.122 -102.355 38.1216)" gradientUnits="userSpaceOnUse">
        <stop stop-color="#121B38"/>
        <stop offset="1" stop-color="#121B38" stop-opacity="0"/>
      </radialGradient>
      <radialGradient id="paint35_radial_3470_82070" cx="0" cy="0" r="1" gradientTransform="matrix(331.65 -0.737497 -0.475497 -214.122 -102.355 38.1216)" gradientUnits="userSpaceOnUse">
        <stop stop-color="#121B38"/>
        <stop offset="1" stop-color="#121B38" stop-opacity="0"/>
      </radialGradient>
      <radialGradient id="paint36_radial_3470_82070" cx="0" cy="0" r="1" gradientTransform="matrix(331.65 -0.737497 -0.475497 -214.122 -102.355 38.1216)" gradientUnits="userSpaceOnUse">
        <stop stop-color="#121B38"/>
        <stop offset="1" stop-color="#121B38" stop-opacity="0"/>
      </radialGradient>
      <radialGradient id="paint37_radial_3470_82070" cx="0" cy="0" r="1" gradientTransform="matrix(331.65 -0.737497 -0.475497 -214.122 -102.355 38.1216)" gradientUnits="userSpaceOnUse">
        <stop stop-color="#121B38"/>
        <stop offset="1" stop-color="#121B38" stop-opacity="0"/>
      </radialGradient>
      <radialGradient id="paint38_radial_3470_82070" cx="0" cy="0" r="1" gradientTransform="matrix(331.65 -0.737497 -0.475497 -214.122 -102.355 38.1216)" gradientUnits="userSpaceOnUse">
        <stop stop-color="#121B38"/>
        <stop offset="1" stop-color="#121B38" stop-opacity="0"/>
      </radialGradient>
      <radialGradient id="paint39_radial_3470_82070" cx="0" cy="0" r="1" gradientTransform="matrix(331.65 -0.737497 -0.475497 -214.122 -102.355 38.1216)" gradientUnits="userSpaceOnUse">
        <stop stop-color="#121B38"/>
        <stop offset="1" stop-color="#121B38" stop-opacity="0"/>
      </radialGradient>
      <radialGradient id="paint40_radial_3470_82070" cx="0" cy="0" r="1" gradientTransform="matrix(331.65 -0.737497 -0.475497 -214.122 -102.355 38.1216)" gradientUnits="userSpaceOnUse">
        <stop stop-color="#121B38"/>
        <stop offset="1" stop-color="#121B38" stop-opacity="0"/>
      </radialGradient>
      <radialGradient id="paint41_radial_3470_82070" cx="0" cy="0" r="1" gradientTransform="matrix(331.65 -0.737497 -0.475497 -214.122 -102.355 38.1216)" gradientUnits="userSpaceOnUse">
        <stop stop-color="#121B38"/>
        <stop offset="1" stop-color="#121B38" stop-opacity="0"/>
      </radialGradient>
      <radialGradient id="paint42_radial_3470_82070" cx="0" cy="0" r="1" gradientTransform="matrix(331.65 -0.737497 -0.475497 -214.122 -102.355 38.1216)" gradientUnits="userSpaceOnUse">
        <stop stop-color="#121B38"/>
        <stop offset="1" stop-color="#121B38" stop-opacity="0"/>
      </radialGradient>
      <radialGradient id="paint43_radial_3470_82070" cx="0" cy="0" r="1" gradientTransform="matrix(331.65 -0.737497 -0.475497 -214.122 -102.355 38.1216)" gradientUnits="userSpaceOnUse">
        <stop stop-color="#121B38"/>
        <stop offset="1" stop-color="#121B38" stop-opacity="0"/>
      </radialGradient>
      <radialGradient id="paint44_radial_3470_82070" cx="0" cy="0" r="1" gradientTransform="matrix(331.65 -0.737497 -0.475497 -214.122 -102.355 38.1216)" gradientUnits="userSpaceOnUse">
        <stop stop-color="#121B38"/>
        <stop offset="1" stop-color="#121B38" stop-opacity="0"/>
      </radialGradient>
      <radialGradient id="paint45_radial_3470_82070" cx="0" cy="0" r="1" gradientTransform="matrix(331.65 -0.737497 -0.475497 -214.122 -102.355 38.1216)" gradientUnits="userSpaceOnUse">
        <stop stop-color="#121B38"/>
        <stop offset="1" stop-color="#121B38" stop-opacity="0"/>
      </radialGradient>
      <radialGradient id="paint46_radial_3470_82070" cx="0" cy="0" r="1" gradientTransform="matrix(331.65 -0.737497 -0.475497 -214.122 -102.355 38.1216)" gradientUnits="userSpaceOnUse">
        <stop stop-color="#121B38"/>
        <stop offset="1" stop-color="#121B38" stop-opacity="0"/>
      </radialGradient>
      <radialGradient id="paint47_radial_3470_82070" cx="0" cy="0" r="1" gradientTransform="matrix(331.65 -0.737497 -0.475497 -214.122 -102.355 38.1216)" gradientUnits="userSpaceOnUse">
        <stop stop-color="#121B38"/>
        <stop offset="1" stop-color="#121B38" stop-opacity="0"/>
      </radialGradient>
      <radialGradient id="paint48_radial_3470_82070" cx="0" cy="0" r="1" gradientTransform="matrix(331.65 -0.737497 -0.475497 -214.122 -102.355 38.1216)" gradientUnits="userSpaceOnUse">
        <stop stop-color="#121B38"/>
        <stop offset="1" stop-color="#121B38" stop-opacity="0"/>
      </radialGradient>
      <radialGradient id="paint49_radial_3470_82070" cx="0" cy="0" r="1" gradientTransform="matrix(331.65 -0.737497 -0.475497 -214.122 -102.355 38.1216)" gradientUnits="userSpaceOnUse">
        <stop stop-color="#121B38"/>
        <stop offset="1" stop-color="#121B38" stop-opacity="0"/>
      </radialGradient>
    </defs>
  </svg>
