<svg xmlns="http://www.w3.org/2000/svg" width="250" height="308" viewBox="0 0 250 308" fill="none">
    <g opacity="0.2">
      <path fill-rule="evenodd" clip-rule="evenodd" d="M-69.5483 -5.32599C-69.4543 -5.5289 -69.3633 -5.83175 -69.1694 -6.03765L-60.1329 -25.0164L-55.2436 -18.7598C-53.8904 -16.9995 -53.1638 -16.1208 -53.0309 -15.0243C-52.8981 -13.9278 -53.3679 -12.9133 -54.4076 -10.8813L-58.6424 -1.95065C-61.2827 3.43071 -62.0315 5.15388 -62.2865 6.66218C-63.6555 14.4066 -59.5347 18.3851 -51.5186 22.1471C-43.4995 26.009 -37.8751 26.7411 -32.7539 20.6852C-31.7873 19.5558 -30.9355 17.9297 -28.3982 12.4513L-21.7111 -1.45489C-20.7714 -3.4839 -20.3015 -4.4984 -19.4168 -5.0251C-18.5322 -5.55179 -17.4327 -5.58468 -15.1337 -5.65347L-7.23427 -5.78976L-18.72 18.2645C-18.814 18.4674 -18.905 18.7702 -19.0989 18.9761C-21.1693 23.34 -22.6729 26.5864 -24.8032 28.9512C-34.1818 39.8365 -45.5396 38.0754 -56.7051 32.7069C-67.8706 27.3384 -76.4032 19.6902 -73.8262 5.50677C-73.2252 2.18733 -71.6187 -0.962134 -69.5483 -5.32599Z" fill="url(#paint0_linear_3383_122053)"/>
      <path fill-rule="evenodd" clip-rule="evenodd" d="M-27.5218 88.5591C-27.7276 88.3652 -27.8336 88.1683 -28.0395 87.9744L-41.4302 71.7676L-33.6815 69.935C-31.4944 69.4694 -30.4039 69.1366 -29.3924 69.5066C-28.3809 69.8765 -27.6543 70.7551 -26.2041 72.4125L-19.8735 80.0266C-16.0346 84.6138 -14.7903 86.0773 -13.5639 86.941C-7.12616 91.4505 -1.7854 89.3898 5.04698 83.6829C11.8794 77.9761 14.9374 73.1825 11.6204 65.9784C10.9818 64.697 9.83747 63.2305 5.99558 58.5433L-3.86502 46.6329C-5.31822 44.8756 -6.04482 43.9969 -6.17469 43.0003C-6.30755 41.9038 -5.83766 40.8893 -4.99788 38.8633L-1.81174 31.6648L15.2089 52.165C15.4148 52.3589 15.5208 52.5558 15.7267 52.7497C18.839 56.4583 21.1217 59.1913 22.4079 62.0541C28.3032 75.1837 21.9843 84.6769 12.4159 92.5666C2.84761 100.456 -7.62204 104.971 -19.474 96.7221C-22.2267 95.0037 -24.4095 92.2677 -27.5218 88.5591Z" fill="url(#paint1_linear_3383_122053)"/>
      <path fill-rule="evenodd" clip-rule="evenodd" d="M-97.4023 26.7213C-97.5963 26.9272 -97.6902 27.1301 -97.8842 27.336L-110.385 44.2174L-113.899 37.1193C-114.858 35.1471 -115.391 34.0626 -115.321 33.06C-115.254 31.9575 -114.578 31.1369 -113.232 29.2959L-107.365 21.4169C-103.808 16.6083 -102.653 15.0731 -102.192 13.7587C-99.3118 6.3693 -102.551 1.7641 -109.712 -3.5241C-116.774 -8.81528 -122.231 -10.6529 -128.388 -5.76658C-129.56 -4.8311 -130.718 -3.39585 -134.276 1.41271L-143.51 13.7944C-144.855 15.6355 -145.531 16.4561 -146.518 16.8858C-147.506 17.3155 -148.615 17.0485 -150.825 16.7145L-158.57 15.3455L-142.699 -5.93866C-142.505 -6.14457 -142.411 -6.34745 -142.217 -6.55335C-139.332 -10.4414 -137.217 -13.3059 -134.675 -15.2828C-123.335 -24.1259 -112.611 -20.1449 -102.685 -12.7384C-92.7588 -5.3319 -85.9806 3.8695 -91.1834 17.2311C-92.402 19.9688 -94.5173 22.8333 -97.4023 26.7213Z" fill="url(#paint2_linear_3383_122053)"/>
      <path fill-rule="evenodd" clip-rule="evenodd" d="M-156.109 -82.9721C-155.809 -82.9811 -155.606 -82.8871 -155.306 -82.896L-134.511 -80.0167L-139.018 -73.479C-140.263 -71.6409 -140.936 -70.7204 -141.923 -70.2906C-142.911 -69.8609 -144.017 -70.0279 -146.228 -70.362L-155.971 -71.6712C-161.898 -72.4943 -163.806 -72.7373 -165.2 -72.4955C-172.972 -71.4626 -175.522 -66.3841 -176.758 -57.5432C-177.994 -48.7023 -176.927 -43.1317 -169.731 -40.0455C-168.414 -39.4846 -166.503 -39.1416 -160.576 -38.3185L-145.305 -36.1743C-143.094 -35.8402 -141.988 -35.6732 -141.168 -34.9975C-140.347 -34.3217 -140.014 -33.2312 -139.252 -31.153L-136.726 -23.6252L-163.045 -27.2397C-163.345 -27.2307 -163.548 -27.3247 -163.848 -27.3158C-168.67 -27.9718 -172.186 -28.4669 -175.124 -29.6796C-188.3 -35.3881 -190.038 -46.6411 -188.403 -58.8955C-186.769 -71.1499 -181.98 -81.5978 -167.728 -83.4248C-164.347 -84.1262 -160.831 -83.6312 -156.109 -82.9721Z" fill="url(#paint3_linear_3383_122053)"/>
      <path fill-rule="evenodd" clip-rule="evenodd" d="M17.3929 -58.75C17.4019 -58.4501 17.4079 -58.2502 17.4168 -57.9503L17.0453 -36.9298L10.0318 -40.6217C7.99976 -41.6615 7.08522 -42.1343 6.45557 -43.1159C5.92888 -44.0005 5.89598 -45.1001 5.92716 -47.402L6.13386 -57.2126C6.25429 -63.2189 6.19747 -65.118 5.85573 -66.5084C3.92622 -74.1542 -1.53118 -75.9918 -10.3392 -76.1284C-19.2472 -76.262 -24.5999 -74.6013 -26.8745 -67.0298C-27.2325 -65.6185 -27.3755 -63.7134 -27.496 -57.7071L-27.7351 -42.293C-27.7693 -40.091 -27.8333 -38.8885 -28.4091 -38.071C-28.982 -37.1534 -29.9695 -36.7237 -32.0417 -35.7613L-39.1428 -32.3474L-38.7388 -58.9714C-38.7478 -59.2713 -38.7538 -59.4712 -38.7627 -59.771C-38.7064 -64.5749 -38.6141 -68.1793 -37.7043 -71.2078C-33.613 -84.9363 -22.6017 -88.067 -10.2923 -87.9351C2.01718 -87.8032 13.0289 -84.2309 16.5462 -70.3299C17.5415 -67.1582 17.5462 -63.6568 17.3929 -58.75Z" fill="url(#paint4_linear_3383_122053)"/>
      <path fill-rule="evenodd" clip-rule="evenodd" d="M-6.72009 -296.235C-6.91701 -296.129 -7.21389 -296.02 -7.41081 -295.914L-26.345 -286.744L-26.2814 -294.649C-26.2472 -296.851 -26.2831 -298.051 -25.7073 -298.868C-25.1345 -299.786 -24.1469 -300.216 -22.0778 -301.278L-13.2014 -305.545C-7.77865 -308.209 -6.10334 -309.059 -5.03074 -309.992C0.917011 -315.172 0.146809 -320.851 -3.69382 -328.84C-7.53446 -336.829 -11.4584 -340.913 -19.219 -339.481C-20.6124 -339.239 -22.3906 -338.485 -27.8134 -335.822L-41.7187 -329.103C-43.7908 -328.141 -44.7754 -327.611 -45.781 -327.781C-46.8835 -327.848 -47.707 -328.624 -49.5481 -329.969L-55.7949 -334.785L-31.8317 -346.407C-31.6348 -346.512 -31.3379 -346.621 -31.141 -346.727C-26.8028 -348.858 -23.5462 -350.356 -20.4625 -350.949C-6.33464 -353.572 1.42219 -345.1 6.75789 -333.955C12.0936 -322.81 13.9338 -311.46 3.21091 -302.035C0.874795 -299.864 -2.38188 -298.366 -6.72009 -296.235Z" fill="url(#paint5_linear_3383_122053)"/>
      <path fill-rule="evenodd" clip-rule="evenodd" d="M-143.731 133.455C-143.64 133.152 -143.646 132.952 -143.555 132.649L-138.765 112.197L-132.712 117.218C-130.968 118.666 -130.147 119.342 -129.817 120.333C-129.488 121.323 -129.754 122.432 -130.288 124.649L-132.503 134.219C-133.829 140.061 -134.275 141.876 -134.23 143.375C-133.894 151.268 -129.103 154.226 -120.438 156.268C-111.773 158.31 -106.188 157.743 -102.393 150.826C-101.732 149.506 -101.186 147.689 -99.8605 141.846L-96.3079 126.833C-95.774 124.616 -95.507 123.508 -94.8282 122.787C-94.0495 122.064 -92.959 121.731 -90.7719 121.265L-83.1232 119.436L-89.1516 145.328C-89.2426 145.63 -89.2366 145.83 -89.3276 146.133C-90.3865 150.867 -91.1844 154.292 -92.7 157.139C-99.5259 169.749 -111.009 170.493 -122.999 167.65C-134.99 164.807 -144.965 159.103 -145.592 144.815C-145.685 141.717 -144.89 138.191 -143.731 133.455Z" fill="url(#paint6_linear_3383_122053)"/>
      <path fill-rule="evenodd" clip-rule="evenodd" d="M-73.0902 100.327C-73.3871 100.436 -73.587 100.442 -73.8839 100.551L-94.0103 106.656L-92.6413 98.9112C-92.3073 96.7002 -92.0403 95.5918 -91.3645 94.7712C-90.6888 93.9506 -89.5982 93.6179 -87.4172 92.9523L-77.9992 90.0694C-72.2496 88.2966 -70.4654 87.743 -69.1869 87.0045C-62.5096 82.8029 -62.3801 77.0965 -64.9333 68.6691C-67.4895 60.1417 -70.7287 55.5365 -78.6281 55.6728C-80.0275 55.7147 -81.9147 56.1713 -87.6642 57.9441L-102.438 62.3879C-104.619 63.0534 -105.71 63.3862 -106.718 63.1162C-107.727 62.8462 -108.55 62.0705 -110.1 60.4161L-115.574 54.6773L-90.0923 47.0118C-89.7954 46.9028 -89.5955 46.8969 -89.2986 46.7879C-84.6396 45.348 -81.268 44.3467 -78.0695 44.251C-63.6729 43.9203 -57.3855 53.4365 -53.8281 65.3355C-50.2736 77.1344 -50.2296 88.6383 -62.4057 96.3058C-65.0596 97.8859 -68.4312 98.8872 -73.0902 100.327Z" fill="url(#paint7_linear_3383_122053)"/>
      <path fill-rule="evenodd" clip-rule="evenodd" d="M-219.387 -1.04305C-219.293 -1.24596 -219.202 -1.5488 -219.008 -1.75471L-209.869 -20.6365L-205.08 -14.3769C-203.726 -12.6166 -203 -11.7379 -202.967 -10.6384C-202.834 -9.54189 -203.304 -8.52738 -204.347 -6.59534L-208.684 2.23835C-211.325 7.6197 -212.073 9.34288 -212.331 10.7512C-213.8 18.4986 -209.679 22.4771 -201.76 26.3421C-193.841 30.207 -188.117 30.9361 -182.99 25.0802C-182.023 23.9507 -181.171 22.3245 -178.531 16.9432L-171.744 3.03396C-170.804 1.00495 -170.234 -0.0125444 -169.35 -0.539236C-168.465 -1.06593 -167.366 -1.09882 -165.067 -1.16761L-157.167 -1.3039L-168.756 22.6534C-168.85 22.8563 -169.041 23.1621 -169.135 23.365C-171.205 27.7289 -172.812 30.8784 -174.939 33.3431C-184.421 44.1315 -195.781 42.2704 -206.847 36.8989C-217.913 31.5274 -226.248 23.7732 -223.671 9.58983C-223.064 6.47027 -221.558 3.3238 -219.387 -1.04305Z" fill="url(#paint8_linear_3383_122053)"/>
      <path fill-rule="evenodd" clip-rule="evenodd" d="M-85.2557 -85.5922C-84.9559 -85.6012 -84.756 -85.6071 -84.4561 -85.6161L-63.4535 -85.8443L-66.9425 -78.7368C-67.8823 -76.7078 -68.4521 -75.6903 -69.3367 -75.1636C-70.2214 -74.6369 -71.3209 -74.604 -73.6199 -74.5352L-83.5214 -74.4391C-89.5217 -74.3596 -91.4209 -74.3028 -92.8083 -73.8611C-100.348 -71.7346 -102.086 -66.2802 -102.019 -57.3782C-101.953 -48.4762 -100.092 -43.1295 -92.4301 -41.1577C-91.0188 -40.7998 -89.1166 -40.7567 -83.1163 -40.8362L-67.7142 -40.9968C-65.5152 -41.0626 -64.3127 -40.9986 -63.3982 -40.5257C-62.4807 -39.9529 -61.951 -38.9683 -60.9916 -36.9961L-57.3807 -30.001L-83.9838 -29.7052C-84.2837 -29.6963 -84.4836 -29.6903 -84.7835 -29.6813C-89.6843 -29.6347 -93.1857 -29.63 -96.2113 -30.4399C-110.128 -34.1254 -113.555 -45.0277 -113.626 -57.4312C-113.797 -69.8316 -110.625 -80.8314 -96.7356 -84.7485C-93.655 -85.4409 -90.0566 -85.5486 -85.2557 -85.5922Z" fill="url(#paint9_linear_3383_122053)"/>
      <path fill-rule="evenodd" clip-rule="evenodd" d="M-54.0988 163.287C-54.3017 163.193 -54.6046 163.102 -54.8105 162.908L-73.7862 153.972L-67.6296 149.086C-65.8693 147.732 -64.9906 147.006 -63.8941 146.873C-62.7976 146.74 -61.7831 147.21 -59.7541 148.15L-50.8264 152.285C-45.3481 154.822 -43.6249 155.571 -42.2166 155.829C-34.4722 157.198 -30.4966 152.977 -26.7347 144.961C-22.9727 136.945 -22.2406 131.32 -28.2965 126.199C-29.4259 125.232 -31.0521 124.381 -36.5304 121.843L-50.5336 115.259C-52.5626 114.32 -53.5771 113.85 -54.2037 112.968C-54.8304 112.086 -54.7633 110.984 -54.8321 108.685L-55.0684 100.788L-31.0201 112.074C-30.8172 112.168 -30.5143 112.259 -30.3084 112.453C-25.9446 114.524 -22.6982 116.027 -20.3364 118.057C-9.45402 127.336 -11.1152 138.691 -16.3807 149.953C-21.6493 161.116 -29.2945 169.748 -43.4749 167.271C-46.4885 166.861 -49.635 165.355 -54.0988 163.287Z" fill="url(#paint10_linear_3383_122053)"/>
      <path fill-rule="evenodd" clip-rule="evenodd" d="M193.708 -24.1074C193.911 -24.0134 194.217 -23.8224 194.419 -23.7285L213.116 -14.0833L206.754 -9.39093C204.893 -8.0347 204.012 -7.40805 203.015 -7.27818C201.916 -7.24528 201.001 -7.71814 198.969 -8.75785L190.229 -13.2985C184.845 -16.0387 183.219 -16.8905 181.811 -17.1484C174.057 -18.8173 170.076 -14.7964 166.011 -6.87133C161.946 1.05377 161.011 6.5842 166.876 12.0112C167.905 12.9809 169.635 13.9296 174.919 16.6728L188.637 23.7657C190.669 24.8054 191.584 25.2783 192.213 26.2599C192.74 27.1445 192.773 28.244 192.742 30.546L192.678 38.4514L169.003 26.254C168.8 26.16 168.494 25.9691 168.291 25.8751C164.024 23.7018 160.872 21.9953 158.507 19.865C147.913 10.1775 150.077 -1.09223 155.748 -12.1668C161.422 -23.1414 169.379 -31.383 183.472 -28.5032C186.189 -27.9842 189.338 -26.3777 193.708 -24.1074Z" fill="url(#paint11_linear_3383_122053)"/>
      <path fill-rule="evenodd" clip-rule="evenodd" d="M217.728 36.4014C218.028 36.3924 218.228 36.3864 218.528 36.3774L239.488 34.7499L236.505 42.0424C235.668 44.1683 235.199 45.1828 234.417 45.8065C233.535 46.4331 232.436 46.466 230.243 46.7317L220.462 47.5246C214.474 48.0039 212.577 48.1607 211.193 48.7023C203.768 51.3255 202.433 56.8679 203.099 65.752C203.765 74.636 205.923 79.8739 213.67 81.3428C215.079 81.6008 216.978 81.544 222.966 81.0647L238.338 79.9045C240.534 79.7387 241.731 79.6029 242.648 80.1757C243.563 80.6485 244.193 81.6301 245.352 83.5964L249.456 90.3766L222.904 92.3716C222.604 92.3806 222.404 92.3866 222.105 92.3955C217.313 92.739 213.72 93.0466 210.601 92.4396C196.511 89.6597 192.39 78.9782 191.423 66.7016C190.452 54.3251 192.919 43.1463 206.481 38.3386C209.344 37.0524 212.936 36.7448 217.728 36.4014Z" fill="url(#paint12_linear_3383_122053)"/>
      <path fill-rule="evenodd" clip-rule="evenodd" d="M77.8162 -2.03164C77.8072 -2.33149 77.9012 -2.5344 77.8922 -2.83426L81.0714 -23.6387L87.5122 -19.0292C89.3502 -17.7836 90.2708 -17.1108 90.7005 -16.1232C91.1302 -15.1356 90.9632 -14.0302 90.6292 -11.8192L89.1201 -2.06969C88.197 3.86056 87.954 5.76868 88.1958 7.16206C89.1317 15.0376 94.2102 17.5869 102.954 18.926C111.698 20.2651 117.372 19.295 120.558 12.0964C121.119 10.7791 121.465 8.96795 122.385 2.93774L124.729 -12.3392C125.063 -14.5502 125.23 -15.6557 125.906 -16.4763C126.581 -17.2968 127.672 -17.6296 129.753 -18.2921L137.284 -20.7184L133.27 5.61341C133.279 5.91327 133.185 6.11618 133.194 6.41603C132.438 11.2408 131.942 14.7572 130.627 17.5978C124.815 30.6774 113.459 32.3178 101.199 30.4836C88.9387 28.6495 78.5877 23.7568 76.9606 9.49911C76.4621 6.21256 77.0601 2.79312 77.8162 -2.03164Z" fill="url(#paint13_linear_3383_122053)"/>
      <path fill-rule="evenodd" clip-rule="evenodd" d="M92.3756 -63.7947C92.3846 -63.4948 92.3905 -63.2949 92.3995 -62.995L94.127 -42.0373L86.7376 -44.9176C84.6116 -45.7544 83.6001 -46.1243 82.9735 -47.006C82.3468 -47.8876 82.214 -48.9841 82.0482 -51.1802L81.2553 -60.9608C80.7761 -66.9492 80.5193 -68.8424 80.0776 -70.2298C77.3545 -77.6517 71.8121 -78.9865 63.031 -78.2236C54.1499 -77.4576 48.9121 -75.3 47.546 -67.4556C47.2881 -66.0473 47.3449 -64.1481 47.9241 -58.1628L49.1843 -42.7936C49.3501 -40.5976 49.4859 -39.4011 49.013 -38.4865C48.5402 -37.572 47.5586 -36.9424 45.6923 -35.786L38.9121 -31.6814L36.7172 -58.2277C36.7082 -58.5275 36.7022 -58.7274 36.6933 -59.0273C36.2499 -63.8162 35.9422 -67.4086 36.5492 -70.5281C39.2292 -84.6146 49.8078 -88.8328 62.1813 -89.9034C74.4548 -90.9709 85.7306 -88.607 90.7353 -75.1507C91.6246 -72.1759 91.9292 -68.6835 92.3756 -63.7947Z" fill="url(#paint14_linear_3383_122053)"/>
      <path fill-rule="evenodd" clip-rule="evenodd" d="M81.302 141.228C81.1931 140.931 81.1871 140.731 81.0782 140.435L74.9736 120.308L82.718 121.677C84.929 122.011 86.0374 122.278 86.858 122.954C87.6786 123.63 88.0113 124.72 88.5769 126.904L91.4599 136.322C93.2326 142.072 93.7862 143.856 94.5248 145.135C98.7263 151.812 104.433 151.941 112.86 149.388C121.288 146.835 125.993 143.593 125.856 135.693C125.815 134.294 125.358 132.407 123.585 126.657L119.141 111.883C118.476 109.702 118.143 108.612 118.413 107.603C118.683 106.595 119.459 105.771 121.113 104.221L126.852 98.747L134.517 124.229C134.626 124.526 134.632 124.726 134.741 125.023C136.181 129.682 137.183 133.053 137.278 136.252C137.609 150.649 128.093 156.936 116.194 160.493C104.395 164.048 92.891 164.092 85.2234 151.916C83.7433 149.259 82.742 145.887 81.302 141.228Z" fill="url(#paint15_linear_3383_122053)"/>
      <path fill-rule="evenodd" clip-rule="evenodd" d="M55.6254 118.986C55.8313 119.18 55.9372 119.377 56.1431 119.571L69.2399 135.987L61.4852 137.619C59.2982 138.085 58.2046 138.318 57.1931 137.948C56.1816 137.578 55.455 136.699 54.1018 134.939L47.9682 127.219C44.2262 122.529 42.9819 121.065 41.8555 120.198C35.5147 115.586 30.171 117.547 23.2326 123.057C16.2943 128.567 13.1363 133.363 16.2534 140.573C16.792 141.858 17.9394 143.424 21.6813 148.114L31.248 160.234C32.6013 161.994 33.3279 162.873 33.4607 163.969C33.5936 165.066 33.1237 166.08 32.184 168.109L28.7979 175.314L12.268 154.499C12.0621 154.305 11.9562 154.108 11.7503 153.914C8.73496 150.102 6.55216 147.366 5.26298 144.404C-0.335428 131.165 6.1864 121.766 15.8607 114.073C25.5349 106.38 36.2135 102.159 47.7716 110.617C50.4273 112.439 52.61 115.175 55.6254 118.986Z" fill="url(#paint16_linear_3383_122053)"/>
      <path fill-rule="evenodd" clip-rule="evenodd" d="M164.633 47.3941C164.839 47.5881 165.045 47.782 165.151 47.9789L179.905 62.9444L172.374 65.3707C170.193 66.0362 169.203 66.366 168.097 66.199C167.088 65.929 166.265 65.1533 164.715 63.4989L157.802 56.5025C153.573 52.2271 152.231 50.8666 151.011 50.2028C144.188 46.205 139.062 48.7595 132.745 54.9512C126.427 61.1429 123.778 66.2244 127.686 73.1106C128.424 74.3891 129.666 75.7526 133.895 80.028L144.729 91.0089C146.276 92.5633 147.102 93.439 147.332 94.4326C147.562 95.4262 147.195 96.5376 146.458 98.6606L143.881 106.141L125.206 87.1911C125 86.9971 124.794 86.8032 124.588 86.6093C121.182 83.1096 118.705 80.5825 117.122 77.8286C110.145 65.3317 115.646 55.2626 124.491 46.5943C133.336 37.9259 143.479 32.5201 155.901 39.7519C158.75 41.3674 161.227 43.8945 164.633 47.3941Z" fill="url(#paint17_linear_3383_122053)"/>
      <path fill-rule="evenodd" clip-rule="evenodd" d="M2.9638 10.7126C2.85486 10.4157 2.8489 10.2158 2.73996 9.91894L-1.97426 -10.5492L5.68514 -8.67745C7.9021 -8.14351 8.91062 -7.87356 9.73419 -7.09785C10.4578 -6.31916 10.6906 -5.22563 11.2562 -3.04155L13.4454 6.5973C14.8213 12.4588 15.275 14.246 15.9136 15.5275C19.6244 22.5196 25.3398 22.9489 33.985 20.9895C42.6303 19.03 47.4443 16.0848 47.8078 8.17037C47.8659 6.76801 47.5092 4.87781 46.1333 -0.983657L42.6801 -16.0872C42.2145 -18.2742 41.8817 -19.3647 42.2516 -20.3762C42.6215 -21.3878 43.5002 -22.1144 45.1576 -23.5646L51.2083 -28.6478L57.1865 -2.71498C57.2954 -2.41812 57.3014 -2.2182 57.4103 -1.92133C58.5534 2.8466 59.2549 6.22713 59.1506 9.43169C58.5787 23.7552 48.5448 29.4578 36.522 32.2186C24.4991 34.9794 13.0714 34.2208 6.19147 21.6209C4.90828 18.8581 4.1069 15.4805 2.9638 10.7126Z" fill="url(#paint18_linear_3383_122053)"/>
      <path fill-rule="evenodd" clip-rule="evenodd" d="M59.1087 94.9712C58.9058 94.8773 58.603 94.7863 58.3001 94.6953L38.5756 87.4819L44.3174 82.1078C45.9718 80.5577 46.7505 79.8341 47.8441 79.6012C48.8376 79.3714 49.9491 79.7384 52.0751 80.5751L61.2817 84.0013C66.9449 86.0329 68.6651 86.6817 70.1704 86.8368C77.9938 87.5031 81.5606 82.9944 84.6139 74.6994C87.6672 66.4044 87.8965 60.695 81.4558 56.0855C80.2294 55.2218 78.5093 54.573 72.843 52.4415L58.376 47.0717C56.253 46.3349 55.2385 45.865 54.5148 45.0863C53.8882 44.2047 53.7554 43.1081 53.4896 40.9151L52.6536 33.0366L77.6387 42.1935C77.9415 42.2845 78.1444 42.3784 78.4473 42.4694C82.9991 44.134 86.3365 45.3347 88.8952 47.2591C100.55 55.6143 99.8917 67.0391 95.6376 78.6715C91.3836 90.3039 84.453 99.4153 70.2115 98.2407C66.998 97.8366 63.6606 96.6359 59.1087 94.9712Z" fill="url(#paint19_linear_3383_122053)"/>
      <path fill-rule="evenodd" clip-rule="evenodd" d="M-13.0575 227.589C-13.2604 227.495 -13.5632 227.404 -13.7661 227.31L-33.1178 219.185L-27.17 214.005C-25.5127 212.555 -24.634 211.828 -23.5405 211.595C-22.444 211.462 -21.4324 211.832 -19.4034 212.772L-10.2848 216.601C-4.71254 218.935 -2.99235 219.584 -1.587 219.742C6.2454 220.708 9.92107 216.497 13.3772 208.29C16.8333 200.083 17.2656 194.467 11.0158 189.552C9.88933 188.685 8.16318 187.836 2.59387 185.602L-11.6912 179.626C-13.7173 178.787 -14.8317 178.32 -15.4584 177.438C-16.085 176.556 -16.1179 175.457 -16.2836 173.261L-16.8198 165.373L7.69837 175.645C7.90127 175.739 8.20412 175.83 8.40702 175.924C12.8649 177.791 16.1083 179.195 18.667 181.119C29.9372 189.986 28.7788 201.426 24.016 212.773C19.2562 224.221 11.9169 233.044 -2.24563 231.167C-5.35621 230.86 -8.59666 229.556 -13.0575 227.589Z" fill="url(#paint20_linear_3383_122053)"/>
      <path fill-rule="evenodd" clip-rule="evenodd" d="M-93.2144 226.886C-93.4202 226.692 -93.6232 226.598 -93.829 226.404L-110.998 214.312L-104.009 210.501C-102.04 209.442 -101.055 208.912 -99.9529 208.979C-98.8504 209.046 -97.9299 209.719 -96.0918 210.965L-88.0189 216.626C-83.1134 220.08 -81.4812 221.132 -80.1668 221.593C-72.6834 224.27 -68.1841 220.834 -63.0988 213.579C-58.0135 206.324 -56.3758 200.872 -61.3591 194.819C-62.2916 193.746 -63.8268 192.591 -68.7323 189.137L-81.4019 180.312C-83.24 179.066 -84.1605 178.393 -84.5903 177.406C-85.02 176.418 -84.853 175.312 -84.5189 173.101L-83.3528 165.263L-61.5868 180.519C-61.381 180.713 -61.1781 180.807 -60.9722 181.001C-56.9872 183.783 -54.1256 185.798 -52.0518 188.237C-42.9178 199.269 -46.493 210.181 -53.5937 220.298C-60.6943 230.415 -69.6838 237.587 -83.2363 232.69C-86.3678 231.683 -89.2294 229.668 -93.2144 226.886Z" fill="url(#paint21_linear_3383_122053)"/>
      <path fill-rule="evenodd" clip-rule="evenodd" d="M-22.8295 245.389C-22.6266 245.483 -22.3208 245.674 -22.1179 245.768L-4.08486 256.633L-10.7622 260.835C-12.6284 261.991 -13.6101 262.621 -14.7096 262.654C-15.8091 262.687 -16.7266 262.114 -18.6616 260.971L-27.1164 255.922C-32.3099 252.876 -33.9391 251.924 -35.3504 251.566C-42.9158 249.491 -47.2062 253.221 -51.7827 260.762C-56.3593 268.302 -57.5912 273.941 -52.1201 279.58C-51.0876 280.65 -49.5584 281.605 -44.362 284.751L-31.1196 292.658C-29.1846 293.801 -28.267 294.373 -27.7373 295.358C-27.2077 296.343 -27.3747 297.448 -27.5088 299.653L-28.0722 307.574L-50.8898 293.95C-51.0927 293.856 -51.3986 293.665 -51.6015 293.571C-55.7774 291.095 -58.8329 289.285 -61.0037 286.949C-70.9194 276.541 -68.1498 265.453 -61.7638 254.858C-55.3778 244.262 -46.906 236.505 -33.0835 240.393C-30.0609 241.103 -27.0054 242.913 -22.8295 245.389Z" fill="url(#paint22_linear_3383_122053)"/>
      <path fill-rule="evenodd" clip-rule="evenodd" d="M26.9143 292.923C26.7114 292.829 26.4085 292.738 26.2056 292.644L6.57803 285.327L12.3199 279.953C13.9743 278.403 14.753 277.679 15.8465 277.447C16.8401 277.217 17.9515 277.584 20.0775 278.421L29.2841 281.847C34.9504 283.978 36.6676 284.527 38.1729 284.682C45.9963 285.349 49.566 280.94 52.7193 272.642C55.8725 264.344 56.1019 258.634 49.6612 254.025C48.5347 253.158 46.7146 252.512 41.1483 250.378L26.6812 245.008C24.5583 244.271 23.5437 243.801 22.9201 243.02C22.2934 242.138 22.1606 241.042 21.8949 238.849L21.0589 230.97L45.9499 240.33C46.2528 240.421 46.4557 240.515 46.6586 240.609C51.2104 242.273 54.5508 243.574 57.1065 245.398C68.7646 253.854 68.006 265.281 63.649 276.817C59.2921 288.352 52.1615 297.47 37.9171 296.195C34.7065 295.891 31.4661 294.587 26.9143 292.923Z" fill="url(#paint23_linear_3383_122053)"/>
      <path fill-rule="evenodd" clip-rule="evenodd" d="M125.076 213.251C124.97 213.054 124.764 212.86 124.655 212.564L112.437 195.421L120.203 194.189C122.393 193.823 123.49 193.69 124.501 194.06C125.513 194.43 126.142 195.411 127.396 197.175L133.139 205.207C136.587 210.106 137.731 211.572 138.86 212.539C145.013 217.557 150.363 215.796 157.613 210.677C164.863 205.558 168.227 200.955 165.504 193.533C164.962 192.149 163.915 190.58 160.467 185.681L151.485 173.044C150.229 171.18 149.502 170.302 149.469 169.202C149.436 168.103 149.909 167.188 150.949 165.156L154.641 158.143L170.095 179.79C170.301 179.984 170.41 180.281 170.516 180.478C173.334 184.395 175.423 187.334 176.512 190.303C181.417 203.762 174.386 212.876 164.294 219.981C154.205 227.186 143.309 230.814 132.233 221.741C129.883 220.111 127.897 217.269 125.076 213.251Z" fill="url(#paint24_linear_3383_122053)"/>
      <path fill-rule="evenodd" clip-rule="evenodd" d="M121.724 -42.5628C121.518 -42.7568 121.315 -42.8507 121.109 -43.0446L104.515 -55.9542L111.617 -59.3681C113.689 -60.3305 114.673 -60.8602 115.679 -60.6902C116.781 -60.6231 117.605 -59.8474 119.346 -58.4988L127.131 -52.4289C131.843 -48.7682 133.378 -47.6136 134.695 -47.0528C141.988 -44.0695 146.696 -47.2117 152.19 -54.1791C157.684 -61.1466 159.525 -66.504 154.832 -72.8665C153.997 -74.0421 152.561 -75.1997 147.747 -78.9573L135.559 -88.3971C133.818 -89.7456 132.897 -90.4184 132.568 -91.409C132.238 -92.3995 132.405 -93.505 132.839 -95.719L134.408 -103.469L155.404 -87.19C155.61 -86.9961 155.813 -86.9021 156.019 -86.7082C159.81 -83.7202 162.674 -81.605 164.551 -79.06C173.101 -67.5105 169.017 -56.8836 161.407 -47.0516C153.798 -37.2196 144.49 -30.6384 131.22 -36.144C128.382 -37.3596 125.515 -39.5748 121.724 -42.5628Z" fill="url(#paint25_linear_3383_122053)"/>
      <path fill-rule="evenodd" clip-rule="evenodd" d="M203.693 112.355C203.899 112.549 204.105 112.743 204.211 112.94L218.865 127.908L211.334 130.335C209.153 131 208.163 131.33 207.054 131.063C206.046 130.793 205.222 130.017 203.672 128.363L196.76 121.366C192.53 117.091 191.189 115.731 189.968 115.067C183.146 111.069 178.02 113.623 171.702 119.815C165.384 126.007 162.735 131.088 166.543 137.978C167.282 139.256 168.523 140.62 172.753 144.895L183.589 155.976C185.139 157.63 185.963 158.406 186.192 159.399C186.422 160.393 186.055 161.505 185.318 163.628L182.741 171.108L164.163 152.055C163.957 151.861 163.751 151.667 163.645 151.47C160.239 147.971 157.762 145.443 156.279 142.687C149.299 130.09 154.904 120.118 163.748 111.449C172.593 102.781 182.739 97.4751 195.161 104.707C197.81 106.328 200.287 108.855 203.693 112.355Z" fill="url(#paint26_linear_3383_122053)"/>
      <path fill-rule="evenodd" clip-rule="evenodd" d="M-24.6687 -250.778C-24.6597 -250.478 -24.7537 -250.275 -24.7447 -249.975L-27.2213 -229.092L-33.853 -233.396C-35.691 -234.641 -36.7085 -235.211 -37.1382 -236.199C-37.568 -237.186 -37.5009 -238.289 -37.1669 -240.5L-36.0576 -250.237C-35.3345 -256.161 -35.1914 -258.067 -35.4361 -259.56C-36.6689 -267.327 -41.7445 -269.776 -50.5794 -270.812C-59.4143 -271.848 -64.9819 -270.681 -67.9652 -263.389C-68.526 -262.071 -68.7691 -260.163 -69.4922 -254.239L-71.3336 -238.877C-71.5677 -236.669 -71.7347 -235.564 -72.4105 -234.743C-73.0863 -233.923 -74.1738 -233.49 -76.2519 -232.727L-83.6738 -230.004L-80.5621 -256.409C-80.5711 -256.709 -80.4771 -256.912 -80.486 -257.212C-79.9299 -262.03 -79.5348 -265.544 -78.3221 -268.481C-72.9165 -281.749 -61.5724 -283.789 -49.324 -282.355C-37.0757 -280.92 -26.5338 -276.334 -24.3099 -262.194C-23.7174 -259.11 -24.1125 -255.597 -24.6687 -250.778Z" fill="url(#paint27_linear_3383_122053)"/>
      <path fill-rule="evenodd" clip-rule="evenodd" d="M-16.8393 -162.973C-17.1391 -162.964 -17.342 -163.058 -17.6419 -163.049L-38.5134 -165.126L-34.3097 -171.754C-33.0671 -173.692 -32.4943 -174.61 -31.5067 -175.04C-30.5191 -175.469 -29.4166 -175.402 -27.2086 -175.168L-17.3741 -174.162C-11.3529 -173.542 -9.54773 -173.396 -8.05438 -173.64C-0.290761 -174.973 2.0556 -180.146 2.89194 -188.975C3.72828 -197.804 2.56126 -203.371 -4.8252 -206.151C-6.14256 -206.712 -8.05069 -206.955 -14.0689 -207.476L-29.4219 -209.017C-31.6299 -209.251 -32.7324 -209.318 -33.6529 -209.991C-34.4735 -210.667 -34.9032 -211.654 -35.6687 -213.833L-38.4918 -221.251L-11.999 -218.542C-11.6991 -218.551 -11.4962 -218.457 -11.1963 -218.466C-6.38054 -218.01 -2.86715 -217.615 0.0674331 -216.502C13.429 -211.3 15.6661 -200.062 14.3347 -187.716C13.1032 -175.374 8.71637 -164.838 -5.41747 -162.414C-8.5101 -162.122 -12.0235 -162.517 -16.8393 -162.973Z" fill="url(#paint28_linear_3383_122053)"/>
      <path fill-rule="evenodd" clip-rule="evenodd" d="M-99.3998 -254.045C-99.3908 -253.745 -99.3848 -253.545 -99.3759 -253.245L-97.7483 -232.284L-105.041 -235.267C-107.167 -236.104 -108.181 -236.574 -108.805 -237.356C-109.432 -238.238 -109.564 -239.334 -109.73 -241.53L-110.523 -251.311C-111.002 -257.299 -111.159 -259.195 -111.701 -260.58C-114.424 -268.001 -119.966 -269.336 -128.75 -268.673C-137.535 -268.01 -142.869 -265.75 -144.338 -258.002C-144.596 -256.594 -144.539 -254.695 -144.06 -248.707L-142.8 -233.337C-142.634 -231.141 -142.498 -229.945 -142.971 -229.03C-143.444 -228.116 -144.426 -227.486 -146.292 -226.33L-153.072 -222.225L-155.167 -248.774C-155.176 -249.074 -155.182 -249.274 -155.191 -249.574C-155.535 -254.366 -155.842 -257.958 -155.235 -261.078C-152.555 -275.164 -141.877 -279.386 -129.5 -280.356C-117.124 -281.327 -105.948 -278.96 -101.04 -265.401C-100.051 -262.429 -99.7462 -258.936 -99.3998 -254.045Z" fill="url(#paint29_linear_3383_122053)"/>
      <path fill-rule="evenodd" clip-rule="evenodd" d="M-147.301 -360.36C-147.507 -360.554 -147.709 -360.647 -148.015 -360.838L-165.473 -372.522L-158.586 -376.429C-156.62 -377.589 -155.635 -378.118 -154.633 -378.048C-153.53 -377.981 -152.613 -377.408 -150.775 -376.163L-142.608 -370.705C-137.605 -367.353 -135.976 -366.401 -134.662 -365.94C-127.184 -363.463 -122.688 -366.999 -117.806 -374.348C-112.923 -381.697 -111.389 -387.246 -116.569 -393.193C-117.501 -394.266 -119.037 -395.42 -124.036 -398.672L-136.897 -407.192C-138.735 -408.437 -139.652 -409.01 -140.182 -409.995C-140.612 -410.982 -140.445 -412.088 -140.211 -414.296L-139.244 -422.128L-117.093 -407.384C-116.888 -407.19 -116.685 -407.096 -116.379 -406.905C-112.297 -404.226 -109.435 -402.211 -107.264 -399.875C-97.8366 -389.052 -101.209 -378.046 -108.004 -367.738C-114.898 -357.427 -123.685 -350.161 -137.326 -354.655C-140.257 -355.668 -143.219 -357.68 -147.301 -360.36Z" fill="url(#paint30_linear_3383_122053)"/>
      <path fill-rule="evenodd" clip-rule="evenodd" d="M-149.003 -296.88C-149.197 -296.674 -149.391 -296.469 -149.585 -296.263L-164.55 -281.508L-166.977 -289.039C-167.642 -291.22 -168.072 -292.208 -167.805 -293.316C-167.535 -294.325 -166.759 -295.149 -165.205 -296.696L-158.208 -303.608C-153.933 -307.838 -152.672 -309.176 -151.912 -310.499C-148.014 -317.319 -150.568 -322.445 -156.76 -328.763C-162.952 -335.08 -168.03 -337.629 -174.919 -333.822C-176.198 -333.083 -177.561 -331.842 -181.837 -327.612L-192.818 -316.779C-194.372 -315.232 -195.248 -314.405 -196.241 -314.175C-197.235 -313.945 -198.346 -314.312 -200.469 -315.049L-207.95 -317.627L-189 -336.302C-188.806 -336.508 -188.612 -336.714 -188.418 -336.919C-185.018 -340.323 -182.491 -342.799 -179.737 -344.382C-167.24 -351.359 -157.174 -345.958 -148.406 -337.116C-139.638 -328.274 -134.335 -318.228 -141.464 -305.71C-143.076 -302.76 -145.603 -300.283 -149.003 -296.88Z" fill="url(#paint31_linear_3383_122053)"/>
      <path fill-rule="evenodd" clip-rule="evenodd" d="M-97.119 -127.656C-97.0101 -127.359 -97.0041 -127.159 -96.8952 -126.863L-91.7841 -106.506L-99.5375 -108.175C-101.751 -108.609 -102.86 -108.876 -103.584 -109.655C-104.307 -110.434 -104.64 -111.524 -105.205 -113.708L-107.592 -123.241C-109.068 -129.1 -109.521 -130.887 -110.26 -132.165C-114.167 -139.051 -119.78 -139.384 -128.419 -137.224C-137.058 -135.065 -141.87 -132.02 -142.033 -124.111C-142.091 -122.709 -141.635 -120.822 -140.159 -114.963L-136.412 -100.069C-135.846 -97.8847 -135.613 -96.7912 -135.883 -95.7827C-136.253 -94.7712 -137.032 -94.0476 -138.789 -92.5944L-144.737 -87.4142L-151.212 -113.232C-151.321 -113.529 -151.327 -113.729 -151.436 -114.026C-152.576 -118.694 -153.48 -122.168 -153.376 -125.373C-153.104 -139.687 -143.176 -145.587 -131.262 -148.645C-119.248 -151.705 -107.826 -151.147 -100.749 -138.653C-99.1634 -135.799 -98.3621 -132.421 -97.119 -127.656Z" fill="url(#paint32_linear_3383_122053)"/>
      <path fill-rule="evenodd" clip-rule="evenodd" d="M-89.4733 -216.525C-89.1734 -216.534 -88.9735 -216.54 -88.6736 -216.549L-67.701 -217.776L-70.7842 -210.481C-71.624 -208.455 -72.0909 -207.34 -72.9755 -206.814C-73.8571 -206.187 -74.9567 -206.154 -77.2526 -205.985L-87.0393 -205.392C-93.0306 -205.013 -94.9268 -204.856 -96.3142 -204.415C-103.742 -201.891 -105.277 -196.343 -104.714 -187.556C-104.148 -178.669 -102.09 -173.428 -94.3367 -171.759C-92.9284 -171.501 -91.0292 -171.558 -85.0349 -171.837L-69.6567 -172.798C-67.4607 -172.963 -66.2612 -172.999 -65.3467 -172.526C-64.4321 -172.054 -63.8025 -171.072 -62.7431 -169.103L-58.8354 -162.217L-85.3996 -160.621C-85.6995 -160.612 -85.8994 -160.606 -86.1993 -160.598C-90.9941 -160.354 -94.5865 -160.046 -97.7091 -160.753C-111.705 -163.736 -115.729 -174.521 -116.397 -186.806C-117.167 -199.189 -114.498 -210.273 -100.932 -214.981C-97.8635 -216.073 -94.3681 -216.278 -89.4733 -216.525Z" fill="url(#paint33_linear_3383_122053)"/>
      <path fill-rule="evenodd" clip-rule="evenodd" d="M-189.266 -274.966C-189.063 -274.872 -188.757 -274.681 -188.554 -274.587L-169.766 -265.245L-176.126 -260.453C-177.886 -259.1 -178.868 -258.47 -179.864 -258.34C-180.961 -258.207 -181.878 -258.78 -183.907 -259.72L-192.744 -264.158C-198.125 -266.798 -199.852 -267.647 -201.26 -267.905C-209.01 -269.473 -212.989 -265.353 -216.954 -257.431C-220.918 -249.508 -221.751 -243.881 -215.889 -238.554C-214.859 -237.584 -213.133 -236.736 -207.749 -233.995L-193.936 -227.105C-191.904 -226.066 -190.89 -225.596 -190.363 -224.711C-189.837 -223.826 -189.804 -222.727 -189.835 -220.425L-189.798 -212.523L-213.568 -224.517C-213.771 -224.611 -214.077 -224.802 -214.279 -224.896C-218.646 -227.066 -221.796 -228.673 -224.161 -230.803C-234.852 -240.388 -232.888 -251.651 -227.317 -262.723C-221.745 -273.795 -213.891 -282.133 -199.802 -279.353C-196.782 -278.743 -193.633 -277.137 -189.266 -274.966Z" fill="url(#paint34_linear_3383_122053)"/>
      <path fill-rule="evenodd" clip-rule="evenodd" d="M-149.321 -210.532C-149.118 -210.438 -148.812 -210.247 -148.609 -210.153L-130.297 -199.996L-136.866 -195.498C-138.729 -194.242 -139.611 -193.615 -140.71 -193.582C-141.81 -193.549 -142.727 -194.122 -144.759 -195.162L-153.405 -199.905C-158.695 -202.848 -160.321 -203.7 -161.733 -204.058C-169.392 -205.93 -173.58 -202.103 -177.847 -194.272C-182.115 -186.441 -183.25 -180.904 -177.582 -175.371C-176.552 -174.402 -174.923 -173.45 -169.633 -170.507L-156.103 -163.008C-154.171 -161.965 -153.153 -161.396 -152.623 -160.411C-152.097 -159.526 -152.161 -158.324 -152.295 -156.119L-152.658 -148.204L-175.955 -161.114C-176.158 -161.208 -176.464 -161.398 -176.666 -161.492C-180.939 -163.866 -183.992 -165.575 -186.26 -167.808C-196.466 -177.908 -194.099 -189.083 -188.019 -199.87C-181.939 -210.657 -173.776 -218.704 -159.869 -215.319C-156.646 -214.615 -153.491 -212.808 -149.321 -210.532Z" fill="url(#paint35_linear_3383_122053)"/>
      <path fill-rule="evenodd" clip-rule="evenodd" d="M-90.1834 -347.262C-89.8836 -347.271 -89.6807 -347.177 -89.3808 -347.186L-68.5123 -345.209L-72.713 -338.48C-73.8556 -336.545 -74.5284 -335.625 -75.4131 -335.098C-76.4006 -334.668 -77.5031 -334.735 -79.7111 -334.97L-89.5426 -335.876C-95.5609 -336.396 -97.3661 -336.542 -98.8594 -336.297C-106.62 -334.865 -108.866 -329.695 -109.703 -320.866C-110.539 -312.037 -109.272 -306.473 -101.886 -303.692C-100.568 -303.132 -98.6632 -302.988 -92.6419 -302.368L-77.292 -300.927C-75.084 -300.693 -73.9815 -300.626 -73.0609 -299.953C-72.2404 -299.277 -71.8106 -298.289 -70.9482 -296.214L-68.128 -288.895L-94.515 -291.407C-94.8148 -291.398 -95.0177 -291.492 -95.3176 -291.483C-100.133 -291.94 -103.644 -292.235 -106.678 -293.344C-120.137 -298.444 -122.374 -309.682 -121.239 -321.922C-120.105 -334.161 -115.824 -344.894 -101.693 -347.418C-98.5096 -348.013 -94.9992 -347.718 -90.1834 -347.262Z" fill="url(#paint36_linear_3383_122053)"/>
      <path fill-rule="evenodd" clip-rule="evenodd" d="M-77.4393 -121.942C-77.4483 -122.242 -77.4543 -122.442 -77.4633 -122.742L-79.1908 -143.7L-71.7984 -140.719C-69.6724 -139.882 -68.6609 -139.513 -68.0342 -138.631C-67.4076 -137.749 -67.2747 -136.653 -67.109 -134.457L-66.3161 -124.676C-65.8368 -118.688 -65.5801 -116.795 -65.1384 -115.407C-62.4152 -107.985 -56.8728 -106.65 -48.0917 -107.413C-39.2106 -108.179 -33.9728 -110.337 -32.6038 -118.081C-32.3458 -119.49 -32.4026 -121.389 -32.9819 -127.374L-34.2421 -142.743C-34.4078 -144.939 -34.5437 -146.136 -34.0708 -147.05C-33.5979 -147.965 -32.6163 -148.595 -30.7501 -149.751L-23.9698 -153.855L-21.7749 -127.309C-21.766 -127.009 -21.76 -126.809 -21.751 -126.51C-21.3076 -121.721 -21 -118.128 -21.607 -115.009C-24.2869 -100.922 -34.9655 -96.7011 -47.239 -95.6336C-59.5126 -94.566 -70.7883 -96.9299 -75.696 -110.489C-76.6883 -113.561 -76.9959 -117.153 -77.4393 -121.942Z" fill="url(#paint37_linear_3383_122053)"/>
      <path fill-rule="evenodd" clip-rule="evenodd" d="M26.1251 -97.9287C25.8253 -97.9197 25.6254 -97.9137 25.3255 -97.9047L4.34387 -96.9769L7.53001 -104.175C8.46975 -106.204 8.93963 -107.219 9.82128 -107.846C10.7029 -108.472 11.8024 -108.505 14.1014 -108.574L23.994 -108.97C29.9883 -109.249 31.8845 -109.406 33.2719 -109.848C40.8027 -112.274 42.3405 -117.722 41.9743 -126.615C41.6082 -135.509 39.5506 -140.749 31.8941 -142.521C30.4828 -142.879 28.5837 -142.822 22.5893 -142.543L7.2022 -141.882C5.00319 -141.817 3.80371 -141.781 2.88917 -142.254C1.97462 -142.726 1.44494 -143.711 0.285613 -145.677L-3.52211 -152.566L23.057 -153.662C23.3569 -153.671 23.5568 -153.677 23.8567 -153.686C28.7515 -153.932 32.2499 -154.037 35.3725 -153.33C49.3739 -150.147 53.1013 -139.254 53.6691 -126.965C54.2369 -114.677 51.3702 -103.486 37.696 -99.0752C34.5184 -98.2798 30.92 -98.1722 26.1251 -97.9287Z" fill="url(#paint38_linear_3383_122053)"/>
      <path fill-rule="evenodd" clip-rule="evenodd" d="M188.728 -284.175C188.934 -283.981 189.137 -283.887 189.443 -283.696L206.803 -271.91L199.917 -268.002C197.948 -266.943 196.966 -266.313 195.963 -266.383C194.861 -266.45 193.943 -267.023 192.102 -268.369L183.932 -273.927C178.93 -277.279 177.398 -278.333 175.983 -278.791C168.503 -281.369 164.007 -277.833 159.024 -270.48C154.042 -263.128 152.504 -257.68 157.587 -251.629C158.52 -250.556 160.055 -249.402 165.058 -246.05L177.824 -237.328C179.662 -236.082 180.583 -235.409 181.013 -234.422C181.442 -233.434 181.275 -232.329 181.041 -230.121L179.975 -222.285L157.918 -237.232C157.712 -237.426 157.509 -237.52 157.203 -237.711C153.221 -240.393 150.26 -242.406 148.186 -244.845C138.855 -255.771 142.331 -266.679 149.225 -276.99C156.12 -287.301 165.11 -294.473 178.653 -289.876C181.782 -288.969 184.743 -286.957 188.728 -284.175Z" fill="url(#paint39_linear_3383_122053)"/>
      <path fill-rule="evenodd" clip-rule="evenodd" d="M189.751 -179.759C189.545 -179.953 189.439 -180.149 189.233 -180.343L175.549 -196.341L183.195 -198.271C185.379 -198.836 186.472 -199.069 187.481 -198.799C188.492 -198.429 189.216 -197.651 190.669 -195.893L197.097 -188.382C201.035 -183.798 202.277 -182.434 203.503 -181.571C210.038 -177.164 215.276 -179.322 222.005 -185.126C228.734 -190.929 231.693 -195.72 228.376 -202.924C227.737 -204.206 226.593 -205.672 222.654 -210.256L212.599 -221.961C211.149 -223.618 210.422 -224.497 210.29 -225.593C210.157 -226.69 210.527 -227.701 211.466 -229.73L214.55 -237.026L231.861 -216.835C232.067 -216.641 232.173 -216.444 232.379 -216.25C235.491 -212.541 237.871 -209.911 239.157 -207.048C245.249 -194.025 239.033 -184.435 229.671 -176.351C220.308 -168.267 209.742 -163.649 197.896 -171.699C195.243 -173.42 192.963 -176.053 189.751 -179.759Z" fill="url(#paint40_linear_3383_122053)"/>
      <path fill-rule="evenodd" clip-rule="evenodd" d="M96.9985 -287.133C97.2984 -287.142 97.4983 -287.148 97.7982 -287.157L118.783 -287.985L115.497 -280.783C114.557 -278.754 114.087 -277.74 113.205 -277.113C112.324 -276.486 111.224 -276.454 108.925 -276.385L99.0327 -275.989C93.0384 -275.709 91.1392 -275.652 89.7518 -275.211C82.221 -272.784 80.6833 -267.336 81.0494 -258.443C81.4155 -249.55 83.3732 -244.306 91.1326 -242.437C92.5439 -242.079 94.443 -242.136 100.437 -242.416L115.924 -243.079C118.123 -243.145 119.323 -243.181 120.237 -242.708C121.152 -242.235 121.682 -241.25 122.741 -239.281L126.549 -232.392L99.9697 -231.297C99.6698 -231.288 99.4699 -231.282 99.17 -231.273C94.2752 -231.026 90.7768 -230.922 87.6542 -231.629C73.6498 -234.911 69.9254 -245.705 69.4546 -258.096C68.9838 -270.488 71.7535 -281.575 85.4276 -285.986C88.6053 -286.782 92.1007 -286.986 96.9985 -287.133Z" fill="url(#paint41_linear_3383_122053)"/>
      <path fill-rule="evenodd" clip-rule="evenodd" d="M98.8448 -362.522C98.5449 -362.513 98.348 -362.407 98.0481 -362.398L77.471 -357.981L79.4428 -365.643C79.9767 -367.86 80.2466 -368.868 81.0253 -369.592C81.804 -370.316 82.8976 -370.548 85.0846 -371.014L94.7265 -373.103C100.591 -374.379 102.478 -374.836 103.76 -375.475C110.755 -379.085 111.384 -384.807 109.524 -393.455C107.665 -402.103 104.817 -407.02 96.8993 -407.484C95.4969 -407.542 93.6067 -407.185 87.7393 -406.009L72.6298 -402.756C70.4427 -402.29 69.3492 -402.057 68.3377 -402.427C67.3262 -402.797 66.5996 -403.676 65.2463 -405.436L60.36 -411.593L86.4048 -417.174C86.7046 -417.183 86.9016 -417.289 87.2014 -417.298C91.9723 -418.341 95.4528 -419.046 98.5604 -418.838C112.893 -417.967 118.396 -407.927 120.957 -395.898C123.52 -383.769 122.562 -372.335 109.853 -365.752C107.093 -364.369 103.616 -363.565 98.8448 -362.522Z" fill="url(#paint42_linear_3383_122053)"/>
      <path fill-rule="evenodd" clip-rule="evenodd" d="M33.13 -308.532C33.024 -308.729 32.8152 -309.023 32.7092 -309.22L20.785 -326.571L28.6546 -327.707C30.8476 -327.973 31.9411 -328.206 32.9556 -327.736C33.9701 -327.266 34.5967 -326.384 35.853 -324.521L41.3989 -316.383C44.8499 -311.384 45.8943 -309.915 47.0238 -308.948C53.0796 -303.827 58.5323 -305.491 65.7854 -310.51C73.1385 -315.532 76.5054 -320.035 73.9821 -327.463C73.5404 -328.85 72.493 -330.419 69.045 -335.318L60.26 -348.061C59.0037 -349.925 58.377 -350.806 58.3441 -351.906C58.3112 -353.005 58.884 -353.923 59.9237 -355.955L63.7186 -362.871L78.7821 -340.912C78.888 -340.715 79.0969 -340.421 79.2028 -340.224C81.9243 -336.204 84.0131 -333.265 85.0024 -330.293C89.7102 -316.728 82.4737 -307.808 72.3787 -300.803C62.1837 -293.795 51.2843 -290.267 40.302 -299.543C37.9373 -301.673 35.9484 -304.615 33.13 -308.532Z" fill="url(#paint43_linear_3383_122053)"/>
      <path fill-rule="evenodd" clip-rule="evenodd" d="M118.21 -106.486C118.016 -106.28 117.82 -106.175 117.626 -105.969L101.728 -92.2871L99.7982 -99.9328C99.2326 -102.117 98.9998 -103.21 99.2698 -104.219C99.6397 -105.23 100.418 -105.954 102.176 -107.407L109.687 -113.835C114.271 -117.774 115.635 -119.015 116.498 -120.241C120.905 -126.776 118.747 -132.014 112.943 -138.743C107.14 -145.473 102.349 -148.431 95.1479 -145.014C93.8664 -144.375 92.4 -143.231 87.8157 -139.292L76.1112 -129.238C74.4538 -127.787 73.5752 -127.061 72.4816 -126.828C71.3851 -126.695 70.3736 -127.065 68.3446 -128.005L61.0491 -131.088L81.2404 -148.399C81.4344 -148.605 81.6313 -148.711 81.8252 -148.917C85.5308 -152.129 88.1638 -154.409 91.0266 -155.695C104.05 -161.788 113.637 -155.672 121.724 -146.209C129.811 -136.747 134.423 -126.38 126.376 -114.434C124.649 -111.981 121.916 -109.699 118.21 -106.486Z" fill="url(#paint44_linear_3383_122053)"/>
      <path fill-rule="evenodd" clip-rule="evenodd" d="M160.601 -180.987C160.507 -180.785 160.316 -180.479 160.222 -180.276L149.866 -161.958L145.467 -168.529C144.211 -170.393 143.584 -171.274 143.551 -172.374C143.518 -173.473 144.091 -174.391 145.134 -176.323L149.98 -184.872C152.927 -190.062 153.775 -191.788 154.133 -193.199C156.005 -200.859 152.178 -205.046 144.544 -209.42C136.81 -213.791 131.273 -214.926 125.64 -209.255C124.571 -208.222 123.619 -206.593 120.673 -201.402L113.071 -187.969C111.929 -186.034 111.459 -185.02 110.474 -184.49C109.59 -183.963 108.387 -184.027 106.182 -184.161L98.2677 -184.525L111.38 -207.727C111.474 -207.93 111.665 -208.236 111.759 -208.439C114.132 -212.712 115.841 -215.764 118.074 -218.032C128.174 -228.239 139.355 -225.672 150.142 -219.592C160.929 -213.512 168.88 -205.246 165.394 -191.335C164.684 -188.313 162.975 -185.26 160.601 -180.987Z" fill="url(#paint45_linear_3383_122053)"/>
      <path fill-rule="evenodd" clip-rule="evenodd" d="M15.0748 -229.857C14.7719 -229.948 14.572 -229.942 14.2691 -230.033L-6.09529 -235.226L-0.971113 -241.182C0.477376 -242.927 1.2531 -243.75 2.24368 -244.08C3.23426 -244.41 4.34274 -244.143 6.5597 -243.609L16.1362 -241.194C21.9844 -239.668 23.7956 -239.322 25.2949 -239.367C33.1944 -239.503 36.2524 -244.297 38.3941 -252.965C40.5389 -261.533 40.1685 -267.224 33.3489 -271.122C32.1255 -271.886 30.3113 -272.332 24.4631 -273.858L9.44414 -277.61C7.22718 -278.144 6.21866 -278.414 5.39509 -279.19C4.67148 -279.968 4.43866 -281.062 3.97305 -283.249L2.24046 -291.001L28.0473 -284.47C28.3502 -284.379 28.5501 -284.385 28.853 -284.294C33.5897 -283.135 37.0181 -282.237 39.7677 -280.618C52.2865 -273.49 52.7274 -262.098 49.6848 -250.101C46.6422 -238.105 40.7321 -228.324 26.4355 -227.996C23.2399 -227.8 19.8115 -228.698 15.0748 -229.857Z" fill="url(#paint46_linear_3383_122053)"/>
      <path fill-rule="evenodd" clip-rule="evenodd" d="M25.3687 -360.624C25.0718 -360.515 24.8719 -360.509 24.575 -360.4L4.33067 -354.892L5.89959 -362.642C6.33357 -364.856 6.60055 -365.965 7.2793 -366.685C7.95506 -367.506 9.04859 -367.739 11.2326 -368.304L20.7596 -370.89C26.5151 -372.463 28.3993 -373.02 29.5778 -373.755C36.3611 -377.76 36.6904 -383.472 34.3342 -392.006C31.9779 -400.539 28.9327 -405.35 21.0302 -405.314C19.6279 -405.372 17.7407 -404.915 11.9851 -403.342L-2.90049 -399.295C-5.08455 -398.73 -6.17509 -398.397 -7.18661 -398.767C-8.19513 -399.037 -8.92173 -399.916 -10.4719 -401.57L-15.7521 -407.515L9.95096 -414.487C10.2478 -414.595 10.4477 -414.601 10.7446 -414.71C15.4096 -415.95 18.8811 -416.955 21.9857 -416.848C36.2943 -416.775 42.3878 -407.053 45.6453 -395.145C48.9029 -383.237 48.5471 -371.722 36.1591 -364.448C33.5052 -362.868 30.0307 -361.964 25.3687 -360.624Z" fill="url(#paint47_linear_3383_122053)"/>
      <path fill-rule="evenodd" clip-rule="evenodd" d="M57.0671 -220.709C57.367 -220.718 57.5639 -220.824 57.8638 -220.833L78.5618 -224.553L76.3871 -216.985C75.7502 -214.865 75.4833 -213.757 74.7046 -213.033C73.9259 -212.309 72.8324 -212.076 70.6423 -211.711L60.9915 -209.921C55.1211 -208.845 53.2308 -208.489 51.9494 -207.85C44.8483 -204.436 44.0162 -198.809 45.6788 -190.055C47.2414 -181.297 49.9897 -176.377 57.8161 -175.611C59.2215 -175.453 61.1117 -175.81 66.9821 -176.886L82.2065 -179.642C84.3965 -180.008 85.4901 -180.241 86.5016 -179.871C87.5131 -179.501 88.1398 -178.619 89.496 -176.759L94.2883 -170.4L68.1197 -165.615C67.8198 -165.606 67.6229 -165.5 67.3231 -165.491C62.5462 -164.648 59.0657 -163.943 55.9551 -164.25C41.6106 -165.522 36.4018 -175.771 34.2378 -187.912C32.0737 -200.052 33.3321 -211.495 46.2527 -217.684C48.8097 -219.161 52.2902 -219.866 57.0671 -220.709Z" fill="url(#paint48_linear_3383_122053)"/>
      <path fill-rule="evenodd" clip-rule="evenodd" d="M164.791 -104.479C164.588 -104.573 164.286 -104.663 164.083 -104.757L144.546 -112.377L150.391 -117.654C152.045 -119.204 152.924 -119.931 153.917 -120.16C154.911 -120.39 156.025 -119.923 158.051 -119.084L167.261 -115.557C172.827 -113.423 174.648 -112.777 176.053 -112.619C183.879 -111.853 187.549 -116.264 190.705 -124.462C193.861 -132.661 194.191 -138.373 187.847 -143.085C186.721 -143.952 184.997 -144.701 179.331 -146.832L164.958 -152.405C162.832 -153.242 161.821 -153.612 161.194 -154.493C160.567 -155.375 160.434 -156.471 160.269 -158.668L159.533 -166.549L184.333 -156.886C184.636 -156.795 184.838 -156.701 185.041 -156.607C189.596 -154.843 192.837 -153.539 195.392 -151.715C206.953 -143.157 205.995 -131.723 201.538 -120.184C197.081 -108.646 190.048 -99.6317 175.697 -101.103C172.584 -101.51 169.246 -102.711 164.791 -104.479Z" fill="url(#paint49_linear_3383_122053)"/>
    </g>
    <defs>
      <linearGradient id="paint0_linear_3383_122053" x1="193.001" y1="232.5" x2="-276.275" y2="-265.491" gradientUnits="userSpaceOnUse">
        <stop stop-color="white" stop-opacity="0"/>
        <stop offset="1" stop-color="white"/>
      </linearGradient>
      <linearGradient id="paint1_linear_3383_122053" x1="193.001" y1="232.5" x2="-276.275" y2="-265.491" gradientUnits="userSpaceOnUse">
        <stop stop-color="white" stop-opacity="0"/>
        <stop offset="1" stop-color="white"/>
      </linearGradient>
      <linearGradient id="paint2_linear_3383_122053" x1="193.001" y1="232.5" x2="-276.275" y2="-265.491" gradientUnits="userSpaceOnUse">
        <stop stop-color="white" stop-opacity="0"/>
        <stop offset="1" stop-color="white"/>
      </linearGradient>
      <linearGradient id="paint3_linear_3383_122053" x1="193.001" y1="232.5" x2="-276.275" y2="-265.491" gradientUnits="userSpaceOnUse">
        <stop stop-color="white" stop-opacity="0"/>
        <stop offset="1" stop-color="white"/>
      </linearGradient>
      <linearGradient id="paint4_linear_3383_122053" x1="193.001" y1="232.5" x2="-276.275" y2="-265.491" gradientUnits="userSpaceOnUse">
        <stop stop-color="white" stop-opacity="0"/>
        <stop offset="1" stop-color="white"/>
      </linearGradient>
      <linearGradient id="paint5_linear_3383_122053" x1="193.001" y1="232.5" x2="-276.275" y2="-265.491" gradientUnits="userSpaceOnUse">
        <stop stop-color="white" stop-opacity="0"/>
        <stop offset="1" stop-color="white"/>
      </linearGradient>
      <linearGradient id="paint6_linear_3383_122053" x1="193.001" y1="232.5" x2="-276.275" y2="-265.491" gradientUnits="userSpaceOnUse">
        <stop stop-color="white" stop-opacity="0"/>
        <stop offset="1" stop-color="white"/>
      </linearGradient>
      <linearGradient id="paint7_linear_3383_122053" x1="193.001" y1="232.5" x2="-276.275" y2="-265.491" gradientUnits="userSpaceOnUse">
        <stop stop-color="white" stop-opacity="0"/>
        <stop offset="1" stop-color="white"/>
      </linearGradient>
      <linearGradient id="paint8_linear_3383_122053" x1="193.001" y1="232.5" x2="-276.275" y2="-265.491" gradientUnits="userSpaceOnUse">
        <stop stop-color="white" stop-opacity="0"/>
        <stop offset="1" stop-color="white"/>
      </linearGradient>
      <linearGradient id="paint9_linear_3383_122053" x1="193.001" y1="232.5" x2="-276.275" y2="-265.491" gradientUnits="userSpaceOnUse">
        <stop stop-color="white" stop-opacity="0"/>
        <stop offset="1" stop-color="white"/>
      </linearGradient>
      <linearGradient id="paint10_linear_3383_122053" x1="193.001" y1="232.5" x2="-276.275" y2="-265.491" gradientUnits="userSpaceOnUse">
        <stop stop-color="white" stop-opacity="0"/>
        <stop offset="1" stop-color="white"/>
      </linearGradient>
      <linearGradient id="paint11_linear_3383_122053" x1="193.001" y1="232.5" x2="-276.275" y2="-265.491" gradientUnits="userSpaceOnUse">
        <stop stop-color="white" stop-opacity="0"/>
        <stop offset="1" stop-color="white"/>
      </linearGradient>
      <linearGradient id="paint12_linear_3383_122053" x1="193.001" y1="232.5" x2="-276.275" y2="-265.491" gradientUnits="userSpaceOnUse">
        <stop stop-color="white" stop-opacity="0"/>
        <stop offset="1" stop-color="white"/>
      </linearGradient>
      <linearGradient id="paint13_linear_3383_122053" x1="193.001" y1="232.5" x2="-276.275" y2="-265.491" gradientUnits="userSpaceOnUse">
        <stop stop-color="white" stop-opacity="0"/>
        <stop offset="1" stop-color="white"/>
      </linearGradient>
      <linearGradient id="paint14_linear_3383_122053" x1="193.001" y1="232.5" x2="-276.275" y2="-265.491" gradientUnits="userSpaceOnUse">
        <stop stop-color="white" stop-opacity="0"/>
        <stop offset="1" stop-color="white"/>
      </linearGradient>
      <linearGradient id="paint15_linear_3383_122053" x1="193.001" y1="232.5" x2="-276.275" y2="-265.491" gradientUnits="userSpaceOnUse">
        <stop stop-color="white" stop-opacity="0"/>
        <stop offset="1" stop-color="white"/>
      </linearGradient>
      <linearGradient id="paint16_linear_3383_122053" x1="193.001" y1="232.5" x2="-276.275" y2="-265.491" gradientUnits="userSpaceOnUse">
        <stop stop-color="white" stop-opacity="0"/>
        <stop offset="1" stop-color="white"/>
      </linearGradient>
      <linearGradient id="paint17_linear_3383_122053" x1="193.001" y1="232.5" x2="-276.275" y2="-265.491" gradientUnits="userSpaceOnUse">
        <stop stop-color="white" stop-opacity="0"/>
        <stop offset="1" stop-color="white"/>
      </linearGradient>
      <linearGradient id="paint18_linear_3383_122053" x1="193.001" y1="232.5" x2="-276.275" y2="-265.491" gradientUnits="userSpaceOnUse">
        <stop stop-color="white" stop-opacity="0"/>
        <stop offset="1" stop-color="white"/>
      </linearGradient>
      <linearGradient id="paint19_linear_3383_122053" x1="193.001" y1="232.5" x2="-276.275" y2="-265.491" gradientUnits="userSpaceOnUse">
        <stop stop-color="white" stop-opacity="0"/>
        <stop offset="1" stop-color="white"/>
      </linearGradient>
      <linearGradient id="paint20_linear_3383_122053" x1="193.001" y1="232.5" x2="-276.275" y2="-265.491" gradientUnits="userSpaceOnUse">
        <stop stop-color="white" stop-opacity="0"/>
        <stop offset="1" stop-color="white"/>
      </linearGradient>
      <linearGradient id="paint21_linear_3383_122053" x1="193.001" y1="232.5" x2="-276.275" y2="-265.491" gradientUnits="userSpaceOnUse">
        <stop stop-color="white" stop-opacity="0"/>
        <stop offset="1" stop-color="white"/>
      </linearGradient>
      <linearGradient id="paint22_linear_3383_122053" x1="193.001" y1="232.5" x2="-276.275" y2="-265.491" gradientUnits="userSpaceOnUse">
        <stop stop-color="white" stop-opacity="0"/>
        <stop offset="1" stop-color="white"/>
      </linearGradient>
      <linearGradient id="paint23_linear_3383_122053" x1="193.001" y1="232.5" x2="-276.275" y2="-265.491" gradientUnits="userSpaceOnUse">
        <stop stop-color="white" stop-opacity="0"/>
        <stop offset="1" stop-color="white"/>
      </linearGradient>
      <linearGradient id="paint24_linear_3383_122053" x1="193.001" y1="232.5" x2="-276.275" y2="-265.491" gradientUnits="userSpaceOnUse">
        <stop stop-color="white" stop-opacity="0"/>
        <stop offset="1" stop-color="white"/>
      </linearGradient>
      <linearGradient id="paint25_linear_3383_122053" x1="193.001" y1="232.5" x2="-276.275" y2="-265.491" gradientUnits="userSpaceOnUse">
        <stop stop-color="white" stop-opacity="0"/>
        <stop offset="1" stop-color="white"/>
      </linearGradient>
      <linearGradient id="paint26_linear_3383_122053" x1="193.001" y1="232.5" x2="-276.275" y2="-265.491" gradientUnits="userSpaceOnUse">
        <stop stop-color="white" stop-opacity="0"/>
        <stop offset="1" stop-color="white"/>
      </linearGradient>
      <linearGradient id="paint27_linear_3383_122053" x1="193.001" y1="232.5" x2="-276.275" y2="-265.491" gradientUnits="userSpaceOnUse">
        <stop stop-color="white" stop-opacity="0"/>
        <stop offset="1" stop-color="white"/>
      </linearGradient>
      <linearGradient id="paint28_linear_3383_122053" x1="193.001" y1="232.5" x2="-276.275" y2="-265.491" gradientUnits="userSpaceOnUse">
        <stop stop-color="white" stop-opacity="0"/>
        <stop offset="1" stop-color="white"/>
      </linearGradient>
      <linearGradient id="paint29_linear_3383_122053" x1="193.001" y1="232.5" x2="-276.275" y2="-265.491" gradientUnits="userSpaceOnUse">
        <stop stop-color="white" stop-opacity="0"/>
        <stop offset="1" stop-color="white"/>
      </linearGradient>
      <linearGradient id="paint30_linear_3383_122053" x1="193.001" y1="232.5" x2="-276.275" y2="-265.491" gradientUnits="userSpaceOnUse">
        <stop stop-color="white" stop-opacity="0"/>
        <stop offset="1" stop-color="white"/>
      </linearGradient>
      <linearGradient id="paint31_linear_3383_122053" x1="193.001" y1="232.5" x2="-276.275" y2="-265.491" gradientUnits="userSpaceOnUse">
        <stop stop-color="white" stop-opacity="0"/>
        <stop offset="1" stop-color="white"/>
      </linearGradient>
      <linearGradient id="paint32_linear_3383_122053" x1="193.001" y1="232.5" x2="-276.275" y2="-265.491" gradientUnits="userSpaceOnUse">
        <stop stop-color="white" stop-opacity="0"/>
        <stop offset="1" stop-color="white"/>
      </linearGradient>
      <linearGradient id="paint33_linear_3383_122053" x1="193.001" y1="232.5" x2="-276.275" y2="-265.491" gradientUnits="userSpaceOnUse">
        <stop stop-color="white" stop-opacity="0"/>
        <stop offset="1" stop-color="white"/>
      </linearGradient>
      <linearGradient id="paint34_linear_3383_122053" x1="193.001" y1="232.5" x2="-276.275" y2="-265.491" gradientUnits="userSpaceOnUse">
        <stop stop-color="white" stop-opacity="0"/>
        <stop offset="1" stop-color="white"/>
      </linearGradient>
      <linearGradient id="paint35_linear_3383_122053" x1="193.001" y1="232.5" x2="-276.275" y2="-265.491" gradientUnits="userSpaceOnUse">
        <stop stop-color="white" stop-opacity="0"/>
        <stop offset="1" stop-color="white"/>
      </linearGradient>
      <linearGradient id="paint36_linear_3383_122053" x1="193.001" y1="232.5" x2="-276.275" y2="-265.491" gradientUnits="userSpaceOnUse">
        <stop stop-color="white" stop-opacity="0"/>
        <stop offset="1" stop-color="white"/>
      </linearGradient>
      <linearGradient id="paint37_linear_3383_122053" x1="193.001" y1="232.5" x2="-276.275" y2="-265.491" gradientUnits="userSpaceOnUse">
        <stop stop-color="white" stop-opacity="0"/>
        <stop offset="1" stop-color="white"/>
      </linearGradient>
      <linearGradient id="paint38_linear_3383_122053" x1="193.001" y1="232.5" x2="-276.275" y2="-265.491" gradientUnits="userSpaceOnUse">
        <stop stop-color="white" stop-opacity="0"/>
        <stop offset="1" stop-color="white"/>
      </linearGradient>
      <linearGradient id="paint39_linear_3383_122053" x1="193.001" y1="232.5" x2="-276.275" y2="-265.491" gradientUnits="userSpaceOnUse">
        <stop stop-color="white" stop-opacity="0"/>
        <stop offset="1" stop-color="white"/>
      </linearGradient>
      <linearGradient id="paint40_linear_3383_122053" x1="193.001" y1="232.5" x2="-276.275" y2="-265.491" gradientUnits="userSpaceOnUse">
        <stop stop-color="white" stop-opacity="0"/>
        <stop offset="1" stop-color="white"/>
      </linearGradient>
      <linearGradient id="paint41_linear_3383_122053" x1="193.001" y1="232.5" x2="-276.275" y2="-265.491" gradientUnits="userSpaceOnUse">
        <stop stop-color="white" stop-opacity="0"/>
        <stop offset="1" stop-color="white"/>
      </linearGradient>
      <linearGradient id="paint42_linear_3383_122053" x1="193.001" y1="232.5" x2="-276.275" y2="-265.491" gradientUnits="userSpaceOnUse">
        <stop stop-color="white" stop-opacity="0"/>
        <stop offset="1" stop-color="white"/>
      </linearGradient>
      <linearGradient id="paint43_linear_3383_122053" x1="193.001" y1="232.5" x2="-276.275" y2="-265.491" gradientUnits="userSpaceOnUse">
        <stop stop-color="white" stop-opacity="0"/>
        <stop offset="1" stop-color="white"/>
      </linearGradient>
      <linearGradient id="paint44_linear_3383_122053" x1="193.001" y1="232.5" x2="-276.275" y2="-265.491" gradientUnits="userSpaceOnUse">
        <stop stop-color="white" stop-opacity="0"/>
        <stop offset="1" stop-color="white"/>
      </linearGradient>
      <linearGradient id="paint45_linear_3383_122053" x1="193.001" y1="232.5" x2="-276.275" y2="-265.491" gradientUnits="userSpaceOnUse">
        <stop stop-color="white" stop-opacity="0"/>
        <stop offset="1" stop-color="white"/>
      </linearGradient>
      <linearGradient id="paint46_linear_3383_122053" x1="193.001" y1="232.5" x2="-276.275" y2="-265.491" gradientUnits="userSpaceOnUse">
        <stop stop-color="white" stop-opacity="0"/>
        <stop offset="1" stop-color="white"/>
      </linearGradient>
      <linearGradient id="paint47_linear_3383_122053" x1="193.001" y1="232.5" x2="-276.275" y2="-265.491" gradientUnits="userSpaceOnUse">
        <stop stop-color="white" stop-opacity="0"/>
        <stop offset="1" stop-color="white"/>
      </linearGradient>
      <linearGradient id="paint48_linear_3383_122053" x1="193.001" y1="232.5" x2="-276.275" y2="-265.491" gradientUnits="userSpaceOnUse">
        <stop stop-color="white" stop-opacity="0"/>
        <stop offset="1" stop-color="white"/>
      </linearGradient>
      <linearGradient id="paint49_linear_3383_122053" x1="193.001" y1="232.5" x2="-276.275" y2="-265.491" gradientUnits="userSpaceOnUse">
        <stop stop-color="white" stop-opacity="0"/>
        <stop offset="1" stop-color="white"/>
      </linearGradient>
    </defs>
  </svg>
