<svg xmlns="http://www.w3.org/2000/svg" width="221" height="250" viewBox="0 0 221 250" fill="none">
    <g opacity="0.5">
      <path fill-rule="evenodd" clip-rule="evenodd" d="M-87.5574 -61.4545C-87.7539 -61.3561 -88.0487 -61.2578 -88.2452 -61.0611L-106.621 -51.6211L-100.332 -46.9994C-98.5632 -45.721 -97.6788 -45.0327 -96.5979 -44.9344C-95.517 -44.836 -94.5343 -45.3277 -92.569 -46.4094L-83.9215 -50.8344C-78.7134 -53.5877 -77.0428 -54.3744 -75.5688 -54.6694C-68.0023 -56.2428 -63.9734 -52.3094 -60.0427 -44.541C-56.0138 -36.7726 -55.1294 -31.266 -60.9271 -26.0543C-62.0081 -25.0709 -63.5803 -24.1859 -68.8867 -21.5309L-82.3492 -14.5492C-84.3146 -13.5659 -85.2972 -13.0742 -85.7886 -12.1892C-86.2799 -11.3042 -86.2799 -10.2225 -86.2799 -7.96085L-86.1816 -0.19249L-62.8925 -12.1892C-62.6959 -12.2875 -62.4011 -12.3859 -62.2046 -12.5825C-57.9791 -14.7459 -54.8346 -16.3192 -52.5744 -18.4826C-42.1582 -28.0209 -44.2218 -39.1327 -49.823 -49.9494C-55.4242 -60.7661 -63.1873 -68.9278 -77.0428 -65.9778C-80.2856 -65.2895 -83.3319 -63.6178 -87.5574 -61.4545Z" fill="url(#paint0_radial_3470_82221)"/>
      <path fill-rule="evenodd" clip-rule="evenodd" d="M5.89423 -22.9076C5.69769 -23.1043 5.50116 -23.2026 5.30463 -23.3993L-11.0076 -36.0843L-12.5799 -28.4143C-12.973 -26.2509 -13.2678 -25.1693 -12.8747 -24.1859C-12.4816 -23.2026 -11.5972 -22.5143 -9.92671 -21.1376L-2.2619 -15.1392C2.35663 -11.5009 3.83064 -10.3209 4.71504 -9.14087C9.33357 -2.94583 7.46649 2.36418 2.06183 9.24756C-3.34285 16.1309 -7.96138 19.2776 -15.1348 16.2292C-16.4123 15.6392 -17.8863 14.5576 -22.6031 10.9192L-34.5917 1.57751C-36.3604 0.200836 -37.2449 -0.487488 -38.2275 -0.585831C-39.3085 -0.684158 -40.2911 -0.19249 -42.2565 0.69252L-49.2334 4.03586L-28.5974 20.1626C-28.4008 20.3593 -28.2043 20.4576 -28.0078 20.6543C-24.2736 23.6043 -21.5222 25.7676 -18.6724 26.9476C-5.60297 32.356 3.53583 25.866 11.0041 16.2292C18.4724 6.59253 22.5996 -3.83086 14.1486 -15.2376C12.3798 -17.8926 9.62837 -19.9576 5.89423 -22.9076Z" fill="url(#paint1_radial_3470_82221)"/>
      <path fill-rule="evenodd" clip-rule="evenodd" d="M-56.8982 -89.7746C-56.7017 -89.9713 -56.5051 -90.0696 -56.3086 -90.2663L-40.0946 -103.05L-47.1698 -106.295C-49.1351 -107.18 -50.2161 -107.671 -51.1987 -107.573C-52.2797 -107.475 -53.0658 -106.786 -54.8346 -105.41L-62.4012 -99.4113C-67.0197 -95.7729 -68.4937 -94.5929 -69.7711 -94.1013C-76.9446 -91.0529 -81.5631 -94.1013 -86.9678 -100.985C-92.3725 -107.77 -94.3378 -113.08 -89.7193 -119.275C-88.8349 -120.455 -87.4591 -121.635 -82.8406 -125.273L-70.9503 -134.713C-69.1815 -136.09 -68.3954 -136.778 -68.0023 -137.761C-67.6093 -138.745 -67.9041 -139.826 -68.2971 -141.99L-69.8694 -149.562L-90.3089 -133.336C-90.5054 -133.14 -90.7019 -133.041 -90.8985 -132.845C-94.6326 -129.895 -97.3841 -127.731 -99.2512 -125.175C-107.604 -113.768 -103.378 -103.345 -95.8118 -93.8063C-88.2453 -84.2679 -79.0082 -77.8762 -66.037 -83.3829C-63.3838 -84.6612 -60.6323 -86.8246 -56.8982 -89.7746Z" fill="url(#paint2_radial_3470_82221)"/>
      <path fill-rule="evenodd" clip-rule="evenodd" d="M-166.367 -144.252C-166.367 -143.957 -166.269 -143.76 -166.269 -143.465L-162.83 -123.11L-156.541 -127.731C-154.772 -129.01 -153.887 -129.698 -153.494 -130.681C-153.101 -131.665 -153.298 -132.746 -153.691 -134.91L-155.263 -144.448C-156.246 -150.25 -156.541 -152.118 -156.344 -153.495C-155.558 -161.165 -150.645 -163.82 -141.997 -165.295C-133.35 -166.77 -127.847 -165.885 -124.604 -158.903C-124.014 -157.625 -123.621 -155.757 -122.639 -149.955L-120.084 -135.008C-119.691 -132.845 -119.494 -131.763 -118.806 -130.976C-118.118 -130.19 -117.037 -129.895 -114.974 -129.206L-107.506 -126.945L-111.829 -152.708C-111.829 -153.003 -111.928 -153.2 -111.928 -153.495C-112.714 -158.215 -113.303 -161.657 -114.581 -164.508C-120.575 -177.292 -131.679 -178.668 -143.668 -176.702C-155.656 -174.735 -165.778 -169.72 -167.153 -155.658C-167.743 -152.315 -167.153 -148.873 -166.367 -144.252Z" fill="url(#paint3_radial_3470_82221)"/>
      <path fill-rule="evenodd" clip-rule="evenodd" d="M-137.477 25.571C-137.182 25.571 -136.986 25.571 -136.691 25.571L-116.055 24.5876L-119.887 17.8026C-120.968 15.8359 -121.459 14.9509 -122.442 14.3609C-123.326 13.8692 -124.407 13.8692 -126.668 13.9676L-136.298 14.4592C-142.194 14.7542 -144.061 14.7542 -145.436 14.4592C-153.003 12.7876 -154.968 7.47754 -155.361 -1.17584C-155.754 -9.92755 -154.28 -15.2376 -146.91 -17.6959C-145.535 -18.0892 -143.668 -18.2859 -137.772 -18.5809L-122.639 -19.2693C-120.477 -19.3676 -119.298 -19.4659 -118.511 -20.0559C-117.627 -20.6459 -117.234 -21.6293 -116.35 -23.6943L-113.205 -30.7743L-139.344 -29.5943C-139.639 -29.5943 -139.835 -29.5943 -140.13 -29.5943C-144.847 -29.3976 -148.384 -29.201 -151.332 -28.2176C-164.697 -23.7926 -167.448 -12.8775 -166.957 -0.782486C-166.466 11.3126 -162.633 22.0309 -148.876 25.0793C-145.731 25.9643 -142.292 25.866 -137.477 25.571Z" fill="url(#paint4_radial_3470_82221)"/>
      <path fill-rule="evenodd" clip-rule="evenodd" d="M-371.45 8.8542C-371.352 8.65755 -371.253 8.36255 -371.155 8.16588L-362.704 -10.7142L-370.467 -10.4192C-372.629 -10.3209 -373.808 -10.3209 -374.594 -9.73088C-375.479 -9.14087 -375.872 -8.15753 -376.855 -6.09253L-380.785 2.75752C-383.242 8.16588 -384.028 9.83755 -384.912 10.9192C-389.826 16.9176 -395.427 16.3276 -403.387 12.7876C-411.346 9.24754 -415.473 5.51086 -414.294 -2.15918C-414.098 -3.53584 -413.41 -5.30585 -410.953 -10.7142L-404.762 -24.5793C-403.878 -26.6443 -403.387 -27.6276 -403.583 -28.611C-403.681 -29.6926 -404.467 -30.4793 -405.843 -32.2493L-410.757 -38.2477L-421.468 -14.3526C-421.566 -14.1559 -421.664 -13.8609 -421.762 -13.6642C-423.728 -9.33754 -425.103 -6.09251 -425.595 -3.04417C-427.757 10.9192 -419.207 18.2943 -408.103 23.211C-396.999 28.1276 -385.797 29.6026 -376.855 18.7859C-374.791 16.4259 -373.415 13.1809 -371.45 8.8542Z" fill="url(#paint5_radial_3470_82221)"/>
      <path fill-rule="evenodd" clip-rule="evenodd" d="M46.5766 -138.45C46.2818 -138.351 46.0853 -138.351 45.7905 -138.253L25.8424 -132.943L30.9522 -127.141C32.4262 -125.47 33.1141 -124.683 34.0968 -124.388C35.0794 -124.093 36.1604 -124.388 38.3222 -124.978L47.6576 -127.436C53.357 -128.911 55.1258 -129.403 56.5998 -129.403C64.3629 -129.305 67.4092 -124.683 69.6693 -116.226C71.9294 -107.77 71.5364 -102.263 64.8542 -98.3296C63.5768 -97.6413 61.808 -97.0513 56.1085 -95.5763L41.4668 -91.6429C39.3049 -91.0529 38.224 -90.7579 37.5361 -90.0696C36.8482 -89.2829 36.5534 -88.2013 36.1604 -86.0379L34.5881 -78.4662L59.8426 -85.1529C60.1374 -85.2512 60.334 -85.2512 60.6288 -85.3496C65.2473 -86.5296 68.5884 -87.4146 71.3398 -88.9879C83.5249 -96.0679 83.918 -107.376 80.7734 -119.078C77.6289 -130.78 71.7329 -140.416 57.6808 -140.613C54.6345 -140.613 51.1952 -139.728 46.5766 -138.45Z" fill="url(#paint6_radial_3470_82221)"/>
      <path fill-rule="evenodd" clip-rule="evenodd" d="M16.114 -68.0428C16.2122 -68.3378 16.2122 -68.5345 16.3105 -68.8295L21.7152 -88.7912L14.1486 -87.2179C11.9868 -86.8246 10.9058 -86.5296 10.1197 -85.8412C9.33357 -85.1529 9.03876 -84.0712 8.44916 -81.9079L5.89423 -72.5662C4.32196 -66.8628 3.83063 -65.0928 3.14276 -63.8145C-0.787903 -57.1278 -6.3891 -56.8328 -14.7418 -59.0944C-23.1927 -61.3561 -27.8112 -64.4045 -27.9095 -72.1728C-27.9095 -73.5495 -27.5164 -75.4179 -25.9442 -81.1212L-22.0135 -95.7729C-21.4239 -97.9363 -21.1291 -99.018 -21.4239 -100.001C-21.7187 -100.985 -22.5049 -101.771 -24.1754 -103.246L-29.9731 -108.458L-36.7535 -83.1862C-36.8518 -82.8912 -36.8518 -82.6945 -36.95 -82.3996C-38.2275 -77.7779 -39.1119 -74.4345 -39.1119 -71.2878C-39.0137 -57.1278 -29.4818 -51.2277 -17.6898 -48.0811C-5.99603 -44.9344 5.30463 -45.2294 12.4781 -57.4228C13.9521 -60.0778 14.8365 -63.4211 16.114 -68.0428Z" fill="url(#paint7_radial_3470_82221)"/>
      <path fill-rule="evenodd" clip-rule="evenodd" d="M-87.7539 -208.857C-87.9505 -208.758 -88.2453 -208.66 -88.4418 -208.463L-106.719 -198.925L-100.43 -194.402C-98.6615 -193.123 -97.7771 -192.435 -96.6962 -192.435C-95.6153 -192.337 -94.6326 -192.828 -92.7655 -193.91L-84.2163 -198.433C-79.0082 -201.187 -77.3377 -201.973 -75.9619 -202.268C-68.3954 -203.94 -64.3665 -200.007 -60.3375 -192.337C-56.3086 -184.667 -55.4242 -179.062 -61.0254 -173.85C-62.1063 -172.867 -63.6786 -171.982 -68.8867 -169.228L-82.3493 -162.148C-84.3146 -161.165 -85.2973 -160.575 -85.7886 -159.69C-86.2799 -158.805 -86.2799 -157.723 -86.2799 -155.462L-86.1817 -147.693L-62.9907 -159.788C-62.7942 -159.887 -62.4994 -160.083 -62.3029 -160.182C-58.0774 -162.345 -55.0311 -164.017 -52.6727 -166.18C-42.3547 -175.817 -44.5166 -186.928 -50.1178 -197.647C-55.719 -208.365 -63.5803 -216.33 -77.4359 -213.38C-80.4822 -212.692 -83.5285 -211.119 -87.7539 -208.857Z" fill="url(#paint8_radial_3470_82221)"/>
      <path fill-rule="evenodd" clip-rule="evenodd" d="M-166.859 -74.5329C-166.859 -74.2378 -166.859 -74.0412 -166.859 -73.7462L-166.466 -53.0961L-159.587 -56.7344C-157.622 -57.7178 -156.639 -58.3078 -156.148 -59.1928C-155.656 -60.0778 -155.656 -61.1594 -155.656 -63.4211L-155.853 -73.1562C-155.951 -79.0562 -155.951 -80.9245 -155.558 -82.3012C-153.691 -89.7746 -148.384 -91.6429 -139.639 -91.8396C-130.893 -92.0363 -125.587 -90.3646 -123.425 -82.8912C-123.032 -81.5145 -122.933 -79.6462 -122.835 -73.7462L-122.54 -58.6028C-122.54 -56.4394 -122.442 -55.2594 -121.951 -54.3744C-121.361 -53.4894 -120.378 -52.9977 -118.413 -52.1127L-111.436 -48.7694L-111.928 -74.9262C-111.928 -75.2212 -111.928 -75.4179 -111.928 -75.7129C-112.026 -80.5312 -112.124 -83.9729 -113.008 -86.9229C-117.037 -100.493 -127.847 -103.541 -140.032 -103.246C-152.217 -103.05 -162.928 -99.608 -166.367 -85.8412C-166.957 -82.7929 -166.957 -79.2529 -166.859 -74.5329Z" fill="url(#paint9_radial_3470_82221)"/>
      <path fill-rule="evenodd" clip-rule="evenodd" d="M78.5133 -51.2277C78.415 -51.4244 78.3168 -51.7194 78.1202 -51.9161L68.7849 -70.3045L64.1664 -64.1095C62.8889 -62.3395 62.201 -61.4545 62.1028 -60.3728C62.0045 -59.2911 62.4958 -58.3078 63.4785 -56.3411L67.8022 -47.6877C70.4554 -42.3777 71.2416 -40.706 71.5364 -39.3294C73.1086 -31.7577 69.0797 -27.726 61.3166 -23.7926C53.5536 -19.8593 48.0506 -18.9743 42.8425 -24.776C41.8598 -25.8576 40.9754 -27.431 38.3222 -32.741L31.4436 -46.3111C30.4609 -48.2777 29.9696 -49.2611 29.0852 -49.8511C28.2008 -50.4411 27.1198 -50.3427 24.8597 -50.3427H17.0966L28.8886 -27.0376C28.9869 -26.841 29.0852 -26.5459 29.2817 -26.3493C31.4436 -22.1209 33.0158 -18.9743 35.0794 -16.7126C44.513 -6.2892 55.6172 -8.25587 66.5248 -13.7626C77.3341 -19.2693 85.5885 -27.0376 82.7388 -40.9027C82.2474 -43.8527 80.6752 -46.901 78.5133 -51.2277Z" fill="url(#paint10_radial_3470_82221)"/>
      <path fill-rule="evenodd" clip-rule="evenodd" d="M-98.2685 197.852C-98.1702 198.048 -97.9737 198.343 -97.8754 198.54L-87.8522 216.634L-83.4302 210.242C-82.1527 208.374 -81.5631 207.488 -81.4649 206.505C-81.4649 205.423 -81.9562 204.538 -83.0371 202.572L-87.7539 194.115C-90.6037 188.903 -91.4881 187.33 -91.7829 185.953C-93.6499 178.382 -89.8175 174.35 -82.1527 170.122C-74.4879 165.893 -69.0833 164.812 -63.5803 170.417C-62.5977 171.4 -61.615 173.072 -58.7653 178.185L-51.3953 191.46C-50.3143 193.427 -49.823 194.312 -48.8403 194.902C-47.9559 195.393 -46.875 195.393 -44.6149 195.295L-36.8518 195L-49.5282 172.088C-49.6265 171.892 -49.823 171.597 -49.9213 171.4C-52.1814 167.27 -53.9502 164.222 -56.1121 161.96C-65.9387 151.832 -76.9446 154.29 -87.6557 160.19C-98.2685 166.09 -106.13 174.153 -102.887 187.92C-102.297 190.575 -100.627 193.623 -98.2685 197.852Z" fill="url(#paint11_radial_3470_82221)"/>
      <path fill-rule="evenodd" clip-rule="evenodd" d="M-38.1293 219.682C-38.1293 219.977 -38.1293 220.174 -38.1293 220.469L-39.1119 241.119L-32.0367 237.972C-29.9731 237.087 -28.9905 236.595 -28.4009 235.809C-27.8113 234.924 -27.8113 233.842 -27.6147 231.679L-27.1234 222.042C-26.8286 216.142 -26.7303 214.274 -26.239 212.897C-23.8806 205.522 -18.4759 204.047 -9.73019 204.44C-0.984467 204.833 4.22368 206.8 5.89421 214.372C6.18901 215.749 6.18901 217.617 5.89421 223.517L5.20636 238.66C5.10809 240.824 5.00981 242.004 5.59941 242.889C6.09074 243.774 7.07341 244.364 9.03874 245.445L15.8191 249.28L16.9984 223.124C16.9984 222.829 16.9984 222.632 16.9984 222.337C17.1949 217.617 17.3914 214.077 16.7036 211.029C13.559 197.262 2.94621 193.525 -9.14059 192.935C-21.3257 192.345 -32.2332 195.098 -36.557 208.57C-37.7362 211.422 -37.9327 214.962 -38.1293 219.682Z" fill="url(#paint12_radial_3470_82221)"/>
      <path fill-rule="evenodd" clip-rule="evenodd" d="M-79.9909 83.2929C-80.2857 83.2929 -80.4822 83.3913 -80.777 83.3913L-101.118 87.1279L-96.4014 93.3229C-95.1239 95.093 -94.4361 95.978 -93.4534 96.3713C-92.4707 96.7646 -91.3898 96.568 -89.2279 96.1747L-79.696 94.4046C-73.8983 93.3229 -72.0313 93.028 -70.6555 93.2246C-62.8925 93.913 -60.2393 98.8297 -58.667 107.385C-57.0947 115.94 -57.8809 121.545 -64.8578 124.888C-66.1353 125.478 -67.9041 125.871 -73.8 126.953L-88.7366 129.706C-90.8985 130.1 -91.9794 130.296 -92.7655 130.985C-93.5517 131.673 -93.8465 132.755 -94.4361 134.82L-96.5979 142.293L-70.8521 137.573C-70.5573 137.573 -70.3607 137.475 -70.0659 137.475C-65.3491 136.59 -61.9098 136 -59.1583 134.623C-46.4819 128.526 -45.2045 117.316 -47.3663 105.32C-49.5282 93.323 -54.6381 83.2929 -68.6902 82.1129C-71.933 81.7196 -75.2741 82.4079 -79.9909 83.2929Z" fill="url(#paint13_radial_3470_82221)"/>
      <path fill-rule="evenodd" clip-rule="evenodd" d="M-140.228 99.4196C-139.934 99.4196 -139.737 99.4196 -139.442 99.4196L-118.806 100.501L-121.852 93.3229C-122.737 91.2579 -123.13 90.2746 -124.014 89.6846C-124.899 89.0946 -125.98 88.9962 -128.142 88.8979L-137.772 88.4062C-143.668 88.1112 -145.535 87.9146 -146.91 87.5212C-154.28 85.0629 -155.754 79.6546 -155.263 71.0012C-154.772 62.2495 -152.806 57.0378 -145.142 55.4644C-143.766 55.1694 -141.899 55.1694 -136.003 55.5628L-120.87 56.3495C-118.708 56.4478 -117.529 56.5461 -116.644 56.0544C-115.76 55.5628 -115.17 54.5794 -114.089 52.7111L-110.257 45.9261L-136.396 44.5494C-136.691 44.5494 -136.887 44.5494 -137.182 44.5494C-141.899 44.2544 -145.436 44.0577 -148.483 44.7461C-162.24 47.7944 -166.072 58.3161 -166.76 70.5095C-167.448 82.6046 -164.795 93.618 -151.431 98.1413C-148.483 98.928 -145.043 99.1246 -140.228 99.4196Z" fill="url(#paint14_radial_3470_82221)"/>
      <path fill-rule="evenodd" clip-rule="evenodd" d="M60.8253 82.5062C60.5305 82.4079 60.334 82.4079 60.0392 82.3096L40.091 76.9012L41.6633 84.4729C42.0564 86.6362 42.3512 87.7179 43.039 88.5046C43.7269 89.2913 44.8078 89.5863 46.9697 90.0779L56.305 92.6346C62.0045 94.208 63.7733 94.6996 65.0508 95.388C71.7329 99.3213 72.0277 104.926 69.7676 113.285C67.5074 121.643 64.4612 126.363 56.6981 126.461C55.3224 126.461 53.4553 126.068 47.7558 124.495L33.1141 120.561C30.9522 119.971 29.8713 119.676 28.8886 119.971C27.906 120.266 27.1198 121.053 25.6458 122.725L20.4377 128.526L45.6922 135.311C45.987 135.41 46.1836 135.41 46.4784 135.508C51.0969 136.786 54.438 137.672 57.5825 137.672C71.7329 137.573 77.6289 128.035 80.7734 116.235C83.918 104.533 83.6232 93.2246 71.4381 86.0462C68.7849 84.6696 65.4438 83.7846 60.8253 82.5062Z" fill="url(#paint15_radial_3470_82221)"/>
      <path fill-rule="evenodd" clip-rule="evenodd" d="M38.224 57.9228C38.4205 58.1194 38.617 58.2178 38.8136 58.4144L55.3224 70.8045L56.6981 63.1345C57.0912 60.9711 57.2877 59.8894 56.8946 58.9061C56.5016 57.9228 55.6172 57.2344 53.8484 55.9561L46.0853 50.1544C41.3685 46.6144 39.8945 45.4344 39.0101 44.3527C34.2933 38.256 36.0621 32.946 41.2702 25.9643C46.4784 18.9826 51.0969 15.7376 58.2704 18.5893C59.5479 19.0809 61.1201 20.1626 65.8369 23.7026L78.022 32.7493C79.7908 34.0277 80.6752 34.716 81.7561 34.8143C82.8371 34.9127 83.8197 34.421 85.785 33.4377L92.762 29.8977L71.8312 14.2626C71.6346 14.0659 71.4381 13.9676 71.2416 13.7709C67.4092 10.9192 64.6577 8.85422 61.7097 7.67421C48.542 2.56085 39.5014 9.24754 32.2297 18.9826C24.958 28.7176 21.1256 39.3377 29.773 50.4494C31.6401 53.0061 34.3916 55.0711 38.224 57.9228Z" fill="url(#paint16_radial_3470_82221)"/>
      <path fill-rule="evenodd" clip-rule="evenodd" d="M-28.8922 167.172C-28.6956 167.368 -28.4991 167.565 -28.3026 167.663L-13.1695 181.725L-11.0076 174.252C-10.418 172.088 -10.1232 171.105 -10.3198 170.023C-10.6146 169.04 -11.4007 168.253 -13.0712 166.778L-20.1464 160.19C-24.4702 156.158 -25.8459 154.88 -26.5338 153.7C-30.661 147.112 -28.3026 141.998 -22.4066 135.606C-16.5106 129.215 -11.5972 126.461 -4.71857 130.1C-3.4411 130.788 -2.06537 131.968 2.25836 136L13.3625 146.325C14.9348 147.8 15.8192 148.587 16.8018 148.783C17.7845 148.98 18.8654 148.587 20.929 147.8L28.2008 145.047L9.03876 127.248C8.84222 127.051 8.64569 126.855 8.44916 126.658C4.91156 123.413 2.35663 121.053 -0.394852 119.578C-12.8747 113.088 -22.6031 118.791 -30.8575 127.74C-39.1119 136.688 -44.1235 146.817 -36.6553 158.813C-34.9847 161.567 -32.4298 163.927 -28.8922 167.172Z" fill="url(#paint17_radial_3470_82221)"/>
      <path fill-rule="evenodd" clip-rule="evenodd" d="M-69.6729 9.34587C-69.9677 9.24754 -70.1642 9.24754 -70.459 9.14922L-90.7019 5.11754L-88.6383 12.5909C-88.0487 14.7542 -87.7539 15.7376 -86.9678 16.5242C-86.1817 17.2126 -85.1007 17.4093 -82.9389 17.9009L-73.407 19.7693C-67.6093 20.9493 -65.8405 21.3426 -64.563 21.9326C-57.5861 25.3743 -56.9965 30.9793 -58.667 39.5344C-60.3375 48.0894 -63.089 52.9077 -70.8521 53.4977C-72.2278 53.5961 -74.0949 53.3011 -79.8926 52.1211L-94.8292 49.1711C-96.991 48.7777 -98.0719 48.4828 -99.0546 48.8761C-100.037 49.2694 -100.725 50.1544 -102.101 51.8261L-106.916 57.9228L-81.2683 63.0361C-80.9735 63.1345 -80.777 63.1345 -80.4822 63.2328C-75.7654 64.2162 -72.4243 64.8062 -69.2798 64.6095C-55.2277 63.6262 -49.9213 53.5961 -47.5629 41.6977C-45.2045 29.7993 -46.2854 18.5893 -58.8635 12.1976C-61.615 11.0176 -64.9561 10.3292 -69.6729 9.34587Z" fill="url(#paint18_radial_3470_82221)"/>
      <path fill-rule="evenodd" clip-rule="evenodd" d="M14.7382 62.0528C14.64 61.8561 14.5417 61.5612 14.4434 61.2661L6.77863 42.0911L1.66876 47.8927C0.194763 49.5644 -0.493103 50.3511 -0.689636 51.4328C-0.886169 52.4161 -0.493103 53.4977 0.391296 55.5628L4.02716 64.5111C6.18903 70.0179 6.87689 71.6895 7.07343 73.1645C7.95782 80.8346 3.63409 84.4729 -4.42377 87.7179C-12.4816 90.963 -18.0828 91.3563 -22.7996 85.1613C-23.684 83.9812 -24.3719 82.3096 -26.632 76.8029L-32.3315 62.7411C-33.1177 60.6761 -33.609 59.6928 -34.3951 59.0045C-35.2795 58.4145 -36.3604 58.3161 -38.5223 58.1194L-46.2854 57.5294L-36.557 81.8179C-36.4587 82.1129 -36.3605 82.3096 -36.2622 82.6046C-34.4934 87.0296 -33.2159 90.2746 -31.2506 92.733C-22.7014 103.943 -11.499 102.96 -0.198303 98.4363C11.1024 93.913 19.8481 86.8329 18.2758 72.8695C17.7845 69.7228 16.507 66.4778 14.7382 62.0528Z" fill="url(#paint19_radial_3470_82221)"/>
      <path fill-rule="evenodd" clip-rule="evenodd" d="M142.878 -12.7792C142.78 -12.9759 142.681 -13.2709 142.583 -13.4676L134.034 -32.2493L129.121 -26.251C127.745 -24.5793 127.057 -23.6943 126.861 -22.6126C126.762 -21.5309 127.155 -20.5476 128.138 -18.5809L132.167 -9.73088C134.624 -4.32251 135.311 -2.65083 135.508 -1.27415C136.687 6.39587 132.658 10.1326 124.699 13.7709C116.739 17.4093 111.236 17.9993 106.225 12.0009C105.34 10.9192 104.456 9.24756 102.097 3.83919L95.8083 -10.0259C94.9239 -11.9926 94.4325 -13.0742 93.5481 -13.6642C92.6637 -14.2542 91.5828 -14.2542 89.4209 -14.3526L81.6578 -14.6476L92.4672 9.14922C92.5654 9.34589 92.6637 9.64088 92.762 9.83754C94.7273 14.1642 96.2013 17.3109 98.1666 19.7693C107.207 30.586 118.41 29.111 129.415 24.0959C140.52 19.0809 148.971 11.6076 146.71 -2.25749C146.317 -5.30585 144.942 -8.45255 142.878 -12.7792Z" fill="url(#paint20_radial_3470_82221)"/>
      <path fill-rule="evenodd" clip-rule="evenodd" d="M139.832 -91.5446C139.635 -91.7413 139.537 -91.9379 139.34 -92.1346L126.959 -108.655L123.421 -101.673C122.439 -99.7063 121.947 -98.723 122.045 -97.6413C122.144 -96.5596 122.832 -95.6746 124.109 -93.9046L129.907 -86.1362C133.444 -81.4162 134.525 -79.8429 135.017 -78.5645C137.866 -71.2878 134.624 -66.7645 127.647 -61.5528C120.67 -56.3411 115.363 -54.5711 109.271 -59.2911C108.19 -60.1761 107.011 -61.6511 103.473 -66.3712L94.4325 -78.5645C93.155 -80.3345 92.4672 -81.2196 91.4845 -81.6129C90.5018 -82.0062 89.4209 -81.8096 87.259 -81.4162L79.5943 -80.0396L95.2186 -59.0944C95.4152 -58.8978 95.5134 -58.7011 95.71 -58.5045C98.5597 -54.6694 100.623 -51.9161 103.08 -49.9494C114.184 -41.296 124.797 -45.131 134.525 -52.4077C144.254 -59.6844 151.034 -68.7312 145.826 -81.9079C144.745 -84.9562 142.681 -87.7096 139.832 -91.5446Z" fill="url(#paint21_radial_3470_82221)"/>
      <path fill-rule="evenodd" clip-rule="evenodd" d="M160.075 -22.9076C160.173 -22.7109 160.369 -22.4159 160.468 -22.2193L171.67 -4.81418L175.601 -11.5009C176.682 -13.3692 177.271 -14.3526 177.271 -15.4342C177.271 -16.5159 176.682 -17.4009 175.503 -19.2693L170.294 -27.431C167.15 -32.446 166.167 -34.0193 165.774 -35.396C163.514 -42.771 167.052 -47.0977 174.323 -51.8177C181.595 -56.5378 187.098 -57.9144 192.797 -52.7027C193.878 -51.7194 194.861 -50.2444 198.104 -45.2294L206.26 -32.446C207.439 -30.5777 208.029 -29.6926 209.011 -29.201C209.994 -28.7093 211.075 -28.906 213.237 -29.1026L221 -29.8893L206.948 -51.9161C206.85 -52.1127 206.653 -52.4077 206.555 -52.6044C204 -56.6361 202.133 -59.5861 199.774 -61.6511C189.26 -71.0912 178.451 -68.0428 168.231 -61.4545C158.011 -54.8661 150.641 -46.3111 154.867 -32.8393C155.653 -29.8893 157.52 -26.9393 160.075 -22.9076Z" fill="url(#paint22_radial_3470_82221)"/>
      <path fill-rule="evenodd" clip-rule="evenodd" d="M208.225 24.5876C208.127 24.3909 208.029 24.0959 207.931 23.8993L200.167 4.82253L195.058 10.6242C193.584 12.2959 192.896 13.0826 192.699 14.1642C192.503 15.1476 192.896 16.2292 193.78 18.2943L197.416 27.2426C199.676 32.7493 200.266 34.421 200.462 35.896C201.347 43.566 197.121 47.2044 189.063 50.5477C181.005 53.8911 175.404 54.2844 170.687 48.0894C169.803 47.0077 169.115 45.2377 166.855 39.8294L161.156 25.7676C160.369 23.7026 159.878 22.7193 159.092 22.1293C158.208 21.5393 157.127 21.4409 154.965 21.2443L147.202 20.6543L157.127 44.8444C157.225 45.1394 157.323 45.3361 157.421 45.5327C159.19 49.9578 160.566 53.2028 162.433 55.6611C171.081 66.8712 182.283 65.7895 193.485 61.1678C204.688 56.5461 213.433 49.2694 211.763 35.306C211.37 32.1593 209.994 29.0126 208.225 24.5876Z" fill="url(#paint23_radial_3470_82221)"/>
      <path fill-rule="evenodd" clip-rule="evenodd" d="M132.855 123.413C132.658 123.315 132.462 123.118 132.167 123.02L114.97 111.515L113.988 119.185C113.693 121.348 113.595 122.43 113.988 123.413C114.381 124.396 115.363 124.986 117.132 126.166L125.19 131.575C130.103 134.82 131.577 135.901 132.56 136.983C137.67 142.883 136.098 148.193 131.283 155.47C126.467 162.747 122.045 166.188 114.675 163.73C113.3 163.238 111.727 162.255 106.814 159.01L94.1377 150.553C92.2706 149.373 91.3862 148.685 90.3053 148.685C89.2244 148.685 88.34 149.177 86.3746 150.258L79.5943 154.093L101.311 168.647C101.508 168.843 101.803 168.942 101.999 169.04C105.93 171.695 108.878 173.662 111.826 174.645C125.19 179.07 133.936 171.892 140.618 161.763C147.398 151.635 150.641 140.818 141.404 130.198C139.733 127.936 136.884 126.068 132.855 123.413Z" fill="url(#paint24_radial_3470_82221)"/>
      <path fill-rule="evenodd" clip-rule="evenodd" d="M-118.511 127.641C-118.708 127.445 -118.806 127.248 -119.003 127.051L-132.17 111.121L-135.315 118.201C-136.199 120.266 -136.691 121.25 -136.494 122.233C-136.396 123.315 -135.61 124.101 -134.234 125.773L-128.043 133.246C-124.309 137.77 -123.13 139.245 -122.54 140.523C-119.396 147.603 -122.344 152.323 -129.026 157.928C-135.708 163.533 -140.916 165.5 -147.304 161.075C-148.483 160.288 -149.662 158.912 -153.494 154.29L-163.124 142.588C-164.5 140.917 -165.188 140.032 -166.171 139.737C-167.153 139.441 -168.234 139.638 -170.396 140.13L-177.963 141.9L-161.356 162.058C-161.159 162.255 -161.061 162.452 -160.864 162.648C-157.818 166.287 -155.656 169.04 -153.101 170.81C-141.506 178.873 -131.188 174.547 -121.754 166.778C-112.321 159.01 -106.13 149.668 -111.928 136.786C-113.205 134.033 -115.465 131.28 -118.511 127.641Z" fill="url(#paint25_radial_3470_82221)"/>
      <path fill-rule="evenodd" clip-rule="evenodd" d="M36.0621 203.653C36.2586 203.85 36.4552 204.047 36.6517 204.145L51.7848 218.109L53.9466 210.635C54.5362 208.472 54.831 207.488 54.5362 206.407C54.2414 205.423 53.4553 204.637 51.7848 203.162L44.7096 196.573C40.3858 192.542 39.0101 191.263 38.3222 190.083C34.195 183.495 36.5534 178.382 42.4494 171.99C48.3454 165.598 53.2588 162.845 60.1374 166.385C61.4149 167.073 62.7906 168.253 67.1144 172.285L78.3168 182.61C79.9873 184.085 80.7734 184.872 81.7561 185.068C82.7388 185.265 83.8197 184.872 85.8833 184.085L93.155 181.332L73.8948 163.632C73.6982 163.435 73.5017 163.238 73.3052 163.14C69.7676 159.895 67.2126 157.535 64.4612 156.158C51.883 149.668 42.2529 155.47 33.9985 164.418C25.7441 173.367 20.8308 183.495 28.299 195.492C29.9696 198.048 32.5245 200.408 36.0621 203.653Z" fill="url(#paint26_radial_3470_82221)"/>
      <path fill-rule="evenodd" clip-rule="evenodd" d="M-327.328 -10.1242C-327.033 -10.1242 -326.837 -10.2225 -326.542 -10.2225L-306.103 -13.2709L-310.525 -19.6626C-311.802 -21.4326 -312.392 -22.4159 -313.374 -22.8093C-314.357 -23.2026 -315.438 -23.1043 -317.6 -22.7109L-327.132 -21.3343C-332.929 -20.4493 -334.796 -20.2526 -336.27 -20.4492C-343.935 -21.4326 -346.49 -26.3493 -347.768 -35.0027C-349.045 -43.656 -348.062 -49.1627 -340.987 -52.3094C-339.71 -52.8994 -337.843 -53.1944 -332.045 -54.0794L-317.01 -56.3411C-314.848 -56.6361 -313.767 -56.8328 -312.981 -57.5211C-312.195 -58.2094 -311.802 -59.2911 -311.114 -61.3561L-308.657 -68.7312L-334.502 -64.8961C-334.796 -64.8961 -334.993 -64.7978 -335.288 -64.7978C-340.005 -64.1095 -343.444 -63.6178 -346.294 -62.3395C-359.167 -56.6361 -360.837 -45.4261 -359.068 -33.4293C-357.299 -21.4326 -352.484 -11.2059 -338.531 -9.43587C-335.484 -8.9442 -332.045 -9.43587 -327.328 -10.1242Z" fill="url(#paint27_radial_3470_82221)"/>
      <path fill-rule="evenodd" clip-rule="evenodd" d="M-240.853 -5.01085C-240.853 -5.30585 -240.952 -5.50252 -240.952 -5.79752L-243.605 -26.251L-249.992 -21.9243C-251.859 -20.6459 -252.744 -20.0559 -253.137 -19.0726C-253.53 -18.0892 -253.432 -17.0076 -253.137 -14.8442L-251.859 -5.20752C-251.073 0.69252 -250.877 2.46251 -251.073 3.93752C-252.154 11.6076 -257.166 14.0659 -265.813 15.1476C-274.461 16.2292 -279.964 15.2459 -282.912 8.06755C-283.501 6.78922 -283.796 4.92085 -284.484 -0.979172L-286.449 -16.0242C-286.744 -18.1876 -286.842 -19.2693 -287.53 -20.1543C-288.218 -20.9409 -289.201 -21.3343 -291.363 -22.0226L-298.733 -24.5793L-295.293 1.38084C-295.293 1.67586 -295.195 1.87253 -295.195 2.16753C-294.605 6.88754 -294.114 10.3292 -292.935 13.1809C-287.432 26.161 -276.328 28.0293 -264.241 26.3576C-252.154 24.7843 -241.934 20.1626 -239.969 6.1992C-239.772 3.15085 -240.264 -0.290833 -240.853 -5.01085Z" fill="url(#paint28_radial_3470_82221)"/>
      <path fill-rule="evenodd" clip-rule="evenodd" d="M-332.733 -83.4812C-332.438 -83.4812 -332.241 -83.4812 -331.947 -83.4812L-311.311 -82.4979L-314.455 -89.5779C-315.34 -91.6429 -315.831 -92.6263 -316.617 -93.2163C-317.501 -93.8063 -318.582 -93.9046 -320.744 -94.0029L-330.374 -94.4946C-336.27 -94.7896 -338.137 -94.8879 -339.513 -95.3796C-346.883 -97.838 -348.357 -103.246 -347.964 -111.9C-347.571 -120.553 -345.507 -125.863 -337.941 -127.535C-336.565 -127.83 -334.698 -127.83 -328.802 -127.535L-313.669 -126.748C-311.507 -126.65 -310.328 -126.551 -309.444 -127.043C-308.559 -127.535 -307.97 -128.518 -306.889 -130.386L-303.056 -137.171L-329.195 -138.45C-329.49 -138.45 -329.687 -138.45 -329.981 -138.45C-334.698 -138.646 -338.236 -138.843 -341.282 -138.155C-355.039 -135.106 -358.872 -124.486 -359.461 -112.293C-360.051 -100.1 -357.398 -89.1846 -343.935 -84.7596C-340.987 -83.8746 -337.548 -83.6779 -332.733 -83.4812Z" fill="url(#paint29_radial_3470_82221)"/>
      <path fill-rule="evenodd" clip-rule="evenodd" d="M-438.566 -127.436C-438.763 -127.633 -438.861 -127.83 -439.057 -128.125L-451.046 -144.94L-454.682 -138.056C-455.763 -136.09 -456.254 -135.106 -456.156 -134.123C-456.057 -133.041 -455.468 -132.156 -454.19 -130.386L-448.589 -122.52C-445.15 -117.701 -444.167 -116.128 -443.676 -114.85C-441.023 -107.573 -444.364 -103.05 -451.439 -98.0346C-458.514 -93.0196 -463.919 -91.3479 -469.913 -96.2646C-470.994 -97.1496 -472.173 -98.6246 -475.514 -103.443L-484.26 -115.833C-485.537 -117.603 -486.127 -118.488 -487.11 -118.98C-488.092 -119.373 -489.173 -119.176 -491.335 -118.881L-499 -117.701L-483.867 -96.3629C-483.67 -96.1663 -483.572 -95.9696 -483.376 -95.6746C-480.624 -91.7413 -478.561 -88.9879 -476.202 -86.9229C-465.295 -77.9745 -454.583 -81.6129 -444.659 -88.5946C-434.734 -95.6746 -427.855 -104.525 -432.67 -117.8C-433.751 -120.651 -435.815 -123.503 -438.566 -127.436Z" fill="url(#paint30_radial_3470_82221)"/>
      <path fill-rule="evenodd" clip-rule="evenodd" d="M-376.265 -130.976C-376.068 -131.173 -375.872 -131.37 -375.675 -131.566L-361.623 -146.71L-369.091 -148.873C-371.253 -149.463 -372.236 -149.857 -373.317 -149.562C-374.3 -149.267 -375.086 -148.48 -376.56 -146.907L-383.144 -139.826C-387.172 -135.5 -388.45 -134.221 -389.727 -133.435C-396.311 -129.403 -401.421 -131.763 -407.809 -137.663C-414.196 -143.563 -416.849 -148.48 -413.311 -155.363C-412.624 -156.642 -411.444 -158.018 -407.415 -162.345L-397.097 -173.457C-395.623 -175.03 -394.837 -175.915 -394.641 -176.898C-394.444 -177.882 -394.837 -178.963 -395.623 -181.028L-398.375 -188.305L-416.161 -169.13C-416.358 -168.933 -416.554 -168.737 -416.751 -168.54C-419.994 -165.098 -422.352 -162.542 -423.826 -159.788C-430.312 -147.3 -424.71 -137.565 -415.768 -129.206C-406.826 -120.848 -396.803 -115.931 -384.716 -123.306C-381.866 -124.978 -379.508 -127.535 -376.265 -130.976Z" fill="url(#paint31_radial_3470_82221)"/>
      <path fill-rule="evenodd" clip-rule="evenodd" d="M-208.524 -84.9562C-208.229 -84.8579 -208.032 -84.8579 -207.738 -84.7596L-187.593 -80.3345L-189.46 -87.9063C-189.951 -90.0696 -190.246 -91.1513 -191.032 -91.8396C-191.818 -92.5279 -192.899 -92.8229 -195.061 -93.3146L-204.495 -95.3796C-210.292 -96.658 -212.061 -97.0513 -213.339 -97.7396C-220.217 -101.378 -220.709 -106.885 -218.842 -115.44C-216.975 -123.995 -214.125 -128.813 -206.362 -129.206C-204.986 -129.305 -203.119 -128.911 -197.321 -127.633L-182.581 -124.388C-180.419 -123.896 -179.339 -123.7 -178.356 -123.995C-177.373 -124.388 -176.685 -125.175 -175.31 -126.945L-170.396 -132.943L-195.946 -138.548C-196.24 -138.646 -196.437 -138.646 -196.732 -138.745C-201.35 -139.728 -204.79 -140.515 -207.934 -140.318C-221.986 -139.63 -227.489 -129.698 -230.142 -117.898C-232.796 -106 -231.911 -94.7896 -219.431 -88.2012C-216.582 -86.7262 -213.24 -86.0379 -208.524 -84.9562Z" fill="url(#paint32_radial_3470_82221)"/>
      <path fill-rule="evenodd" clip-rule="evenodd" d="M-295.588 -74.8279C-295.588 -74.5329 -295.588 -74.3362 -295.588 -74.0412L-296.178 -53.3911L-289.102 -56.6361C-287.137 -57.5211 -286.056 -58.0128 -285.565 -58.8978C-284.975 -59.7828 -284.975 -60.8645 -284.877 -63.1261L-284.582 -72.7628C-284.386 -78.6629 -284.287 -80.5312 -283.894 -81.9079C-281.634 -89.2829 -276.229 -90.9546 -267.582 -90.6596C-258.836 -90.3646 -253.628 -88.4962 -251.761 -80.9245C-251.466 -79.5479 -251.466 -77.6795 -251.565 -71.7795L-252.056 -56.6361C-252.154 -54.4727 -252.154 -53.2927 -251.663 -52.4077C-251.171 -51.5227 -250.189 -50.9327 -248.223 -49.9494L-241.345 -46.3111L-240.559 -72.4678C-240.559 -72.7628 -240.559 -72.9595 -240.559 -73.2545C-240.46 -77.9745 -240.264 -81.5146 -241.05 -84.5629C-244.391 -98.2313 -255.102 -101.87 -267.189 -102.165C-279.374 -102.558 -290.183 -99.608 -294.409 -86.1362C-295.391 -83.0879 -295.49 -79.6462 -295.588 -74.8279Z" fill="url(#paint33_radial_3470_82221)"/>
      <path fill-rule="evenodd" clip-rule="evenodd" d="M-355.924 -171.195C-355.826 -170.998 -355.629 -170.703 -355.531 -170.507L-345.802 -152.315L-341.282 -158.707C-340.005 -160.477 -339.415 -161.46 -339.317 -162.443C-339.218 -163.525 -339.808 -164.41 -340.791 -166.377L-345.409 -174.932C-348.161 -180.143 -349.045 -181.815 -349.34 -183.192C-351.109 -190.763 -347.178 -194.795 -339.513 -198.925C-331.848 -203.055 -326.345 -204.038 -320.941 -198.433C-319.958 -197.45 -319.074 -195.778 -316.224 -190.567L-309.051 -177.193C-307.97 -175.227 -307.478 -174.243 -306.594 -173.752C-305.709 -173.26 -304.629 -173.26 -302.368 -173.358L-294.605 -173.555L-307.085 -196.565C-307.183 -196.762 -307.38 -197.057 -307.478 -197.253C-309.738 -201.482 -311.409 -204.53 -313.571 -206.792C-323.299 -217.019 -334.305 -214.757 -345.016 -208.955C-355.727 -203.153 -363.687 -195.188 -360.542 -181.422C-359.854 -178.472 -358.184 -175.423 -355.924 -171.195Z" fill="url(#paint34_radial_3470_82221)"/>
      <path fill-rule="evenodd" clip-rule="evenodd" d="M-291.461 -133.828C-291.362 -133.631 -291.166 -133.336 -291.068 -133.14L-280.553 -115.44L-276.328 -122.028C-275.148 -123.896 -274.559 -124.781 -274.559 -125.863C-274.559 -126.945 -275.148 -127.83 -276.229 -129.796L-281.143 -138.155C-284.189 -143.268 -285.073 -144.842 -285.467 -146.218C-287.53 -153.692 -283.894 -157.92 -276.328 -162.345C-268.761 -166.77 -263.357 -168.048 -257.755 -162.64C-256.773 -161.657 -255.79 -160.083 -252.744 -154.97L-244.981 -141.892C-243.9 -140.023 -243.31 -139.04 -242.327 -138.548C-241.443 -138.056 -240.264 -138.155 -238.102 -138.351L-230.339 -138.941L-243.703 -161.46C-243.801 -161.657 -243.998 -161.952 -244.096 -162.148C-246.553 -166.278 -248.322 -169.228 -250.582 -171.392C-260.802 -181.127 -271.709 -178.472 -282.125 -172.178C-292.542 -165.885 -300.207 -157.625 -296.472 -144.055C-295.686 -140.908 -293.819 -137.86 -291.461 -133.828Z" fill="url(#paint35_radial_3470_82221)"/>
      <path fill-rule="evenodd" clip-rule="evenodd" d="M-424.023 -71.6812C-424.023 -71.3862 -423.924 -71.1895 -423.924 -70.8945L-421.369 -50.4411L-414.884 -54.7678C-413.017 -55.9478 -412.132 -56.6361 -411.641 -57.5211C-411.248 -58.5045 -411.346 -59.5861 -411.641 -61.7495L-412.82 -71.3862C-413.508 -77.2862 -413.705 -79.0562 -413.508 -80.5312C-412.329 -88.2012 -407.317 -90.5613 -398.67 -91.6429C-390.022 -92.7246 -384.519 -91.6429 -381.571 -84.4646C-380.982 -83.1862 -380.785 -81.3179 -379.999 -75.4179L-378.132 -60.3728C-377.837 -58.2094 -377.739 -57.1278 -377.051 -56.2428C-376.363 -55.4561 -375.38 -55.0628 -373.317 -54.2761L-366.045 -51.7194L-369.288 -77.5812C-369.288 -77.8762 -369.386 -78.0729 -369.386 -78.3679C-369.976 -83.0879 -370.369 -86.5296 -371.548 -89.4796C-376.953 -102.558 -388.057 -104.426 -400.045 -102.951C-412.034 -101.476 -422.45 -96.953 -424.514 -82.9896C-425.005 -79.8429 -424.612 -76.4012 -424.023 -71.6812Z" fill="url(#paint36_radial_3470_82221)"/>
      <path fill-rule="evenodd" clip-rule="evenodd" d="M-202.333 -65.7811C-202.628 -65.7811 -202.824 -65.7811 -203.119 -65.7811L-223.755 -66.8628L-220.61 -59.6844C-219.726 -57.6194 -219.333 -56.6361 -218.449 -56.0461C-217.564 -55.4561 -216.483 -55.3578 -214.321 -55.2594L-204.691 -54.7678C-198.795 -54.4728 -196.928 -54.2761 -195.552 -53.8828C-188.182 -51.4244 -186.708 -46.0161 -187.2 -37.3627C-187.691 -28.611 -189.656 -23.3993 -197.223 -21.8259C-198.599 -21.5309 -200.466 -21.5309 -206.362 -21.9243L-221.495 -22.7109C-223.657 -22.8093 -224.836 -22.9076 -225.72 -22.4159C-226.605 -21.9243 -227.194 -20.9409 -228.275 -19.0726L-232.108 -12.2876L-205.969 -10.9109C-205.674 -10.9109 -205.477 -10.9109 -205.183 -10.9109C-200.466 -10.6159 -196.928 -10.4192 -193.882 -11.1075C-180.125 -14.1559 -176.292 -24.776 -175.604 -36.871C-174.916 -48.9661 -177.57 -59.9795 -191.032 -64.4045C-194.078 -65.2895 -197.616 -65.4861 -202.333 -65.7811Z" fill="url(#paint37_radial_3470_82221)"/>
      <path fill-rule="evenodd" clip-rule="evenodd" d="M-175.703 35.306C-175.703 35.011 -175.703 34.8143 -175.703 34.5193L-175.408 13.8692L-182.385 17.2126C-184.35 18.1959 -185.333 18.6876 -185.922 19.5726C-186.512 20.4576 -186.512 21.5393 -186.512 23.801L-186.61 33.536C-186.708 39.436 -186.807 41.3044 -187.2 42.681C-189.362 50.1544 -194.668 51.8261 -203.414 51.7278C-212.16 51.6294 -217.368 49.7611 -219.333 42.2877C-219.726 40.911 -219.726 39.0427 -219.628 33.1427L-219.431 17.9993C-219.431 15.8359 -219.431 14.6559 -219.923 13.7709C-220.414 12.8859 -221.397 12.3942 -223.362 11.3126L-230.241 7.77255L-230.535 33.9293C-230.535 34.2243 -230.535 34.421 -230.535 34.716C-230.634 39.5344 -230.634 42.976 -229.848 46.0244C-226.31 59.6928 -215.501 63.0362 -203.414 63.2328C-191.327 63.4295 -180.419 60.2828 -176.489 46.7127C-175.801 43.566 -175.801 40.026 -175.703 35.306Z" fill="url(#paint38_radial_3470_82221)"/>
      <path fill-rule="evenodd" clip-rule="evenodd" d="M-353.86 200.605C-353.664 200.802 -353.565 200.999 -353.369 201.294L-341.282 218.01L-337.646 211.127C-336.663 209.16 -336.074 208.177 -336.172 207.194C-336.27 206.112 -336.86 205.227 -338.236 203.457L-343.935 195.59C-347.375 190.772 -348.455 189.297 -348.947 187.92C-351.698 180.643 -348.357 176.12 -341.282 171.007C-334.207 165.893 -328.9 164.222 -322.808 169.04C-321.727 169.925 -320.548 171.4 -317.108 176.218L-308.166 188.51C-306.889 190.28 -306.201 191.165 -305.218 191.558C-304.235 191.952 -303.154 191.755 -300.993 191.46L-293.328 190.182L-308.657 168.942C-308.854 168.745 -308.952 168.548 -309.149 168.253C-311.9 164.418 -313.964 161.567 -316.421 159.6C-327.426 150.75 -338.039 154.487 -347.964 161.567C-357.889 168.647 -364.669 177.693 -359.756 190.87C-358.773 193.918 -356.71 196.77 -353.86 200.605Z" fill="url(#paint39_radial_3470_82221)"/>
      <path fill-rule="evenodd" clip-rule="evenodd" d="M-251.27 198.54C-251.466 198.343 -251.663 198.245 -251.859 198.048L-267.975 185.068L-269.646 192.64C-270.137 194.803 -270.333 195.885 -270.039 196.868C-269.646 197.852 -268.859 198.54 -267.091 199.917L-259.524 206.013C-254.906 209.75 -253.53 210.93 -252.645 212.11C-248.125 218.404 -250.09 223.615 -255.593 230.4C-261.096 237.185 -265.715 240.234 -272.888 237.185C-274.166 236.595 -275.64 235.514 -280.258 231.777L-292.05 222.239C-293.721 220.862 -294.605 220.174 -295.686 220.075C-296.767 219.977 -297.75 220.37 -299.715 221.354L-306.79 224.599L-286.449 241.02C-286.253 241.217 -286.056 241.315 -285.86 241.512C-282.125 244.462 -279.472 246.724 -276.623 247.904C-263.651 253.509 -254.414 247.117 -246.749 237.677C-239.085 228.237 -234.859 217.715 -243.114 206.309C-244.882 203.752 -247.536 201.588 -251.27 198.54Z" fill="url(#paint40_radial_3470_82221)"/>
      <path fill-rule="evenodd" clip-rule="evenodd" d="M-359.461 110.531C-359.461 110.826 -359.461 111.023 -359.461 111.318L-359.658 131.968L-352.681 128.526C-350.716 127.543 -349.733 127.051 -349.143 126.166C-348.554 125.281 -348.554 124.2 -348.554 121.938L-348.455 112.203C-348.357 106.303 -348.357 104.435 -347.964 103.058C-345.802 95.5847 -340.496 93.913 -331.75 94.0113C-323.004 94.1096 -317.796 95.8796 -315.733 103.451C-315.34 104.828 -315.34 106.696 -315.438 112.596L-315.634 127.838C-315.634 130.001 -315.634 131.181 -315.143 132.066C-314.652 132.951 -313.669 133.443 -311.704 134.426L-304.825 137.967L-304.53 111.81C-304.53 111.515 -304.53 111.318 -304.53 111.023C-304.432 106.205 -304.432 102.763 -305.218 99.7146C-308.854 86.0462 -319.565 82.7029 -331.75 82.6046C-343.935 82.5062 -354.745 85.5546 -358.675 99.1247C-359.363 102.271 -359.461 105.713 -359.461 110.531Z" fill="url(#paint41_radial_3470_82221)"/>
      <path fill-rule="evenodd" clip-rule="evenodd" d="M-433.456 114.563C-433.456 114.268 -433.358 114.071 -433.358 113.776L-429.624 93.4213L-437.092 95.5846C-439.254 96.1747 -440.237 96.4696 -440.924 97.2563C-441.612 98.043 -441.809 99.1246 -442.202 101.288L-443.971 110.826C-445.052 116.628 -445.445 118.496 -446.034 119.775C-449.375 126.756 -454.977 127.543 -463.526 125.97C-472.075 124.396 -476.988 121.741 -477.676 113.973C-477.774 112.596 -477.48 110.728 -476.497 104.926L-473.745 89.9796C-473.352 87.8163 -473.156 86.7346 -473.549 85.7513C-473.942 84.7679 -474.826 84.0796 -476.595 82.8012L-482.786 78.1795L-487.503 103.943C-487.503 104.238 -487.601 104.435 -487.601 104.73C-488.485 109.45 -489.075 112.891 -488.78 115.94C-487.503 130.001 -477.48 135.115 -465.589 137.278C-453.601 139.441 -442.398 138.163 -436.306 125.478C-435.028 122.725 -434.341 119.283 -433.456 114.563Z" fill="url(#paint42_radial_3470_82221)"/>
      <path fill-rule="evenodd" clip-rule="evenodd" d="M-382.357 48.3844C-382.554 48.2861 -382.849 48.0894 -383.045 47.9911L-400.439 36.781L-401.323 44.5494C-401.519 46.7127 -401.716 47.7944 -401.225 48.7777C-400.733 49.7611 -399.849 50.3511 -397.982 51.5311L-389.826 56.7428C-384.814 59.9878 -383.34 60.9711 -382.357 62.0528C-377.149 67.8545 -378.623 73.2628 -383.34 80.5396C-388.057 87.9146 -392.381 91.3563 -399.751 89.0946C-401.126 88.7013 -402.699 87.7179 -407.612 84.4729L-420.387 76.2129C-422.254 75.0329 -423.138 74.4429 -424.219 74.4429C-425.3 74.4429 -426.184 75.0329 -428.15 76.1145L-434.832 80.0479L-412.82 94.208C-412.624 94.3063 -412.329 94.503 -412.132 94.6013C-408.103 97.158 -405.155 99.1247 -402.207 100.01C-388.745 104.238 -380.196 96.863 -373.612 86.7346C-367.028 76.5079 -363.883 65.6912 -373.317 55.1694C-375.479 52.9077 -378.427 51.0394 -382.357 48.3844Z" fill="url(#paint43_radial_3470_82221)"/>
      <path fill-rule="evenodd" clip-rule="evenodd" d="M-181.402 126.068C-181.206 125.871 -181.107 125.675 -180.911 125.478L-167.94 109.45L-175.506 107.778C-177.668 107.286 -178.749 107.09 -179.732 107.385C-180.714 107.778 -181.402 108.565 -182.778 110.335L-188.87 117.906C-192.604 122.528 -193.784 123.905 -194.963 124.79C-201.252 129.313 -206.46 127.346 -213.241 121.84C-220.021 116.333 -223.067 111.711 -219.923 104.533C-219.333 103.255 -218.252 101.78 -214.518 97.158L-204.986 85.3579C-203.61 83.6862 -202.922 82.8012 -202.726 81.7196C-202.628 80.6379 -203.021 79.6545 -204.003 77.6879L-207.246 70.6078L-223.657 90.963C-223.853 91.1596 -223.952 91.3563 -224.148 91.5529C-227.194 95.2896 -229.356 97.9446 -230.535 100.796C-236.137 113.776 -229.848 123.02 -220.316 130.69C-210.784 138.36 -200.466 142.588 -188.969 134.328C-186.61 132.558 -184.448 129.805 -181.402 126.068Z" fill="url(#paint44_radial_3470_82221)"/>
      <path fill-rule="evenodd" clip-rule="evenodd" d="M-253.333 169.925C-253.137 169.827 -252.842 169.63 -252.645 169.532L-234.957 158.813L-241.541 154.683C-243.408 153.503 -244.293 152.913 -245.374 152.913C-246.455 152.913 -247.339 153.503 -249.206 154.585L-257.461 159.6C-262.472 162.648 -264.143 163.533 -265.518 163.927C-272.987 165.992 -277.212 162.353 -281.732 154.978C-286.253 147.505 -287.53 142.097 -282.125 136.393C-281.143 135.311 -279.571 134.328 -274.559 131.28L-261.588 123.413C-259.721 122.233 -258.738 121.741 -258.247 120.758C-257.755 119.873 -257.854 118.693 -258.05 116.53L-258.64 108.761L-281.045 122.331C-281.241 122.43 -281.536 122.626 -281.732 122.725C-285.86 125.183 -288.808 126.953 -290.969 129.215C-300.698 139.441 -297.848 150.357 -291.559 160.78C-285.27 171.203 -276.917 178.775 -263.357 174.94C-260.409 174.153 -257.461 172.383 -253.333 169.925Z" fill="url(#paint45_radial_3470_82221)"/>
      <path fill-rule="evenodd" clip-rule="evenodd" d="M-305.611 28.3243C-305.709 28.0293 -305.709 27.8326 -305.808 27.5376L-311.507 7.67421L-317.207 12.8859C-318.877 14.3609 -319.663 15.1476 -319.958 16.1309C-320.253 17.1143 -319.958 18.1959 -319.369 20.3593L-316.715 29.701C-315.045 35.4043 -314.652 37.1744 -314.652 38.6494C-314.553 46.4178 -319.172 49.5644 -327.623 51.9244C-335.976 54.2845 -341.577 54.0878 -345.606 47.4994C-346.392 46.3194 -346.883 44.5494 -348.554 38.846L-352.681 24.1943C-353.271 22.0309 -353.565 21.0476 -354.351 20.2609C-355.138 19.5726 -356.219 19.3759 -358.38 18.9826L-366.045 17.5076L-358.872 42.681C-358.773 42.976 -358.773 43.1727 -358.675 43.4677C-357.398 48.0894 -356.415 51.4327 -354.745 54.0878C-347.375 66.1828 -336.172 66.2812 -324.478 62.9378C-312.785 59.5945 -303.351 53.4978 -303.449 39.436C-303.351 36.2894 -304.334 32.946 -305.611 28.3243Z" fill="url(#paint46_radial_3470_82221)"/>
      <path fill-rule="evenodd" clip-rule="evenodd" d="M-433.751 42.2877C-433.653 41.9927 -433.653 41.7961 -433.554 41.501L-428.739 21.4409L-436.306 23.211C-438.468 23.7026 -439.549 23.9976 -440.237 24.686C-441.023 25.3743 -441.219 26.456 -441.711 28.6193L-443.971 38.0594C-445.346 43.7627 -445.838 45.6311 -446.526 46.8111C-450.26 53.5961 -455.861 54.0878 -464.312 52.0227C-472.763 49.9577 -477.578 47.106 -477.774 39.3377C-477.873 37.961 -477.48 36.0927 -476.104 30.3893L-472.566 15.6393C-472.075 13.4759 -471.78 12.3942 -472.173 11.4109C-472.468 10.4276 -473.352 9.73923 -475.023 8.26422L-481.017 3.24919L-487.11 28.7177C-487.208 29.0126 -487.208 29.2093 -487.306 29.5043C-488.387 34.126 -489.272 37.5677 -489.075 40.616C-488.584 54.6778 -478.855 60.3811 -467.063 63.2328C-455.271 66.0845 -443.971 65.3961 -437.19 53.0061C-435.716 50.3511 -434.93 46.9094 -433.751 42.2877Z" fill="url(#paint47_radial_3470_82221)"/>
      <path fill-rule="evenodd" clip-rule="evenodd" d="M-295.391 69.3295C-295.391 69.6245 -295.49 69.8212 -295.49 70.1162L-298.536 90.5696L-291.166 88.2096C-289.102 87.5213 -288.021 87.2263 -287.334 86.4396C-286.646 85.6529 -286.449 84.5713 -286.154 82.4079L-284.68 72.8695C-283.796 67.0678 -283.501 65.1995 -282.912 63.9211C-279.767 56.8411 -274.264 55.8578 -265.617 57.2345C-256.969 58.5128 -252.056 61.0695 -251.073 68.7395C-250.877 70.1161 -251.171 71.9845 -252.056 77.7862L-254.316 92.8313C-254.611 94.9946 -254.807 96.0763 -254.414 97.0596C-254.021 98.043 -253.137 98.633 -251.27 99.9113L-244.882 104.435L-240.952 78.5729C-240.952 78.2779 -240.853 78.0812 -240.853 77.7862C-240.166 73.0662 -239.576 69.6245 -239.969 66.5762C-241.64 52.5144 -251.859 47.6961 -263.848 45.9261C-275.836 44.1561 -287.039 45.7294 -292.738 58.6111C-294.114 61.1678 -294.704 64.6095 -295.391 69.3295Z" fill="url(#paint48_radial_3470_82221)"/>
      <path fill-rule="evenodd" clip-rule="evenodd" d="M-178.061 171.793C-178.159 171.597 -178.258 171.302 -178.356 171.105L-186.414 152.127L-191.425 158.027C-192.899 159.698 -193.587 160.583 -193.784 161.567C-193.98 162.55 -193.489 163.632 -192.604 165.598L-188.87 174.547C-186.61 179.955 -185.922 181.725 -185.726 183.102C-184.743 190.772 -188.969 194.508 -196.928 197.852C-204.888 201.195 -210.489 201.687 -215.304 195.59C-216.188 194.508 -216.975 192.837 -219.235 187.33L-225.131 173.367C-226.015 171.302 -226.408 170.318 -227.293 169.728C-228.177 169.138 -229.258 169.04 -231.42 168.942L-239.183 168.45L-228.963 192.542C-228.865 192.837 -228.767 193.033 -228.668 193.23C-226.801 197.655 -225.426 200.802 -223.559 203.26C-214.813 214.372 -203.61 213.094 -192.408 208.374C-181.206 203.653 -172.558 196.475 -174.425 182.413C-174.917 179.365 -176.194 176.12 -178.061 171.793Z" fill="url(#paint49_radial_3470_82221)"/>
    </g>
    <defs>
      <radialGradient id="paint0_radial_3470_82221" cx="0" cy="0" r="1" gradientTransform="matrix(331.65 -0.737497 -0.475497 -214.122 -110.355 0.121622)" gradientUnits="userSpaceOnUse">
        <stop stop-color="#121B38"/>
        <stop offset="1" stop-color="#121B38" stop-opacity="0"/>
      </radialGradient>
      <radialGradient id="paint1_radial_3470_82221" cx="0" cy="0" r="1" gradientTransform="matrix(331.65 -0.737497 -0.475497 -214.122 -110.355 0.121622)" gradientUnits="userSpaceOnUse">
        <stop stop-color="#121B38"/>
        <stop offset="1" stop-color="#121B38" stop-opacity="0"/>
      </radialGradient>
      <radialGradient id="paint2_radial_3470_82221" cx="0" cy="0" r="1" gradientTransform="matrix(331.65 -0.737497 -0.475497 -214.122 -110.355 0.121622)" gradientUnits="userSpaceOnUse">
        <stop stop-color="#121B38"/>
        <stop offset="1" stop-color="#121B38" stop-opacity="0"/>
      </radialGradient>
      <radialGradient id="paint3_radial_3470_82221" cx="0" cy="0" r="1" gradientTransform="matrix(331.65 -0.737497 -0.475497 -214.122 -110.355 0.121622)" gradientUnits="userSpaceOnUse">
        <stop stop-color="#121B38"/>
        <stop offset="1" stop-color="#121B38" stop-opacity="0"/>
      </radialGradient>
      <radialGradient id="paint4_radial_3470_82221" cx="0" cy="0" r="1" gradientTransform="matrix(331.65 -0.737497 -0.475497 -214.122 -110.355 0.121622)" gradientUnits="userSpaceOnUse">
        <stop stop-color="#121B38"/>
        <stop offset="1" stop-color="#121B38" stop-opacity="0"/>
      </radialGradient>
      <radialGradient id="paint5_radial_3470_82221" cx="0" cy="0" r="1" gradientTransform="matrix(331.65 -0.737497 -0.475497 -214.122 -110.355 0.121622)" gradientUnits="userSpaceOnUse">
        <stop stop-color="#121B38"/>
        <stop offset="1" stop-color="#121B38" stop-opacity="0"/>
      </radialGradient>
      <radialGradient id="paint6_radial_3470_82221" cx="0" cy="0" r="1" gradientTransform="matrix(331.65 -0.737497 -0.475497 -214.122 -110.355 0.121622)" gradientUnits="userSpaceOnUse">
        <stop stop-color="#121B38"/>
        <stop offset="1" stop-color="#121B38" stop-opacity="0"/>
      </radialGradient>
      <radialGradient id="paint7_radial_3470_82221" cx="0" cy="0" r="1" gradientTransform="matrix(331.65 -0.737497 -0.475497 -214.122 -110.355 0.121622)" gradientUnits="userSpaceOnUse">
        <stop stop-color="#121B38"/>
        <stop offset="1" stop-color="#121B38" stop-opacity="0"/>
      </radialGradient>
      <radialGradient id="paint8_radial_3470_82221" cx="0" cy="0" r="1" gradientTransform="matrix(331.65 -0.737497 -0.475497 -214.122 -110.355 0.121622)" gradientUnits="userSpaceOnUse">
        <stop stop-color="#121B38"/>
        <stop offset="1" stop-color="#121B38" stop-opacity="0"/>
      </radialGradient>
      <radialGradient id="paint9_radial_3470_82221" cx="0" cy="0" r="1" gradientTransform="matrix(331.65 -0.737497 -0.475497 -214.122 -110.355 0.121622)" gradientUnits="userSpaceOnUse">
        <stop stop-color="#121B38"/>
        <stop offset="1" stop-color="#121B38" stop-opacity="0"/>
      </radialGradient>
      <radialGradient id="paint10_radial_3470_82221" cx="0" cy="0" r="1" gradientTransform="matrix(331.65 -0.737497 -0.475497 -214.122 -110.355 0.121622)" gradientUnits="userSpaceOnUse">
        <stop stop-color="#121B38"/>
        <stop offset="1" stop-color="#121B38" stop-opacity="0"/>
      </radialGradient>
      <radialGradient id="paint11_radial_3470_82221" cx="0" cy="0" r="1" gradientTransform="matrix(331.65 -0.737497 -0.475497 -214.122 -110.355 0.121622)" gradientUnits="userSpaceOnUse">
        <stop stop-color="#121B38"/>
        <stop offset="1" stop-color="#121B38" stop-opacity="0"/>
      </radialGradient>
      <radialGradient id="paint12_radial_3470_82221" cx="0" cy="0" r="1" gradientTransform="matrix(331.65 -0.737497 -0.475497 -214.122 -110.355 0.121622)" gradientUnits="userSpaceOnUse">
        <stop stop-color="#121B38"/>
        <stop offset="1" stop-color="#121B38" stop-opacity="0"/>
      </radialGradient>
      <radialGradient id="paint13_radial_3470_82221" cx="0" cy="0" r="1" gradientTransform="matrix(331.65 -0.737497 -0.475497 -214.122 -110.355 0.121622)" gradientUnits="userSpaceOnUse">
        <stop stop-color="#121B38"/>
        <stop offset="1" stop-color="#121B38" stop-opacity="0"/>
      </radialGradient>
      <radialGradient id="paint14_radial_3470_82221" cx="0" cy="0" r="1" gradientTransform="matrix(331.65 -0.737497 -0.475497 -214.122 -110.355 0.121622)" gradientUnits="userSpaceOnUse">
        <stop stop-color="#121B38"/>
        <stop offset="1" stop-color="#121B38" stop-opacity="0"/>
      </radialGradient>
      <radialGradient id="paint15_radial_3470_82221" cx="0" cy="0" r="1" gradientTransform="matrix(331.65 -0.737497 -0.475497 -214.122 -110.355 0.121622)" gradientUnits="userSpaceOnUse">
        <stop stop-color="#121B38"/>
        <stop offset="1" stop-color="#121B38" stop-opacity="0"/>
      </radialGradient>
      <radialGradient id="paint16_radial_3470_82221" cx="0" cy="0" r="1" gradientTransform="matrix(331.65 -0.737497 -0.475497 -214.122 -110.355 0.121622)" gradientUnits="userSpaceOnUse">
        <stop stop-color="#121B38"/>
        <stop offset="1" stop-color="#121B38" stop-opacity="0"/>
      </radialGradient>
      <radialGradient id="paint17_radial_3470_82221" cx="0" cy="0" r="1" gradientTransform="matrix(331.65 -0.737497 -0.475497 -214.122 -110.355 0.121622)" gradientUnits="userSpaceOnUse">
        <stop stop-color="#121B38"/>
        <stop offset="1" stop-color="#121B38" stop-opacity="0"/>
      </radialGradient>
      <radialGradient id="paint18_radial_3470_82221" cx="0" cy="0" r="1" gradientTransform="matrix(331.65 -0.737497 -0.475497 -214.122 -110.355 0.121622)" gradientUnits="userSpaceOnUse">
        <stop stop-color="#121B38"/>
        <stop offset="1" stop-color="#121B38" stop-opacity="0"/>
      </radialGradient>
      <radialGradient id="paint19_radial_3470_82221" cx="0" cy="0" r="1" gradientTransform="matrix(331.65 -0.737497 -0.475497 -214.122 -110.355 0.121622)" gradientUnits="userSpaceOnUse">
        <stop stop-color="#121B38"/>
        <stop offset="1" stop-color="#121B38" stop-opacity="0"/>
      </radialGradient>
      <radialGradient id="paint20_radial_3470_82221" cx="0" cy="0" r="1" gradientTransform="matrix(331.65 -0.737497 -0.475497 -214.122 -110.355 0.121622)" gradientUnits="userSpaceOnUse">
        <stop stop-color="#121B38"/>
        <stop offset="1" stop-color="#121B38" stop-opacity="0"/>
      </radialGradient>
      <radialGradient id="paint21_radial_3470_82221" cx="0" cy="0" r="1" gradientTransform="matrix(331.65 -0.737497 -0.475497 -214.122 -110.355 0.121622)" gradientUnits="userSpaceOnUse">
        <stop stop-color="#121B38"/>
        <stop offset="1" stop-color="#121B38" stop-opacity="0"/>
      </radialGradient>
      <radialGradient id="paint22_radial_3470_82221" cx="0" cy="0" r="1" gradientTransform="matrix(331.65 -0.737497 -0.475497 -214.122 -110.355 0.121622)" gradientUnits="userSpaceOnUse">
        <stop stop-color="#121B38"/>
        <stop offset="1" stop-color="#121B38" stop-opacity="0"/>
      </radialGradient>
      <radialGradient id="paint23_radial_3470_82221" cx="0" cy="0" r="1" gradientTransform="matrix(331.65 -0.737497 -0.475497 -214.122 -110.355 0.121622)" gradientUnits="userSpaceOnUse">
        <stop stop-color="#121B38"/>
        <stop offset="1" stop-color="#121B38" stop-opacity="0"/>
      </radialGradient>
      <radialGradient id="paint24_radial_3470_82221" cx="0" cy="0" r="1" gradientTransform="matrix(331.65 -0.737497 -0.475497 -214.122 -110.355 0.121622)" gradientUnits="userSpaceOnUse">
        <stop stop-color="#121B38"/>
        <stop offset="1" stop-color="#121B38" stop-opacity="0"/>
      </radialGradient>
      <radialGradient id="paint25_radial_3470_82221" cx="0" cy="0" r="1" gradientTransform="matrix(331.65 -0.737497 -0.475497 -214.122 -110.355 0.121622)" gradientUnits="userSpaceOnUse">
        <stop stop-color="#121B38"/>
        <stop offset="1" stop-color="#121B38" stop-opacity="0"/>
      </radialGradient>
      <radialGradient id="paint26_radial_3470_82221" cx="0" cy="0" r="1" gradientTransform="matrix(331.65 -0.737497 -0.475497 -214.122 -110.355 0.121622)" gradientUnits="userSpaceOnUse">
        <stop stop-color="#121B38"/>
        <stop offset="1" stop-color="#121B38" stop-opacity="0"/>
      </radialGradient>
      <radialGradient id="paint27_radial_3470_82221" cx="0" cy="0" r="1" gradientTransform="matrix(331.65 -0.737497 -0.475497 -214.122 -110.355 0.121622)" gradientUnits="userSpaceOnUse">
        <stop stop-color="#121B38"/>
        <stop offset="1" stop-color="#121B38" stop-opacity="0"/>
      </radialGradient>
      <radialGradient id="paint28_radial_3470_82221" cx="0" cy="0" r="1" gradientTransform="matrix(331.65 -0.737497 -0.475497 -214.122 -110.355 0.121622)" gradientUnits="userSpaceOnUse">
        <stop stop-color="#121B38"/>
        <stop offset="1" stop-color="#121B38" stop-opacity="0"/>
      </radialGradient>
      <radialGradient id="paint29_radial_3470_82221" cx="0" cy="0" r="1" gradientTransform="matrix(331.65 -0.737497 -0.475497 -214.122 -110.355 0.121622)" gradientUnits="userSpaceOnUse">
        <stop stop-color="#121B38"/>
        <stop offset="1" stop-color="#121B38" stop-opacity="0"/>
      </radialGradient>
      <radialGradient id="paint30_radial_3470_82221" cx="0" cy="0" r="1" gradientTransform="matrix(331.65 -0.737497 -0.475497 -214.122 -110.355 0.121622)" gradientUnits="userSpaceOnUse">
        <stop stop-color="#121B38"/>
        <stop offset="1" stop-color="#121B38" stop-opacity="0"/>
      </radialGradient>
      <radialGradient id="paint31_radial_3470_82221" cx="0" cy="0" r="1" gradientTransform="matrix(331.65 -0.737497 -0.475497 -214.122 -110.355 0.121622)" gradientUnits="userSpaceOnUse">
        <stop stop-color="#121B38"/>
        <stop offset="1" stop-color="#121B38" stop-opacity="0"/>
      </radialGradient>
      <radialGradient id="paint32_radial_3470_82221" cx="0" cy="0" r="1" gradientTransform="matrix(331.65 -0.737497 -0.475497 -214.122 -110.355 0.121622)" gradientUnits="userSpaceOnUse">
        <stop stop-color="#121B38"/>
        <stop offset="1" stop-color="#121B38" stop-opacity="0"/>
      </radialGradient>
      <radialGradient id="paint33_radial_3470_82221" cx="0" cy="0" r="1" gradientTransform="matrix(331.65 -0.737497 -0.475497 -214.122 -110.355 0.121622)" gradientUnits="userSpaceOnUse">
        <stop stop-color="#121B38"/>
        <stop offset="1" stop-color="#121B38" stop-opacity="0"/>
      </radialGradient>
      <radialGradient id="paint34_radial_3470_82221" cx="0" cy="0" r="1" gradientTransform="matrix(331.65 -0.737497 -0.475497 -214.122 -110.355 0.121622)" gradientUnits="userSpaceOnUse">
        <stop stop-color="#121B38"/>
        <stop offset="1" stop-color="#121B38" stop-opacity="0"/>
      </radialGradient>
      <radialGradient id="paint35_radial_3470_82221" cx="0" cy="0" r="1" gradientTransform="matrix(331.65 -0.737497 -0.475497 -214.122 -110.355 0.121622)" gradientUnits="userSpaceOnUse">
        <stop stop-color="#121B38"/>
        <stop offset="1" stop-color="#121B38" stop-opacity="0"/>
      </radialGradient>
      <radialGradient id="paint36_radial_3470_82221" cx="0" cy="0" r="1" gradientTransform="matrix(331.65 -0.737497 -0.475497 -214.122 -110.355 0.121622)" gradientUnits="userSpaceOnUse">
        <stop stop-color="#121B38"/>
        <stop offset="1" stop-color="#121B38" stop-opacity="0"/>
      </radialGradient>
      <radialGradient id="paint37_radial_3470_82221" cx="0" cy="0" r="1" gradientTransform="matrix(331.65 -0.737497 -0.475497 -214.122 -110.355 0.121622)" gradientUnits="userSpaceOnUse">
        <stop stop-color="#121B38"/>
        <stop offset="1" stop-color="#121B38" stop-opacity="0"/>
      </radialGradient>
      <radialGradient id="paint38_radial_3470_82221" cx="0" cy="0" r="1" gradientTransform="matrix(331.65 -0.737497 -0.475497 -214.122 -110.355 0.121622)" gradientUnits="userSpaceOnUse">
        <stop stop-color="#121B38"/>
        <stop offset="1" stop-color="#121B38" stop-opacity="0"/>
      </radialGradient>
      <radialGradient id="paint39_radial_3470_82221" cx="0" cy="0" r="1" gradientTransform="matrix(331.65 -0.737497 -0.475497 -214.122 -110.355 0.121622)" gradientUnits="userSpaceOnUse">
        <stop stop-color="#121B38"/>
        <stop offset="1" stop-color="#121B38" stop-opacity="0"/>
      </radialGradient>
      <radialGradient id="paint40_radial_3470_82221" cx="0" cy="0" r="1" gradientTransform="matrix(331.65 -0.737497 -0.475497 -214.122 -110.355 0.121622)" gradientUnits="userSpaceOnUse">
        <stop stop-color="#121B38"/>
        <stop offset="1" stop-color="#121B38" stop-opacity="0"/>
      </radialGradient>
      <radialGradient id="paint41_radial_3470_82221" cx="0" cy="0" r="1" gradientTransform="matrix(331.65 -0.737497 -0.475497 -214.122 -110.355 0.121622)" gradientUnits="userSpaceOnUse">
        <stop stop-color="#121B38"/>
        <stop offset="1" stop-color="#121B38" stop-opacity="0"/>
      </radialGradient>
      <radialGradient id="paint42_radial_3470_82221" cx="0" cy="0" r="1" gradientTransform="matrix(331.65 -0.737497 -0.475497 -214.122 -110.355 0.121622)" gradientUnits="userSpaceOnUse">
        <stop stop-color="#121B38"/>
        <stop offset="1" stop-color="#121B38" stop-opacity="0"/>
      </radialGradient>
      <radialGradient id="paint43_radial_3470_82221" cx="0" cy="0" r="1" gradientTransform="matrix(331.65 -0.737497 -0.475497 -214.122 -110.355 0.121622)" gradientUnits="userSpaceOnUse">
        <stop stop-color="#121B38"/>
        <stop offset="1" stop-color="#121B38" stop-opacity="0"/>
      </radialGradient>
      <radialGradient id="paint44_radial_3470_82221" cx="0" cy="0" r="1" gradientTransform="matrix(331.65 -0.737497 -0.475497 -214.122 -110.355 0.121622)" gradientUnits="userSpaceOnUse">
        <stop stop-color="#121B38"/>
        <stop offset="1" stop-color="#121B38" stop-opacity="0"/>
      </radialGradient>
      <radialGradient id="paint45_radial_3470_82221" cx="0" cy="0" r="1" gradientTransform="matrix(331.65 -0.737497 -0.475497 -214.122 -110.355 0.121622)" gradientUnits="userSpaceOnUse">
        <stop stop-color="#121B38"/>
        <stop offset="1" stop-color="#121B38" stop-opacity="0"/>
      </radialGradient>
      <radialGradient id="paint46_radial_3470_82221" cx="0" cy="0" r="1" gradientTransform="matrix(331.65 -0.737497 -0.475497 -214.122 -110.355 0.121622)" gradientUnits="userSpaceOnUse">
        <stop stop-color="#121B38"/>
        <stop offset="1" stop-color="#121B38" stop-opacity="0"/>
      </radialGradient>
      <radialGradient id="paint47_radial_3470_82221" cx="0" cy="0" r="1" gradientTransform="matrix(331.65 -0.737497 -0.475497 -214.122 -110.355 0.121622)" gradientUnits="userSpaceOnUse">
        <stop stop-color="#121B38"/>
        <stop offset="1" stop-color="#121B38" stop-opacity="0"/>
      </radialGradient>
      <radialGradient id="paint48_radial_3470_82221" cx="0" cy="0" r="1" gradientTransform="matrix(331.65 -0.737497 -0.475497 -214.122 -110.355 0.121622)" gradientUnits="userSpaceOnUse">
        <stop stop-color="#121B38"/>
        <stop offset="1" stop-color="#121B38" stop-opacity="0"/>
      </radialGradient>
      <radialGradient id="paint49_radial_3470_82221" cx="0" cy="0" r="1" gradientTransform="matrix(331.65 -0.737497 -0.475497 -214.122 -110.355 0.121622)" gradientUnits="userSpaceOnUse">
        <stop stop-color="#121B38"/>
        <stop offset="1" stop-color="#121B38" stop-opacity="0"/>
      </radialGradient>
    </defs>
  </svg>
