<svg xmlns="http://www.w3.org/2000/svg" width="220" height="288" viewBox="0 0 220 288" fill="none">
    <g opacity="0.2">
      <path fill-rule="evenodd" clip-rule="evenodd" d="M314 -28.8697C314.2 -28.7697 314.5 -28.6697 314.7 -28.4697L333.4 -18.8697L327 -14.1697C325.2 -12.8697 324.3 -12.1697 323.2 -12.0697C322.1 -11.9697 321.1 -12.4697 319.1 -13.5697L310.3 -18.0697C305 -20.8697 303.3 -21.6697 301.8 -21.9697C294.1 -23.5697 290 -19.5697 286 -11.6697C281.9 -3.76967 281 1.83032 286.9 7.13033C288 8.13033 289.6 9.03033 295 11.7303L308.7 18.8303C310.7 19.8303 311.7 20.3303 312.2 21.2303C312.7 22.1303 312.7 23.2303 312.7 25.5303L312.6 33.4303L288.9 21.2303C288.7 21.1303 288.4 21.0303 288.2 20.8303C283.9 18.6303 280.7 17.0303 278.4 14.8303C267.8 5.13034 269.9 -6.16966 275.6 -17.1697C281.3 -28.1697 289.2 -36.4697 303.3 -33.4697C306.6 -32.7697 309.7 -31.0697 314 -28.8697Z" fill="url(#paint0_linear_3470_15149)"/>
      <path fill-rule="evenodd" clip-rule="evenodd" d="M218.9 10.3303C219.1 10.1303 219.3 10.0303 219.5 9.83032L236.1 -3.06969L237.7 4.73032C238.1 6.93031 238.4 8.03032 238 9.03032C237.6 10.0303 236.7 10.7303 235 12.1303L227.2 18.2303C222.5 21.9303 221 23.1303 220.1 24.3303C215.4 30.6303 217.3 36.0303 222.8 43.0303C228.3 50.0303 233 53.2303 240.3 50.1303C241.6 49.5303 243.1 48.4303 247.9 44.7303L260.1 35.2303C261.9 33.8303 262.8 33.1303 263.8 33.0303C264.9 32.9303 265.9 33.4303 267.9 34.3303L275 37.7303L254 54.1303C253.8 54.3303 253.6 54.4303 253.4 54.6303C249.6 57.6303 246.8 59.8303 243.9 61.0303C230.6 66.5303 221.3 59.9303 213.7 50.1303C206.1 40.3303 201.9 29.7303 210.5 18.1303C212.3 15.4303 215.1 13.3303 218.9 10.3303Z" fill="url(#paint1_linear_3470_15149)"/>
      <path fill-rule="evenodd" clip-rule="evenodd" d="M282.8 -57.6697C282.6 -57.8697 282.4 -57.9697 282.2 -58.1697L265.7 -71.1697L272.9 -74.4697C274.9 -75.3697 276 -75.8697 277 -75.7697C278.1 -75.6697 278.9 -74.9697 280.7 -73.5697L288.4 -67.4697C293.1 -63.7697 294.6 -62.5697 295.9 -62.0697C303.2 -58.9697 307.9 -62.0697 313.4 -69.0697C318.9 -75.9697 320.9 -81.3697 316.2 -87.6697C315.3 -88.8697 313.9 -90.0697 309.2 -93.7697L297.1 -103.37C295.3 -104.77 294.5 -105.47 294.1 -106.47C293.7 -107.47 294 -108.57 294.4 -110.77L296 -118.47L316.8 -101.97C317 -101.77 317.2 -101.67 317.4 -101.47C321.2 -98.4697 324 -96.2697 325.9 -93.6697C334.4 -82.0697 330.1 -71.4697 322.4 -61.7697C314.7 -52.0697 305.3 -45.5697 292.1 -51.1697C289.4 -52.4697 286.6 -54.6697 282.8 -57.6697Z" fill="url(#paint2_linear_3470_15149)"/>
      <path fill-rule="evenodd" clip-rule="evenodd" d="M394.2 -113.07C394.2 -112.77 394.1 -112.57 394.1 -112.27L390.6 -91.5697L384.2 -96.2697C382.4 -97.5697 381.5 -98.2697 381.1 -99.2697C380.7 -100.27 380.9 -101.37 381.3 -103.57L382.9 -113.27C383.9 -119.17 384.2 -121.07 384 -122.47C383.2 -130.27 378.2 -132.97 369.4 -134.47C360.6 -135.97 355 -135.07 351.7 -127.97C351.1 -126.67 350.7 -124.77 349.7 -118.87L347.1 -103.67C346.7 -101.47 346.5 -100.37 345.8 -99.5697C345.1 -98.7697 344 -98.4697 341.9 -97.7697L334.3 -95.4697L338.7 -121.67C338.7 -121.97 338.8 -122.17 338.8 -122.47C339.6 -127.27 340.2 -130.77 341.5 -133.67C347.6 -146.67 358.9 -148.07 371.1 -146.07C383.3 -144.07 393.6 -138.97 395 -124.67C395.6 -121.27 395 -117.77 394.2 -113.07Z" fill="url(#paint3_linear_3470_15149)"/>
      <path fill-rule="evenodd" clip-rule="evenodd" d="M364.8 59.6303C364.5 59.6303 364.3 59.6303 364 59.6303L343 58.6303L346.9 51.7303C348 49.7303 348.5 48.8303 349.5 48.2303C350.4 47.7303 351.5 47.7303 353.8 47.8303L363.6 48.3303C369.6 48.6303 371.5 48.6303 372.9 48.3303C380.6 46.6303 382.6 41.2303 383 32.4303C383.4 23.5303 381.9 18.1303 374.4 15.6303C373 15.2303 371.1 15.0303 365.1 14.7303L349.7 14.0303C347.5 13.9303 346.3 13.8303 345.5 13.2303C344.6 12.6303 344.2 11.6303 343.3 9.53032L340.1 2.33032L366.7 3.53032C367 3.53032 367.2 3.53032 367.5 3.53032C372.3 3.73032 375.9 3.93031 378.9 4.93031C392.5 9.43031 395.3 20.5303 394.8 32.8303C394.3 45.1303 390.4 56.0303 376.4 59.1303C373.2 60.0303 369.7 59.9303 364.8 59.6303Z" fill="url(#paint4_linear_3470_15149)"/>
      <path fill-rule="evenodd" clip-rule="evenodd" d="M602.9 42.6303C602.8 42.4303 602.7 42.1303 602.6 41.9303L594 22.7303L601.9 23.0303C604.1 23.1303 605.3 23.1303 606.1 23.7303C607 24.3303 607.4 25.3303 608.4 27.4303L612.4 36.4303C614.9 41.9303 615.7 43.6303 616.6 44.7303C621.6 50.8303 627.3 50.2303 635.4 46.6303C643.5 43.0303 647.7 39.2303 646.5 31.4303C646.3 30.0303 645.6 28.2303 643.1 22.7303L636.8 8.63031C635.9 6.5303 635.4 5.53032 635.6 4.53032C635.7 3.43031 636.5 2.63033 637.9 0.830322L642.9 -5.26968L653.8 19.0303C653.9 19.2303 654 19.5303 654.1 19.7303C656.1 24.1303 657.5 27.4303 658 30.5303C660.2 44.7303 651.5 52.2303 640.2 57.2303C628.9 62.2303 617.5 63.7303 608.4 52.7303C606.3 50.3303 604.9 47.0303 602.9 42.6303Z" fill="url(#paint5_linear_3470_15149)"/>
      <path fill-rule="evenodd" clip-rule="evenodd" d="M177.5 -107.17C177.8 -107.07 178 -107.07 178.3 -106.97L198.6 -101.57L193.4 -95.6697C191.9 -93.9697 191.2 -93.1697 190.2 -92.8697C189.2 -92.5697 188.1 -92.8697 185.9 -93.4697L176.4 -95.9697C170.6 -97.4697 168.8 -97.9697 167.3 -97.9697C159.4 -97.8697 156.3 -93.1697 154 -84.5697C151.7 -75.9697 152.1 -70.3697 158.9 -66.3697C160.2 -65.6697 162 -65.0697 167.8 -63.5697L182.7 -59.5697C184.9 -58.9697 186 -58.6697 186.7 -57.9697C187.4 -57.1697 187.7 -56.0697 188.1 -53.8697L189.7 -46.1697L164 -52.9697C163.7 -53.0697 163.5 -53.0697 163.2 -53.1697C158.5 -54.3697 155.1 -55.2697 152.3 -56.8697C139.9 -64.0697 139.5 -75.5697 142.7 -87.4697C145.9 -99.3697 151.9 -109.17 166.2 -109.37C169.3 -109.37 172.8 -108.47 177.5 -107.17Z" fill="url(#paint6_linear_3470_15149)"/>
      <path fill-rule="evenodd" clip-rule="evenodd" d="M208.5 -35.5697C208.4 -35.8697 208.4 -36.0697 208.3 -36.3697L202.8 -56.6697L210.5 -55.0697C212.7 -54.6697 213.8 -54.3697 214.6 -53.6697C215.4 -52.9697 215.7 -51.8697 216.3 -49.6697L218.9 -40.1697C220.5 -34.3697 221 -32.5697 221.7 -31.2697C225.7 -24.4697 231.4 -24.1697 239.9 -26.4697C248.5 -28.7697 253.2 -31.8697 253.3 -39.7697C253.3 -41.1697 252.9 -43.0697 251.3 -48.8697L247.3 -63.7697C246.7 -65.9697 246.4 -67.0697 246.7 -68.0697C247 -69.0697 247.8 -69.8697 249.5 -71.3697L255.4 -76.6697L262.3 -50.9697C262.4 -50.6697 262.4 -50.4697 262.5 -50.1697C263.8 -45.4697 264.7 -42.0697 264.7 -38.8697C264.6 -24.4697 254.9 -18.4697 242.9 -15.2697C231 -12.0697 219.5 -12.3697 212.2 -24.7697C210.7 -27.4697 209.8 -30.8697 208.5 -35.5697Z" fill="url(#paint7_linear_3470_15149)"/>
      <path fill-rule="evenodd" clip-rule="evenodd" d="M314.2 -178.77C314.4 -178.67 314.7 -178.57 314.9 -178.37L333.5 -168.67L327.1 -164.07C325.3 -162.77 324.4 -162.07 323.3 -162.07C322.2 -161.97 321.2 -162.47 319.3 -163.57L310.6 -168.17C305.3 -170.97 303.6 -171.77 302.2 -172.07C294.5 -173.77 290.4 -169.77 286.3 -161.97C282.2 -154.17 281.3 -148.47 287 -143.17C288.1 -142.17 289.7 -141.27 295 -138.47L308.7 -131.27C310.7 -130.27 311.7 -129.67 312.2 -128.77C312.7 -127.87 312.7 -126.77 312.7 -124.47L312.6 -116.57L289 -128.87C288.8 -128.97 288.5 -129.17 288.3 -129.27C284 -131.47 280.9 -133.17 278.5 -135.37C268 -145.17 270.2 -156.47 275.9 -167.37C281.6 -178.27 289.6 -186.37 303.7 -183.37C306.8 -182.67 309.9 -181.07 314.2 -178.77Z" fill="url(#paint8_linear_3470_15149)"/>
      <path fill-rule="evenodd" clip-rule="evenodd" d="M394.7 -42.1697C394.7 -41.8697 394.7 -41.6697 394.7 -41.3697L394.3 -20.3697L387.3 -24.0697C385.3 -25.0697 384.3 -25.6697 383.8 -26.5697C383.3 -27.4697 383.3 -28.5697 383.3 -30.8697L383.5 -40.7697C383.6 -46.7697 383.6 -48.6697 383.2 -50.0697C381.3 -57.6697 375.9 -59.5697 367 -59.7697C358.1 -59.9697 352.7 -58.2697 350.5 -50.6697C350.1 -49.2697 350 -47.3697 349.9 -41.3697L349.6 -25.9697C349.6 -23.7697 349.5 -22.5697 349 -21.6697C348.4 -20.7697 347.4 -20.2697 345.4 -19.3697L338.3 -15.9697L338.8 -42.5697C338.8 -42.8697 338.8 -43.0697 338.8 -43.3697C338.9 -48.2697 339 -51.7697 339.9 -54.7697C344 -68.5697 355 -71.6697 367.4 -71.3697C379.8 -71.1697 390.7 -67.6697 394.2 -53.6697C394.8 -50.5697 394.8 -46.9697 394.7 -42.1697Z" fill="url(#paint9_linear_3470_15149)"/>
      <path fill-rule="evenodd" clip-rule="evenodd" d="M145 -18.4697C145.1 -18.6697 145.2 -18.9697 145.4 -19.1697L154.9 -37.8697L159.6 -31.5697C160.9 -29.7697 161.6 -28.8697 161.7 -27.7697C161.8 -26.6697 161.3 -25.6697 160.3 -23.6697L155.9 -14.8697C153.2 -9.4697 152.4 -7.76968 152.1 -6.36969C150.5 1.33031 154.6 5.43031 162.5 9.43031C170.4 13.4303 176 14.3303 181.3 8.43031C182.3 7.33031 183.2 5.73032 185.9 0.330322L192.9 -13.4697C193.9 -15.4697 194.4 -16.4697 195.3 -17.0697C196.2 -17.6697 197.3 -17.5697 199.6 -17.5697H207.5L195.5 6.13031C195.4 6.33031 195.3 6.63033 195.1 6.83032C192.9 11.1303 191.3 14.3303 189.2 16.6303C179.6 27.2303 168.3 25.2303 157.2 19.6303C146.2 14.0303 137.8 6.13033 140.7 -7.96968C141.2 -10.9697 142.8 -14.0697 145 -18.4697Z" fill="url(#paint10_linear_3470_15149)"/>
      <path fill-rule="evenodd" clip-rule="evenodd" d="M324.9 234.83C324.8 235.03 324.6 235.33 324.5 235.53L314.3 253.93L309.8 247.43C308.5 245.53 307.9 244.63 307.8 243.63C307.8 242.53 308.3 241.63 309.4 239.63L314.2 231.03C317.1 225.73 318 224.13 318.3 222.73C320.2 215.03 316.3 210.93 308.5 206.63C300.7 202.33 295.2 201.23 289.6 206.93C288.6 207.93 287.6 209.63 284.7 214.83L277.2 228.33C276.1 230.33 275.6 231.23 274.6 231.83C273.7 232.33 272.6 232.33 270.3 232.23L262.4 231.93L275.3 208.63C275.4 208.43 275.6 208.13 275.7 207.93C278 203.73 279.8 200.63 282 198.33C292 188.03 303.2 190.53 314.1 196.53C324.9 202.53 332.9 210.73 329.6 224.73C329 227.43 327.3 230.53 324.9 234.83Z" fill="url(#paint11_linear_3470_15149)"/>
      <path fill-rule="evenodd" clip-rule="evenodd" d="M263.7 257.03C263.7 257.33 263.7 257.53 263.7 257.83L264.7 278.83L257.5 275.63C255.4 274.73 254.4 274.23 253.8 273.43C253.2 272.53 253.2 271.43 253 269.23L252.5 259.43C252.2 253.43 252.1 251.53 251.6 250.13C249.2 242.63 243.7 241.13 234.8 241.53C225.9 241.93 220.6 243.93 218.9 251.63C218.6 253.03 218.6 254.93 218.9 260.93L219.6 276.33C219.7 278.53 219.8 279.73 219.2 280.63C218.7 281.53 217.7 282.13 215.7 283.23L208.8 287.13L207.6 260.53C207.6 260.23 207.6 260.03 207.6 259.73C207.4 254.93 207.2 251.33 207.9 248.23C211.1 234.23 221.9 230.43 234.2 229.83C246.6 229.23 257.7 232.03 262.1 245.73C263.3 248.63 263.5 252.23 263.7 257.03Z" fill="url(#paint12_linear_3470_15149)"/>
      <path fill-rule="evenodd" clip-rule="evenodd" d="M306.3 118.33C306.6 118.33 306.8 118.43 307.1 118.43L327.8 122.23L323 128.53C321.7 130.33 321 131.23 320 131.63C319 132.03 317.9 131.83 315.7 131.43L306 129.63C300.1 128.53 298.2 128.23 296.8 128.43C288.9 129.13 286.2 134.13 284.6 142.83C283 151.53 283.8 157.23 290.9 160.63C292.2 161.23 294 161.63 300 162.73L315.2 165.53C317.4 165.93 318.5 166.13 319.3 166.83C320.1 167.53 320.4 168.63 321 170.73L323.2 178.33L297 173.53C296.7 173.53 296.5 173.43 296.2 173.43C291.4 172.53 287.9 171.93 285.1 170.53C272.2 164.33 270.9 152.93 273.1 140.73C275.3 128.53 280.5 118.33 294.8 117.13C298.1 116.73 301.5 117.43 306.3 118.33Z" fill="url(#paint13_linear_3470_15149)"/>
      <path fill-rule="evenodd" clip-rule="evenodd" d="M367.6 134.73C367.3 134.73 367.1 134.73 366.8 134.73L345.8 135.83L348.9 128.53C349.8 126.43 350.2 125.43 351.1 124.83C352 124.23 353.1 124.13 355.3 124.03L365.1 123.53C371.1 123.23 373 123.03 374.4 122.63C381.9 120.13 383.4 114.63 382.9 105.83C382.4 96.9303 380.4 91.6303 372.6 90.0303C371.2 89.7303 369.3 89.7303 363.3 90.1303L347.9 90.9303C345.7 91.0303 344.5 91.1303 343.6 90.6303C342.7 90.1303 342.1 89.1303 341 87.2303L337.1 80.3303L363.7 78.9303C364 78.9303 364.2 78.9303 364.5 78.9303C369.3 78.6303 372.9 78.4303 376 79.1303C390 82.2303 393.9 92.9303 394.6 105.33C395.3 117.63 392.6 128.83 379 133.43C376 134.23 372.5 134.43 367.6 134.73Z" fill="url(#paint14_linear_3470_15149)"/>
      <path fill-rule="evenodd" clip-rule="evenodd" d="M163 117.53C163.3 117.43 163.5 117.43 163.8 117.33L184.1 111.83L182.5 119.53C182.1 121.73 181.8 122.83 181.1 123.63C180.4 124.43 179.3 124.73 177.1 125.23L167.6 127.83C161.8 129.43 160 129.93 158.7 130.63C151.9 134.63 151.6 140.33 153.9 148.83C156.2 157.33 159.3 162.13 167.2 162.23C168.6 162.23 170.5 161.83 176.3 160.23L191.2 156.23C193.4 155.63 194.5 155.33 195.5 155.63C196.5 155.93 197.3 156.73 198.8 158.43L204.1 164.33L178.4 171.23C178.1 171.33 177.9 171.33 177.6 171.43C172.9 172.73 169.5 173.63 166.3 173.63C151.9 173.53 145.9 163.83 142.7 151.83C139.5 139.93 139.8 128.43 152.2 121.13C154.9 119.73 158.3 118.83 163 117.53Z" fill="url(#paint15_linear_3470_15149)"/>
      <path fill-rule="evenodd" clip-rule="evenodd" d="M186 92.5303C185.8 92.7303 185.6 92.8303 185.4 93.0303L168.6 105.63L167.2 97.8303C166.8 95.6303 166.6 94.5303 167 93.5303C167.4 92.5303 168.3 91.8303 170.1 90.5303L178 84.6303C182.8 81.0303 184.3 79.8303 185.2 78.7303C190 72.5303 188.2 67.1303 182.9 60.0303C177.6 52.9303 172.9 49.6303 165.6 52.5303C164.3 53.0303 162.7 54.1303 157.9 57.7303L145.5 66.9303C143.7 68.2303 142.8 68.9303 141.7 69.0303C140.6 69.1303 139.6 68.6303 137.6 67.6303L130.5 64.0303L151.8 48.1303C152 47.9303 152.2 47.8303 152.4 47.6303C156.3 44.7303 159.1 42.6303 162.1 41.4303C175.5 36.2303 184.7 43.0303 192.1 52.9303C199.5 62.8303 203.4 73.6303 194.6 84.9303C192.7 87.5303 189.9 89.6303 186 92.5303Z" fill="url(#paint16_linear_3470_15149)"/>
      <path fill-rule="evenodd" clip-rule="evenodd" d="M254.3 203.63C254.1 203.83 253.9 204.03 253.7 204.13L238.3 218.43L236.1 210.83C235.5 208.63 235.2 207.63 235.4 206.53C235.7 205.53 236.5 204.73 238.2 203.23L245.4 196.53C249.8 192.43 251.2 191.13 251.9 189.93C256.1 183.23 253.7 178.03 247.7 171.53C241.7 165.03 236.7 162.23 229.7 165.93C228.4 166.63 227 167.83 222.6 171.93L211.3 182.43C209.7 183.93 208.8 184.73 207.8 184.93C206.8 185.13 205.7 184.73 203.6 183.93L196.2 181.13L215.7 163.03C215.9 162.83 216.1 162.63 216.3 162.43C219.9 159.13 222.5 156.73 225.3 155.23C238 148.63 247.9 154.43 256.3 163.53C264.7 172.63 269.8 182.93 262.2 195.13C260.5 197.93 257.9 200.33 254.3 203.63Z" fill="url(#paint17_linear_3470_15149)"/>
      <path fill-rule="evenodd" clip-rule="evenodd" d="M295.8 43.1303C296.1 43.0303 296.3 43.0303 296.6 42.9303L317.2 38.8303L315.1 46.4303C314.5 48.6303 314.2 49.6303 313.4 50.4303C312.6 51.1303 311.5 51.3303 309.3 51.8303L299.6 53.7303C293.7 54.9303 291.9 55.3303 290.6 55.9303C283.5 59.4303 282.9 65.1303 284.6 73.8303C286.3 82.5303 289.1 87.4303 297 88.0303C298.4 88.1303 300.3 87.8303 306.2 86.6303L321.4 83.6303C323.6 83.2303 324.7 82.9303 325.7 83.3303C326.7 83.7303 327.4 84.6303 328.8 86.3303L333.7 92.5303L307.6 97.7303C307.3 97.8303 307.1 97.8303 306.8 97.9303C302 98.9303 298.6 99.5303 295.4 99.3303C281.1 98.3303 275.7 88.1303 273.3 76.0303C270.9 63.9303 272 52.5303 284.8 46.0303C287.6 44.8303 291 44.1303 295.8 43.1303Z" fill="url(#paint18_linear_3470_15149)"/>
      <path fill-rule="evenodd" clip-rule="evenodd" d="M209.9 96.7303C210 96.5303 210.1 96.2303 210.2 95.9303L218 76.4303L223.2 82.3303C224.7 84.0303 225.4 84.8303 225.6 85.9303C225.8 86.9303 225.4 88.0303 224.5 90.1303L220.8 99.2303C218.6 104.83 217.9 106.53 217.7 108.03C216.8 115.83 221.2 119.53 229.4 122.83C237.6 126.13 243.3 126.53 248.1 120.23C249 119.03 249.7 117.33 252 111.73L257.8 97.4303C258.6 95.3303 259.1 94.3303 259.9 93.6303C260.8 93.0303 261.9 92.9303 264.1 92.7303L272 92.1303L262.1 116.83C262 117.13 261.9 117.33 261.8 117.63C260 122.13 258.7 125.43 256.7 127.93C248 139.33 236.6 138.33 225.1 133.73C213.6 129.13 204.7 121.93 206.3 107.73C206.8 104.53 208.1 101.23 209.9 96.7303Z" fill="url(#paint19_linear_3470_15149)"/>
      <path fill-rule="evenodd" clip-rule="evenodd" d="M79.5 20.6303C79.6 20.4303 79.7 20.1303 79.8 19.9303L88.5 0.830322L93.5 6.93031C94.9 8.63031 95.6 9.5303 95.8 10.6303C95.9 11.7303 95.5 12.7303 94.5 14.7303L90.4 23.7303C87.9 29.2303 87.2 30.9303 87 32.3303C85.8 40.1303 89.9 43.9303 98 47.6303C106.1 51.3303 111.7 51.9303 116.8 45.8303C117.7 44.7303 118.6 43.0303 121 37.5303L127.4 23.4303C128.3 21.4303 128.8 20.3303 129.7 19.7303C130.6 19.1303 131.7 19.1303 133.9 19.0303L141.8 18.7303L130.8 42.9303C130.7 43.1303 130.6 43.4303 130.5 43.6303C128.5 48.0303 127 51.2303 125 53.7303C115.8 64.7303 104.4 63.2303 93.2 58.1303C81.9 53.0303 73.3 45.4303 75.6 31.3303C76 28.2303 77.4 25.0303 79.5 20.6303Z" fill="url(#paint20_linear_3470_15149)"/>
      <path fill-rule="evenodd" clip-rule="evenodd" d="M82.6 -59.4697C82.8 -59.6697 82.9 -59.8697 83.1 -60.0697L95.7 -76.8697L99.3 -69.7697C100.3 -67.7697 100.8 -66.7697 100.7 -65.6697C100.6 -64.5697 99.9 -63.6697 98.6 -61.8697L92.7 -53.9697C89.1 -49.1697 88 -47.5697 87.5 -46.2697C84.6 -38.8697 87.9 -34.2697 95 -28.9697C102.1 -23.6697 107.5 -21.8697 113.7 -26.6697C114.8 -27.5697 116 -29.0697 119.6 -33.8697L128.8 -46.2697C130.1 -48.0697 130.8 -48.9697 131.8 -49.3697C132.8 -49.7697 133.9 -49.5697 136.1 -49.1697L143.9 -47.7697L128 -26.4697C127.8 -26.2697 127.7 -26.0697 127.5 -25.8697C124.6 -21.9697 122.5 -19.1697 120 -17.1697C108.7 -8.36967 97.9 -12.2697 88 -19.6697C78.1 -27.0697 71.2 -36.2697 76.5 -49.6697C77.6 -52.7697 79.7 -55.5697 82.6 -59.4697Z" fill="url(#paint21_linear_3470_15149)"/>
      <path fill-rule="evenodd" clip-rule="evenodd" d="M62 10.3303C61.9 10.5303 61.7 10.8303 61.6 11.0303L50.2 28.7303L46.2 21.9303C45.1 20.0303 44.5 19.0303 44.5 17.9303C44.5 16.8303 45.1 15.9303 46.3 14.0303L51.6 5.73032C54.8 0.63031 55.8 -0.969696 56.2 -2.36969C58.5 -9.86969 54.9 -14.2697 47.5 -19.0697C40.1 -23.8697 34.5 -25.2697 28.7 -19.9697C27.6 -18.9697 26.6 -17.4697 23.3 -12.3697L15 0.63031C13.8 2.5303 13.2 3.43031 12.2 3.93031C11.2 4.43031 10.1 4.23032 7.9 4.03032L0 3.23032L14.3 -19.1697C14.4 -19.3697 14.6 -19.6697 14.7 -19.8697C17.3 -23.9697 19.2 -26.9697 21.6 -29.0697C32.3 -38.6697 43.3 -35.5697 53.7 -28.8697C64.1 -22.1697 71.6 -13.4697 67.3 0.230316C66.5 3.23032 64.6 6.23032 62 10.3303Z" fill="url(#paint22_linear_3470_15149)"/>
      <path fill-rule="evenodd" clip-rule="evenodd" d="M13 58.6303C13.1 58.4303 13.2 58.1303 13.3 57.9303L21.2 38.5303L26.4 44.4303C27.9 46.1303 28.6 46.9303 28.8 48.0303C29 49.0303 28.6 50.1303 27.7 52.2303L24 61.3303C21.7 66.9303 21.1 68.6303 20.9 70.1303C20 77.9303 24.3 81.6303 32.5 85.0303C40.7 88.4303 46.4 88.8303 51.2 82.5303C52.1 81.4303 52.8 79.6303 55.1 74.1303L60.9 59.8303C61.7 57.7303 62.2 56.7303 63 56.1303C63.9 55.5303 65 55.4303 67.2 55.2303L75.1 54.6303L65 79.2303C64.9 79.5303 64.8 79.7303 64.7 79.9303C62.9 84.4303 61.5 87.7303 59.6 90.2303C50.8 101.63 39.4 100.53 28 95.8303C16.6 91.1303 7.7 83.7303 9.4 69.5303C9.8 66.3303 11.2 63.1303 13 58.6303Z" fill="url(#paint23_linear_3470_15149)"/>
      <path fill-rule="evenodd" clip-rule="evenodd" d="M89.7 159.13C89.9 159.03 90.1 158.83 90.4 158.73L107.9 147.03L108.9 154.83C109.2 157.03 109.3 158.13 108.9 159.13C108.5 160.13 107.5 160.73 105.7 161.93L97.5 167.43C92.5 170.73 91 171.83 90 172.93C84.8 178.93 86.4 184.33 91.3 191.73C96.2 199.13 100.7 202.63 108.2 200.13C109.6 199.63 111.2 198.63 116.2 195.33L129.1 186.73C131 185.53 131.9 184.83 133 184.83C134.1 184.83 135 185.33 137 186.43L143.9 190.33L121.8 205.13C121.6 205.33 121.3 205.43 121.1 205.53C117.1 208.23 114.1 210.23 111.1 211.23C97.5 215.73 88.6 208.43 81.8 198.13C74.9 187.83 71.6 176.83 81 166.03C82.7 163.73 85.6 161.83 89.7 159.13Z" fill="url(#paint24_linear_3470_15149)"/>
      <path fill-rule="evenodd" clip-rule="evenodd" d="M345.5 163.43C345.7 163.23 345.8 163.03 346 162.83L359.4 146.63L362.6 153.83C363.5 155.93 364 156.93 363.8 157.93C363.7 159.03 362.9 159.83 361.5 161.53L355.2 169.13C351.4 173.73 350.2 175.23 349.6 176.53C346.4 183.73 349.4 188.53 356.2 194.23C363 199.93 368.3 201.93 374.8 197.43C376 196.63 377.2 195.23 381.1 190.53L390.9 178.63C392.3 176.93 393 176.03 394 175.73C395 175.43 396.1 175.63 398.3 176.13L406 177.93L389.1 198.43C388.9 198.63 388.8 198.83 388.6 199.03C385.5 202.73 383.3 205.53 380.7 207.33C368.9 215.53 358.4 211.13 348.8 203.23C339.2 195.33 332.9 185.83 338.8 172.73C340.1 169.93 342.4 167.13 345.5 163.43Z" fill="url(#paint25_linear_3470_15149)"/>
      <path fill-rule="evenodd" clip-rule="evenodd" d="M188.2 240.73C188 240.93 187.8 241.13 187.6 241.23L172.2 255.43L170 247.83C169.4 245.63 169.1 244.63 169.4 243.53C169.7 242.53 170.5 241.73 172.2 240.23L179.4 233.53C183.8 229.43 185.2 228.13 185.9 226.93C190.1 220.23 187.7 215.03 181.7 208.53C175.7 202.03 170.7 199.23 163.7 202.83C162.4 203.53 161 204.73 156.6 208.83L145.2 219.33C143.5 220.83 142.7 221.63 141.7 221.83C140.7 222.03 139.6 221.63 137.5 220.83L130.1 218.03L149.7 200.03C149.9 199.83 150.1 199.63 150.3 199.53C153.9 196.23 156.5 193.83 159.3 192.43C172.1 185.83 181.9 191.73 190.3 200.83C198.7 209.93 203.7 220.23 196.1 232.43C194.4 235.03 191.8 237.43 188.2 240.73Z" fill="url(#paint26_linear_3470_15149)"/>
      <path fill-rule="evenodd" clip-rule="evenodd" d="M558 23.3303C557.7 23.3303 557.5 23.2303 557.2 23.2303L536.4 20.1303L540.9 13.6303C542.2 11.8303 542.8 10.8303 543.8 10.4303C544.8 10.0303 545.9 10.1303 548.1 10.5303L557.8 11.9303C563.7 12.8303 565.6 13.0303 567.1 12.8303C574.9 11.8303 577.5 6.83032 578.8 -1.96968C580.1 -10.7697 579.1 -16.3697 571.9 -19.5697C570.6 -20.1697 568.7 -20.4697 562.8 -21.3697L547.5 -23.6697C545.3 -23.9697 544.2 -24.1697 543.4 -24.8697C542.6 -25.5697 542.2 -26.6697 541.5 -28.7697L539 -36.2697L565.3 -32.3697C565.6 -32.3697 565.8 -32.2697 566.1 -32.2697C570.9 -31.5697 574.4 -31.0697 577.3 -29.7697C590.4 -23.9697 592.1 -12.5697 590.3 -0.36969C588.5 11.8303 583.6 22.2303 569.4 24.0303C566.3 24.5303 562.8 24.0303 558 23.3303Z" fill="url(#paint27_linear_3470_15149)"/>
      <path fill-rule="evenodd" clip-rule="evenodd" d="M470 28.5303C470 28.2303 470.1 28.0303 470.1 27.7303L472.8 6.93031L479.3 11.3303C481.2 12.6303 482.1 13.2303 482.5 14.2303C482.9 15.2303 482.8 16.3303 482.5 18.5303L481.2 28.3303C480.4 34.3303 480.2 36.1303 480.4 37.6303C481.5 45.4303 486.6 47.9303 495.4 49.0303C504.2 50.1303 509.8 49.1303 512.8 41.8303C513.4 40.5303 513.7 38.6303 514.4 32.6303L516.4 17.3303C516.7 15.1303 516.8 14.0303 517.5 13.1303C518.2 12.3303 519.2 11.9303 521.4 11.2303L528.9 8.63031L525.4 35.0303C525.4 35.3303 525.3 35.5303 525.3 35.8303C524.7 40.6303 524.2 44.1303 523 47.0303C517.4 60.2303 506.1 62.1303 493.8 60.4303C481.5 58.8303 471.1 54.1303 469.1 39.9303C468.9 36.8303 469.4 33.3303 470 28.5303Z" fill="url(#paint28_linear_3470_15149)"/>
      <path fill-rule="evenodd" clip-rule="evenodd" d="M563.5 -51.2697C563.2 -51.2697 563 -51.2697 562.7 -51.2697L541.7 -50.2697L544.9 -57.4697C545.8 -59.5697 546.3 -60.5697 547.1 -61.1697C548 -61.7697 549.1 -61.8697 551.3 -61.9697L561.1 -62.4697C567.1 -62.7697 569 -62.8697 570.4 -63.3697C577.9 -65.8697 579.4 -71.3697 579 -80.1697C578.6 -88.9697 576.5 -94.3697 568.8 -96.0697C567.4 -96.3697 565.5 -96.3697 559.5 -96.0697L544.1 -95.2697C541.9 -95.1697 540.7 -95.0697 539.8 -95.5697C538.9 -96.0697 538.3 -97.0697 537.2 -98.9697L533.3 -105.87L559.9 -107.17C560.2 -107.17 560.4 -107.17 560.7 -107.17C565.5 -107.37 569.1 -107.57 572.2 -106.87C586.2 -103.77 590.1 -92.9697 590.7 -80.5697C591.3 -68.1697 588.6 -57.0697 574.9 -52.5697C571.9 -51.6697 568.4 -51.4697 563.5 -51.2697Z" fill="url(#paint29_linear_3470_15149)"/>
      <path fill-rule="evenodd" clip-rule="evenodd" d="M671.2 -95.9697C671.4 -96.1697 671.5 -96.3697 671.7 -96.6697L683.9 -113.77L687.6 -106.77C688.7 -104.77 689.2 -103.77 689.1 -102.77C689 -101.67 688.4 -100.77 687.1 -98.9697L681.4 -90.9697C677.9 -86.0697 676.9 -84.4697 676.4 -83.1697C673.7 -75.7697 677.1 -71.1697 684.3 -66.0697C691.5 -60.9697 697 -59.2697 703.1 -64.2697C704.2 -65.1697 705.4 -66.6697 708.8 -71.5697L717.7 -84.1697C719 -85.9697 719.6 -86.8697 720.6 -87.3697C721.6 -87.7697 722.7 -87.5697 724.9 -87.2697L732.7 -86.0697L717.3 -64.3697C717.1 -64.1697 717 -63.9697 716.8 -63.6697C714 -59.6697 711.9 -56.8697 709.5 -54.7697C698.4 -45.6697 687.5 -49.3697 677.4 -56.4697C667.3 -63.6697 660.3 -72.6697 665.2 -86.1697C666.3 -89.0697 668.4 -91.9697 671.2 -95.9697Z" fill="url(#paint30_linear_3470_15149)"/>
      <path fill-rule="evenodd" clip-rule="evenodd" d="M607.8 -99.5697C607.6 -99.7697 607.4 -99.9697 607.2 -100.17L592.9 -115.57L600.5 -117.77C602.7 -118.37 603.7 -118.77 604.8 -118.47C605.8 -118.17 606.6 -117.37 608.1 -115.77L614.8 -108.57C618.9 -104.17 620.2 -102.87 621.5 -102.07C628.2 -97.9697 633.4 -100.37 639.9 -106.37C646.4 -112.37 649.1 -117.37 645.5 -124.37C644.8 -125.67 643.6 -127.07 639.5 -131.47L629 -142.77C627.5 -144.37 626.7 -145.27 626.5 -146.27C626.3 -147.27 626.7 -148.37 627.5 -150.47L630.3 -157.87L648.4 -138.37C648.6 -138.17 648.8 -137.97 649 -137.77C652.3 -134.27 654.7 -131.67 656.2 -128.87C662.8 -116.17 657.1 -106.27 648 -97.7697C638.9 -89.2697 628.7 -84.2697 616.4 -91.7697C613.5 -93.4697 611.1 -96.0697 607.8 -99.5697Z" fill="url(#paint31_linear_3470_15149)"/>
      <path fill-rule="evenodd" clip-rule="evenodd" d="M437.1 -52.7697C436.8 -52.6697 436.6 -52.6697 436.3 -52.5697L415.8 -48.0697L417.7 -55.7697C418.2 -57.9697 418.5 -59.0697 419.3 -59.7697C420.1 -60.4697 421.2 -60.7697 423.4 -61.2697L433 -63.3697C438.9 -64.6697 440.7 -65.0697 442 -65.7697C449 -69.4697 449.5 -75.0697 447.6 -83.7697C445.7 -92.4697 442.8 -97.3697 434.9 -97.7697C433.5 -97.8697 431.6 -97.4697 425.7 -96.1697L410.7 -92.8697C408.5 -92.3697 407.4 -92.1697 406.4 -92.4697C405.4 -92.8697 404.7 -93.6697 403.3 -95.4697L398.3 -101.57L424.3 -107.27C424.6 -107.37 424.8 -107.37 425.1 -107.47C429.8 -108.47 433.3 -109.27 436.5 -109.07C450.8 -108.37 456.4 -98.2697 459.1 -86.2697C461.8 -74.1697 460.9 -62.7697 448.2 -56.0697C445.3 -54.5697 441.9 -53.8697 437.1 -52.7697Z" fill="url(#paint32_linear_3470_15149)"/>
      <path fill-rule="evenodd" clip-rule="evenodd" d="M525.7 -42.4697C525.7 -42.1697 525.7 -41.9697 525.7 -41.6697L526.3 -20.6697L519.1 -23.9697C517.1 -24.8697 516 -25.3697 515.5 -26.2697C514.9 -27.1697 514.9 -28.2697 514.8 -30.5697L514.5 -40.3697C514.3 -46.3697 514.2 -48.2697 513.8 -49.6697C511.5 -57.1697 506 -58.8697 497.2 -58.5697C488.3 -58.2697 483 -56.3697 481.1 -48.6697C480.8 -47.2697 480.8 -45.3697 480.9 -39.3697L481.4 -23.9697C481.5 -21.7697 481.5 -20.5697 481 -19.6697C480.5 -18.7697 479.5 -18.1697 477.5 -17.1697L470.5 -13.4697L469.7 -40.0697C469.7 -40.3697 469.7 -40.5697 469.7 -40.8697C469.6 -45.6697 469.4 -49.2697 470.2 -52.3697C473.6 -66.2697 484.5 -69.9697 496.8 -70.2697C509.2 -70.6697 520.2 -67.6697 524.5 -53.9697C525.5 -50.8697 525.6 -47.3697 525.7 -42.4697Z" fill="url(#paint33_linear_3470_15149)"/>
      <path fill-rule="evenodd" clip-rule="evenodd" d="M587.1 -140.47C587 -140.27 586.8 -139.97 586.7 -139.77L576.8 -121.27L572.2 -127.77C570.9 -129.57 570.3 -130.57 570.2 -131.57C570.1 -132.67 570.7 -133.57 571.7 -135.57L576.4 -144.27C579.2 -149.57 580.1 -151.27 580.4 -152.67C582.2 -160.37 578.2 -164.47 570.4 -168.67C562.6 -172.87 557 -173.87 551.5 -168.17C550.5 -167.17 549.6 -165.47 546.7 -160.17L539.4 -146.57C538.3 -144.57 537.8 -143.57 536.9 -143.07C536 -142.57 534.9 -142.57 532.6 -142.67L524.7 -142.87L537.4 -166.27C537.5 -166.47 537.7 -166.77 537.8 -166.97C540.1 -171.27 541.8 -174.37 544 -176.67C553.9 -187.07 565.1 -184.77 576 -178.87C586.9 -172.97 595 -164.87 591.8 -150.87C591.1 -147.87 589.4 -144.77 587.1 -140.47Z" fill="url(#paint34_linear_3470_15149)"/>
      <path fill-rule="evenodd" clip-rule="evenodd" d="M521.5 -102.47C521.4 -102.27 521.2 -101.97 521.1 -101.77L510.4 -83.7697L506.1 -90.4697C504.9 -92.3697 504.3 -93.2697 504.3 -94.3697C504.3 -95.4697 504.9 -96.3697 506 -98.3697L511 -106.87C514.1 -112.07 515 -113.67 515.4 -115.07C517.5 -122.67 513.8 -126.97 506.1 -131.47C498.4 -135.97 492.9 -137.27 487.2 -131.77C486.2 -130.77 485.2 -129.17 482.1 -123.97L474.2 -110.67C473.1 -108.77 472.5 -107.77 471.5 -107.27C470.6 -106.77 469.4 -106.87 467.2 -107.07L459.3 -107.67L472.9 -130.57C473 -130.77 473.2 -131.07 473.3 -131.27C475.8 -135.47 477.6 -138.47 479.9 -140.67C490.3 -150.57 501.4 -147.87 512 -141.47C522.6 -135.07 530.4 -126.67 526.6 -112.87C525.8 -109.67 523.9 -106.57 521.5 -102.47Z" fill="url(#paint35_linear_3470_15149)"/>
      <path fill-rule="evenodd" clip-rule="evenodd" d="M656.4 -39.2697C656.4 -38.9697 656.3 -38.7697 656.3 -38.4697L653.7 -17.6697L647.1 -22.0697C645.2 -23.2697 644.3 -23.9697 643.8 -24.8697C643.4 -25.8697 643.5 -26.9697 643.8 -29.1697L645 -38.9697C645.7 -44.9697 645.9 -46.7697 645.7 -48.2697C644.5 -56.0697 639.4 -58.4697 630.6 -59.5697C621.8 -60.6697 616.2 -59.5697 613.2 -52.2697C612.6 -50.9697 612.4 -49.0697 611.6 -43.0697L609.7 -27.7697C609.4 -25.5697 609.3 -24.4697 608.6 -23.5697C607.9 -22.7697 606.9 -22.3697 604.8 -21.5697L597.4 -18.9697L600.7 -45.2697C600.7 -45.5697 600.8 -45.7697 600.8 -46.0697C601.4 -50.8697 601.8 -54.3697 603 -57.3697C608.5 -70.6697 619.8 -72.5697 632 -71.0697C644.2 -69.5697 654.8 -64.9697 656.9 -50.7697C657.4 -47.5697 657 -44.0697 656.4 -39.2697Z" fill="url(#paint36_linear_3470_15149)"/>
      <path fill-rule="evenodd" clip-rule="evenodd" d="M430.8 -33.2697C431.1 -33.2697 431.3 -33.2697 431.6 -33.2697L452.6 -34.3697L449.4 -27.0697C448.5 -24.9697 448.1 -23.9697 447.2 -23.3697C446.3 -22.7697 445.2 -22.6697 443 -22.5697L433.2 -22.0697C427.2 -21.7697 425.3 -21.5697 423.9 -21.1697C416.4 -18.6697 414.9 -13.1697 415.4 -4.36969C415.9 4.5303 417.9 9.83031 425.6 11.4303C427 11.7303 428.9 11.7303 434.9 11.3303L450.3 10.5303C452.5 10.4303 453.7 10.3303 454.6 10.8303C455.5 11.3303 456.1 12.3303 457.2 14.2303L461.1 21.1303L434.5 22.5303C434.2 22.5303 434 22.5303 433.7 22.5303C428.9 22.8303 425.3 23.0303 422.2 22.3303C408.2 19.2303 404.3 8.43031 403.6 -3.86969C402.9 -16.1697 405.6 -27.3697 419.3 -31.8697C422.4 -32.7697 426 -32.9697 430.8 -33.2697Z" fill="url(#paint37_linear_3470_15149)"/>
      <path fill-rule="evenodd" clip-rule="evenodd" d="M403.7 69.5303C403.7 69.2303 403.7 69.0303 403.7 68.7303L403.4 47.7303L410.5 51.1303C412.5 52.1303 413.5 52.6303 414.1 53.5303C414.7 54.4303 414.7 55.5303 414.7 57.8303L414.8 67.7303C414.9 73.7303 415 75.6303 415.4 77.0303C417.6 84.6303 423 86.3303 431.9 86.2303C440.8 86.1303 446.1 84.2303 448.1 76.6303C448.5 75.2303 448.5 73.3303 448.4 67.3303L448.2 51.9303C448.2 49.7303 448.2 48.5303 448.7 47.6303C449.2 46.7303 450.2 46.2303 452.2 45.1303L459.2 41.5303L459.5 68.1303C459.5 68.4303 459.5 68.6303 459.5 68.9303C459.6 73.8303 459.6 77.3303 458.8 80.4303C455.2 94.3303 444.2 97.7303 431.9 97.9303C419.6 98.1303 408.5 94.9303 404.5 81.1303C403.8 77.9303 403.8 74.3303 403.7 69.5303Z" fill="url(#paint38_linear_3470_15149)"/>
      <path fill-rule="evenodd" clip-rule="evenodd" d="M585 237.63C584.8 237.83 584.7 238.03 584.5 238.33L572.2 255.33L568.5 248.33C567.5 246.33 566.9 245.33 567 244.33C567.1 243.23 567.7 242.33 569.1 240.53L574.9 232.53C578.4 227.63 579.5 226.13 580 224.73C582.8 217.33 579.4 212.73 572.2 207.53C565 202.33 559.6 200.63 553.4 205.53C552.3 206.43 551.1 207.93 547.6 212.83L538.5 225.33C537.2 227.13 536.5 228.03 535.5 228.43C534.5 228.83 533.4 228.63 531.2 228.33L523.4 227.03L539 205.43C539.2 205.23 539.3 205.03 539.5 204.73C542.3 200.83 544.4 197.93 546.9 195.93C558.1 186.93 568.9 190.73 579 197.93C589.1 205.13 596 214.33 591 227.73C590 230.83 587.9 233.73 585 237.63Z" fill="url(#paint39_linear_3470_15149)"/>
      <path fill-rule="evenodd" clip-rule="evenodd" d="M480.6 235.53C480.8 235.33 481 235.23 481.2 235.03L497.6 221.83L499.3 229.53C499.8 231.73 500 232.83 499.7 233.83C499.3 234.83 498.5 235.53 496.7 236.93L489 243.13C484.3 246.93 482.9 248.13 482 249.33C477.4 255.73 479.4 261.03 485 267.93C490.6 274.83 495.3 277.93 502.6 274.83C503.9 274.23 505.4 273.13 510.1 269.33L522.1 259.63C523.8 258.23 524.7 257.53 525.8 257.43C526.9 257.33 527.9 257.73 529.9 258.73L537.1 262.03L516.4 278.73C516.2 278.93 516 279.03 515.8 279.23C512 282.23 509.3 284.53 506.4 285.73C493.2 291.43 483.8 284.93 476 275.33C468.2 265.73 463.9 255.03 472.3 243.43C474.1 240.83 476.8 238.63 480.6 235.53Z" fill="url(#paint40_linear_3470_15149)"/>
      <path fill-rule="evenodd" clip-rule="evenodd" d="M590.7 146.03C590.7 146.33 590.7 146.53 590.7 146.83L590.9 167.83L583.8 164.33C581.8 163.33 580.8 162.83 580.2 161.93C579.6 161.03 579.6 159.93 579.6 157.63L579.5 147.73C579.4 141.73 579.4 139.83 579 138.43C576.8 130.83 571.4 129.13 562.5 129.23C553.6 129.33 548.3 131.13 546.2 138.83C545.8 140.23 545.8 142.13 545.9 148.13L546.1 163.63C546.1 165.83 546.1 167.03 545.6 167.93C545.1 168.83 544.1 169.33 542.1 170.33L535.1 173.93L534.8 147.33C534.8 147.03 534.8 146.83 534.8 146.53C534.7 141.63 534.7 138.13 535.5 135.03C539.2 121.13 550.1 117.73 562.5 117.63C574.9 117.53 585.9 120.63 589.9 134.43C590.6 137.63 590.7 141.13 590.7 146.03Z" fill="url(#paint41_linear_3470_15149)"/>
      <path fill-rule="evenodd" clip-rule="evenodd" d="M666 150.13C666 149.83 665.9 149.63 665.9 149.33L662.1 128.63L669.7 130.83C671.9 131.43 672.9 131.73 673.6 132.53C674.3 133.33 674.5 134.43 674.9 136.63L676.7 146.33C677.8 152.23 678.2 154.13 678.8 155.43C682.2 162.53 687.9 163.33 696.6 161.73C705.3 160.13 710.3 157.43 711 149.53C711.1 148.13 710.8 146.23 709.8 140.33L707 125.13C706.6 122.93 706.4 121.83 706.8 120.83C707.2 119.83 708.1 119.13 709.9 117.83L716.2 113.13L721 139.33C721 139.63 721.1 139.83 721.1 140.13C722 144.93 722.6 148.43 722.3 151.53C721 165.83 710.8 171.03 698.7 173.23C686.5 175.43 675.1 174.13 668.9 161.23C667.6 158.43 666.9 154.93 666 150.13Z" fill="url(#paint42_linear_3470_15149)"/>
      <path fill-rule="evenodd" clip-rule="evenodd" d="M614 82.8303C614.2 82.7303 614.5 82.5303 614.7 82.4303L632.4 71.0303L633.3 78.9303C633.5 81.1303 633.7 82.2303 633.2 83.2303C632.7 84.2303 631.8 84.8303 629.9 86.0303L621.6 91.3303C616.5 94.6303 615 95.6303 614 96.7303C608.7 102.63 610.2 108.13 615 115.53C619.8 123.03 624.2 126.53 631.7 124.23C633.1 123.83 634.7 122.83 639.7 119.53L652.7 111.13C654.6 109.93 655.5 109.33 656.6 109.33C657.7 109.33 658.6 109.93 660.6 111.03L667.4 115.03L645 129.43C644.8 129.53 644.5 129.73 644.3 129.83C640.2 132.43 637.2 134.43 634.2 135.33C620.5 139.63 611.8 132.13 605.1 121.83C598.4 111.43 595.2 100.43 604.8 89.7303C607 87.4303 610 85.5303 614 82.8303Z" fill="url(#paint43_linear_3470_15149)"/>
      <path fill-rule="evenodd" clip-rule="evenodd" d="M409.5 161.83C409.3 161.63 409.2 161.43 409 161.23L395.8 144.93L403.5 143.23C405.7 142.73 406.8 142.53 407.8 142.83C408.8 143.23 409.5 144.03 410.9 145.83L417.1 153.53C420.9 158.23 422.1 159.63 423.3 160.53C429.7 165.13 435 163.13 441.9 157.53C448.8 151.93 451.9 147.23 448.7 139.93C448.1 138.63 447 137.13 443.2 132.43L433.5 120.43C432.1 118.73 431.4 117.83 431.2 116.73C431.1 115.63 431.5 114.63 432.5 112.63L435.8 105.43L452.5 126.13C452.7 126.33 452.8 126.53 453 126.73C456.1 130.53 458.3 133.23 459.5 136.13C465.2 149.33 458.8 158.73 449.1 166.53C439.4 174.33 428.9 178.63 417.2 170.23C414.8 168.43 412.6 165.63 409.5 161.83Z" fill="url(#paint44_linear_3470_15149)"/>
      <path fill-rule="evenodd" clip-rule="evenodd" d="M482.7 206.43C482.5 206.33 482.2 206.13 482 206.03L464 195.13L470.7 190.93C472.6 189.73 473.5 189.13 474.6 189.13C475.7 189.13 476.6 189.73 478.5 190.83L486.9 195.93C492 199.03 493.7 199.93 495.1 200.33C502.7 202.43 507 198.73 511.6 191.23C516.2 183.63 517.5 178.13 512 172.33C511 171.23 509.4 170.23 504.3 167.13L491.1 159.13C489.2 157.93 488.2 157.43 487.7 156.43C487.2 155.53 487.3 154.33 487.5 152.13L488.1 144.23L510.9 158.03C511.1 158.13 511.4 158.33 511.6 158.43C515.8 160.93 518.8 162.73 521 165.03C530.9 175.43 528 186.53 521.6 197.13C515.2 207.73 506.7 215.43 492.9 211.53C489.9 210.73 486.9 208.93 482.7 206.43Z" fill="url(#paint45_linear_3470_15149)"/>
      <path fill-rule="evenodd" clip-rule="evenodd" d="M535.9 62.4303C536 62.1303 536 61.9303 536.1 61.6303L541.9 41.4303L547.7 46.7303C549.4 48.2303 550.2 49.0303 550.5 50.0303C550.8 51.0303 550.5 52.1303 549.9 54.3303L547.2 63.8303C545.5 69.6303 545.1 71.4303 545.1 72.9303C545 80.8303 549.7 84.0303 558.3 86.4303C566.8 88.8303 572.5 88.6303 576.6 81.9303C577.4 80.7303 577.9 78.9303 579.6 73.1303L583.8 58.2303C584.4 56.0303 584.7 55.0303 585.5 54.2303C586.3 53.5303 587.4 53.3303 589.6 52.9303L597.4 51.4303L590.1 77.0303C590 77.3303 590 77.5303 589.9 77.8303C588.6 82.5303 587.6 85.9303 585.9 88.6303C578.4 100.93 567 101.03 555.1 97.6303C543.2 94.2303 533.6 88.0303 533.7 73.7303C533.6 70.5303 534.6 67.1303 535.9 62.4303Z" fill="url(#paint46_linear_3470_15149)"/>
      <path fill-rule="evenodd" clip-rule="evenodd" d="M666.3 76.6303C666.2 76.3303 666.2 76.1303 666.1 75.8303L661.2 55.4303L668.9 57.2303C671.1 57.7303 672.2 58.0303 672.9 58.7303C673.7 59.4303 673.9 60.5303 674.4 62.7303L676.7 72.3303C678.1 78.1303 678.6 80.0303 679.3 81.2303C683.1 88.1303 688.8 88.6303 697.4 86.5303C706 84.4303 710.9 81.5303 711.1 73.6303C711.2 72.2303 710.8 70.3303 709.4 64.5303L705.8 49.5303C705.3 47.3303 705 46.2303 705.4 45.2303C705.7 44.2303 706.6 43.5303 708.3 42.0303L714.4 36.9303L720.6 62.8303C720.7 63.1303 720.7 63.3303 720.8 63.6303C721.9 68.3303 722.8 71.8303 722.6 74.9303C722.1 89.2303 712.2 95.0303 700.2 97.9303C688.2 100.83 676.7 100.13 669.8 87.5303C668.3 84.8303 667.5 81.3303 666.3 76.6303Z" fill="url(#paint47_linear_3470_15149)"/>
      <path fill-rule="evenodd" clip-rule="evenodd" d="M525.5 104.13C525.5 104.43 525.6 104.63 525.6 104.93L528.7 125.73L521.2 123.33C519.1 122.63 518 122.33 517.3 121.53C516.6 120.73 516.4 119.63 516.1 117.43L514.6 107.73C513.7 101.83 513.4 99.9303 512.8 98.6303C509.6 91.4303 504 90.4303 495.2 91.8303C486.4 93.1303 481.4 95.7303 480.4 103.53C480.2 104.93 480.5 106.83 481.4 112.73L483.7 128.03C484 130.23 484.2 131.33 483.8 132.33C483.4 133.33 482.5 133.93 480.6 135.23L474.1 139.83L470.1 113.53C470.1 113.23 470 113.03 470 112.73C469.3 107.93 468.7 104.43 469.1 101.33C470.8 87.0303 481.2 82.1303 493.4 80.3303C505.6 78.5303 517 80.1303 522.8 93.2303C524.2 95.8303 524.8 99.3303 525.5 104.13Z" fill="url(#paint48_linear_3470_15149)"/>
      <path fill-rule="evenodd" clip-rule="evenodd" d="M406.1 208.33C406.2 208.13 406.3 207.83 406.4 207.63L414.6 188.33L419.7 194.33C421.2 196.03 421.9 196.93 422.1 197.93C422.3 198.93 421.8 200.03 420.9 202.03L417.1 211.13C414.8 216.63 414.1 218.43 413.9 219.83C412.9 227.63 417.2 231.43 425.3 234.83C433.4 238.23 439.1 238.73 444 232.53C444.9 231.43 445.7 229.73 448 224.13L454 209.93C454.9 207.83 455.3 206.83 456.2 206.23C457.1 205.63 458.2 205.53 460.4 205.43L468.3 204.93L457.9 229.43C457.8 229.73 457.7 229.93 457.6 230.13C455.7 234.63 454.3 237.83 452.4 240.33C443.5 251.63 432.1 250.33 420.7 245.53C409.3 240.73 400.5 233.43 402.4 219.13C402.9 216.03 404.2 212.73 406.1 208.33Z" fill="url(#paint49_linear_3470_15149)"/>
    </g>
    <defs>
      <linearGradient id="paint0_linear_3470_15149" x1="331.2" y1="-82" x2="1.83676" y2="189.782" gradientUnits="userSpaceOnUse">
        <stop stop-color="white"/>
        <stop offset="1" stop-color="white" stop-opacity="0"/>
      </linearGradient>
      <linearGradient id="paint1_linear_3470_15149" x1="331.2" y1="-82" x2="1.83676" y2="189.782" gradientUnits="userSpaceOnUse">
        <stop stop-color="white"/>
        <stop offset="1" stop-color="white" stop-opacity="0"/>
      </linearGradient>
      <linearGradient id="paint2_linear_3470_15149" x1="331.2" y1="-82" x2="1.83676" y2="189.782" gradientUnits="userSpaceOnUse">
        <stop stop-color="white"/>
        <stop offset="1" stop-color="white" stop-opacity="0"/>
      </linearGradient>
      <linearGradient id="paint3_linear_3470_15149" x1="331.2" y1="-82" x2="1.83676" y2="189.782" gradientUnits="userSpaceOnUse">
        <stop stop-color="white"/>
        <stop offset="1" stop-color="white" stop-opacity="0"/>
      </linearGradient>
      <linearGradient id="paint4_linear_3470_15149" x1="331.2" y1="-82" x2="1.83676" y2="189.782" gradientUnits="userSpaceOnUse">
        <stop stop-color="white"/>
        <stop offset="1" stop-color="white" stop-opacity="0"/>
      </linearGradient>
      <linearGradient id="paint5_linear_3470_15149" x1="331.2" y1="-82" x2="1.83676" y2="189.782" gradientUnits="userSpaceOnUse">
        <stop stop-color="white"/>
        <stop offset="1" stop-color="white" stop-opacity="0"/>
      </linearGradient>
      <linearGradient id="paint6_linear_3470_15149" x1="331.2" y1="-82" x2="1.83676" y2="189.782" gradientUnits="userSpaceOnUse">
        <stop stop-color="white"/>
        <stop offset="1" stop-color="white" stop-opacity="0"/>
      </linearGradient>
      <linearGradient id="paint7_linear_3470_15149" x1="331.2" y1="-82" x2="1.83676" y2="189.782" gradientUnits="userSpaceOnUse">
        <stop stop-color="white"/>
        <stop offset="1" stop-color="white" stop-opacity="0"/>
      </linearGradient>
      <linearGradient id="paint8_linear_3470_15149" x1="331.2" y1="-82" x2="1.83676" y2="189.782" gradientUnits="userSpaceOnUse">
        <stop stop-color="white"/>
        <stop offset="1" stop-color="white" stop-opacity="0"/>
      </linearGradient>
      <linearGradient id="paint9_linear_3470_15149" x1="331.2" y1="-82" x2="1.83676" y2="189.782" gradientUnits="userSpaceOnUse">
        <stop stop-color="white"/>
        <stop offset="1" stop-color="white" stop-opacity="0"/>
      </linearGradient>
      <linearGradient id="paint10_linear_3470_15149" x1="331.2" y1="-82" x2="1.83676" y2="189.782" gradientUnits="userSpaceOnUse">
        <stop stop-color="white"/>
        <stop offset="1" stop-color="white" stop-opacity="0"/>
      </linearGradient>
      <linearGradient id="paint11_linear_3470_15149" x1="331.2" y1="-82" x2="1.83676" y2="189.782" gradientUnits="userSpaceOnUse">
        <stop stop-color="white"/>
        <stop offset="1" stop-color="white" stop-opacity="0"/>
      </linearGradient>
      <linearGradient id="paint12_linear_3470_15149" x1="331.2" y1="-82" x2="1.83676" y2="189.782" gradientUnits="userSpaceOnUse">
        <stop stop-color="white"/>
        <stop offset="1" stop-color="white" stop-opacity="0"/>
      </linearGradient>
      <linearGradient id="paint13_linear_3470_15149" x1="331.2" y1="-82" x2="1.83676" y2="189.782" gradientUnits="userSpaceOnUse">
        <stop stop-color="white"/>
        <stop offset="1" stop-color="white" stop-opacity="0"/>
      </linearGradient>
      <linearGradient id="paint14_linear_3470_15149" x1="331.2" y1="-82" x2="1.83676" y2="189.782" gradientUnits="userSpaceOnUse">
        <stop stop-color="white"/>
        <stop offset="1" stop-color="white" stop-opacity="0"/>
      </linearGradient>
      <linearGradient id="paint15_linear_3470_15149" x1="331.2" y1="-82" x2="1.83676" y2="189.782" gradientUnits="userSpaceOnUse">
        <stop stop-color="white"/>
        <stop offset="1" stop-color="white" stop-opacity="0"/>
      </linearGradient>
      <linearGradient id="paint16_linear_3470_15149" x1="331.2" y1="-82" x2="1.83676" y2="189.782" gradientUnits="userSpaceOnUse">
        <stop stop-color="white"/>
        <stop offset="1" stop-color="white" stop-opacity="0"/>
      </linearGradient>
      <linearGradient id="paint17_linear_3470_15149" x1="331.2" y1="-82" x2="1.83676" y2="189.782" gradientUnits="userSpaceOnUse">
        <stop stop-color="white"/>
        <stop offset="1" stop-color="white" stop-opacity="0"/>
      </linearGradient>
      <linearGradient id="paint18_linear_3470_15149" x1="331.2" y1="-82" x2="1.83676" y2="189.782" gradientUnits="userSpaceOnUse">
        <stop stop-color="white"/>
        <stop offset="1" stop-color="white" stop-opacity="0"/>
      </linearGradient>
      <linearGradient id="paint19_linear_3470_15149" x1="331.2" y1="-82" x2="1.83676" y2="189.782" gradientUnits="userSpaceOnUse">
        <stop stop-color="white"/>
        <stop offset="1" stop-color="white" stop-opacity="0"/>
      </linearGradient>
      <linearGradient id="paint20_linear_3470_15149" x1="331.2" y1="-82" x2="1.83676" y2="189.782" gradientUnits="userSpaceOnUse">
        <stop stop-color="white"/>
        <stop offset="1" stop-color="white" stop-opacity="0"/>
      </linearGradient>
      <linearGradient id="paint21_linear_3470_15149" x1="331.2" y1="-82" x2="1.83676" y2="189.782" gradientUnits="userSpaceOnUse">
        <stop stop-color="white"/>
        <stop offset="1" stop-color="white" stop-opacity="0"/>
      </linearGradient>
      <linearGradient id="paint22_linear_3470_15149" x1="331.2" y1="-82" x2="1.83676" y2="189.782" gradientUnits="userSpaceOnUse">
        <stop stop-color="white"/>
        <stop offset="1" stop-color="white" stop-opacity="0"/>
      </linearGradient>
      <linearGradient id="paint23_linear_3470_15149" x1="331.2" y1="-82" x2="1.83676" y2="189.782" gradientUnits="userSpaceOnUse">
        <stop stop-color="white"/>
        <stop offset="1" stop-color="white" stop-opacity="0"/>
      </linearGradient>
      <linearGradient id="paint24_linear_3470_15149" x1="331.2" y1="-82" x2="1.83676" y2="189.782" gradientUnits="userSpaceOnUse">
        <stop stop-color="white"/>
        <stop offset="1" stop-color="white" stop-opacity="0"/>
      </linearGradient>
      <linearGradient id="paint25_linear_3470_15149" x1="331.2" y1="-82" x2="1.83676" y2="189.782" gradientUnits="userSpaceOnUse">
        <stop stop-color="white"/>
        <stop offset="1" stop-color="white" stop-opacity="0"/>
      </linearGradient>
      <linearGradient id="paint26_linear_3470_15149" x1="331.2" y1="-82" x2="1.83676" y2="189.782" gradientUnits="userSpaceOnUse">
        <stop stop-color="white"/>
        <stop offset="1" stop-color="white" stop-opacity="0"/>
      </linearGradient>
      <linearGradient id="paint27_linear_3470_15149" x1="331.2" y1="-82" x2="1.83676" y2="189.782" gradientUnits="userSpaceOnUse">
        <stop stop-color="white"/>
        <stop offset="1" stop-color="white" stop-opacity="0"/>
      </linearGradient>
      <linearGradient id="paint28_linear_3470_15149" x1="331.2" y1="-82" x2="1.83676" y2="189.782" gradientUnits="userSpaceOnUse">
        <stop stop-color="white"/>
        <stop offset="1" stop-color="white" stop-opacity="0"/>
      </linearGradient>
      <linearGradient id="paint29_linear_3470_15149" x1="331.2" y1="-82" x2="1.83676" y2="189.782" gradientUnits="userSpaceOnUse">
        <stop stop-color="white"/>
        <stop offset="1" stop-color="white" stop-opacity="0"/>
      </linearGradient>
      <linearGradient id="paint30_linear_3470_15149" x1="331.2" y1="-82" x2="1.83676" y2="189.782" gradientUnits="userSpaceOnUse">
        <stop stop-color="white"/>
        <stop offset="1" stop-color="white" stop-opacity="0"/>
      </linearGradient>
      <linearGradient id="paint31_linear_3470_15149" x1="331.2" y1="-82" x2="1.83676" y2="189.782" gradientUnits="userSpaceOnUse">
        <stop stop-color="white"/>
        <stop offset="1" stop-color="white" stop-opacity="0"/>
      </linearGradient>
      <linearGradient id="paint32_linear_3470_15149" x1="331.2" y1="-82" x2="1.83676" y2="189.782" gradientUnits="userSpaceOnUse">
        <stop stop-color="white"/>
        <stop offset="1" stop-color="white" stop-opacity="0"/>
      </linearGradient>
      <linearGradient id="paint33_linear_3470_15149" x1="331.2" y1="-82" x2="1.83676" y2="189.782" gradientUnits="userSpaceOnUse">
        <stop stop-color="white"/>
        <stop offset="1" stop-color="white" stop-opacity="0"/>
      </linearGradient>
      <linearGradient id="paint34_linear_3470_15149" x1="331.2" y1="-82" x2="1.83676" y2="189.782" gradientUnits="userSpaceOnUse">
        <stop stop-color="white"/>
        <stop offset="1" stop-color="white" stop-opacity="0"/>
      </linearGradient>
      <linearGradient id="paint35_linear_3470_15149" x1="331.2" y1="-82" x2="1.83676" y2="189.782" gradientUnits="userSpaceOnUse">
        <stop stop-color="white"/>
        <stop offset="1" stop-color="white" stop-opacity="0"/>
      </linearGradient>
      <linearGradient id="paint36_linear_3470_15149" x1="331.2" y1="-82" x2="1.83676" y2="189.782" gradientUnits="userSpaceOnUse">
        <stop stop-color="white"/>
        <stop offset="1" stop-color="white" stop-opacity="0"/>
      </linearGradient>
      <linearGradient id="paint37_linear_3470_15149" x1="331.2" y1="-82" x2="1.83676" y2="189.782" gradientUnits="userSpaceOnUse">
        <stop stop-color="white"/>
        <stop offset="1" stop-color="white" stop-opacity="0"/>
      </linearGradient>
      <linearGradient id="paint38_linear_3470_15149" x1="331.2" y1="-82" x2="1.83676" y2="189.782" gradientUnits="userSpaceOnUse">
        <stop stop-color="white"/>
        <stop offset="1" stop-color="white" stop-opacity="0"/>
      </linearGradient>
      <linearGradient id="paint39_linear_3470_15149" x1="331.2" y1="-82" x2="1.83676" y2="189.782" gradientUnits="userSpaceOnUse">
        <stop stop-color="white"/>
        <stop offset="1" stop-color="white" stop-opacity="0"/>
      </linearGradient>
      <linearGradient id="paint40_linear_3470_15149" x1="331.2" y1="-82" x2="1.83676" y2="189.782" gradientUnits="userSpaceOnUse">
        <stop stop-color="white"/>
        <stop offset="1" stop-color="white" stop-opacity="0"/>
      </linearGradient>
      <linearGradient id="paint41_linear_3470_15149" x1="331.2" y1="-82" x2="1.83676" y2="189.782" gradientUnits="userSpaceOnUse">
        <stop stop-color="white"/>
        <stop offset="1" stop-color="white" stop-opacity="0"/>
      </linearGradient>
      <linearGradient id="paint42_linear_3470_15149" x1="331.2" y1="-82" x2="1.83676" y2="189.782" gradientUnits="userSpaceOnUse">
        <stop stop-color="white"/>
        <stop offset="1" stop-color="white" stop-opacity="0"/>
      </linearGradient>
      <linearGradient id="paint43_linear_3470_15149" x1="331.2" y1="-82" x2="1.83676" y2="189.782" gradientUnits="userSpaceOnUse">
        <stop stop-color="white"/>
        <stop offset="1" stop-color="white" stop-opacity="0"/>
      </linearGradient>
      <linearGradient id="paint44_linear_3470_15149" x1="331.2" y1="-82" x2="1.83676" y2="189.782" gradientUnits="userSpaceOnUse">
        <stop stop-color="white"/>
        <stop offset="1" stop-color="white" stop-opacity="0"/>
      </linearGradient>
      <linearGradient id="paint45_linear_3470_15149" x1="331.2" y1="-82" x2="1.83676" y2="189.782" gradientUnits="userSpaceOnUse">
        <stop stop-color="white"/>
        <stop offset="1" stop-color="white" stop-opacity="0"/>
      </linearGradient>
      <linearGradient id="paint46_linear_3470_15149" x1="331.2" y1="-82" x2="1.83676" y2="189.782" gradientUnits="userSpaceOnUse">
        <stop stop-color="white"/>
        <stop offset="1" stop-color="white" stop-opacity="0"/>
      </linearGradient>
      <linearGradient id="paint47_linear_3470_15149" x1="331.2" y1="-82" x2="1.83676" y2="189.782" gradientUnits="userSpaceOnUse">
        <stop stop-color="white"/>
        <stop offset="1" stop-color="white" stop-opacity="0"/>
      </linearGradient>
      <linearGradient id="paint48_linear_3470_15149" x1="331.2" y1="-82" x2="1.83676" y2="189.782" gradientUnits="userSpaceOnUse">
        <stop stop-color="white"/>
        <stop offset="1" stop-color="white" stop-opacity="0"/>
      </linearGradient>
      <linearGradient id="paint49_linear_3470_15149" x1="331.2" y1="-82" x2="1.83676" y2="189.782" gradientUnits="userSpaceOnUse">
        <stop stop-color="white"/>
        <stop offset="1" stop-color="white" stop-opacity="0"/>
      </linearGradient>
    </defs>
  </svg>
