<svg width="301" height="272" viewBox="0 0 301 272" fill="none" xmlns="http://www.w3.org/2000/svg">
<g opacity="0.5">
<path fill-rule="evenodd" clip-rule="evenodd" d="M-7.55737 -31.4545C-7.75391 -31.3561 -8.04871 -31.2578 -8.24524 -31.0611L-26.6211 -21.6211L-20.332 -16.9994C-18.5632 -15.721 -17.6788 -15.0327 -16.5979 -14.9344C-15.517 -14.836 -14.5343 -15.3277 -12.569 -16.4094L-3.92151 -20.8344C1.28662 -23.5877 2.95715 -24.3744 4.43115 -24.6694C11.9977 -26.2428 16.0266 -22.3094 19.9573 -14.541C23.9862 -6.77264 24.8706 -1.26598 19.0729 3.94572C17.9919 4.92906 16.4197 5.81407 11.1133 8.46909L-2.34924 15.4508C-4.31458 16.4341 -5.29724 16.9258 -5.78857 17.8108C-6.27991 18.6958 -6.27991 19.7775 -6.27991 22.0392L-6.18164 29.8075L17.1075 17.8108C17.3041 17.7125 17.5989 17.6141 17.7954 17.4175C22.0209 15.2541 25.1654 13.6808 27.4256 11.5174C37.8418 1.97906 35.7782 -9.13266 30.177 -19.9494C24.5758 -30.7661 16.8127 -38.9278 2.95715 -35.9778C-0.285645 -35.2895 -3.33188 -33.6178 -7.55737 -31.4545Z" fill="url(#paint0_radial_2296_8367)"/>
<path fill-rule="evenodd" clip-rule="evenodd" d="M85.8942 7.09241C85.6977 6.89574 85.5012 6.79739 85.3046 6.60074L68.9924 -6.08434L67.4201 1.58571C67.027 3.74905 66.7322 4.83072 67.1253 5.81406C67.5184 6.79739 68.4028 7.48572 70.0733 8.8624L77.7381 14.8608C82.3566 18.4991 83.8306 19.6791 84.715 20.8591C89.3336 27.0542 87.4665 32.3642 82.0618 39.2476C76.6572 46.1309 72.0386 49.2776 64.8652 46.2292C63.5877 45.6392 62.1137 44.5576 57.3969 40.9192L45.4083 31.5775C43.6396 30.2008 42.7551 29.5125 41.7725 29.4142C40.6915 29.3158 39.7089 29.8075 37.7435 30.6925L30.7666 34.0359L51.4026 50.1626C51.5992 50.3593 51.7957 50.4576 51.9922 50.6543C55.7264 53.6043 58.4778 55.7676 61.3276 56.9476C74.397 62.356 83.5358 55.866 91.0041 46.2292C98.4724 36.5925 102.6 26.1691 94.1486 14.7624C92.3798 12.1074 89.6284 10.0424 85.8942 7.09241Z" fill="url(#paint1_radial_2296_8367)"/>
<path fill-rule="evenodd" clip-rule="evenodd" d="M23.1018 -59.7746C23.2983 -59.9713 23.4949 -60.0696 23.6914 -60.2663L39.9054 -73.0497L32.8302 -76.2947C30.8649 -77.1797 29.7839 -77.6713 28.8013 -77.573C27.7203 -77.4747 26.9342 -76.7863 25.1654 -75.4097L17.5988 -69.4113C12.9803 -65.7729 11.5063 -64.5929 10.2289 -64.1013C3.05539 -61.0529 -1.56314 -64.1013 -6.9678 -70.9846C-12.3725 -77.7697 -14.3378 -83.0797 -9.71927 -89.2747C-8.83487 -90.4547 -7.45914 -91.6347 -2.84061 -95.2731L9.04968 -104.713C10.8185 -106.09 11.6046 -106.778 11.9977 -107.761C12.3907 -108.745 12.0959 -109.826 11.7029 -111.99L10.1306 -119.562L-10.3089 -103.336C-10.5054 -103.14 -10.7019 -103.041 -10.8985 -102.845C-14.6326 -99.8948 -17.3841 -97.7314 -19.2512 -95.1748C-27.6038 -83.768 -23.3784 -73.3447 -15.8118 -63.8063C-8.24527 -54.2679 0.991791 -47.8762 13.963 -53.3829C16.6162 -54.6612 19.3677 -56.8246 23.1018 -59.7746Z" fill="url(#paint2_radial_2296_8367)"/>
<path fill-rule="evenodd" clip-rule="evenodd" d="M-86.3673 -114.252C-86.3673 -113.957 -86.269 -113.76 -86.269 -113.465L-82.8297 -93.1097L-76.5406 -97.7314C-74.7718 -99.0098 -73.8874 -99.6981 -73.4944 -100.681C-73.1013 -101.665 -73.2978 -102.746 -73.6909 -104.91L-75.2632 -114.448C-76.2458 -120.25 -76.5406 -122.118 -76.3441 -123.495C-75.5579 -131.165 -70.6446 -133.82 -61.9972 -135.295C-53.3497 -136.77 -47.8467 -135.885 -44.6039 -128.903C-44.0143 -127.625 -43.6213 -125.757 -42.6386 -119.955L-40.0837 -105.008C-39.6906 -102.845 -39.4941 -101.763 -38.8062 -100.976C-38.1183 -100.19 -37.0374 -99.8948 -34.9738 -99.2064L-27.5056 -96.9448L-31.8293 -122.708C-31.8293 -123.003 -31.9276 -123.2 -31.9276 -123.495C-32.7137 -128.215 -33.3033 -131.657 -34.5807 -134.508C-40.575 -147.292 -51.6791 -148.668 -63.6677 -146.702C-75.6562 -144.735 -85.7777 -139.72 -87.1534 -125.658C-87.743 -122.315 -87.1534 -118.873 -86.3673 -114.252Z" fill="url(#paint3_radial_2296_8367)"/>
<path fill-rule="evenodd" clip-rule="evenodd" d="M-57.4769 55.571C-57.1821 55.571 -56.9855 55.571 -56.6907 55.571L-36.0547 54.5876L-39.8871 47.8026C-40.9681 45.8359 -41.4594 44.9509 -42.4421 44.3609C-43.3265 43.8692 -44.4074 43.8692 -46.6675 43.9676L-56.2977 44.4592C-62.1937 44.7542 -64.0608 44.7542 -65.4365 44.4592C-73.003 42.7876 -74.9683 37.4775 -75.3614 28.8242C-75.7545 20.0724 -74.2805 14.7624 -66.9105 12.3041C-65.5348 11.9108 -63.6677 11.7141 -57.7717 11.4191L-42.6386 10.7307C-40.4767 10.6324 -39.2975 10.5341 -38.5114 9.94408C-37.627 9.35408 -37.2339 8.37074 -36.3495 6.30573L-33.205 -0.774307L-59.3439 0.405701C-59.6387 0.405701 -59.8353 0.405701 -60.1301 0.405701C-64.8469 0.602371 -68.3845 0.799026 -71.3325 1.78236C-84.6968 6.20738 -87.4482 17.1225 -86.9569 29.2175C-86.4655 41.3126 -82.6331 52.0309 -68.8758 55.0793C-65.7313 55.9643 -62.292 55.866 -57.4769 55.571Z" fill="url(#paint4_radial_2296_8367)"/>
<path fill-rule="evenodd" clip-rule="evenodd" d="M-291.45 38.8542C-291.352 38.6575 -291.253 38.3625 -291.155 38.1659L-282.704 19.2858L-290.467 19.5808C-292.629 19.6791 -293.808 19.6791 -294.594 20.2691C-295.479 20.8591 -295.872 21.8425 -296.855 23.9075L-300.785 32.7575C-303.242 38.1659 -304.028 39.8376 -304.912 40.9192C-309.826 46.9176 -315.427 46.3276 -323.387 42.7876C-331.346 39.2475 -335.473 35.5109 -334.294 27.8408C-334.098 26.4642 -333.41 24.6942 -330.953 19.2858L-324.762 5.42072C-323.878 3.3557 -323.387 2.37238 -323.583 1.38904C-323.681 0.307373 -324.467 -0.479294 -325.843 -2.24931L-330.757 -8.24768L-341.468 15.6474C-341.566 15.8441 -341.664 16.1391 -341.762 16.3358C-343.728 20.6625 -345.103 23.9075 -345.595 26.9558C-347.757 40.9192 -339.207 48.2943 -328.103 53.211C-316.999 58.1276 -305.797 59.6026 -296.855 48.7859C-294.791 46.4259 -293.415 43.1809 -291.45 38.8542Z" fill="url(#paint5_radial_2296_8367)"/>
<path fill-rule="evenodd" clip-rule="evenodd" d="M126.577 -108.45C126.282 -108.351 126.085 -108.351 125.79 -108.253L105.842 -102.943L110.952 -97.1414C112.426 -95.4698 113.114 -94.6831 114.097 -94.3881C115.079 -94.0931 116.16 -94.3881 118.322 -94.9781L127.658 -97.4364C133.357 -98.9114 135.126 -99.4031 136.6 -99.4031C144.363 -99.3048 147.409 -94.6831 149.669 -86.2264C151.929 -77.7697 151.536 -72.263 144.854 -68.3296C143.577 -67.6413 141.808 -67.0513 136.109 -65.5763L121.467 -61.6429C119.305 -61.0529 118.224 -60.7579 117.536 -60.0696C116.848 -59.2829 116.553 -58.2013 116.16 -56.0379L114.588 -48.4662L139.843 -55.1529C140.137 -55.2512 140.334 -55.2512 140.629 -55.3496C145.247 -56.5296 148.588 -57.4146 151.34 -58.9879C163.525 -66.0679 163.918 -77.3763 160.773 -89.0781C157.629 -100.78 151.733 -110.416 137.681 -110.613C134.635 -110.613 131.195 -109.728 126.577 -108.45Z" fill="url(#paint6_radial_2296_8367)"/>
<path fill-rule="evenodd" clip-rule="evenodd" d="M96.114 -38.0428C96.2122 -38.3378 96.2122 -38.5345 96.3105 -38.8295L101.715 -58.7912L94.1486 -57.2179C91.9868 -56.8246 90.9058 -56.5296 90.1197 -55.8412C89.3336 -55.1529 89.0388 -54.0712 88.4492 -51.9079L85.8942 -42.5662C84.322 -36.8628 83.8306 -35.0928 83.1428 -33.8145C79.2121 -27.1278 73.6109 -26.8328 65.2582 -29.0944C56.8073 -31.3561 52.1888 -34.4045 52.0905 -42.1728C52.0905 -43.5495 52.4836 -45.4179 54.0558 -51.1212L57.9865 -65.7729C58.5761 -67.9363 58.8709 -69.018 58.5761 -70.0013C58.2813 -70.9846 57.4951 -71.7713 55.8246 -73.2463L50.0269 -78.458L43.2465 -53.1862C43.1482 -52.8912 43.1482 -52.6945 43.05 -52.3996C41.7725 -47.7779 40.8881 -44.4345 40.8881 -41.2878C40.9863 -27.1278 50.5182 -21.2277 62.3102 -18.0811C74.004 -14.9344 85.3046 -15.2294 92.4781 -27.4228C93.9521 -30.0778 94.8365 -33.4211 96.114 -38.0428Z" fill="url(#paint7_radial_2296_8367)"/>
<path fill-rule="evenodd" clip-rule="evenodd" d="M-7.75394 -178.857C-7.95047 -178.758 -8.24527 -178.66 -8.4418 -178.463L-26.7194 -168.925L-20.4303 -164.402C-18.6615 -163.123 -17.7771 -162.435 -16.6962 -162.435C-15.6153 -162.337 -14.6326 -162.828 -12.7655 -163.91L-4.21634 -168.433C0.991791 -171.187 2.66232 -171.973 4.03806 -172.268C11.6046 -173.94 15.6335 -170.007 19.6625 -162.337C23.6914 -154.667 24.5758 -149.062 18.9746 -143.85C17.8937 -142.867 16.3214 -141.982 11.1133 -139.228L-2.34927 -132.148C-4.31461 -131.165 -5.29727 -130.575 -5.7886 -129.69C-6.27994 -128.805 -6.27994 -127.723 -6.27994 -125.462L-6.18167 -117.693L17.0093 -129.788C17.2058 -129.887 17.5006 -130.083 17.6971 -130.182C21.9226 -132.345 24.9689 -134.017 27.3273 -136.18C37.6453 -145.817 35.4834 -156.928 29.8822 -167.647C24.281 -178.365 16.4197 -186.33 2.56406 -183.38C-0.482208 -182.692 -3.52847 -181.119 -7.75394 -178.857Z" fill="url(#paint8_radial_2296_8367)"/>
<path fill-rule="evenodd" clip-rule="evenodd" d="M-86.8586 -44.5329C-86.8586 -44.2378 -86.8586 -44.0412 -86.8586 -43.7462L-86.4655 -23.0961L-79.5869 -26.7344C-77.6216 -27.7178 -76.6389 -28.3078 -76.1476 -29.1928C-75.6562 -30.0778 -75.6562 -31.1594 -75.6562 -33.4211L-75.8527 -43.1562C-75.951 -49.0562 -75.951 -50.9245 -75.558 -52.3012C-73.6909 -59.7746 -68.3845 -61.6429 -59.6387 -61.8396C-50.893 -62.0363 -45.5866 -60.3646 -43.4247 -52.8912C-43.0317 -51.5145 -42.9334 -49.6462 -42.8351 -43.7462L-42.5403 -28.6028C-42.5403 -26.4394 -42.4421 -25.2594 -41.9507 -24.3744C-41.3611 -23.4894 -40.3785 -22.9977 -38.4131 -22.1127L-31.4362 -18.7694L-31.9276 -44.9262C-31.9276 -45.2212 -31.9276 -45.4179 -31.9276 -45.7129C-32.0258 -50.5312 -32.1241 -53.9729 -33.0085 -56.9229C-37.0374 -70.493 -47.8468 -73.5413 -60.0318 -73.2463C-72.2169 -73.0496 -82.9279 -69.608 -86.3673 -55.8412C-86.9569 -52.7929 -86.9569 -49.2529 -86.8586 -44.5329Z" fill="url(#paint9_radial_2296_8367)"/>
<path fill-rule="evenodd" clip-rule="evenodd" d="M158.513 -21.2277C158.415 -21.4244 158.317 -21.7194 158.12 -21.9161L148.785 -40.3045L144.166 -34.1095C142.889 -32.3395 142.201 -31.4545 142.103 -30.3728C142.005 -29.2911 142.496 -28.3078 143.479 -26.3411L147.802 -17.6877C150.455 -12.3777 151.242 -10.706 151.536 -9.32936C153.109 -1.75766 149.08 2.27403 141.317 6.20738C133.554 10.1407 128.051 11.0257 122.842 5.22404C121.86 4.14238 120.975 2.56905 118.322 -2.74098L111.444 -16.3111C110.461 -18.2777 109.97 -19.2611 109.085 -19.8511C108.201 -20.4411 107.12 -20.3427 104.86 -20.3427H97.0966L108.889 2.96237C108.987 3.15904 109.085 3.45406 109.282 3.65071C111.444 7.87907 113.016 11.0257 115.079 13.2874C124.513 23.7108 135.617 21.7441 146.525 16.2374C157.334 10.7307 165.589 2.96237 162.739 -10.9027C162.247 -13.8527 160.675 -16.901 158.513 -21.2277Z" fill="url(#paint10_radial_2296_8367)"/>
<path fill-rule="evenodd" clip-rule="evenodd" d="M-18.2685 227.852C-18.1702 228.048 -17.9737 228.343 -17.8754 228.54L-7.8522 246.634L-3.43021 240.242C-2.15274 238.374 -1.56314 237.488 -1.46487 236.505C-1.46487 235.423 -1.95621 234.538 -3.03714 232.572L-7.75394 224.115C-10.6037 218.903 -11.4881 217.33 -11.7829 215.953C-13.6499 208.382 -9.81754 204.35 -2.15271 200.122C5.51208 195.893 10.9167 194.812 16.4197 200.417C17.4023 201.4 18.385 203.072 21.2347 208.185L28.6047 221.46C29.6857 223.427 30.177 224.312 31.1597 224.902C32.0441 225.393 33.125 225.393 35.3851 225.295L43.1482 225L30.4718 202.088C30.3735 201.892 30.177 201.597 30.0787 201.4C27.8186 197.27 26.0498 194.222 23.8879 191.96C14.0613 181.832 3.05542 184.29 -7.65567 190.19C-18.2685 196.09 -26.1298 204.153 -22.887 217.92C-22.2974 220.575 -20.6269 223.623 -18.2685 227.852Z" fill="url(#paint11_radial_2296_8367)"/>
<path fill-rule="evenodd" clip-rule="evenodd" d="M41.8707 249.682C41.8707 249.977 41.8707 250.174 41.8707 250.469L40.8881 271.119L47.9633 267.972C50.0269 267.087 51.0095 266.595 51.5991 265.809C52.1887 264.924 52.1887 263.842 52.3853 261.679L52.8766 252.042C53.1714 246.142 53.2697 244.274 53.761 242.897C56.1194 235.522 61.5241 234.047 70.2698 234.44C79.0155 234.833 84.2237 236.8 85.8942 244.372C86.189 245.749 86.189 247.617 85.8942 253.517L85.2064 268.66C85.1081 270.824 85.0098 272.004 85.5994 272.889C86.0907 273.774 87.0734 274.364 89.0387 275.445L95.8191 279.28L96.9984 253.124C96.9984 252.829 96.9984 252.632 96.9984 252.337C97.1949 247.617 97.3914 244.077 96.7036 241.029C93.559 227.262 82.9462 223.525 70.8594 222.935C58.6743 222.345 47.7668 225.098 43.443 238.57C42.2638 241.422 42.0673 244.962 41.8707 249.682Z" fill="url(#paint12_radial_2296_8367)"/>
<path fill-rule="evenodd" clip-rule="evenodd" d="M0.00912476 113.293C-0.285675 113.293 -0.482208 113.391 -0.777008 113.391L-21.1182 117.128L-16.4014 123.323C-15.1239 125.093 -14.4361 125.978 -13.4534 126.371C-12.4707 126.765 -11.3898 126.568 -9.22794 126.175L0.303955 124.405C6.10168 123.323 7.96872 123.028 9.34445 123.225C17.1075 123.913 19.7607 128.83 21.333 137.385C22.9053 145.94 22.1191 151.545 15.1422 154.888C13.8647 155.478 12.0959 155.871 6.19995 156.953L-8.7366 159.706C-10.8985 160.1 -11.9794 160.296 -12.7655 160.985C-13.5517 161.673 -13.8465 162.755 -14.4361 164.82L-16.5979 172.293L9.14795 167.573C9.44275 167.573 9.63925 167.475 9.93408 167.475C14.6509 166.59 18.0902 166 20.8417 164.623C33.5181 158.526 34.7955 147.316 32.6337 135.32C30.4718 123.323 25.3619 113.293 11.3098 112.113C8.06699 111.72 4.72592 112.408 0.00912476 113.293Z" fill="url(#paint13_radial_2296_8367)"/>
<path fill-rule="evenodd" clip-rule="evenodd" d="M-60.2283 129.42C-59.9335 129.42 -59.737 129.42 -59.4422 129.42L-38.8062 130.501L-41.8525 123.323C-42.7369 121.258 -43.1299 120.275 -44.0143 119.685C-44.8987 119.095 -45.9797 118.996 -48.1415 118.898L-57.7717 118.406C-63.6677 118.111 -65.5348 117.915 -66.9105 117.521C-74.2805 115.063 -75.7545 109.655 -75.2632 101.001C-74.7718 92.2495 -72.8065 87.0378 -65.1417 85.4644C-63.7659 85.1694 -61.8989 85.1694 -56.0029 85.5628L-40.8698 86.3495C-38.7079 86.4478 -37.5287 86.5461 -36.6443 86.0544C-35.7599 85.5628 -35.1703 84.5794 -34.0894 82.7111L-30.257 75.9261L-56.3959 74.5494C-56.6907 74.5494 -56.8873 74.5494 -57.1821 74.5494C-61.8989 74.2544 -65.4365 74.0577 -68.4827 74.7461C-82.2401 77.7944 -86.0725 88.3161 -86.7603 100.51C-87.4482 112.605 -84.795 123.618 -71.4307 128.141C-68.4827 128.928 -65.0434 129.125 -60.2283 129.42Z" fill="url(#paint14_radial_2296_8367)"/>
<path fill-rule="evenodd" clip-rule="evenodd" d="M140.825 112.506C140.531 112.408 140.334 112.408 140.039 112.31L120.091 106.901L121.663 114.473C122.056 116.636 122.351 117.718 123.039 118.505C123.727 119.291 124.808 119.586 126.97 120.078L136.305 122.635C142.005 124.208 143.773 124.7 145.051 125.388C151.733 129.321 152.028 134.926 149.768 143.285C147.507 151.643 144.461 156.363 136.698 156.461C135.322 156.461 133.455 156.068 127.756 154.495L113.114 150.561C110.952 149.971 109.871 149.676 108.889 149.971C107.906 150.266 107.12 151.053 105.646 152.725L100.438 158.526L125.692 165.311C125.987 165.41 126.184 165.41 126.478 165.508C131.097 166.786 134.438 167.672 137.583 167.672C151.733 167.573 157.629 158.035 160.773 146.235C163.918 134.533 163.623 123.225 151.438 116.046C148.785 114.67 145.444 113.785 140.825 112.506Z" fill="url(#paint15_radial_2296_8367)"/>
<path fill-rule="evenodd" clip-rule="evenodd" d="M118.224 87.9228C118.421 88.1194 118.617 88.2178 118.814 88.4144L135.322 100.805L136.698 93.1345C137.091 90.9711 137.288 89.8894 136.895 88.9061C136.502 87.9228 135.617 87.2344 133.848 85.9561L126.085 80.1544C121.368 76.6144 119.895 75.4344 119.01 74.3527C114.293 68.256 116.062 62.946 121.27 55.9643C126.478 48.9826 131.097 45.7376 138.27 48.5893C139.548 49.0809 141.12 50.1626 145.837 53.7026L158.022 62.7493C159.791 64.0277 160.675 64.716 161.756 64.8143C162.837 64.9127 163.82 64.421 165.785 63.4377L172.762 59.8977L151.831 44.2626C151.635 44.0659 151.438 43.9676 151.242 43.7709C147.409 40.9192 144.658 38.8542 141.71 37.6742C128.542 32.5609 119.501 39.2475 112.23 48.9826C104.958 58.7176 101.126 69.3377 109.773 80.4494C111.64 83.0061 114.392 85.0711 118.224 87.9228Z" fill="url(#paint16_radial_2296_8367)"/>
<path fill-rule="evenodd" clip-rule="evenodd" d="M51.1078 197.172C51.3044 197.368 51.5009 197.565 51.6974 197.663L66.8305 211.725L68.9924 204.252C69.582 202.088 69.8768 201.105 69.6802 200.023C69.3854 199.04 68.5993 198.253 66.9288 196.778L59.8536 190.19C55.5298 186.158 54.1541 184.88 53.4662 183.7C49.339 177.112 51.6974 171.998 57.5934 165.606C63.4894 159.215 68.4028 156.461 75.2814 160.1C76.5589 160.788 77.9346 161.968 82.2584 166L93.3625 176.325C94.9348 177.8 95.8192 178.587 96.8018 178.783C97.7845 178.98 98.8654 178.587 100.929 177.8L108.201 175.047L89.0388 157.248C88.8422 157.051 88.6457 156.855 88.4492 156.658C84.9116 153.413 82.3566 151.053 79.6051 149.578C67.1253 143.088 57.3969 148.791 49.1425 157.74C40.8881 166.688 35.8765 176.817 43.3447 188.813C45.0153 191.567 47.5702 193.927 51.1078 197.172Z" fill="url(#paint17_radial_2296_8367)"/>
<path fill-rule="evenodd" clip-rule="evenodd" d="M10.3271 39.3459C10.0323 39.2475 9.83582 39.2475 9.54102 39.1492L-10.7019 35.1175L-8.63834 42.5909C-8.04874 44.7542 -7.75394 45.7376 -6.9678 46.5242C-6.18167 47.2126 -5.10074 47.4093 -2.93887 47.9009L6.59302 49.7693C12.3907 50.9493 14.1595 51.3426 15.437 51.9326C22.4139 55.3743 23.0035 60.9793 21.333 69.5344C19.6625 78.0894 16.911 82.9077 9.14795 83.4977C7.77222 83.5961 5.90512 83.3011 0.107391 82.1211L-14.8292 79.1711C-16.991 78.7777 -18.0719 78.4828 -19.0546 78.8761C-20.0373 79.2694 -20.7252 80.1544 -22.1009 81.8261L-26.916 87.9228L-1.26834 93.0361C-0.973541 93.1345 -0.777008 93.1345 -0.482208 93.2328C4.23459 94.2162 7.57565 94.8062 10.7202 94.6095C24.7723 93.6262 30.0787 83.5961 32.4371 71.6977C34.7955 59.7993 33.7146 48.5893 21.1365 42.1976C18.385 41.0176 15.0439 40.3292 10.3271 39.3459Z" fill="url(#paint18_radial_2296_8367)"/>
<path fill-rule="evenodd" clip-rule="evenodd" d="M94.7382 92.0528C94.64 91.8561 94.5417 91.5612 94.4434 91.2661L86.7786 72.0911L81.6688 77.8927C80.1948 79.5644 79.5069 80.3511 79.3104 81.4328C79.1138 82.4161 79.5069 83.4977 80.3913 85.5628L84.0272 94.5111C86.189 100.018 86.8769 101.69 87.0734 103.165C87.9578 110.835 83.6341 114.473 75.5762 117.718C67.5184 120.963 61.9172 121.356 57.2004 115.161C56.316 113.981 55.6281 112.31 53.368 106.803L47.6685 92.7411C46.8823 90.6761 46.391 89.6928 45.6049 89.0045C44.7205 88.4145 43.6396 88.3161 41.4777 88.1194L33.7146 87.5294L43.443 111.818C43.5413 112.113 43.6395 112.31 43.7378 112.605C45.5066 117.03 46.7841 120.275 48.7494 122.733C57.2986 133.943 68.501 132.96 79.8017 128.436C91.1024 123.913 99.8481 116.833 98.2758 102.87C97.7845 99.7228 96.507 96.4778 94.7382 92.0528Z" fill="url(#paint19_radial_2296_8367)"/>
<path fill-rule="evenodd" clip-rule="evenodd" d="M222.878 17.2208C222.78 17.0241 222.681 16.7291 222.583 16.5324L214.034 -2.24931L209.121 3.74904C207.745 5.42072 207.057 6.30573 206.861 7.38739C206.762 8.46907 207.155 9.45241 208.138 11.4191L212.167 20.2691C214.624 25.6775 215.311 27.3492 215.508 28.7258C216.687 36.3959 212.658 40.1326 204.699 43.7709C196.739 47.4093 191.236 47.9993 186.225 42.0009C185.34 40.9192 184.456 39.2476 182.097 33.8392L175.808 19.9741C174.924 18.0074 174.433 16.9258 173.548 16.3358C172.664 15.7458 171.583 15.7458 169.421 15.6474L161.658 15.3524L172.467 39.1492C172.565 39.3459 172.664 39.6409 172.762 39.8375C174.727 44.1642 176.201 47.3109 178.167 49.7693C187.207 60.586 198.41 59.111 209.415 54.0959C220.52 49.0809 228.971 41.6076 226.71 27.7425C226.317 24.6942 224.942 21.5475 222.878 17.2208Z" fill="url(#paint20_radial_2296_8367)"/>
<path fill-rule="evenodd" clip-rule="evenodd" d="M219.832 -61.5446C219.635 -61.7413 219.537 -61.9379 219.34 -62.1346L206.959 -78.6547L203.421 -71.673C202.439 -69.7063 201.947 -68.723 202.045 -67.6413C202.144 -66.5596 202.832 -65.6746 204.109 -63.9046L209.907 -56.1362C213.444 -51.4162 214.525 -49.8429 215.017 -48.5645C217.866 -41.2878 214.624 -36.7645 207.647 -31.5528C200.67 -26.3411 195.363 -24.5711 189.271 -29.2911C188.19 -30.1761 187.011 -31.6511 183.473 -36.3712L174.433 -48.5645C173.155 -50.3345 172.467 -51.2196 171.485 -51.6129C170.502 -52.0062 169.421 -51.8096 167.259 -51.4162L159.594 -50.0396L175.219 -29.0944C175.415 -28.8978 175.513 -28.7011 175.71 -28.5045C178.56 -24.6694 180.623 -21.9161 183.08 -19.9494C194.184 -11.296 204.797 -15.131 214.525 -22.4077C224.254 -29.6844 231.034 -38.7312 225.826 -51.9079C224.745 -54.9562 222.681 -57.7096 219.832 -61.5446Z" fill="url(#paint21_radial_2296_8367)"/>
<path fill-rule="evenodd" clip-rule="evenodd" d="M240.075 7.09241C240.173 7.28906 240.369 7.58406 240.468 7.78073L251.67 25.1858L255.601 18.4991C256.682 16.6308 257.271 15.6474 257.271 14.5658C257.271 13.4841 256.682 12.5991 255.503 10.7307L250.294 2.56905C247.15 -2.44598 246.167 -4.01933 245.774 -5.396C243.514 -12.771 247.052 -17.0977 254.323 -21.8177C261.595 -26.5378 267.098 -27.9144 272.797 -22.7027C273.878 -21.7194 274.861 -20.2444 278.104 -15.2294L286.26 -2.44598C287.439 -0.577652 288.029 0.307358 289.011 0.799026C289.994 1.2907 291.075 1.09404 293.237 0.897369L301 0.110703L286.948 -21.9161C286.85 -22.1127 286.653 -22.4077 286.555 -22.6044C284 -26.6361 282.133 -29.5861 279.774 -31.6511C269.26 -41.0912 258.451 -38.0428 248.231 -31.4545C238.011 -24.8661 230.641 -16.3111 234.867 -2.83932C235.653 0.110703 237.52 3.06071 240.075 7.09241Z" fill="url(#paint22_radial_2296_8367)"/>
<path fill-rule="evenodd" clip-rule="evenodd" d="M288.225 54.5876C288.127 54.3909 288.029 54.0959 287.931 53.8993L280.167 34.8225L275.058 40.6242C273.584 42.2959 272.896 43.0826 272.699 44.1642C272.503 45.1476 272.896 46.2292 273.78 48.2943L277.416 57.2426C279.676 62.7493 280.266 64.421 280.462 65.896C281.347 73.566 277.121 77.2044 269.063 80.5477C261.005 83.8911 255.404 84.2844 250.687 78.0894C249.803 77.0077 249.115 75.2377 246.855 69.8294L241.156 55.7676C240.369 53.7026 239.878 52.7193 239.092 52.1293C238.208 51.5393 237.127 51.4409 234.965 51.2443L227.202 50.6543L237.127 74.8444C237.225 75.1394 237.323 75.3361 237.421 75.5327C239.19 79.9578 240.566 83.2028 242.433 85.6611C251.081 96.8712 262.283 95.7895 273.485 91.1678C284.688 86.5461 293.433 79.2694 291.763 65.306C291.37 62.1593 289.994 59.0126 288.225 54.5876Z" fill="url(#paint23_radial_2296_8367)"/>
<path fill-rule="evenodd" clip-rule="evenodd" d="M212.855 153.413C212.658 153.315 212.462 153.118 212.167 153.02L194.97 141.515L193.988 149.185C193.693 151.348 193.595 152.43 193.988 153.413C194.381 154.396 195.363 154.986 197.132 156.166L205.19 161.575C210.103 164.82 211.577 165.901 212.56 166.983C217.67 172.883 216.098 178.193 211.283 185.47C206.467 192.747 202.045 196.188 194.675 193.73C193.3 193.238 191.727 192.255 186.814 189.01L174.138 180.553C172.271 179.373 171.386 178.685 170.305 178.685C169.224 178.685 168.34 179.177 166.375 180.258L159.594 184.093L181.311 198.647C181.508 198.843 181.803 198.942 181.999 199.04C185.93 201.695 188.878 203.662 191.826 204.645C205.19 209.07 213.936 201.892 220.618 191.763C227.398 181.635 230.641 170.818 221.404 160.198C219.733 157.936 216.884 156.068 212.855 153.413Z" fill="url(#paint24_radial_2296_8367)"/>
<path fill-rule="evenodd" clip-rule="evenodd" d="M-38.5114 157.641C-38.7079 157.445 -38.8062 157.248 -39.0027 157.051L-52.1705 141.121L-55.315 148.201C-56.1994 150.266 -56.6907 151.25 -56.4942 152.233C-56.3959 153.315 -55.6098 154.101 -54.234 155.773L-48.0432 163.246C-44.3091 167.77 -43.1299 169.245 -42.5403 170.523C-39.3958 177.603 -42.3438 182.323 -49.0259 187.928C-55.708 193.533 -60.9162 195.5 -67.3035 191.075C-68.4827 190.288 -69.6619 188.912 -73.4943 184.29L-83.1245 172.588C-84.5002 170.917 -85.188 170.032 -86.1707 169.737C-87.1534 169.441 -88.2343 169.638 -90.3962 170.13L-97.9627 171.9L-81.3557 192.058C-81.1591 192.255 -81.0609 192.452 -80.8643 192.648C-77.8181 196.287 -75.6562 199.04 -73.1013 200.81C-61.5058 208.873 -51.1878 204.547 -41.7542 196.778C-32.3206 189.01 -26.1298 179.668 -31.9275 166.786C-33.205 164.033 -35.4651 161.28 -38.5114 157.641Z" fill="url(#paint25_radial_2296_8367)"/>
<path fill-rule="evenodd" clip-rule="evenodd" d="M116.062 233.653C116.259 233.85 116.455 234.047 116.652 234.145L131.785 248.109L133.947 240.635C134.536 238.472 134.831 237.488 134.536 236.407C134.241 235.423 133.455 234.637 131.785 233.162L124.71 226.573C120.386 222.542 119.01 221.263 118.322 220.083C114.195 213.495 116.553 208.382 122.449 201.99C128.345 195.598 133.259 192.845 140.137 196.385C141.415 197.073 142.791 198.253 147.114 202.285L158.317 212.61C159.987 214.085 160.773 214.872 161.756 215.068C162.739 215.265 163.82 214.872 165.883 214.085L173.155 211.332L153.895 193.632C153.698 193.435 153.502 193.238 153.305 193.14C149.768 189.895 147.213 187.535 144.461 186.158C131.883 179.668 122.253 185.47 113.998 194.418C105.744 203.367 100.831 213.495 108.299 225.492C109.97 228.048 112.525 230.408 116.062 233.653Z" fill="url(#paint26_radial_2296_8367)"/>
<path fill-rule="evenodd" clip-rule="evenodd" d="M-247.328 19.8758C-247.033 19.8758 -246.837 19.7775 -246.542 19.7775L-226.103 16.7291L-230.525 10.3374C-231.802 8.5674 -232.392 7.58406 -233.374 7.19072C-234.357 6.79739 -235.438 6.89574 -237.6 7.28906L-247.132 8.66574C-252.929 9.55074 -254.796 9.74742 -256.27 9.55075C-263.935 8.56741 -266.49 3.65071 -267.768 -5.00266C-269.045 -13.656 -268.062 -19.1627 -260.987 -22.3094C-259.71 -22.8994 -257.843 -23.1944 -252.045 -24.0794L-237.01 -26.3411C-234.848 -26.6361 -233.767 -26.8328 -232.981 -27.5211C-232.195 -28.2094 -231.802 -29.2911 -231.114 -31.3561L-228.657 -38.7312L-254.502 -34.8961C-254.796 -34.8961 -254.993 -34.7978 -255.288 -34.7978C-260.005 -34.1095 -263.444 -33.6178 -266.294 -32.3395C-279.167 -26.6361 -280.837 -15.4261 -279.068 -3.42932C-277.299 8.5674 -272.484 18.7941 -258.531 20.5641C-255.484 21.0558 -252.045 20.5641 -247.328 19.8758Z" fill="url(#paint27_radial_2296_8367)"/>
<path fill-rule="evenodd" clip-rule="evenodd" d="M-160.853 24.9892C-160.853 24.6942 -160.952 24.4975 -160.952 24.2025L-163.605 3.74904L-169.992 8.07574C-171.859 9.35408 -172.744 9.94408 -173.137 10.9274C-173.53 11.9108 -173.432 12.9924 -173.137 15.1558L-171.859 24.7925C-171.073 30.6925 -170.877 32.4625 -171.073 33.9375C-172.154 41.6076 -177.166 44.0659 -185.813 45.1476C-194.461 46.2292 -199.964 45.2459 -202.912 38.0676C-203.501 36.7892 -203.796 34.9209 -204.484 29.0208L-206.449 13.9758C-206.744 11.8124 -206.842 10.7307 -207.53 9.84573C-208.218 9.05907 -209.201 8.66574 -211.363 7.9774L-218.733 5.42072L-215.293 31.3808C-215.293 31.6759 -215.195 31.8725 -215.195 32.1675C-214.605 36.8875 -214.114 40.3292 -212.935 43.1809C-207.432 56.161 -196.328 58.0293 -184.241 56.3576C-172.154 54.7843 -161.934 50.1626 -159.969 36.1992C-159.772 33.1508 -160.264 29.7092 -160.853 24.9892Z" fill="url(#paint28_radial_2296_8367)"/>
<path fill-rule="evenodd" clip-rule="evenodd" d="M-252.733 -53.4812C-252.438 -53.4812 -252.241 -53.4812 -251.947 -53.4812L-231.311 -52.4979L-234.455 -59.5779C-235.34 -61.6429 -235.831 -62.6263 -236.617 -63.2163C-237.501 -63.8063 -238.582 -63.9046 -240.744 -64.0029L-250.374 -64.4946C-256.27 -64.7896 -258.137 -64.8879 -259.513 -65.3796C-266.883 -67.838 -268.357 -73.2463 -267.964 -81.8997C-267.571 -90.5531 -265.507 -95.8631 -257.941 -97.5348C-256.565 -97.8298 -254.698 -97.8298 -248.802 -97.5348L-233.669 -96.7481C-231.507 -96.6498 -230.328 -96.5514 -229.444 -97.0431C-228.559 -97.5348 -227.97 -98.5181 -226.889 -100.386L-223.056 -107.171L-249.195 -108.45C-249.49 -108.45 -249.687 -108.45 -249.981 -108.45C-254.698 -108.646 -258.236 -108.843 -261.282 -108.155C-275.039 -105.106 -278.872 -94.4864 -279.461 -82.293C-280.051 -70.0996 -277.398 -59.1846 -263.935 -54.7596C-260.987 -53.8746 -257.548 -53.6779 -252.733 -53.4812Z" fill="url(#paint29_radial_2296_8367)"/>
<path fill-rule="evenodd" clip-rule="evenodd" d="M-358.566 -97.4364C-358.763 -97.6331 -358.861 -97.8298 -359.057 -98.1248L-371.046 -114.94L-374.682 -108.056C-375.763 -106.09 -376.254 -105.106 -376.156 -104.123C-376.057 -103.041 -375.468 -102.156 -374.19 -100.386L-368.589 -92.5197C-365.15 -87.7014 -364.167 -86.128 -363.676 -84.8497C-361.023 -77.573 -364.364 -73.0497 -371.439 -68.0346C-378.514 -63.0196 -383.919 -61.3479 -389.913 -66.2646C-390.994 -67.1496 -392.173 -68.6246 -395.514 -73.443L-404.26 -85.833C-405.537 -87.6031 -406.127 -88.4881 -407.11 -88.9797C-408.092 -89.3731 -409.173 -89.1764 -411.335 -88.8814L-419 -87.7014L-403.867 -66.3629C-403.67 -66.1663 -403.572 -65.9696 -403.376 -65.6746C-400.624 -61.7413 -398.561 -58.9879 -396.202 -56.9229C-385.295 -47.9745 -374.583 -51.6129 -364.659 -58.5946C-354.734 -65.6746 -347.855 -74.5247 -352.67 -87.7997C-353.751 -90.6514 -355.815 -93.5031 -358.566 -97.4364Z" fill="url(#paint30_radial_2296_8367)"/>
<path fill-rule="evenodd" clip-rule="evenodd" d="M-296.265 -100.976C-296.068 -101.173 -295.872 -101.37 -295.675 -101.566L-281.623 -116.71L-289.091 -118.873C-291.253 -119.463 -292.236 -119.857 -293.317 -119.562C-294.3 -119.267 -295.086 -118.48 -296.56 -116.907L-303.144 -109.826C-307.172 -105.5 -308.45 -104.221 -309.727 -103.435C-316.311 -99.4031 -321.421 -101.763 -327.809 -107.663C-334.196 -113.563 -336.849 -118.48 -333.311 -125.363C-332.624 -126.642 -331.444 -128.018 -327.415 -132.345L-317.097 -143.457C-315.623 -145.03 -314.837 -145.915 -314.641 -146.898C-314.444 -147.882 -314.837 -148.963 -315.623 -151.028L-318.375 -158.305L-336.161 -139.13C-336.358 -138.933 -336.554 -138.737 -336.751 -138.54C-339.994 -135.098 -342.352 -132.542 -343.826 -129.788C-350.312 -117.3 -344.71 -107.565 -335.768 -99.2065C-326.826 -90.8481 -316.803 -85.9314 -304.716 -93.3064C-301.866 -94.9781 -299.508 -97.5348 -296.265 -100.976Z" fill="url(#paint31_radial_2296_8367)"/>
<path fill-rule="evenodd" clip-rule="evenodd" d="M-128.524 -54.9562C-128.229 -54.8579 -128.032 -54.8579 -127.738 -54.7596L-107.593 -50.3345L-109.46 -57.9063C-109.951 -60.0696 -110.246 -61.1513 -111.032 -61.8396C-111.818 -62.5279 -112.899 -62.8229 -115.061 -63.3146L-124.495 -65.3796C-130.292 -66.658 -132.061 -67.0513 -133.339 -67.7396C-140.217 -71.378 -140.709 -76.8847 -138.842 -85.4397C-136.975 -93.9948 -134.125 -98.8131 -126.362 -99.2064C-124.986 -99.3048 -123.119 -98.9114 -117.321 -97.6331L-102.581 -94.3881C-100.419 -93.8964 -99.3385 -93.6998 -98.3558 -93.9948C-97.3732 -94.3881 -96.6853 -95.1748 -95.3096 -96.9448L-90.3962 -102.943L-115.946 -108.548C-116.24 -108.646 -116.437 -108.646 -116.732 -108.745C-121.35 -109.728 -124.79 -110.515 -127.934 -110.318C-141.986 -109.63 -147.489 -99.6981 -150.142 -87.8981C-152.796 -75.9997 -151.911 -64.7896 -139.431 -58.2012C-136.582 -56.7262 -133.24 -56.0379 -128.524 -54.9562Z" fill="url(#paint32_radial_2296_8367)"/>
<path fill-rule="evenodd" clip-rule="evenodd" d="M-215.588 -44.8279C-215.588 -44.5329 -215.588 -44.3362 -215.588 -44.0412L-216.178 -23.3911L-209.102 -26.6361C-207.137 -27.5211 -206.056 -28.0128 -205.565 -28.8978C-204.975 -29.7828 -204.975 -30.8645 -204.877 -33.1261L-204.582 -42.7628C-204.386 -48.6629 -204.287 -50.5312 -203.894 -51.9079C-201.634 -59.2829 -196.229 -60.9546 -187.582 -60.6596C-178.836 -60.3646 -173.628 -58.4962 -171.761 -50.9245C-171.466 -49.5479 -171.466 -47.6795 -171.565 -41.7795L-172.056 -26.6361C-172.154 -24.4727 -172.154 -23.2927 -171.663 -22.4077C-171.171 -21.5227 -170.189 -20.9327 -168.223 -19.9494L-161.345 -16.3111L-160.559 -42.4678C-160.559 -42.7628 -160.559 -42.9595 -160.559 -43.2545C-160.46 -47.9745 -160.264 -51.5146 -161.05 -54.5629C-164.391 -68.2313 -175.102 -71.8697 -187.189 -72.1646C-199.374 -72.558 -210.183 -69.608 -214.409 -56.1362C-215.391 -53.0879 -215.49 -49.6462 -215.588 -44.8279Z" fill="url(#paint33_radial_2296_8367)"/>
<path fill-rule="evenodd" clip-rule="evenodd" d="M-275.924 -141.195C-275.826 -140.998 -275.629 -140.703 -275.531 -140.507L-265.802 -122.315L-261.282 -128.707C-260.005 -130.477 -259.415 -131.46 -259.317 -132.443C-259.218 -133.525 -259.808 -134.41 -260.791 -136.377L-265.409 -144.932C-268.161 -150.143 -269.045 -151.815 -269.34 -153.192C-271.109 -160.763 -267.178 -164.795 -259.513 -168.925C-251.848 -173.055 -246.345 -174.038 -240.941 -168.433C-239.958 -167.45 -239.074 -165.778 -236.224 -160.567L-229.051 -147.193C-227.97 -145.227 -227.478 -144.243 -226.594 -143.752C-225.709 -143.26 -224.629 -143.26 -222.368 -143.358L-214.605 -143.555L-227.085 -166.565C-227.183 -166.762 -227.38 -167.057 -227.478 -167.253C-229.738 -171.482 -231.409 -174.53 -233.571 -176.792C-243.299 -187.019 -254.305 -184.757 -265.016 -178.955C-275.727 -173.153 -283.687 -165.188 -280.542 -151.422C-279.854 -148.472 -278.184 -145.423 -275.924 -141.195Z" fill="url(#paint34_radial_2296_8367)"/>
<path fill-rule="evenodd" clip-rule="evenodd" d="M-211.461 -103.828C-211.362 -103.631 -211.166 -103.336 -211.068 -103.14L-200.553 -85.4397L-196.328 -92.0281C-195.148 -93.8964 -194.559 -94.7814 -194.559 -95.8631C-194.559 -96.9448 -195.148 -97.8298 -196.229 -99.7964L-201.143 -108.155C-204.189 -113.268 -205.073 -114.842 -205.467 -116.218C-207.53 -123.692 -203.894 -127.92 -196.328 -132.345C-188.761 -136.77 -183.357 -138.048 -177.755 -132.64C-176.773 -131.657 -175.79 -130.083 -172.744 -124.97L-164.981 -111.892C-163.9 -110.023 -163.31 -109.04 -162.327 -108.548C-161.443 -108.056 -160.264 -108.155 -158.102 -108.351L-150.339 -108.941L-163.703 -131.46C-163.801 -131.657 -163.998 -131.952 -164.096 -132.148C-166.553 -136.278 -168.322 -139.228 -170.582 -141.392C-180.802 -151.127 -191.709 -148.472 -202.125 -142.178C-212.542 -135.885 -220.207 -127.625 -216.472 -114.055C-215.686 -110.908 -213.819 -107.86 -211.461 -103.828Z" fill="url(#paint35_radial_2296_8367)"/>
<path fill-rule="evenodd" clip-rule="evenodd" d="M-344.023 -41.6812C-344.023 -41.3862 -343.924 -41.1895 -343.924 -40.8945L-341.369 -20.4411L-334.884 -24.7678C-333.017 -25.9478 -332.132 -26.6361 -331.641 -27.5211C-331.248 -28.5045 -331.346 -29.5861 -331.641 -31.7495L-332.82 -41.3862C-333.508 -47.2862 -333.705 -49.0562 -333.508 -50.5312C-332.329 -58.2012 -327.317 -60.5613 -318.67 -61.6429C-310.022 -62.7246 -304.519 -61.6429 -301.571 -54.4646C-300.982 -53.1862 -300.785 -51.3179 -299.999 -45.4179L-298.132 -30.3728C-297.837 -28.2094 -297.739 -27.1278 -297.051 -26.2428C-296.363 -25.4561 -295.38 -25.0628 -293.317 -24.2761L-286.045 -21.7194L-289.288 -47.5812C-289.288 -47.8762 -289.386 -48.0729 -289.386 -48.3679C-289.976 -53.0879 -290.369 -56.5296 -291.548 -59.4796C-296.953 -72.558 -308.057 -74.4263 -320.045 -72.9513C-332.034 -71.4763 -342.45 -66.953 -344.514 -52.9896C-345.005 -49.8429 -344.612 -46.4012 -344.023 -41.6812Z" fill="url(#paint36_radial_2296_8367)"/>
<path fill-rule="evenodd" clip-rule="evenodd" d="M-122.333 -35.7811C-122.628 -35.7811 -122.824 -35.7811 -123.119 -35.7811L-143.755 -36.8628L-140.61 -29.6844C-139.726 -27.6194 -139.333 -26.6361 -138.449 -26.0461C-137.564 -25.4561 -136.483 -25.3578 -134.321 -25.2594L-124.691 -24.7678C-118.795 -24.4728 -116.928 -24.2761 -115.552 -23.8828C-108.182 -21.4244 -106.708 -16.0161 -107.2 -7.36269C-107.691 1.38902 -109.656 6.60072 -117.223 8.17406C-118.599 8.46907 -120.466 8.46907 -126.362 8.07574L-141.495 7.28906C-143.657 7.19073 -144.836 7.09241 -145.72 7.58408C-146.605 8.07574 -147.194 9.05907 -148.275 10.9274L-152.108 17.7124L-125.969 19.0891C-125.674 19.0891 -125.477 19.0891 -125.183 19.0891C-120.466 19.3841 -116.928 19.5808 -113.882 18.8925C-100.125 15.8441 -96.2922 5.22404 -95.6043 -6.87102C-94.9164 -18.9661 -97.5697 -29.9795 -111.032 -34.4045C-114.078 -35.2895 -117.616 -35.4861 -122.333 -35.7811Z" fill="url(#paint37_radial_2296_8367)"/>
<path fill-rule="evenodd" clip-rule="evenodd" d="M-95.7026 65.306C-95.7026 65.011 -95.7026 64.8143 -95.7026 64.5193L-95.4078 43.8692L-102.385 47.2126C-104.35 48.1959 -105.333 48.6876 -105.922 49.5726C-106.512 50.4576 -106.512 51.5393 -106.512 53.801L-106.61 63.536C-106.708 69.436 -106.807 71.3044 -107.2 72.681C-109.362 80.1544 -114.668 81.8261 -123.414 81.7278C-132.16 81.6294 -137.368 79.7611 -139.333 72.2877C-139.726 70.911 -139.726 69.0427 -139.628 63.1427L-139.431 47.9993C-139.431 45.8359 -139.431 44.6559 -139.923 43.7709C-140.414 42.8859 -141.397 42.3942 -143.362 41.3126L-150.241 37.7726L-150.535 63.9293C-150.535 64.2243 -150.535 64.421 -150.535 64.716C-150.634 69.5344 -150.634 72.976 -149.848 76.0244C-146.31 89.6928 -135.501 93.0362 -123.414 93.2328C-111.327 93.4295 -100.419 90.2828 -96.4887 76.7127C-95.8009 73.566 -95.8009 70.026 -95.7026 65.306Z" fill="url(#paint38_radial_2296_8367)"/>
<path fill-rule="evenodd" clip-rule="evenodd" d="M-273.86 230.605C-273.664 230.802 -273.565 230.999 -273.369 231.294L-261.282 248.01L-257.646 241.127C-256.663 239.16 -256.074 238.177 -256.172 237.194C-256.27 236.112 -256.86 235.227 -258.236 233.457L-263.935 225.59C-267.375 220.772 -268.455 219.297 -268.947 217.92C-271.698 210.643 -268.357 206.12 -261.282 201.007C-254.207 195.893 -248.9 194.222 -242.808 199.04C-241.727 199.925 -240.548 201.4 -237.108 206.218L-228.166 218.51C-226.889 220.28 -226.201 221.165 -225.218 221.558C-224.235 221.952 -223.154 221.755 -220.993 221.46L-213.328 220.182L-228.657 198.942C-228.854 198.745 -228.952 198.548 -229.149 198.253C-231.9 194.418 -233.964 191.567 -236.421 189.6C-247.426 180.75 -258.039 184.487 -267.964 191.567C-277.889 198.647 -284.669 207.693 -279.756 220.87C-278.773 223.918 -276.71 226.77 -273.86 230.605Z" fill="url(#paint39_radial_2296_8367)"/>
<path fill-rule="evenodd" clip-rule="evenodd" d="M-171.27 228.54C-171.466 228.343 -171.663 228.245 -171.859 228.048L-187.975 215.068L-189.646 222.64C-190.137 224.803 -190.333 225.885 -190.039 226.868C-189.646 227.852 -188.859 228.54 -187.091 229.917L-179.524 236.013C-174.906 239.75 -173.53 240.93 -172.645 242.11C-168.125 248.404 -170.09 253.615 -175.593 260.4C-181.096 267.185 -185.715 270.234 -192.888 267.185C-194.166 266.595 -195.64 265.514 -200.258 261.777L-212.05 252.239C-213.721 250.862 -214.605 250.174 -215.686 250.075C-216.767 249.977 -217.75 250.37 -219.715 251.354L-226.79 254.599L-206.449 271.02C-206.253 271.217 -206.056 271.315 -205.86 271.512C-202.125 274.462 -199.472 276.724 -196.623 277.904C-183.651 283.509 -174.414 277.117 -166.749 267.677C-159.085 258.237 -154.859 247.715 -163.114 236.309C-164.882 233.752 -167.536 231.588 -171.27 228.54Z" fill="url(#paint40_radial_2296_8367)"/>
<path fill-rule="evenodd" clip-rule="evenodd" d="M-279.461 140.531C-279.461 140.826 -279.461 141.023 -279.461 141.318L-279.658 161.968L-272.681 158.526C-270.716 157.543 -269.733 157.051 -269.143 156.166C-268.554 155.281 -268.554 154.2 -268.554 151.938L-268.455 142.203C-268.357 136.303 -268.357 134.435 -267.964 133.058C-265.802 125.585 -260.496 123.913 -251.75 124.011C-243.004 124.11 -237.796 125.88 -235.733 133.451C-235.34 134.828 -235.34 136.696 -235.438 142.596L-235.634 157.838C-235.634 160.001 -235.634 161.181 -235.143 162.066C-234.652 162.951 -233.669 163.443 -231.704 164.426L-224.825 167.967L-224.53 141.81C-224.53 141.515 -224.53 141.318 -224.53 141.023C-224.432 136.205 -224.432 132.763 -225.218 129.715C-228.854 116.046 -239.565 112.703 -251.75 112.605C-263.935 112.506 -274.745 115.555 -278.675 129.125C-279.363 132.271 -279.461 135.713 -279.461 140.531Z" fill="url(#paint41_radial_2296_8367)"/>
<path fill-rule="evenodd" clip-rule="evenodd" d="M-353.456 144.563C-353.456 144.268 -353.358 144.071 -353.358 143.776L-349.624 123.421L-357.092 125.585C-359.254 126.175 -360.237 126.47 -360.924 127.256C-361.612 128.043 -361.809 129.125 -362.202 131.288L-363.971 140.826C-365.052 146.628 -365.445 148.496 -366.034 149.775C-369.375 156.756 -374.977 157.543 -383.526 155.97C-392.075 154.396 -396.988 151.741 -397.676 143.973C-397.774 142.596 -397.48 140.728 -396.497 134.926L-393.745 119.98C-393.352 117.816 -393.156 116.735 -393.549 115.751C-393.942 114.768 -394.826 114.08 -396.595 112.801L-402.786 108.18L-407.503 133.943C-407.503 134.238 -407.601 134.435 -407.601 134.73C-408.485 139.45 -409.075 142.891 -408.78 145.94C-407.503 160.001 -397.48 165.115 -385.589 167.278C-373.601 169.441 -362.398 168.163 -356.306 155.478C-355.028 152.725 -354.341 149.283 -353.456 144.563Z" fill="url(#paint42_radial_2296_8367)"/>
<path fill-rule="evenodd" clip-rule="evenodd" d="M-302.357 78.3844C-302.554 78.2861 -302.849 78.0894 -303.045 77.9911L-320.439 66.781L-321.323 74.5494C-321.519 76.7127 -321.716 77.7944 -321.225 78.7777C-320.733 79.7611 -319.849 80.3511 -317.982 81.5311L-309.826 86.7428C-304.814 89.9878 -303.34 90.9711 -302.357 92.0528C-297.149 97.8545 -298.623 103.263 -303.34 110.54C-308.057 117.915 -312.381 121.356 -319.751 119.095C-321.126 118.701 -322.699 117.718 -327.612 114.473L-340.387 106.213C-342.254 105.033 -343.138 104.443 -344.219 104.443C-345.3 104.443 -346.184 105.033 -348.15 106.115L-354.832 110.048L-332.82 124.208C-332.624 124.306 -332.329 124.503 -332.132 124.601C-328.103 127.158 -325.155 129.125 -322.207 130.01C-308.745 134.238 -300.196 126.863 -293.612 116.735C-287.028 106.508 -283.883 95.6912 -293.317 85.1694C-295.479 82.9077 -298.427 81.0394 -302.357 78.3844Z" fill="url(#paint43_radial_2296_8367)"/>
<path fill-rule="evenodd" clip-rule="evenodd" d="M-101.402 156.068C-101.206 155.871 -101.107 155.675 -100.911 155.478L-87.9395 139.45L-95.5061 137.778C-97.6679 137.286 -98.7489 137.09 -99.7316 137.385C-100.714 137.778 -101.402 138.565 -102.778 140.335L-108.87 147.906C-112.604 152.528 -113.784 153.905 -114.963 154.79C-121.252 159.313 -126.46 157.346 -133.241 151.84C-140.021 146.333 -143.067 141.711 -139.923 134.533C-139.333 133.255 -138.252 131.78 -134.518 127.158L-124.986 115.358C-123.61 113.686 -122.922 112.801 -122.726 111.72C-122.628 110.638 -123.021 109.655 -124.003 107.688L-127.246 100.608L-143.657 120.963C-143.853 121.16 -143.952 121.356 -144.148 121.553C-147.194 125.29 -149.356 127.945 -150.535 130.796C-156.137 143.776 -149.848 153.02 -140.316 160.69C-130.784 168.36 -120.466 172.588 -108.969 164.328C-106.61 162.558 -104.448 159.805 -101.402 156.068Z" fill="url(#paint44_radial_2296_8367)"/>
<path fill-rule="evenodd" clip-rule="evenodd" d="M-173.333 199.925C-173.137 199.827 -172.842 199.63 -172.645 199.532L-154.957 188.813L-161.541 184.683C-163.408 183.503 -164.293 182.913 -165.374 182.913C-166.455 182.913 -167.339 183.503 -169.206 184.585L-177.461 189.6C-182.472 192.648 -184.143 193.533 -185.518 193.927C-192.987 195.992 -197.212 192.353 -201.732 184.978C-206.253 177.505 -207.53 172.097 -202.125 166.393C-201.143 165.311 -199.571 164.328 -194.559 161.28L-181.588 153.413C-179.721 152.233 -178.738 151.741 -178.247 150.758C-177.755 149.873 -177.854 148.693 -178.05 146.53L-178.64 138.761L-201.045 152.331C-201.241 152.43 -201.536 152.626 -201.732 152.725C-205.86 155.183 -208.808 156.953 -210.969 159.215C-220.698 169.441 -217.848 180.357 -211.559 190.78C-205.27 201.203 -196.917 208.775 -183.357 204.94C-180.409 204.153 -177.461 202.383 -173.333 199.925Z" fill="url(#paint45_radial_2296_8367)"/>
<path fill-rule="evenodd" clip-rule="evenodd" d="M-225.611 58.3243C-225.709 58.0293 -225.709 57.8326 -225.808 57.5376L-231.507 37.6742L-237.207 42.8859C-238.877 44.3609 -239.663 45.1476 -239.958 46.1309C-240.253 47.1143 -239.958 48.1959 -239.369 50.3593L-236.715 59.701C-235.045 65.4043 -234.652 67.1744 -234.652 68.6494C-234.553 76.4178 -239.172 79.5644 -247.623 81.9244C-255.976 84.2845 -261.577 84.0878 -265.606 77.4994C-266.392 76.3194 -266.883 74.5494 -268.554 68.846L-272.681 54.1943C-273.271 52.0309 -273.565 51.0476 -274.351 50.2609C-275.138 49.5726 -276.219 49.3759 -278.38 48.9826L-286.045 47.5076L-278.872 72.681C-278.773 72.976 -278.773 73.1727 -278.675 73.4677C-277.398 78.0894 -276.415 81.4327 -274.745 84.0878C-267.375 96.1828 -256.172 96.2812 -244.478 92.9378C-232.785 89.5945 -223.351 83.4978 -223.449 69.436C-223.351 66.2894 -224.334 62.946 -225.611 58.3243Z" fill="url(#paint46_radial_2296_8367)"/>
<path fill-rule="evenodd" clip-rule="evenodd" d="M-353.751 72.2877C-353.653 71.9927 -353.653 71.7961 -353.554 71.501L-348.739 51.4409L-356.306 53.211C-358.468 53.7026 -359.549 53.9976 -360.237 54.686C-361.023 55.3743 -361.219 56.456 -361.711 58.6193L-363.971 68.0594C-365.346 73.7627 -365.838 75.6311 -366.526 76.8111C-370.26 83.5961 -375.861 84.0878 -384.312 82.0227C-392.763 79.9577 -397.578 77.106 -397.774 69.3377C-397.873 67.961 -397.48 66.0927 -396.104 60.3893L-392.566 45.6393C-392.075 43.4759 -391.78 42.3942 -392.173 41.4109C-392.468 40.4276 -393.352 39.7392 -395.023 38.2642L-401.017 33.2492L-407.11 58.7177C-407.208 59.0126 -407.208 59.2093 -407.306 59.5043C-408.387 64.126 -409.272 67.5677 -409.075 70.616C-408.584 84.6778 -398.855 90.3811 -387.063 93.2328C-375.271 96.0845 -363.971 95.3961 -357.19 83.0061C-355.716 80.3511 -354.93 76.9094 -353.751 72.2877Z" fill="url(#paint47_radial_2296_8367)"/>
<path fill-rule="evenodd" clip-rule="evenodd" d="M-215.391 99.3295C-215.391 99.6245 -215.49 99.8212 -215.49 100.116L-218.536 120.57L-211.166 118.21C-209.102 117.521 -208.021 117.226 -207.334 116.44C-206.646 115.653 -206.449 114.571 -206.154 112.408L-204.68 102.87C-203.796 97.0678 -203.501 95.1995 -202.912 93.9211C-199.767 86.8411 -194.264 85.8578 -185.617 87.2345C-176.969 88.5128 -172.056 91.0695 -171.073 98.7395C-170.877 100.116 -171.171 101.985 -172.056 107.786L-174.316 122.831C-174.611 124.995 -174.807 126.076 -174.414 127.06C-174.021 128.043 -173.137 128.633 -171.27 129.911L-164.882 134.435L-160.952 108.573C-160.952 108.278 -160.853 108.081 -160.853 107.786C-160.166 103.066 -159.576 99.6245 -159.969 96.5762C-161.64 82.5144 -171.859 77.6961 -183.848 75.9261C-195.836 74.1561 -207.039 75.7294 -212.738 88.6111C-214.114 91.1678 -214.704 94.6095 -215.391 99.3295Z" fill="url(#paint48_radial_2296_8367)"/>
<path fill-rule="evenodd" clip-rule="evenodd" d="M-98.061 201.793C-98.1593 201.597 -98.2576 201.302 -98.3558 201.105L-106.414 182.127L-111.425 188.027C-112.899 189.698 -113.587 190.583 -113.784 191.567C-113.98 192.55 -113.489 193.632 -112.604 195.598L-108.87 204.547C-106.61 209.955 -105.922 211.725 -105.726 213.102C-104.743 220.772 -108.969 224.508 -116.928 227.852C-124.888 231.195 -130.489 231.687 -135.304 225.59C-136.188 224.508 -136.975 222.837 -139.235 217.33L-145.131 203.367C-146.015 201.302 -146.408 200.318 -147.293 199.728C-148.177 199.138 -149.258 199.04 -151.42 198.942L-159.183 198.45L-148.963 222.542C-148.865 222.837 -148.767 223.033 -148.668 223.23C-146.801 227.655 -145.426 230.802 -143.559 233.26C-134.813 244.372 -123.61 243.094 -112.408 238.374C-101.206 233.653 -92.5581 226.475 -94.4252 212.413C-94.9165 209.365 -96.1939 206.12 -98.061 201.793Z" fill="url(#paint49_radial_2296_8367)"/>
</g>
<defs>
<radialGradient id="paint0_radial_2296_8367" cx="0" cy="0" r="1" gradientTransform="matrix(331.65 -0.737497 -0.475497 -214.122 -30.3555 30.1216)" gradientUnits="userSpaceOnUse">
<stop stop-color="white"/>
<stop offset="1" stop-color="white" stop-opacity="0"/>
</radialGradient>
<radialGradient id="paint1_radial_2296_8367" cx="0" cy="0" r="1" gradientTransform="matrix(331.65 -0.737497 -0.475497 -214.122 -30.3555 30.1216)" gradientUnits="userSpaceOnUse">
<stop stop-color="white"/>
<stop offset="1" stop-color="white" stop-opacity="0"/>
</radialGradient>
<radialGradient id="paint2_radial_2296_8367" cx="0" cy="0" r="1" gradientTransform="matrix(331.65 -0.737497 -0.475497 -214.122 -30.3555 30.1216)" gradientUnits="userSpaceOnUse">
<stop stop-color="white"/>
<stop offset="1" stop-color="white" stop-opacity="0"/>
</radialGradient>
<radialGradient id="paint3_radial_2296_8367" cx="0" cy="0" r="1" gradientTransform="matrix(331.65 -0.737497 -0.475497 -214.122 -30.3555 30.1216)" gradientUnits="userSpaceOnUse">
<stop stop-color="white"/>
<stop offset="1" stop-color="white" stop-opacity="0"/>
</radialGradient>
<radialGradient id="paint4_radial_2296_8367" cx="0" cy="0" r="1" gradientTransform="matrix(331.65 -0.737497 -0.475497 -214.122 -30.3555 30.1216)" gradientUnits="userSpaceOnUse">
<stop stop-color="white"/>
<stop offset="1" stop-color="white" stop-opacity="0"/>
</radialGradient>
<radialGradient id="paint5_radial_2296_8367" cx="0" cy="0" r="1" gradientTransform="matrix(331.65 -0.737497 -0.475497 -214.122 -30.3555 30.1216)" gradientUnits="userSpaceOnUse">
<stop stop-color="white"/>
<stop offset="1" stop-color="white" stop-opacity="0"/>
</radialGradient>
<radialGradient id="paint6_radial_2296_8367" cx="0" cy="0" r="1" gradientTransform="matrix(331.65 -0.737497 -0.475497 -214.122 -30.3555 30.1216)" gradientUnits="userSpaceOnUse">
<stop stop-color="white"/>
<stop offset="1" stop-color="white" stop-opacity="0"/>
</radialGradient>
<radialGradient id="paint7_radial_2296_8367" cx="0" cy="0" r="1" gradientTransform="matrix(331.65 -0.737497 -0.475497 -214.122 -30.3555 30.1216)" gradientUnits="userSpaceOnUse">
<stop stop-color="white"/>
<stop offset="1" stop-color="white" stop-opacity="0"/>
</radialGradient>
<radialGradient id="paint8_radial_2296_8367" cx="0" cy="0" r="1" gradientTransform="matrix(331.65 -0.737497 -0.475497 -214.122 -30.3555 30.1216)" gradientUnits="userSpaceOnUse">
<stop stop-color="white"/>
<stop offset="1" stop-color="white" stop-opacity="0"/>
</radialGradient>
<radialGradient id="paint9_radial_2296_8367" cx="0" cy="0" r="1" gradientTransform="matrix(331.65 -0.737497 -0.475497 -214.122 -30.3555 30.1216)" gradientUnits="userSpaceOnUse">
<stop stop-color="white"/>
<stop offset="1" stop-color="white" stop-opacity="0"/>
</radialGradient>
<radialGradient id="paint10_radial_2296_8367" cx="0" cy="0" r="1" gradientTransform="matrix(331.65 -0.737497 -0.475497 -214.122 -30.3555 30.1216)" gradientUnits="userSpaceOnUse">
<stop stop-color="white"/>
<stop offset="1" stop-color="white" stop-opacity="0"/>
</radialGradient>
<radialGradient id="paint11_radial_2296_8367" cx="0" cy="0" r="1" gradientTransform="matrix(331.65 -0.737497 -0.475497 -214.122 -30.3555 30.1216)" gradientUnits="userSpaceOnUse">
<stop stop-color="white"/>
<stop offset="1" stop-color="white" stop-opacity="0"/>
</radialGradient>
<radialGradient id="paint12_radial_2296_8367" cx="0" cy="0" r="1" gradientTransform="matrix(331.65 -0.737497 -0.475497 -214.122 -30.3555 30.1216)" gradientUnits="userSpaceOnUse">
<stop stop-color="white"/>
<stop offset="1" stop-color="white" stop-opacity="0"/>
</radialGradient>
<radialGradient id="paint13_radial_2296_8367" cx="0" cy="0" r="1" gradientTransform="matrix(331.65 -0.737497 -0.475497 -214.122 -30.3555 30.1216)" gradientUnits="userSpaceOnUse">
<stop stop-color="white"/>
<stop offset="1" stop-color="white" stop-opacity="0"/>
</radialGradient>
<radialGradient id="paint14_radial_2296_8367" cx="0" cy="0" r="1" gradientTransform="matrix(331.65 -0.737497 -0.475497 -214.122 -30.3555 30.1216)" gradientUnits="userSpaceOnUse">
<stop stop-color="white"/>
<stop offset="1" stop-color="white" stop-opacity="0"/>
</radialGradient>
<radialGradient id="paint15_radial_2296_8367" cx="0" cy="0" r="1" gradientTransform="matrix(331.65 -0.737497 -0.475497 -214.122 -30.3555 30.1216)" gradientUnits="userSpaceOnUse">
<stop stop-color="white"/>
<stop offset="1" stop-color="white" stop-opacity="0"/>
</radialGradient>
<radialGradient id="paint16_radial_2296_8367" cx="0" cy="0" r="1" gradientTransform="matrix(331.65 -0.737497 -0.475497 -214.122 -30.3555 30.1216)" gradientUnits="userSpaceOnUse">
<stop stop-color="white"/>
<stop offset="1" stop-color="white" stop-opacity="0"/>
</radialGradient>
<radialGradient id="paint17_radial_2296_8367" cx="0" cy="0" r="1" gradientTransform="matrix(331.65 -0.737497 -0.475497 -214.122 -30.3555 30.1216)" gradientUnits="userSpaceOnUse">
<stop stop-color="white"/>
<stop offset="1" stop-color="white" stop-opacity="0"/>
</radialGradient>
<radialGradient id="paint18_radial_2296_8367" cx="0" cy="0" r="1" gradientTransform="matrix(331.65 -0.737497 -0.475497 -214.122 -30.3555 30.1216)" gradientUnits="userSpaceOnUse">
<stop stop-color="white"/>
<stop offset="1" stop-color="white" stop-opacity="0"/>
</radialGradient>
<radialGradient id="paint19_radial_2296_8367" cx="0" cy="0" r="1" gradientTransform="matrix(331.65 -0.737497 -0.475497 -214.122 -30.3555 30.1216)" gradientUnits="userSpaceOnUse">
<stop stop-color="white"/>
<stop offset="1" stop-color="white" stop-opacity="0"/>
</radialGradient>
<radialGradient id="paint20_radial_2296_8367" cx="0" cy="0" r="1" gradientTransform="matrix(331.65 -0.737497 -0.475497 -214.122 -30.3555 30.1216)" gradientUnits="userSpaceOnUse">
<stop stop-color="white"/>
<stop offset="1" stop-color="white" stop-opacity="0"/>
</radialGradient>
<radialGradient id="paint21_radial_2296_8367" cx="0" cy="0" r="1" gradientTransform="matrix(331.65 -0.737497 -0.475497 -214.122 -30.3555 30.1216)" gradientUnits="userSpaceOnUse">
<stop stop-color="white"/>
<stop offset="1" stop-color="white" stop-opacity="0"/>
</radialGradient>
<radialGradient id="paint22_radial_2296_8367" cx="0" cy="0" r="1" gradientTransform="matrix(331.65 -0.737497 -0.475497 -214.122 -30.3555 30.1216)" gradientUnits="userSpaceOnUse">
<stop stop-color="white"/>
<stop offset="1" stop-color="white" stop-opacity="0"/>
</radialGradient>
<radialGradient id="paint23_radial_2296_8367" cx="0" cy="0" r="1" gradientTransform="matrix(331.65 -0.737497 -0.475497 -214.122 -30.3555 30.1216)" gradientUnits="userSpaceOnUse">
<stop stop-color="white"/>
<stop offset="1" stop-color="white" stop-opacity="0"/>
</radialGradient>
<radialGradient id="paint24_radial_2296_8367" cx="0" cy="0" r="1" gradientTransform="matrix(331.65 -0.737497 -0.475497 -214.122 -30.3555 30.1216)" gradientUnits="userSpaceOnUse">
<stop stop-color="white"/>
<stop offset="1" stop-color="white" stop-opacity="0"/>
</radialGradient>
<radialGradient id="paint25_radial_2296_8367" cx="0" cy="0" r="1" gradientTransform="matrix(331.65 -0.737497 -0.475497 -214.122 -30.3555 30.1216)" gradientUnits="userSpaceOnUse">
<stop stop-color="white"/>
<stop offset="1" stop-color="white" stop-opacity="0"/>
</radialGradient>
<radialGradient id="paint26_radial_2296_8367" cx="0" cy="0" r="1" gradientTransform="matrix(331.65 -0.737497 -0.475497 -214.122 -30.3555 30.1216)" gradientUnits="userSpaceOnUse">
<stop stop-color="white"/>
<stop offset="1" stop-color="white" stop-opacity="0"/>
</radialGradient>
<radialGradient id="paint27_radial_2296_8367" cx="0" cy="0" r="1" gradientTransform="matrix(331.65 -0.737497 -0.475497 -214.122 -30.3555 30.1216)" gradientUnits="userSpaceOnUse">
<stop stop-color="white"/>
<stop offset="1" stop-color="white" stop-opacity="0"/>
</radialGradient>
<radialGradient id="paint28_radial_2296_8367" cx="0" cy="0" r="1" gradientTransform="matrix(331.65 -0.737497 -0.475497 -214.122 -30.3555 30.1216)" gradientUnits="userSpaceOnUse">
<stop stop-color="white"/>
<stop offset="1" stop-color="white" stop-opacity="0"/>
</radialGradient>
<radialGradient id="paint29_radial_2296_8367" cx="0" cy="0" r="1" gradientTransform="matrix(331.65 -0.737497 -0.475497 -214.122 -30.3555 30.1216)" gradientUnits="userSpaceOnUse">
<stop stop-color="white"/>
<stop offset="1" stop-color="white" stop-opacity="0"/>
</radialGradient>
<radialGradient id="paint30_radial_2296_8367" cx="0" cy="0" r="1" gradientTransform="matrix(331.65 -0.737497 -0.475497 -214.122 -30.3555 30.1216)" gradientUnits="userSpaceOnUse">
<stop stop-color="white"/>
<stop offset="1" stop-color="white" stop-opacity="0"/>
</radialGradient>
<radialGradient id="paint31_radial_2296_8367" cx="0" cy="0" r="1" gradientTransform="matrix(331.65 -0.737497 -0.475497 -214.122 -30.3555 30.1216)" gradientUnits="userSpaceOnUse">
<stop stop-color="white"/>
<stop offset="1" stop-color="white" stop-opacity="0"/>
</radialGradient>
<radialGradient id="paint32_radial_2296_8367" cx="0" cy="0" r="1" gradientTransform="matrix(331.65 -0.737497 -0.475497 -214.122 -30.3555 30.1216)" gradientUnits="userSpaceOnUse">
<stop stop-color="white"/>
<stop offset="1" stop-color="white" stop-opacity="0"/>
</radialGradient>
<radialGradient id="paint33_radial_2296_8367" cx="0" cy="0" r="1" gradientTransform="matrix(331.65 -0.737497 -0.475497 -214.122 -30.3555 30.1216)" gradientUnits="userSpaceOnUse">
<stop stop-color="white"/>
<stop offset="1" stop-color="white" stop-opacity="0"/>
</radialGradient>
<radialGradient id="paint34_radial_2296_8367" cx="0" cy="0" r="1" gradientTransform="matrix(331.65 -0.737497 -0.475497 -214.122 -30.3555 30.1216)" gradientUnits="userSpaceOnUse">
<stop stop-color="white"/>
<stop offset="1" stop-color="white" stop-opacity="0"/>
</radialGradient>
<radialGradient id="paint35_radial_2296_8367" cx="0" cy="0" r="1" gradientTransform="matrix(331.65 -0.737497 -0.475497 -214.122 -30.3555 30.1216)" gradientUnits="userSpaceOnUse">
<stop stop-color="white"/>
<stop offset="1" stop-color="white" stop-opacity="0"/>
</radialGradient>
<radialGradient id="paint36_radial_2296_8367" cx="0" cy="0" r="1" gradientTransform="matrix(331.65 -0.737497 -0.475497 -214.122 -30.3555 30.1216)" gradientUnits="userSpaceOnUse">
<stop stop-color="white"/>
<stop offset="1" stop-color="white" stop-opacity="0"/>
</radialGradient>
<radialGradient id="paint37_radial_2296_8367" cx="0" cy="0" r="1" gradientTransform="matrix(331.65 -0.737497 -0.475497 -214.122 -30.3555 30.1216)" gradientUnits="userSpaceOnUse">
<stop stop-color="white"/>
<stop offset="1" stop-color="white" stop-opacity="0"/>
</radialGradient>
<radialGradient id="paint38_radial_2296_8367" cx="0" cy="0" r="1" gradientTransform="matrix(331.65 -0.737497 -0.475497 -214.122 -30.3555 30.1216)" gradientUnits="userSpaceOnUse">
<stop stop-color="white"/>
<stop offset="1" stop-color="white" stop-opacity="0"/>
</radialGradient>
<radialGradient id="paint39_radial_2296_8367" cx="0" cy="0" r="1" gradientTransform="matrix(331.65 -0.737497 -0.475497 -214.122 -30.3555 30.1216)" gradientUnits="userSpaceOnUse">
<stop stop-color="white"/>
<stop offset="1" stop-color="white" stop-opacity="0"/>
</radialGradient>
<radialGradient id="paint40_radial_2296_8367" cx="0" cy="0" r="1" gradientTransform="matrix(331.65 -0.737497 -0.475497 -214.122 -30.3555 30.1216)" gradientUnits="userSpaceOnUse">
<stop stop-color="white"/>
<stop offset="1" stop-color="white" stop-opacity="0"/>
</radialGradient>
<radialGradient id="paint41_radial_2296_8367" cx="0" cy="0" r="1" gradientTransform="matrix(331.65 -0.737497 -0.475497 -214.122 -30.3555 30.1216)" gradientUnits="userSpaceOnUse">
<stop stop-color="white"/>
<stop offset="1" stop-color="white" stop-opacity="0"/>
</radialGradient>
<radialGradient id="paint42_radial_2296_8367" cx="0" cy="0" r="1" gradientTransform="matrix(331.65 -0.737497 -0.475497 -214.122 -30.3555 30.1216)" gradientUnits="userSpaceOnUse">
<stop stop-color="white"/>
<stop offset="1" stop-color="white" stop-opacity="0"/>
</radialGradient>
<radialGradient id="paint43_radial_2296_8367" cx="0" cy="0" r="1" gradientTransform="matrix(331.65 -0.737497 -0.475497 -214.122 -30.3555 30.1216)" gradientUnits="userSpaceOnUse">
<stop stop-color="white"/>
<stop offset="1" stop-color="white" stop-opacity="0"/>
</radialGradient>
<radialGradient id="paint44_radial_2296_8367" cx="0" cy="0" r="1" gradientTransform="matrix(331.65 -0.737497 -0.475497 -214.122 -30.3555 30.1216)" gradientUnits="userSpaceOnUse">
<stop stop-color="white"/>
<stop offset="1" stop-color="white" stop-opacity="0"/>
</radialGradient>
<radialGradient id="paint45_radial_2296_8367" cx="0" cy="0" r="1" gradientTransform="matrix(331.65 -0.737497 -0.475497 -214.122 -30.3555 30.1216)" gradientUnits="userSpaceOnUse">
<stop stop-color="white"/>
<stop offset="1" stop-color="white" stop-opacity="0"/>
</radialGradient>
<radialGradient id="paint46_radial_2296_8367" cx="0" cy="0" r="1" gradientTransform="matrix(331.65 -0.737497 -0.475497 -214.122 -30.3555 30.1216)" gradientUnits="userSpaceOnUse">
<stop stop-color="white"/>
<stop offset="1" stop-color="white" stop-opacity="0"/>
</radialGradient>
<radialGradient id="paint47_radial_2296_8367" cx="0" cy="0" r="1" gradientTransform="matrix(331.65 -0.737497 -0.475497 -214.122 -30.3555 30.1216)" gradientUnits="userSpaceOnUse">
<stop stop-color="white"/>
<stop offset="1" stop-color="white" stop-opacity="0"/>
</radialGradient>
<radialGradient id="paint48_radial_2296_8367" cx="0" cy="0" r="1" gradientTransform="matrix(331.65 -0.737497 -0.475497 -214.122 -30.3555 30.1216)" gradientUnits="userSpaceOnUse">
<stop stop-color="white"/>
<stop offset="1" stop-color="white" stop-opacity="0"/>
</radialGradient>
<radialGradient id="paint49_radial_2296_8367" cx="0" cy="0" r="1" gradientTransform="matrix(331.65 -0.737497 -0.475497 -214.122 -30.3555 30.1216)" gradientUnits="userSpaceOnUse">
<stop stop-color="white"/>
<stop offset="1" stop-color="white" stop-opacity="0"/>
</radialGradient>
</defs>
</svg>
