<svg xmlns="http://www.w3.org/2000/svg" width="314" height="308" viewBox="0 0 314 308" fill="none">
    <path fill-rule="evenodd" clip-rule="evenodd" d="M-5.54925 -5.32599C-5.45527 -5.5289 -5.36428 -5.83175 -5.17035 -6.03765L3.8661 -25.0164L8.75541 -18.7598C10.1087 -16.9995 10.8352 -16.1208 10.9681 -15.0243C11.101 -13.9278 10.6311 -12.9133 9.59139 -10.8813L5.35658 -1.95065C2.71633 3.43071 1.96754 5.15388 1.71253 6.66218C0.343512 14.4066 4.46435 18.3851 12.4804 22.1471C20.4995 26.009 26.1239 26.7411 31.2451 20.6852C32.2118 19.5558 33.0635 17.9297 35.6008 12.4513L42.2879 -1.45489C43.2277 -3.4839 43.6975 -4.4984 44.5822 -5.0251C45.4668 -5.55179 46.5663 -5.58468 48.8653 -5.65347L56.7648 -5.78976L45.279 18.2645C45.185 18.4674 45.094 18.7702 44.9001 18.9761C42.8297 23.34 41.3261 26.5864 39.1959 28.9512C29.8172 39.8365 18.4595 38.0754 7.29392 32.7069C-3.87163 27.3384 -12.4042 19.6902 -9.82719 5.50677C-9.22619 2.18733 -7.61967 -0.962134 -5.54925 -5.32599Z" fill="url(#paint0_linear_3491_82313)"/>
    <path fill-rule="evenodd" clip-rule="evenodd" d="M36.4773 88.5591C36.2714 88.3652 36.1654 88.1683 35.9595 87.9744L22.5689 71.7676L30.3175 69.935C32.5046 69.4694 33.5951 69.1366 34.6066 69.5066C35.6182 69.8765 36.3448 70.7551 37.795 72.4125L44.1255 80.0266C47.9644 84.6138 49.2087 86.0773 50.4351 86.941C56.8729 91.4505 62.2136 89.3898 69.046 83.6829C75.8784 77.9761 78.9364 73.1825 75.6195 65.9784C74.9809 64.697 73.8365 63.2305 69.9946 58.5433L60.134 46.6329C58.6808 44.8756 57.9542 43.9969 57.8243 43.0003C57.6915 41.9038 58.1614 40.8893 59.0011 38.8633L62.1873 31.6648L79.208 52.165C79.4139 52.3589 79.5198 52.5558 79.7257 52.7497C82.838 56.4583 85.1208 59.1913 86.4069 62.0541C92.3022 75.1837 85.9833 84.6769 76.415 92.5666C66.8466 100.456 56.377 104.971 44.525 96.7221C41.7724 95.0037 39.5896 92.2677 36.4773 88.5591Z" fill="url(#paint1_linear_3491_82313)"/>
    <path fill-rule="evenodd" clip-rule="evenodd" d="M-33.4033 26.7213C-33.5972 26.9272 -33.6912 27.1301 -33.8851 27.336L-46.3859 44.2174L-49.8997 37.1193C-50.8591 35.1471 -51.3918 34.0626 -51.3218 33.06C-51.2547 31.9575 -50.5789 31.1369 -49.2334 29.2959L-43.3664 21.4169C-39.8086 16.6083 -38.654 15.0731 -38.1931 13.7587C-35.3128 6.3693 -38.552 1.7641 -45.7133 -3.5241C-52.7747 -8.81528 -58.2321 -10.6529 -64.3887 -5.76658C-65.5613 -4.8311 -66.7189 -3.39585 -70.2767 1.41271L-79.5105 13.7944C-80.8561 15.6355 -81.5318 16.4561 -82.5194 16.8858C-83.507 17.3155 -84.6155 17.0485 -86.8265 16.7145L-94.5709 15.3455L-78.7003 -5.93866C-78.5064 -6.14457 -78.4124 -6.34745 -78.2185 -6.55335C-75.3334 -10.4414 -73.2182 -13.3059 -70.6762 -15.2828C-59.3355 -24.1259 -48.6117 -20.1449 -38.6857 -12.7384C-28.7598 -5.3319 -21.9816 3.8695 -27.1843 17.2311C-28.403 19.9688 -30.5183 22.8333 -33.4033 26.7213Z" fill="url(#paint2_linear_3491_82313)"/>
    <path fill-rule="evenodd" clip-rule="evenodd" d="M-92.11 -82.9721C-91.8102 -82.9811 -91.6073 -82.8871 -91.3074 -82.896L-70.512 -80.0167L-75.0185 -73.479C-76.2641 -71.6409 -76.9369 -70.7204 -77.9245 -70.2906C-78.912 -69.8609 -80.0175 -70.0279 -82.2285 -70.362L-91.972 -71.6712C-97.8993 -72.4943 -99.8074 -72.7373 -101.201 -72.4955C-108.973 -71.4626 -111.523 -66.3841 -112.759 -57.5432C-113.995 -48.7023 -112.928 -43.1317 -105.732 -40.0455C-104.415 -39.4846 -102.504 -39.1416 -96.5766 -38.3185L-81.3057 -36.1743C-79.0947 -35.8402 -77.9892 -35.6732 -77.1686 -34.9975C-76.3481 -34.3217 -76.0153 -33.2312 -75.2528 -31.153L-72.7266 -23.6252L-99.0464 -27.2397C-99.3463 -27.2307 -99.5492 -27.3247 -99.8491 -27.3158C-104.671 -27.9718 -108.187 -28.4669 -111.125 -29.6796C-124.301 -35.3881 -126.039 -46.6411 -124.404 -58.8955C-122.77 -71.1499 -117.981 -81.5978 -103.729 -83.4248C-100.348 -84.1262 -96.8319 -83.6312 -92.11 -82.9721Z" fill="url(#paint3_linear_3491_82313)"/>
    <path fill-rule="evenodd" clip-rule="evenodd" d="M81.3919 -58.75C81.4009 -58.4501 81.4069 -58.2502 81.4159 -57.9503L81.0443 -36.9298L74.0308 -40.6217C71.9988 -41.6615 71.0842 -42.1343 70.4546 -43.1159C69.9279 -44.0005 69.895 -45.1001 69.9262 -47.402L70.1329 -57.2126C70.2533 -63.2189 70.1965 -65.118 69.8548 -66.5084C67.9252 -74.1542 62.4678 -75.9918 53.6598 -76.1284C44.7518 -76.262 39.3991 -74.6013 37.1245 -67.0298C36.7666 -65.6185 36.6235 -63.7134 36.503 -57.7071L36.2639 -42.293C36.2297 -40.091 36.1657 -38.8885 35.5899 -38.071C35.0171 -37.1534 34.0295 -36.7237 31.9573 -35.7613L24.8562 -32.3474L25.2602 -58.9714C25.2512 -59.2713 25.2453 -59.4712 25.2363 -59.771C25.2926 -64.5749 25.3849 -68.1793 26.2947 -71.2078C30.386 -84.9363 41.3973 -88.067 53.7068 -87.9351C66.0162 -87.8032 77.0279 -84.2309 80.5452 -70.3299C81.5405 -67.1582 81.5453 -63.6568 81.3919 -58.75Z" fill="url(#paint4_linear_3491_82313)"/>
    <path fill-rule="evenodd" clip-rule="evenodd" d="M57.2789 -296.235C57.082 -296.129 56.7851 -296.02 56.5882 -295.914L37.654 -286.744L37.7176 -294.649C37.7518 -296.851 37.7159 -298.051 38.2917 -298.868C38.8645 -299.786 39.8521 -300.216 41.9212 -301.278L50.7976 -305.545C56.2204 -308.209 57.8957 -309.059 58.9683 -309.992C64.916 -315.172 64.1458 -320.851 60.3052 -328.84C56.4646 -336.829 52.5407 -340.913 44.78 -339.481C43.3867 -339.239 41.6084 -338.485 36.1856 -335.822L22.2803 -329.103C20.2082 -328.141 19.2236 -327.611 18.2181 -327.781C17.1156 -327.848 16.292 -328.624 14.4509 -329.969L8.20412 -334.785L32.1673 -346.407C32.3642 -346.512 32.6611 -346.621 32.858 -346.727C37.1962 -348.858 40.4529 -350.356 43.5365 -350.949C57.6644 -353.572 65.4212 -345.1 70.7569 -333.955C76.0926 -322.81 77.9329 -311.46 67.2099 -302.035C64.8738 -299.864 61.6171 -298.366 57.2789 -296.235Z" fill="url(#paint5_linear_3491_82313)"/>
    <path fill-rule="evenodd" clip-rule="evenodd" d="M-79.7321 133.455C-79.6411 133.152 -79.6471 132.952 -79.5561 132.649L-74.7656 112.197L-68.7127 117.218C-66.9686 118.666 -66.148 119.342 -65.8183 120.333C-65.4885 121.323 -65.7555 122.432 -66.2894 124.649L-68.5042 134.219C-69.8301 140.061 -70.276 141.876 -70.2311 143.375C-69.8949 151.268 -65.1043 154.226 -56.4394 156.268C-47.7745 158.31 -42.1889 157.743 -38.3941 150.826C-37.7333 149.506 -37.1874 147.689 -35.8615 141.846L-32.3089 126.833C-31.7749 124.616 -31.508 123.508 -30.8292 122.787C-30.0505 122.064 -28.96 121.731 -26.7729 121.265L-19.1242 119.436L-25.1526 145.328C-25.2436 145.63 -25.2376 145.83 -25.3286 146.133C-26.3875 150.867 -27.1854 154.292 -28.7009 157.139C-35.5269 169.749 -47.0098 170.493 -59.0002 167.65C-70.9905 164.807 -80.9656 159.103 -81.5931 144.815C-81.6859 141.717 -80.8909 138.191 -79.7321 133.455Z" fill="url(#paint6_linear_3491_82313)"/>
    <path fill-rule="evenodd" clip-rule="evenodd" d="M-9.09119 100.327C-9.38807 100.436 -9.58798 100.442 -9.88485 100.551L-30.0113 106.656L-28.6423 98.9112C-28.3083 96.7002 -28.0413 95.5918 -27.3655 94.7712C-26.6898 93.9506 -25.5992 93.6179 -23.4181 92.9523L-14.0001 90.0694C-8.25058 88.2966 -6.46636 87.743 -5.18787 87.0045C1.48947 82.8029 1.61888 77.0965 -0.934299 68.6691C-3.49046 60.1417 -6.72964 55.5365 -14.6291 55.6728C-16.0285 55.7147 -17.9157 56.1713 -23.6652 57.9441L-38.4389 62.3879C-40.62 63.0534 -41.7105 63.3862 -42.7191 63.1162C-43.7276 62.8462 -44.5511 62.0705 -46.1013 60.4161L-51.5754 54.6773L-26.0932 47.0118C-25.7964 46.9028 -25.5964 46.8969 -25.2996 46.7879C-20.6406 45.348 -17.269 44.3467 -14.0704 44.251C0.326114 43.9203 6.61353 53.4365 10.171 65.3355C13.7254 77.1344 13.7695 88.6383 1.59333 96.3058C-1.0606 97.8859 -4.43217 98.8872 -9.09119 100.327Z" fill="url(#paint7_linear_3491_82313)"/>
    <path fill-rule="evenodd" clip-rule="evenodd" d="M-155.388 -1.04305C-155.294 -1.24596 -155.203 -1.5488 -155.009 -1.75471L-145.87 -20.6365L-141.081 -14.3769C-139.727 -12.6166 -139.001 -11.7379 -138.968 -10.6384C-138.835 -9.54189 -139.305 -8.52738 -140.348 -6.59534L-144.685 2.23835C-147.326 7.6197 -148.074 9.34288 -148.332 10.7512C-149.801 18.4986 -145.68 22.4771 -137.761 26.3421C-129.842 30.207 -124.118 30.9361 -118.991 25.0802C-118.024 23.9507 -117.172 22.3245 -114.532 16.9432L-107.745 3.03396C-106.805 1.00495 -106.235 -0.0125444 -105.351 -0.539236C-104.466 -1.06593 -103.367 -1.09882 -101.068 -1.16761L-93.1682 -1.3039L-104.757 22.6534C-104.851 22.8563 -105.042 23.1621 -105.136 23.365C-107.206 27.7289 -108.813 30.8784 -110.94 33.3431C-120.422 44.1315 -131.782 42.2704 -142.848 36.8989C-153.913 31.5274 -162.249 23.7732 -159.672 9.58983C-159.065 6.47027 -157.559 3.3238 -155.388 -1.04305Z" fill="url(#paint8_linear_3491_82313)"/>
    <path fill-rule="evenodd" clip-rule="evenodd" d="M-21.2567 -85.5922C-20.9568 -85.6012 -20.757 -85.6071 -20.4571 -85.6161L0.545502 -85.8443L-2.9435 -78.7368C-3.88324 -76.7078 -4.45307 -75.6903 -5.33771 -75.1636C-6.22235 -74.6369 -7.32186 -74.604 -9.62084 -74.5352L-19.5224 -74.4391C-25.5227 -74.3596 -27.4219 -74.3028 -28.8093 -73.8611C-36.349 -71.7346 -38.0867 -66.2802 -38.0204 -57.3782C-37.9542 -48.4762 -36.0935 -43.1295 -28.4311 -41.1577C-27.0197 -40.7998 -25.1176 -40.7567 -19.1173 -40.8362L-3.71519 -40.9968C-1.51618 -41.0626 -0.31371 -40.9986 0.600835 -40.5257C1.51837 -39.9529 2.04805 -38.9683 3.00745 -36.9961L6.61828 -30.001L-19.9848 -29.7052C-20.2847 -29.6963 -20.4846 -29.6903 -20.7844 -29.6813C-25.6852 -29.6347 -29.1867 -29.63 -32.2122 -30.4399C-46.1287 -34.1254 -49.5563 -45.0277 -49.6272 -57.4312C-49.7981 -69.8316 -46.6257 -80.8314 -32.7366 -84.7485C-29.6559 -85.4409 -26.0576 -85.5486 -21.2567 -85.5922Z" fill="url(#paint9_linear_3491_82313)"/>
    <path fill-rule="evenodd" clip-rule="evenodd" d="M9.9002 163.287C9.6973 163.193 9.39444 163.102 9.18855 162.908L-9.78721 153.972L-3.63058 149.086C-1.87026 147.732 -0.9916 147.006 0.104923 146.873C1.20145 146.74 2.21595 147.21 4.24496 148.15L13.1726 152.285C18.6509 154.822 20.3741 155.571 21.7824 155.829C29.5268 157.198 33.5024 152.977 37.2644 144.961C41.0263 136.945 41.7584 131.32 35.7026 126.199C34.5732 125.232 32.947 124.381 27.4686 121.843L13.4655 115.259C11.4365 114.32 10.4219 113.85 9.79529 112.968C9.16864 112.086 9.23571 110.984 9.16692 108.685L8.93067 100.788L32.9789 112.074C33.1818 112.168 33.4847 112.259 33.6906 112.453C38.0545 114.524 41.3009 116.027 43.6626 118.057C54.545 127.336 52.8838 138.691 47.6183 149.953C42.3498 161.116 34.7045 169.748 20.5241 167.271C17.5105 166.861 14.364 165.355 9.9002 163.287Z" fill="url(#paint10_linear_3491_82313)"/>
    <path fill-rule="evenodd" clip-rule="evenodd" d="M257.707 -24.1074C257.91 -24.0134 258.216 -23.8224 258.418 -23.7285L277.115 -14.0833L270.753 -9.39093C268.893 -8.0347 268.011 -7.40805 267.014 -7.27818C265.915 -7.24528 265 -7.71814 262.968 -8.75785L254.229 -13.2985C248.844 -16.0387 247.218 -16.8905 245.81 -17.1484C238.056 -18.8173 234.075 -14.7964 230.01 -6.87133C225.945 1.05377 225.01 6.5842 230.875 12.0112C231.904 12.9809 233.634 13.9296 238.918 16.6728L252.636 23.7657C254.668 24.8054 255.583 25.2783 256.212 26.2599C256.739 27.1445 256.772 28.244 256.741 30.546L256.677 38.4514L233.002 26.254C232.799 26.16 232.493 25.9691 232.29 25.8751C228.023 23.7018 224.871 21.9953 222.506 19.865C211.912 10.1775 214.076 -1.09223 219.747 -12.1668C225.421 -23.1414 233.378 -31.383 247.471 -28.5032C250.188 -27.9842 253.337 -26.3777 257.707 -24.1074Z" fill="url(#paint11_linear_3491_82313)"/>
    <path fill-rule="evenodd" clip-rule="evenodd" d="M281.727 36.4014C282.027 36.3924 282.227 36.3864 282.527 36.3774L303.487 34.7499L300.504 42.0424C299.667 44.1683 299.198 45.1828 298.416 45.8065C297.534 46.4331 296.435 46.466 294.242 46.7317L284.461 47.5246C278.473 48.0039 276.576 48.1607 275.192 48.7023C267.767 51.3255 266.432 56.8679 267.098 65.752C267.764 74.636 269.922 79.8739 277.669 81.3428C279.078 81.6008 280.977 81.544 286.965 81.0647L302.337 79.9045C304.533 79.7387 305.73 79.6029 306.647 80.1757C307.562 80.6485 308.192 81.6301 309.351 83.5964L313.456 90.3766L286.903 92.3716C286.603 92.3806 286.404 92.3866 286.104 92.3955C281.312 92.739 277.719 93.0466 274.6 92.4396C260.51 89.6597 256.389 78.9782 255.422 66.7016C254.451 54.3251 256.918 43.1463 270.48 38.3386C273.343 37.0524 276.935 36.7448 281.727 36.4014Z" fill="url(#paint12_linear_3491_82313)"/>
    <path fill-rule="evenodd" clip-rule="evenodd" d="M141.815 -2.03164C141.806 -2.33149 141.9 -2.5344 141.891 -2.83426L145.07 -23.6387L151.511 -19.0292C153.349 -17.7836 154.27 -17.1108 154.7 -16.1232C155.129 -15.1356 154.962 -14.0302 154.628 -11.8192L153.119 -2.06969C152.196 3.86056 151.953 5.76868 152.195 7.16206C153.131 15.0376 158.209 17.5869 166.953 18.926C175.697 20.2651 181.371 19.295 184.557 12.0964C185.118 10.7791 185.464 8.96795 186.384 2.93774L188.728 -12.3392C189.062 -14.5502 189.229 -15.6557 189.905 -16.4763C190.58 -17.2968 191.671 -17.6296 193.752 -18.2921L201.283 -20.7184L197.269 5.61341C197.278 5.91327 197.184 6.11618 197.193 6.41603C196.437 11.2408 195.941 14.7572 194.626 17.5978C188.814 30.6774 177.458 32.3178 165.198 30.4836C152.938 28.6495 142.587 23.7568 140.96 9.49911C140.461 6.21256 141.059 2.79312 141.815 -2.03164Z" fill="url(#paint13_linear_3491_82313)"/>
    <path fill-rule="evenodd" clip-rule="evenodd" d="M156.375 -63.7947C156.384 -63.4948 156.39 -63.2949 156.399 -62.995L158.126 -42.0373L150.737 -44.9176C148.611 -45.7544 147.599 -46.1243 146.972 -47.006C146.346 -47.8876 146.213 -48.9841 146.047 -51.1802L145.254 -60.9608C144.775 -66.9492 144.518 -68.8424 144.077 -70.2298C141.353 -77.6517 135.811 -78.9865 127.03 -78.2236C118.149 -77.4576 112.911 -75.3 111.545 -67.4556C111.287 -66.0473 111.344 -64.1481 111.923 -58.1628L113.183 -42.7936C113.349 -40.5976 113.485 -39.4011 113.012 -38.4865C112.539 -37.572 111.558 -36.9424 109.691 -35.786L102.911 -31.6814L100.716 -58.2277C100.707 -58.5275 100.701 -58.7274 100.692 -59.0273C100.249 -63.8162 99.9413 -67.4086 100.548 -70.5281C103.228 -84.6146 113.807 -88.8328 126.18 -89.9034C138.454 -90.9709 149.73 -88.607 154.734 -75.1507C155.624 -72.1759 155.928 -68.6835 156.375 -63.7947Z" fill="url(#paint14_linear_3491_82313)"/>
    <path fill-rule="evenodd" clip-rule="evenodd" d="M145.301 141.228C145.192 140.931 145.186 140.731 145.077 140.435L138.973 120.308L146.717 121.677C148.928 122.011 150.036 122.278 150.857 122.954C151.678 123.63 152.01 124.72 152.576 126.904L155.459 136.322C157.232 142.072 157.785 143.856 158.524 145.135C162.725 151.812 168.432 151.941 176.859 149.388C185.287 146.835 189.992 143.593 189.855 135.693C189.814 134.294 189.357 132.407 187.584 126.657L183.14 111.883C182.475 109.702 182.142 108.612 182.412 107.603C182.682 106.595 183.458 105.771 185.112 104.221L190.851 98.747L198.516 124.229C198.625 124.526 198.631 124.726 198.74 125.023C200.18 129.682 201.182 133.053 201.277 136.252C201.608 150.649 192.092 156.936 180.193 160.493C168.394 164.048 156.89 164.092 149.222 151.916C147.742 149.259 146.741 145.887 145.301 141.228Z" fill="url(#paint15_linear_3491_82313)"/>
    <path fill-rule="evenodd" clip-rule="evenodd" d="M119.624 118.986C119.83 119.18 119.936 119.377 120.142 119.571L133.239 135.987L125.484 137.619C123.297 138.085 122.204 138.318 121.192 137.948C120.181 137.578 119.454 136.699 118.101 134.939L111.967 127.219C108.225 122.529 106.981 121.065 105.854 120.198C99.5137 115.586 94.17 117.547 87.2316 123.057C80.2933 128.567 77.1354 133.363 80.2524 140.573C80.791 141.858 81.9384 143.424 85.6803 148.114L95.247 160.234C96.6003 161.994 97.3269 162.873 97.4597 163.969C97.5926 165.066 97.1227 166.08 96.183 168.109L92.7969 175.314L76.267 154.499C76.0611 154.305 75.9552 154.108 75.7493 153.914C72.734 150.102 70.5512 147.366 69.262 144.404C63.6636 131.165 70.1854 121.766 79.8597 114.073C89.5339 106.38 100.213 102.159 111.771 110.617C114.426 112.439 116.609 115.175 119.624 118.986Z" fill="url(#paint16_linear_3491_82313)"/>
    <path fill-rule="evenodd" clip-rule="evenodd" d="M228.632 47.3941C228.838 47.5881 229.044 47.782 229.15 47.9789L243.904 62.9444L236.373 65.3707C234.192 66.0362 233.202 66.366 232.096 66.199C231.088 65.929 230.264 65.1533 228.714 63.4989L221.801 56.5025C217.572 52.2271 216.23 50.8666 215.01 50.2028C208.187 46.205 203.062 48.7595 196.744 54.9512C190.426 61.1429 187.777 66.2244 191.685 73.1106C192.423 74.3891 193.665 75.7526 197.894 80.028L208.728 91.0089C210.275 92.5633 211.101 93.439 211.331 94.4326C211.561 95.4262 211.194 96.5376 210.457 98.6606L207.88 106.141L189.205 87.1911C188.999 86.9971 188.793 86.8032 188.587 86.6093C185.181 83.1096 182.704 80.5825 181.121 77.8286C174.144 65.3317 179.646 55.2626 188.49 46.5943C197.335 37.9259 207.478 32.5201 219.9 39.7519C222.749 41.3674 225.226 43.8945 228.632 47.3941Z" fill="url(#paint17_linear_3491_82313)"/>
    <path fill-rule="evenodd" clip-rule="evenodd" d="M66.9628 10.7126C66.8539 10.4157 66.8479 10.2158 66.739 9.91894L62.0248 -10.5492L69.6842 -8.67745C71.9011 -8.14351 72.9096 -7.87356 73.7332 -7.09785C74.4568 -6.31916 74.6896 -5.22563 75.2552 -3.04155L77.4444 6.5973C78.8203 12.4588 79.274 14.246 79.9126 15.5275C83.6234 22.5196 89.3388 22.9489 97.984 20.9895C106.629 19.03 111.443 16.0848 111.807 8.17037C111.865 6.76801 111.508 4.87781 110.132 -0.983657L106.679 -16.0872C106.214 -18.2742 105.881 -19.3647 106.251 -20.3762C106.621 -21.3878 107.499 -22.1144 109.157 -23.5646L115.207 -28.6478L121.186 -2.71498C121.294 -2.41812 121.3 -2.2182 121.409 -1.92133C122.552 2.8466 123.254 6.22713 123.15 9.43169C122.578 23.7552 112.544 29.4578 100.521 32.2186C88.4982 34.9794 77.0704 34.2208 70.1905 21.6209C68.9073 18.8581 68.1059 15.4805 66.9628 10.7126Z" fill="url(#paint18_linear_3491_82313)"/>
    <path fill-rule="evenodd" clip-rule="evenodd" d="M123.108 94.9712C122.905 94.8773 122.602 94.7863 122.299 94.6953L102.575 87.4819L108.316 82.1078C109.971 80.5577 110.75 79.8341 111.843 79.6012C112.837 79.3714 113.948 79.7384 116.074 80.5751L125.281 84.0013C130.944 86.0329 132.664 86.6817 134.169 86.8368C141.993 87.5031 145.56 82.9944 148.613 74.6994C151.666 66.4044 151.896 60.695 145.455 56.0855C144.228 55.2218 142.508 54.573 136.842 52.4415L122.375 47.0717C120.252 46.3349 119.237 45.865 118.514 45.0863C117.887 44.2047 117.754 43.1081 117.489 40.9151L116.653 33.0366L141.638 42.1935C141.941 42.2845 142.143 42.3784 142.446 42.4694C146.998 44.134 150.336 45.3347 152.894 47.2591C164.549 55.6143 163.891 67.0391 159.637 78.6715C155.383 90.3039 148.452 99.4153 134.211 98.2407C130.997 97.8366 127.66 96.6359 123.108 94.9712Z" fill="url(#paint19_linear_3491_82313)"/>
    <path fill-rule="evenodd" clip-rule="evenodd" d="M50.9415 227.589C50.7386 227.495 50.4358 227.404 50.2329 227.31L30.8813 219.185L36.829 214.005C38.4864 212.555 39.365 211.828 40.4585 211.595C41.5551 211.462 42.5666 211.832 44.5956 212.772L53.7142 216.601C59.2865 218.935 61.0067 219.584 62.412 219.742C70.2444 220.708 73.9201 216.497 77.3762 208.29C80.8323 200.083 81.2646 194.467 75.0148 189.552C73.8884 188.685 72.1622 187.836 66.5929 185.602L52.3078 179.626C50.2818 178.787 49.1673 178.32 48.5407 177.438C47.914 176.556 47.8811 175.457 47.7154 173.261L47.1793 165.373L71.6974 175.645C71.9003 175.739 72.2031 175.83 72.406 175.924C76.8639 177.791 80.1073 179.195 82.666 181.119C93.9362 189.986 92.7778 201.426 88.0151 212.773C83.2553 224.221 75.9159 233.044 61.7534 231.167C58.6428 230.86 55.4024 229.556 50.9415 227.589Z" fill="url(#paint20_linear_3491_82313)"/>
    <path fill-rule="evenodd" clip-rule="evenodd" d="M-29.2153 226.886C-29.4212 226.692 -29.6241 226.598 -29.83 226.404L-46.9993 214.312L-40.0102 210.501C-38.041 209.442 -37.0564 208.912 -35.9539 208.979C-34.8514 209.046 -33.9308 209.719 -32.0928 210.965L-24.0198 216.626C-19.1143 220.08 -17.4822 221.132 -16.1678 221.593C-8.68437 224.27 -4.18511 220.834 0.900188 213.579C5.98549 206.324 7.62319 200.872 2.63992 194.819C1.70743 193.746 0.172202 192.591 -4.73332 189.137L-17.4029 180.312C-19.241 179.066 -20.1615 178.393 -20.5912 177.406C-21.021 176.418 -20.8539 175.312 -20.5199 173.101L-19.3538 165.263L2.41217 180.519C2.61806 180.713 2.82096 180.807 3.02685 181.001C7.01183 183.783 9.87339 185.798 11.9473 188.237C21.0813 199.269 17.506 210.181 10.4054 220.298C3.30476 230.415 -5.68479 237.587 -19.2373 232.69C-22.3688 231.683 -25.2303 229.668 -29.2153 226.886Z" fill="url(#paint21_linear_3491_82313)"/>
    <path fill-rule="evenodd" clip-rule="evenodd" d="M41.1695 245.389C41.3724 245.483 41.6783 245.674 41.8812 245.768L59.9142 256.633L53.2368 260.835C51.3706 261.991 50.389 262.621 49.2895 262.654C48.1899 262.687 47.2724 262.114 45.3374 260.971L36.8826 255.922C31.6892 252.876 30.06 251.924 28.6486 251.566C21.0832 249.491 16.7928 253.221 12.2163 260.762C7.63973 268.302 6.40784 273.941 11.8789 279.58C12.9114 280.65 14.4406 281.605 19.637 284.751L32.8794 292.658C34.8144 293.801 35.732 294.373 36.2617 295.358C36.7914 296.343 36.6243 297.448 36.4902 299.653L35.9268 307.574L13.1092 293.95C12.9063 293.856 12.6005 293.665 12.3976 293.571C8.22163 291.095 5.16616 289.285 2.99532 286.949C-6.92038 276.541 -4.15073 265.453 2.23525 254.858C8.62123 244.262 17.0931 236.505 30.9155 240.393C33.9381 241.103 36.9936 242.913 41.1695 245.389Z" fill="url(#paint22_linear_3491_82313)"/>
    <path fill-rule="evenodd" clip-rule="evenodd" d="M90.9133 292.923C90.7104 292.829 90.4075 292.738 90.2046 292.644L70.5771 285.327L76.3189 279.953C77.9733 278.403 78.752 277.679 79.8455 277.447C80.8391 277.217 81.9506 277.584 84.0765 278.421L93.2831 281.847C98.9494 283.978 100.667 284.527 102.172 284.682C109.995 285.349 113.565 280.94 116.718 272.642C119.872 264.344 120.101 258.634 113.66 254.025C112.534 253.158 110.714 252.512 105.147 250.378L90.6803 245.008C88.5573 244.271 87.5428 243.801 86.9191 243.02C86.2925 242.138 86.1596 241.042 85.8939 238.849L85.0579 230.97L109.949 240.33C110.252 240.421 110.455 240.515 110.658 240.609C115.209 242.273 118.55 243.574 121.106 245.398C132.764 253.854 132.005 265.281 127.648 276.817C123.291 288.352 116.161 297.47 101.916 296.195C98.7056 295.891 95.4651 294.587 90.9133 292.923Z" fill="url(#paint23_linear_3491_82313)"/>
    <path fill-rule="evenodd" clip-rule="evenodd" d="M189.075 213.251C188.969 213.054 188.763 212.86 188.654 212.564L176.436 195.421L184.202 194.189C186.392 193.823 187.489 193.69 188.5 194.06C189.512 194.43 190.142 195.411 191.395 197.175L197.138 205.207C200.586 210.106 201.73 211.572 202.859 212.539C209.012 217.557 214.362 215.796 221.612 210.677C228.862 205.558 232.226 200.955 229.503 193.533C228.961 192.149 227.914 190.58 224.466 185.681L215.484 173.044C214.228 171.18 213.501 170.302 213.468 169.202C213.435 168.103 213.908 167.188 214.948 165.156L218.64 158.143L234.094 179.79C234.3 179.984 234.409 180.281 234.515 180.478C237.333 184.395 239.422 187.334 240.511 190.303C245.416 203.762 238.385 212.876 228.293 219.981C218.204 227.186 207.308 230.814 196.232 221.741C193.882 220.111 191.896 217.269 189.075 213.251Z" fill="url(#paint24_linear_3491_82313)"/>
    <path fill-rule="evenodd" clip-rule="evenodd" d="M185.723 -42.5628C185.517 -42.7568 185.314 -42.8507 185.108 -43.0446L168.515 -55.9542L175.616 -59.3681C177.688 -60.3305 178.672 -60.8602 179.678 -60.6902C180.78 -60.6231 181.604 -59.8474 183.345 -58.4988L191.13 -52.4289C195.842 -48.7682 197.377 -47.6136 198.694 -47.0528C205.987 -44.0695 210.695 -47.2117 216.189 -54.1791C221.683 -61.1466 223.524 -66.504 218.831 -72.8665C217.996 -74.0421 216.56 -75.1997 211.746 -78.9573L199.558 -88.3971C197.817 -89.7456 196.897 -90.4184 196.567 -91.409C196.237 -92.3995 196.404 -93.505 196.838 -95.719L198.407 -103.469L219.403 -87.19C219.609 -86.9961 219.812 -86.9021 220.018 -86.7082C223.809 -83.7202 226.673 -81.605 228.55 -79.06C237.1 -67.5105 233.016 -56.8836 225.406 -47.0516C217.797 -37.2196 208.489 -30.6384 195.219 -36.144C192.381 -37.3596 189.514 -39.5748 185.723 -42.5628Z" fill="url(#paint25_linear_3491_82313)"/>
    <path fill-rule="evenodd" clip-rule="evenodd" d="M267.692 112.355C267.898 112.549 268.104 112.743 268.21 112.94L282.864 127.908L275.333 130.335C273.152 131 272.162 131.33 271.053 131.063C270.045 130.793 269.221 130.017 267.671 128.363L260.759 121.366C256.529 117.091 255.188 115.731 253.967 115.067C247.145 111.069 242.019 113.623 235.701 119.815C229.383 126.007 226.734 131.088 230.542 137.978C231.281 139.256 232.522 140.62 236.752 144.895L247.588 155.976C249.138 157.63 249.962 158.406 250.191 159.399C250.421 160.393 250.054 161.505 249.317 163.628L246.74 171.108L228.162 152.055C227.956 151.861 227.75 151.667 227.644 151.47C224.238 147.971 221.761 145.443 220.278 142.687C213.298 130.09 218.903 120.118 227.747 111.449C236.592 102.781 246.738 97.4751 259.16 104.707C261.809 106.328 264.286 108.855 267.692 112.355Z" fill="url(#paint26_linear_3491_82313)"/>
    <path fill-rule="evenodd" clip-rule="evenodd" d="M39.3304 -250.778C39.3393 -250.478 39.2453 -250.275 39.2543 -249.975L36.7777 -229.092L30.1461 -233.396C28.308 -234.641 27.2905 -235.211 26.8608 -236.199C26.4311 -237.186 26.4981 -238.289 26.8321 -240.5L27.9414 -250.237C28.6646 -256.161 28.8077 -258.067 28.5629 -259.56C27.3301 -267.327 22.2546 -269.776 13.4196 -270.812C4.58468 -271.848 -0.982919 -270.681 -3.96616 -263.389C-4.52702 -262.071 -4.77007 -260.163 -5.49321 -254.239L-7.33461 -238.877C-7.56869 -236.669 -7.73572 -235.564 -8.41148 -234.743C-9.08723 -233.923 -10.1748 -233.49 -12.2529 -232.727L-19.6748 -230.004L-16.5631 -256.409C-16.572 -256.709 -16.4781 -256.912 -16.487 -257.212C-15.9309 -262.03 -15.5358 -265.544 -14.3231 -268.481C-8.91745 -281.749 2.42661 -283.789 14.675 -282.355C26.9233 -280.92 37.4652 -276.334 39.6891 -262.194C40.2816 -259.11 39.8865 -255.597 39.3304 -250.778Z" fill="url(#paint27_linear_3491_82313)"/>
    <path fill-rule="evenodd" clip-rule="evenodd" d="M47.1597 -162.973C46.8599 -162.964 46.657 -163.058 46.3571 -163.049L25.4857 -165.126L29.6893 -171.754C30.9319 -173.692 31.5047 -174.61 32.4923 -175.04C33.4799 -175.469 34.5824 -175.402 36.7904 -175.168L46.6249 -174.162C52.6461 -173.542 54.4513 -173.396 55.9446 -173.64C63.7083 -174.973 66.0546 -180.146 66.891 -188.975C67.7273 -197.804 66.5603 -203.371 59.1738 -206.151C57.8565 -206.712 55.9483 -206.955 49.9301 -207.476L34.5771 -209.017C32.3691 -209.251 31.2666 -209.318 30.3461 -209.991C29.5255 -210.667 29.0958 -211.654 28.3303 -213.833L25.5072 -221.251L52 -218.542C52.2999 -218.551 52.5028 -218.457 52.8027 -218.466C57.6185 -218.01 61.1319 -217.615 64.0665 -216.502C77.428 -211.3 79.6651 -200.062 78.3337 -187.716C77.1023 -175.374 72.7154 -164.838 58.5816 -162.414C55.4889 -162.122 51.9755 -162.517 47.1597 -162.973Z" fill="url(#paint28_linear_3491_82313)"/>
    <path fill-rule="evenodd" clip-rule="evenodd" d="M-35.4008 -254.045C-35.3918 -253.745 -35.3858 -253.545 -35.3768 -253.245L-33.7493 -232.284L-41.0417 -235.267C-43.1677 -236.104 -44.1822 -236.574 -44.8059 -237.356C-45.4325 -238.238 -45.5654 -239.334 -45.7311 -241.53L-46.524 -251.311C-47.0033 -257.299 -47.1601 -259.195 -47.7017 -260.58C-50.4249 -268.001 -55.9673 -269.336 -64.7514 -268.673C-73.5355 -268.01 -78.8703 -265.75 -80.3392 -258.002C-80.5972 -256.594 -80.5404 -254.695 -80.0611 -248.707L-78.8009 -233.337C-78.6352 -231.141 -78.4993 -229.945 -78.9722 -229.03C-79.445 -228.116 -80.4266 -227.486 -82.2929 -226.33L-89.0732 -222.225L-91.1681 -248.774C-91.1771 -249.074 -91.1831 -249.274 -91.192 -249.574C-91.5355 -254.366 -91.8431 -257.958 -91.2361 -261.078C-88.5561 -275.164 -77.8776 -279.386 -65.5011 -280.356C-53.1246 -281.327 -41.9488 -278.96 -37.0411 -265.401C-36.0518 -262.429 -35.7472 -258.936 -35.4008 -254.045Z" fill="url(#paint29_linear_3491_82313)"/>
    <path fill-rule="evenodd" clip-rule="evenodd" d="M-83.3016 -360.36C-83.5075 -360.554 -83.7104 -360.647 -84.0163 -360.838L-101.473 -372.522L-94.5873 -376.429C-92.6211 -377.589 -91.6365 -378.118 -90.6339 -378.048C-89.5314 -377.981 -88.6139 -377.408 -86.7758 -376.163L-78.6089 -370.705C-73.6064 -367.353 -71.9773 -366.401 -70.6629 -365.94C-63.1854 -363.463 -58.6892 -366.999 -53.8068 -374.348C-48.9244 -381.697 -47.3896 -387.246 -52.5698 -393.193C-53.5023 -394.266 -55.0375 -395.42 -60.037 -398.672L-72.8975 -407.192C-74.7356 -408.437 -75.6532 -409.01 -76.1828 -409.995C-76.6126 -410.982 -76.4456 -412.088 -76.2115 -414.296L-75.2453 -422.128L-53.0944 -407.384C-52.8885 -407.19 -52.6856 -407.096 -52.3798 -406.905C-48.2978 -404.226 -45.4363 -402.211 -43.2655 -399.875C-33.8376 -389.052 -37.2099 -378.046 -44.0047 -367.738C-50.8994 -357.427 -59.6861 -350.161 -73.3266 -354.655C-76.2582 -355.668 -79.2197 -357.68 -83.3016 -360.36Z" fill="url(#paint30_linear_3491_82313)"/>
    <path fill-rule="evenodd" clip-rule="evenodd" d="M-85.004 -296.88C-85.1979 -296.674 -85.3919 -296.469 -85.5858 -296.263L-100.551 -281.508L-102.978 -289.039C-103.643 -291.22 -104.073 -292.208 -103.806 -293.316C-103.536 -294.325 -102.76 -295.149 -101.206 -296.696L-94.2093 -303.608C-89.9339 -307.838 -88.6734 -309.176 -87.9126 -310.499C-84.0148 -317.319 -86.5692 -322.445 -92.7609 -328.763C-98.9526 -335.08 -104.031 -337.629 -110.92 -333.822C-112.199 -333.083 -113.562 -331.842 -117.838 -327.612L-128.819 -316.779C-130.373 -315.232 -131.249 -314.405 -132.242 -314.175C-133.236 -313.945 -134.347 -314.312 -136.47 -315.049L-143.951 -317.627L-125.001 -336.302C-124.807 -336.508 -124.613 -336.714 -124.419 -336.919C-121.019 -340.323 -118.492 -342.799 -115.738 -344.382C-103.241 -351.359 -93.1754 -345.958 -84.407 -337.116C-75.6387 -328.274 -70.3359 -318.228 -77.4647 -305.71C-79.0772 -302.76 -81.6043 -300.283 -85.004 -296.88Z" fill="url(#paint31_linear_3491_82313)"/>
    <path fill-rule="evenodd" clip-rule="evenodd" d="M-33.12 -127.656C-33.0111 -127.359 -33.0051 -127.159 -32.8962 -126.863L-27.7851 -106.506L-35.5385 -108.175C-37.7524 -108.609 -38.8609 -108.876 -39.5845 -109.655C-40.3081 -110.434 -40.6409 -111.524 -41.2065 -113.708L-43.5926 -123.241C-45.0685 -129.1 -45.5221 -130.887 -46.2607 -132.165C-50.1684 -139.051 -55.7809 -139.384 -64.4201 -137.224C-73.0594 -135.065 -77.8705 -132.02 -78.0341 -124.111C-78.0921 -122.709 -77.6355 -120.822 -76.1596 -114.963L-72.4125 -100.069C-71.847 -97.8847 -71.6142 -96.7912 -71.8841 -95.7827C-72.254 -94.7712 -73.0327 -94.0476 -74.7901 -92.5944L-80.7378 -87.4142L-87.2128 -113.232C-87.3217 -113.529 -87.3277 -113.729 -87.4366 -114.026C-88.5768 -118.694 -89.4811 -122.168 -89.3769 -125.373C-89.1048 -139.687 -79.1768 -145.587 -67.2629 -148.645C-55.2491 -151.705 -43.8273 -151.147 -36.7505 -138.653C-35.1644 -135.799 -34.3631 -132.421 -33.12 -127.656Z" fill="url(#paint32_linear_3491_82313)"/>
    <path fill-rule="evenodd" clip-rule="evenodd" d="M-25.4743 -216.525C-25.1744 -216.534 -24.9745 -216.54 -24.6746 -216.549L-3.70195 -217.776L-6.78515 -210.481C-7.62493 -208.455 -8.09183 -207.34 -8.97647 -206.814C-9.85812 -206.187 -10.9576 -206.154 -13.2536 -205.985L-23.0403 -205.392C-29.0316 -205.013 -30.9277 -204.856 -32.3152 -204.415C-39.743 -201.891 -41.2778 -196.343 -40.7147 -187.556C-40.1487 -178.669 -38.0911 -173.428 -30.3377 -171.759C-28.9293 -171.501 -27.0302 -171.558 -21.0359 -171.837L-5.6577 -172.798C-3.46168 -172.963 -2.2622 -172.999 -1.34766 -172.526C-0.433114 -172.054 0.19653 -171.072 1.25589 -169.103L5.16358 -162.217L-21.4006 -160.621C-21.7005 -160.612 -21.9004 -160.606 -22.2003 -160.598C-26.9951 -160.354 -30.5875 -160.046 -33.7101 -160.753C-47.7055 -163.736 -51.7298 -174.521 -52.3975 -186.806C-53.1682 -199.189 -50.4985 -210.273 -36.9332 -214.981C-33.8645 -216.073 -30.3691 -216.278 -25.4743 -216.525Z" fill="url(#paint33_linear_3491_82313)"/>
    <path fill-rule="evenodd" clip-rule="evenodd" d="M-125.267 -274.966C-125.064 -274.872 -124.758 -274.681 -124.555 -274.587L-105.767 -265.245L-112.127 -260.453C-113.887 -259.1 -114.869 -258.47 -115.865 -258.34C-116.962 -258.207 -117.879 -258.78 -119.908 -259.72L-128.745 -264.158C-134.126 -266.798 -135.852 -267.647 -137.261 -267.905C-145.011 -269.473 -148.99 -265.353 -152.955 -257.431C-156.919 -249.508 -157.752 -243.881 -151.89 -238.554C-150.86 -237.584 -149.134 -236.736 -143.75 -233.995L-129.937 -227.105C-127.905 -226.066 -126.891 -225.596 -126.364 -224.711C-125.838 -223.826 -125.805 -222.727 -125.836 -220.425L-125.799 -212.523L-149.569 -224.517C-149.772 -224.611 -150.078 -224.802 -150.28 -224.896C-154.647 -227.066 -157.797 -228.673 -160.162 -230.803C-170.853 -240.388 -168.889 -251.651 -163.318 -262.723C-157.746 -273.795 -149.892 -282.133 -135.803 -279.353C-132.783 -278.743 -129.634 -277.137 -125.267 -274.966Z" fill="url(#paint34_linear_3491_82313)"/>
    <path fill-rule="evenodd" clip-rule="evenodd" d="M-85.3218 -210.532C-85.1189 -210.438 -84.8131 -210.247 -84.6102 -210.153L-66.2982 -199.996L-72.8666 -195.498C-74.7299 -194.242 -75.6115 -193.615 -76.7111 -193.582C-77.8106 -193.549 -78.7281 -194.122 -80.7601 -195.162L-89.4058 -199.905C-94.6962 -202.848 -96.3224 -203.7 -97.7338 -204.058C-105.393 -205.93 -109.581 -202.103 -113.848 -194.272C-118.116 -186.441 -119.251 -180.904 -113.583 -175.371C-112.553 -174.402 -110.924 -173.45 -105.634 -170.507L-92.1036 -163.008C-90.1715 -161.965 -89.1541 -161.396 -88.6244 -160.411C-88.0977 -159.526 -88.1618 -158.324 -88.2959 -156.119L-88.6593 -148.204L-111.956 -161.114C-112.159 -161.208 -112.465 -161.398 -112.667 -161.492C-116.94 -163.866 -119.993 -165.575 -122.261 -167.808C-132.467 -177.908 -130.1 -189.083 -124.02 -199.87C-117.94 -210.657 -109.777 -218.704 -95.8697 -215.319C-92.6472 -214.615 -89.4917 -212.808 -85.3218 -210.532Z" fill="url(#paint35_linear_3491_82313)"/>
    <path fill-rule="evenodd" clip-rule="evenodd" d="M-26.1844 -347.262C-25.8845 -347.271 -25.6816 -347.177 -25.3818 -347.186L-4.51331 -345.209L-8.71397 -338.48C-9.85661 -336.545 -10.5294 -335.625 -11.414 -335.098C-12.4016 -334.668 -13.5041 -334.735 -15.7121 -334.97L-25.5436 -335.876C-31.5619 -336.396 -33.367 -336.542 -34.8604 -336.297C-42.621 -334.865 -44.8674 -329.695 -45.7037 -320.866C-46.5401 -312.037 -45.2731 -306.473 -37.8866 -303.692C-36.5693 -303.132 -34.6642 -302.988 -28.6429 -302.368L-13.2929 -300.927C-11.085 -300.693 -9.98245 -300.626 -9.06192 -299.953C-8.24134 -299.277 -7.81162 -298.289 -6.94917 -296.214L-4.12903 -288.895L-30.516 -291.407C-30.8158 -291.398 -31.0187 -291.492 -31.3186 -291.483C-36.1344 -291.94 -39.6448 -292.235 -42.6793 -293.344C-56.1379 -298.444 -58.3749 -309.682 -57.2405 -321.922C-56.106 -334.161 -51.8251 -344.894 -37.6942 -347.418C-34.5106 -348.013 -31.0002 -347.718 -26.1844 -347.262Z" fill="url(#paint36_linear_3491_82313)"/>
    <path fill-rule="evenodd" clip-rule="evenodd" d="M-13.4403 -121.942C-13.4493 -122.242 -13.4553 -122.442 -13.4642 -122.742L-15.1918 -143.7L-7.79933 -140.719C-5.67335 -139.882 -4.66185 -139.513 -4.03519 -138.631C-3.40854 -137.749 -3.2757 -136.653 -3.10994 -134.457L-2.31709 -124.676C-1.83779 -118.688 -1.58104 -116.795 -1.13936 -115.407C1.58382 -107.985 7.1262 -106.65 15.9073 -107.413C24.7884 -108.179 30.0262 -110.337 31.3952 -118.081C31.6532 -119.49 31.5964 -121.389 31.0171 -127.374L29.7569 -142.743C29.5912 -144.939 29.4554 -146.136 29.9282 -147.05C30.4011 -147.965 31.3827 -148.595 33.2489 -149.751L40.0292 -153.855L42.2241 -127.309C42.2331 -127.009 42.239 -126.809 42.248 -126.51C42.6914 -121.721 42.999 -118.128 42.392 -115.009C39.7121 -100.922 29.0335 -96.7011 16.76 -95.6336C4.48642 -94.566 -6.78932 -96.9299 -11.697 -110.489C-12.6893 -113.561 -12.9969 -117.153 -13.4403 -121.942Z" fill="url(#paint37_linear_3491_82313)"/>
    <path fill-rule="evenodd" clip-rule="evenodd" d="M90.1242 -97.9287C89.8243 -97.9197 89.6244 -97.9137 89.3245 -97.9047L68.3429 -96.9769L71.529 -104.175C72.4688 -106.204 72.9387 -107.219 73.8203 -107.846C74.702 -108.472 75.8015 -108.505 78.1004 -108.574L87.993 -108.97C93.9873 -109.249 95.8835 -109.406 97.2709 -109.848C104.802 -112.274 106.339 -117.722 105.973 -126.615C105.607 -135.509 103.55 -140.749 95.8932 -142.521C94.4818 -142.879 92.5827 -142.822 86.5884 -142.543L71.2012 -141.882C69.0022 -141.817 67.8027 -141.781 66.8882 -142.254C65.9736 -142.726 65.444 -143.711 64.2846 -145.677L60.4769 -152.566L87.056 -153.662C87.3559 -153.671 87.5558 -153.677 87.8557 -153.686C92.7505 -153.932 96.2489 -154.037 99.3715 -153.33C113.373 -150.147 117.1 -139.254 117.668 -126.965C118.236 -114.677 115.369 -103.486 101.695 -99.0752C98.5174 -98.2798 94.919 -98.1722 90.1242 -97.9287Z" fill="url(#paint38_linear_3491_82313)"/>
    <path fill-rule="evenodd" clip-rule="evenodd" d="M252.727 -284.175C252.933 -283.981 253.136 -283.887 253.442 -283.696L270.802 -271.91L263.916 -268.002C261.947 -266.943 260.965 -266.313 259.962 -266.383C258.86 -266.45 257.942 -267.023 256.101 -268.369L247.931 -273.927C242.929 -277.279 241.397 -278.333 239.982 -278.791C232.502 -281.369 228.006 -277.833 223.023 -270.48C218.041 -263.128 216.503 -257.68 221.586 -251.629C222.519 -250.556 224.054 -249.402 229.057 -246.05L241.823 -237.328C243.661 -236.082 244.582 -235.409 245.012 -234.422C245.441 -233.434 245.274 -232.329 245.04 -230.121L243.974 -222.285L221.917 -237.232C221.711 -237.426 221.508 -237.52 221.203 -237.711C217.221 -240.393 214.259 -242.406 212.185 -244.845C202.854 -255.771 206.33 -266.679 213.224 -276.99C220.119 -287.301 229.109 -294.473 242.652 -289.876C245.781 -288.969 248.742 -286.957 252.727 -284.175Z" fill="url(#paint39_linear_3491_82313)"/>
    <path fill-rule="evenodd" clip-rule="evenodd" d="M253.75 -179.759C253.544 -179.953 253.438 -180.149 253.232 -180.343L239.548 -196.341L247.194 -198.271C249.378 -198.836 250.471 -199.069 251.48 -198.799C252.491 -198.429 253.215 -197.651 254.668 -195.893L261.096 -188.382C265.034 -183.798 266.276 -182.434 267.502 -181.571C274.037 -177.164 279.275 -179.322 286.004 -185.126C292.734 -190.929 295.692 -195.72 292.375 -202.924C291.736 -204.206 290.592 -205.672 286.653 -210.256L276.598 -221.961C275.148 -223.618 274.421 -224.497 274.289 -225.593C274.156 -226.69 274.526 -227.701 275.465 -229.73L278.549 -237.026L295.86 -216.835C296.066 -216.641 296.172 -216.444 296.378 -216.25C299.49 -212.541 301.87 -209.911 303.156 -207.048C309.248 -194.025 303.032 -184.435 293.67 -176.351C284.307 -168.267 273.741 -163.649 261.895 -171.699C259.242 -173.42 256.962 -176.053 253.75 -179.759Z" fill="url(#paint40_linear_3491_82313)"/>
    <path fill-rule="evenodd" clip-rule="evenodd" d="M160.998 -287.133C161.297 -287.142 161.497 -287.148 161.797 -287.157L182.782 -287.985L179.496 -280.783C178.556 -278.754 178.086 -277.74 177.204 -277.113C176.323 -276.486 175.223 -276.454 172.924 -276.385L163.032 -275.989C157.037 -275.709 155.138 -275.652 153.751 -275.211C146.22 -272.784 144.682 -267.336 145.048 -258.443C145.415 -249.55 147.372 -244.306 155.132 -242.437C156.543 -242.079 158.442 -242.136 164.436 -242.416L179.923 -243.079C182.122 -243.145 183.322 -243.181 184.237 -242.708C185.151 -242.235 185.681 -241.25 186.74 -239.281L190.548 -232.392L163.969 -231.297C163.669 -231.288 163.469 -231.282 163.169 -231.273C158.274 -231.026 154.776 -230.922 151.653 -231.629C137.649 -234.911 133.924 -245.705 133.454 -258.096C132.983 -270.488 135.752 -281.575 149.427 -285.986C152.604 -286.782 156.1 -286.986 160.998 -287.133Z" fill="url(#paint41_linear_3491_82313)"/>
    <path fill-rule="evenodd" clip-rule="evenodd" d="M162.844 -362.522C162.544 -362.513 162.347 -362.407 162.047 -362.398L141.47 -357.981L143.442 -365.643C143.976 -367.86 144.246 -368.868 145.024 -369.592C145.803 -370.316 146.897 -370.548 149.084 -371.014L158.726 -373.103C164.59 -374.379 166.477 -374.836 167.759 -375.475C174.754 -379.085 175.383 -384.807 173.523 -393.455C171.664 -402.103 168.816 -407.02 160.898 -407.484C159.496 -407.542 157.606 -407.185 151.738 -406.009L136.629 -402.756C134.442 -402.29 133.348 -402.057 132.337 -402.427C131.325 -402.797 130.599 -403.676 129.245 -405.436L124.359 -411.593L150.404 -417.174C150.704 -417.183 150.901 -417.289 151.2 -417.298C155.971 -418.341 159.452 -419.046 162.559 -418.838C176.892 -417.967 182.395 -407.927 184.956 -395.898C187.519 -383.769 186.561 -372.335 173.852 -365.752C171.092 -364.369 167.615 -363.565 162.844 -362.522Z" fill="url(#paint42_linear_3491_82313)"/>
    <path fill-rule="evenodd" clip-rule="evenodd" d="M97.129 -308.532C97.0231 -308.729 96.8142 -309.023 96.7083 -309.22L84.784 -326.571L92.6536 -327.707C94.8466 -327.973 95.9401 -328.206 96.9546 -327.736C97.9691 -327.266 98.5958 -326.384 99.8521 -324.521L105.398 -316.383C108.849 -311.384 109.893 -309.915 111.023 -308.948C117.079 -303.827 122.531 -305.491 129.784 -310.51C137.138 -315.532 140.504 -320.035 137.981 -327.463C137.539 -328.85 136.492 -330.419 133.044 -335.318L124.259 -348.061C123.003 -349.925 122.376 -350.806 122.343 -351.906C122.31 -353.005 122.883 -353.923 123.923 -355.955L127.718 -362.871L142.781 -340.912C142.887 -340.715 143.096 -340.421 143.202 -340.224C145.923 -336.204 148.012 -333.265 149.001 -330.293C153.709 -316.728 146.473 -307.808 136.378 -300.803C126.183 -293.795 115.283 -290.267 104.301 -299.543C101.936 -301.673 99.9474 -304.615 97.129 -308.532Z" fill="url(#paint43_linear_3491_82313)"/>
    <path fill-rule="evenodd" clip-rule="evenodd" d="M182.209 -106.486C182.015 -106.28 181.819 -106.175 181.625 -105.969L165.727 -92.2871L163.797 -99.9328C163.232 -102.117 162.999 -103.21 163.269 -104.219C163.639 -105.23 164.417 -105.954 166.175 -107.407L173.686 -113.835C178.27 -117.774 179.634 -119.015 180.497 -120.241C184.904 -126.776 182.746 -132.014 176.942 -138.743C171.139 -145.473 166.348 -148.431 159.147 -145.014C157.865 -144.375 156.399 -143.231 151.815 -139.292L140.11 -129.238C138.453 -127.787 137.574 -127.061 136.481 -126.828C135.384 -126.695 134.373 -127.065 132.344 -128.005L125.048 -131.088L145.239 -148.399C145.433 -148.605 145.63 -148.711 145.824 -148.917C149.53 -152.129 152.163 -154.409 155.026 -155.695C168.049 -161.788 177.636 -155.672 185.723 -146.209C193.81 -136.747 198.422 -126.38 190.375 -114.434C188.648 -111.981 185.915 -109.699 182.209 -106.486Z" fill="url(#paint44_linear_3491_82313)"/>
    <path fill-rule="evenodd" clip-rule="evenodd" d="M224.6 -180.987C224.506 -180.785 224.315 -180.479 224.221 -180.276L213.865 -161.958L209.466 -168.529C208.21 -170.393 207.583 -171.274 207.55 -172.374C207.517 -173.473 208.09 -174.391 209.133 -176.323L213.979 -184.872C216.926 -190.062 217.774 -191.788 218.132 -193.199C220.004 -200.859 216.177 -205.046 208.543 -209.42C200.809 -213.791 195.272 -214.926 189.639 -209.255C188.57 -208.222 187.618 -206.593 184.672 -201.402L177.07 -187.969C175.928 -186.034 175.458 -185.02 174.473 -184.49C173.589 -183.963 172.386 -184.027 170.181 -184.161L162.267 -184.525L175.379 -207.727C175.473 -207.93 175.664 -208.236 175.758 -208.439C178.131 -212.712 179.84 -215.764 182.073 -218.032C192.173 -228.239 203.355 -225.672 214.141 -219.592C224.928 -213.512 232.879 -205.246 229.393 -191.335C228.683 -188.313 226.974 -185.26 224.6 -180.987Z" fill="url(#paint45_linear_3491_82313)"/>
    <path fill-rule="evenodd" clip-rule="evenodd" d="M79.0738 -229.857C78.7709 -229.948 78.571 -229.942 78.2681 -230.033L57.9037 -235.226L63.0279 -241.182C64.4764 -242.927 65.2521 -243.75 66.2427 -244.08C67.2333 -244.41 68.3418 -244.143 70.5587 -243.609L80.1352 -241.194C85.9835 -239.668 87.7946 -239.322 89.294 -239.367C97.1934 -239.503 100.251 -244.297 102.393 -252.965C104.538 -261.533 104.168 -267.224 97.3479 -271.122C96.1245 -271.886 94.3103 -272.332 88.4621 -273.858L73.4432 -277.61C71.2262 -278.144 70.2177 -278.414 69.3941 -279.19C68.6705 -279.968 68.4377 -281.062 67.9721 -283.249L66.2395 -291.001L92.0463 -284.47C92.3492 -284.379 92.5491 -284.385 92.852 -284.294C97.5888 -283.135 101.017 -282.237 103.767 -280.618C116.286 -273.49 116.726 -262.098 113.684 -250.101C110.641 -238.105 104.731 -228.324 90.4345 -227.996C87.2389 -227.8 83.8105 -228.698 79.0738 -229.857Z" fill="url(#paint46_linear_3491_82313)"/>
    <path fill-rule="evenodd" clip-rule="evenodd" d="M89.3677 -360.624C89.0708 -360.515 88.8709 -360.509 88.574 -360.4L68.3297 -354.892L69.8986 -362.642C70.3326 -364.856 70.5996 -365.965 71.2783 -366.685C71.9541 -367.506 73.0476 -367.739 75.2317 -368.304L84.7586 -370.89C90.5141 -372.463 92.3983 -373.02 93.5769 -373.755C100.36 -377.76 100.689 -383.472 98.3332 -392.006C95.9769 -400.539 92.9317 -405.35 85.0292 -405.314C83.6269 -405.372 81.7397 -404.915 75.9842 -403.342L61.0985 -399.295C58.9145 -398.73 57.8239 -398.397 56.8124 -398.767C55.8039 -399.037 55.0773 -399.916 53.5271 -401.57L48.247 -407.515L73.95 -414.487C74.2469 -414.595 74.4468 -414.601 74.7436 -414.71C79.4086 -415.95 82.8802 -416.955 85.9848 -416.848C100.293 -416.775 106.387 -407.053 109.644 -395.145C112.902 -383.237 112.546 -371.722 100.158 -364.448C97.5042 -362.868 94.0297 -361.964 89.3677 -360.624Z" fill="url(#paint47_linear_3491_82313)"/>
    <path fill-rule="evenodd" clip-rule="evenodd" d="M121.066 -220.709C121.366 -220.718 121.563 -220.824 121.863 -220.833L142.561 -224.553L140.386 -216.985C139.749 -214.865 139.482 -213.757 138.704 -213.033C137.925 -212.309 136.831 -212.076 134.641 -211.711L124.991 -209.921C119.12 -208.845 117.23 -208.489 115.948 -207.85C108.847 -204.436 108.015 -198.809 109.678 -190.055C111.24 -181.297 113.989 -176.377 121.815 -175.611C123.221 -175.453 125.111 -175.81 130.981 -176.886L146.206 -179.642C148.396 -180.008 149.489 -180.241 150.501 -179.871C151.512 -179.501 152.139 -178.619 153.495 -176.759L158.287 -170.4L132.119 -165.615C131.819 -165.606 131.622 -165.5 131.322 -165.491C126.545 -164.648 123.065 -163.943 119.954 -164.25C105.61 -165.522 100.401 -175.771 98.2368 -187.912C96.0727 -200.052 97.3311 -211.495 110.252 -217.684C112.809 -219.161 116.289 -219.866 121.066 -220.709Z" fill="url(#paint48_linear_3491_82313)"/>
    <path fill-rule="evenodd" clip-rule="evenodd" d="M228.79 -104.479C228.587 -104.573 228.285 -104.663 228.082 -104.757L208.545 -112.377L214.39 -117.654C216.044 -119.204 216.923 -119.931 217.916 -120.16C218.91 -120.39 220.024 -119.923 222.051 -119.084L231.26 -115.557C236.826 -113.423 238.647 -112.777 240.052 -112.619C247.878 -111.853 251.548 -116.264 254.704 -124.462C257.861 -132.661 258.19 -138.373 251.846 -143.085C250.72 -143.952 248.996 -144.701 243.33 -146.832L228.957 -152.405C226.831 -153.242 225.82 -153.612 225.193 -154.493C224.566 -155.375 224.433 -156.471 224.268 -158.668L223.532 -166.549L248.332 -156.886C248.635 -156.795 248.837 -156.701 249.04 -156.607C253.595 -154.843 256.836 -153.539 259.391 -151.715C270.952 -143.157 269.994 -131.723 265.537 -120.184C261.08 -108.646 254.047 -99.6317 239.696 -101.103C236.583 -101.51 233.245 -102.711 228.79 -104.479Z" fill="url(#paint49_linear_3491_82313)"/>
    <defs>
      <linearGradient id="paint0_linear_3491_82313" x1="257" y1="232.5" x2="-212.276" y2="-265.491" gradientUnits="userSpaceOnUse">
        <stop stop-color="#121B38" stop-opacity="0"/>
        <stop offset="1" stop-color="#121B38"/>
      </linearGradient>
      <linearGradient id="paint1_linear_3491_82313" x1="257" y1="232.5" x2="-212.276" y2="-265.491" gradientUnits="userSpaceOnUse">
        <stop stop-color="#121B38" stop-opacity="0"/>
        <stop offset="1" stop-color="#121B38"/>
      </linearGradient>
      <linearGradient id="paint2_linear_3491_82313" x1="257" y1="232.5" x2="-212.276" y2="-265.491" gradientUnits="userSpaceOnUse">
        <stop stop-color="#121B38" stop-opacity="0"/>
        <stop offset="1" stop-color="#121B38"/>
      </linearGradient>
      <linearGradient id="paint3_linear_3491_82313" x1="257" y1="232.5" x2="-212.276" y2="-265.491" gradientUnits="userSpaceOnUse">
        <stop stop-color="#121B38" stop-opacity="0"/>
        <stop offset="1" stop-color="#121B38"/>
      </linearGradient>
      <linearGradient id="paint4_linear_3491_82313" x1="257" y1="232.5" x2="-212.276" y2="-265.491" gradientUnits="userSpaceOnUse">
        <stop stop-color="#121B38" stop-opacity="0"/>
        <stop offset="1" stop-color="#121B38"/>
      </linearGradient>
      <linearGradient id="paint5_linear_3491_82313" x1="257" y1="232.5" x2="-212.276" y2="-265.491" gradientUnits="userSpaceOnUse">
        <stop stop-color="#121B38" stop-opacity="0"/>
        <stop offset="1" stop-color="#121B38"/>
      </linearGradient>
      <linearGradient id="paint6_linear_3491_82313" x1="257" y1="232.5" x2="-212.276" y2="-265.491" gradientUnits="userSpaceOnUse">
        <stop stop-color="#121B38" stop-opacity="0"/>
        <stop offset="1" stop-color="#121B38"/>
      </linearGradient>
      <linearGradient id="paint7_linear_3491_82313" x1="257" y1="232.5" x2="-212.276" y2="-265.491" gradientUnits="userSpaceOnUse">
        <stop stop-color="#121B38" stop-opacity="0"/>
        <stop offset="1" stop-color="#121B38"/>
      </linearGradient>
      <linearGradient id="paint8_linear_3491_82313" x1="257" y1="232.5" x2="-212.276" y2="-265.491" gradientUnits="userSpaceOnUse">
        <stop stop-color="#121B38" stop-opacity="0"/>
        <stop offset="1" stop-color="#121B38"/>
      </linearGradient>
      <linearGradient id="paint9_linear_3491_82313" x1="257" y1="232.5" x2="-212.276" y2="-265.491" gradientUnits="userSpaceOnUse">
        <stop stop-color="#121B38" stop-opacity="0"/>
        <stop offset="1" stop-color="#121B38"/>
      </linearGradient>
      <linearGradient id="paint10_linear_3491_82313" x1="257" y1="232.5" x2="-212.276" y2="-265.491" gradientUnits="userSpaceOnUse">
        <stop stop-color="#121B38" stop-opacity="0"/>
        <stop offset="1" stop-color="#121B38"/>
      </linearGradient>
      <linearGradient id="paint11_linear_3491_82313" x1="257" y1="232.5" x2="-212.276" y2="-265.491" gradientUnits="userSpaceOnUse">
        <stop stop-color="#121B38" stop-opacity="0"/>
        <stop offset="1" stop-color="#121B38"/>
      </linearGradient>
      <linearGradient id="paint12_linear_3491_82313" x1="257" y1="232.5" x2="-212.276" y2="-265.491" gradientUnits="userSpaceOnUse">
        <stop stop-color="#121B38" stop-opacity="0"/>
        <stop offset="1" stop-color="#121B38"/>
      </linearGradient>
      <linearGradient id="paint13_linear_3491_82313" x1="257" y1="232.5" x2="-212.276" y2="-265.491" gradientUnits="userSpaceOnUse">
        <stop stop-color="#121B38" stop-opacity="0"/>
        <stop offset="1" stop-color="#121B38"/>
      </linearGradient>
      <linearGradient id="paint14_linear_3491_82313" x1="257" y1="232.5" x2="-212.276" y2="-265.491" gradientUnits="userSpaceOnUse">
        <stop stop-color="#121B38" stop-opacity="0"/>
        <stop offset="1" stop-color="#121B38"/>
      </linearGradient>
      <linearGradient id="paint15_linear_3491_82313" x1="257" y1="232.5" x2="-212.276" y2="-265.491" gradientUnits="userSpaceOnUse">
        <stop stop-color="#121B38" stop-opacity="0"/>
        <stop offset="1" stop-color="#121B38"/>
      </linearGradient>
      <linearGradient id="paint16_linear_3491_82313" x1="257" y1="232.5" x2="-212.276" y2="-265.491" gradientUnits="userSpaceOnUse">
        <stop stop-color="#121B38" stop-opacity="0"/>
        <stop offset="1" stop-color="#121B38"/>
      </linearGradient>
      <linearGradient id="paint17_linear_3491_82313" x1="257" y1="232.5" x2="-212.276" y2="-265.491" gradientUnits="userSpaceOnUse">
        <stop stop-color="#121B38" stop-opacity="0"/>
        <stop offset="1" stop-color="#121B38"/>
      </linearGradient>
      <linearGradient id="paint18_linear_3491_82313" x1="257" y1="232.5" x2="-212.276" y2="-265.491" gradientUnits="userSpaceOnUse">
        <stop stop-color="#121B38" stop-opacity="0"/>
        <stop offset="1" stop-color="#121B38"/>
      </linearGradient>
      <linearGradient id="paint19_linear_3491_82313" x1="257" y1="232.5" x2="-212.276" y2="-265.491" gradientUnits="userSpaceOnUse">
        <stop stop-color="#121B38" stop-opacity="0"/>
        <stop offset="1" stop-color="#121B38"/>
      </linearGradient>
      <linearGradient id="paint20_linear_3491_82313" x1="257" y1="232.5" x2="-212.276" y2="-265.491" gradientUnits="userSpaceOnUse">
        <stop stop-color="#121B38" stop-opacity="0"/>
        <stop offset="1" stop-color="#121B38"/>
      </linearGradient>
      <linearGradient id="paint21_linear_3491_82313" x1="257" y1="232.5" x2="-212.276" y2="-265.491" gradientUnits="userSpaceOnUse">
        <stop stop-color="#121B38" stop-opacity="0"/>
        <stop offset="1" stop-color="#121B38"/>
      </linearGradient>
      <linearGradient id="paint22_linear_3491_82313" x1="257" y1="232.5" x2="-212.276" y2="-265.491" gradientUnits="userSpaceOnUse">
        <stop stop-color="#121B38" stop-opacity="0"/>
        <stop offset="1" stop-color="#121B38"/>
      </linearGradient>
      <linearGradient id="paint23_linear_3491_82313" x1="257" y1="232.5" x2="-212.276" y2="-265.491" gradientUnits="userSpaceOnUse">
        <stop stop-color="#121B38" stop-opacity="0"/>
        <stop offset="1" stop-color="#121B38"/>
      </linearGradient>
      <linearGradient id="paint24_linear_3491_82313" x1="257" y1="232.5" x2="-212.276" y2="-265.491" gradientUnits="userSpaceOnUse">
        <stop stop-color="#121B38" stop-opacity="0"/>
        <stop offset="1" stop-color="#121B38"/>
      </linearGradient>
      <linearGradient id="paint25_linear_3491_82313" x1="257" y1="232.5" x2="-212.276" y2="-265.491" gradientUnits="userSpaceOnUse">
        <stop stop-color="#121B38" stop-opacity="0"/>
        <stop offset="1" stop-color="#121B38"/>
      </linearGradient>
      <linearGradient id="paint26_linear_3491_82313" x1="257" y1="232.5" x2="-212.276" y2="-265.491" gradientUnits="userSpaceOnUse">
        <stop stop-color="#121B38" stop-opacity="0"/>
        <stop offset="1" stop-color="#121B38"/>
      </linearGradient>
      <linearGradient id="paint27_linear_3491_82313" x1="257" y1="232.5" x2="-212.276" y2="-265.491" gradientUnits="userSpaceOnUse">
        <stop stop-color="#121B38" stop-opacity="0"/>
        <stop offset="1" stop-color="#121B38"/>
      </linearGradient>
      <linearGradient id="paint28_linear_3491_82313" x1="257" y1="232.5" x2="-212.276" y2="-265.491" gradientUnits="userSpaceOnUse">
        <stop stop-color="#121B38" stop-opacity="0"/>
        <stop offset="1" stop-color="#121B38"/>
      </linearGradient>
      <linearGradient id="paint29_linear_3491_82313" x1="257" y1="232.5" x2="-212.276" y2="-265.491" gradientUnits="userSpaceOnUse">
        <stop stop-color="#121B38" stop-opacity="0"/>
        <stop offset="1" stop-color="#121B38"/>
      </linearGradient>
      <linearGradient id="paint30_linear_3491_82313" x1="257" y1="232.5" x2="-212.276" y2="-265.491" gradientUnits="userSpaceOnUse">
        <stop stop-color="#121B38" stop-opacity="0"/>
        <stop offset="1" stop-color="#121B38"/>
      </linearGradient>
      <linearGradient id="paint31_linear_3491_82313" x1="257" y1="232.5" x2="-212.276" y2="-265.491" gradientUnits="userSpaceOnUse">
        <stop stop-color="#121B38" stop-opacity="0"/>
        <stop offset="1" stop-color="#121B38"/>
      </linearGradient>
      <linearGradient id="paint32_linear_3491_82313" x1="257" y1="232.5" x2="-212.276" y2="-265.491" gradientUnits="userSpaceOnUse">
        <stop stop-color="#121B38" stop-opacity="0"/>
        <stop offset="1" stop-color="#121B38"/>
      </linearGradient>
      <linearGradient id="paint33_linear_3491_82313" x1="257" y1="232.5" x2="-212.276" y2="-265.491" gradientUnits="userSpaceOnUse">
        <stop stop-color="#121B38" stop-opacity="0"/>
        <stop offset="1" stop-color="#121B38"/>
      </linearGradient>
      <linearGradient id="paint34_linear_3491_82313" x1="257" y1="232.5" x2="-212.276" y2="-265.491" gradientUnits="userSpaceOnUse">
        <stop stop-color="#121B38" stop-opacity="0"/>
        <stop offset="1" stop-color="#121B38"/>
      </linearGradient>
      <linearGradient id="paint35_linear_3491_82313" x1="257" y1="232.5" x2="-212.276" y2="-265.491" gradientUnits="userSpaceOnUse">
        <stop stop-color="#121B38" stop-opacity="0"/>
        <stop offset="1" stop-color="#121B38"/>
      </linearGradient>
      <linearGradient id="paint36_linear_3491_82313" x1="257" y1="232.5" x2="-212.276" y2="-265.491" gradientUnits="userSpaceOnUse">
        <stop stop-color="#121B38" stop-opacity="0"/>
        <stop offset="1" stop-color="#121B38"/>
      </linearGradient>
      <linearGradient id="paint37_linear_3491_82313" x1="257" y1="232.5" x2="-212.276" y2="-265.491" gradientUnits="userSpaceOnUse">
        <stop stop-color="#121B38" stop-opacity="0"/>
        <stop offset="1" stop-color="#121B38"/>
      </linearGradient>
      <linearGradient id="paint38_linear_3491_82313" x1="257" y1="232.5" x2="-212.276" y2="-265.491" gradientUnits="userSpaceOnUse">
        <stop stop-color="#121B38" stop-opacity="0"/>
        <stop offset="1" stop-color="#121B38"/>
      </linearGradient>
      <linearGradient id="paint39_linear_3491_82313" x1="257" y1="232.5" x2="-212.276" y2="-265.491" gradientUnits="userSpaceOnUse">
        <stop stop-color="#121B38" stop-opacity="0"/>
        <stop offset="1" stop-color="#121B38"/>
      </linearGradient>
      <linearGradient id="paint40_linear_3491_82313" x1="257" y1="232.5" x2="-212.276" y2="-265.491" gradientUnits="userSpaceOnUse">
        <stop stop-color="#121B38" stop-opacity="0"/>
        <stop offset="1" stop-color="#121B38"/>
      </linearGradient>
      <linearGradient id="paint41_linear_3491_82313" x1="257" y1="232.5" x2="-212.276" y2="-265.491" gradientUnits="userSpaceOnUse">
        <stop stop-color="#121B38" stop-opacity="0"/>
        <stop offset="1" stop-color="#121B38"/>
      </linearGradient>
      <linearGradient id="paint42_linear_3491_82313" x1="257" y1="232.5" x2="-212.276" y2="-265.491" gradientUnits="userSpaceOnUse">
        <stop stop-color="#121B38" stop-opacity="0"/>
        <stop offset="1" stop-color="#121B38"/>
      </linearGradient>
      <linearGradient id="paint43_linear_3491_82313" x1="257" y1="232.5" x2="-212.276" y2="-265.491" gradientUnits="userSpaceOnUse">
        <stop stop-color="#121B38" stop-opacity="0"/>
        <stop offset="1" stop-color="#121B38"/>
      </linearGradient>
      <linearGradient id="paint44_linear_3491_82313" x1="257" y1="232.5" x2="-212.276" y2="-265.491" gradientUnits="userSpaceOnUse">
        <stop stop-color="#121B38" stop-opacity="0"/>
        <stop offset="1" stop-color="#121B38"/>
      </linearGradient>
      <linearGradient id="paint45_linear_3491_82313" x1="257" y1="232.5" x2="-212.276" y2="-265.491" gradientUnits="userSpaceOnUse">
        <stop stop-color="#121B38" stop-opacity="0"/>
        <stop offset="1" stop-color="#121B38"/>
      </linearGradient>
      <linearGradient id="paint46_linear_3491_82313" x1="257" y1="232.5" x2="-212.276" y2="-265.491" gradientUnits="userSpaceOnUse">
        <stop stop-color="#121B38" stop-opacity="0"/>
        <stop offset="1" stop-color="#121B38"/>
      </linearGradient>
      <linearGradient id="paint47_linear_3491_82313" x1="257" y1="232.5" x2="-212.276" y2="-265.491" gradientUnits="userSpaceOnUse">
        <stop stop-color="#121B38" stop-opacity="0"/>
        <stop offset="1" stop-color="#121B38"/>
      </linearGradient>
      <linearGradient id="paint48_linear_3491_82313" x1="257" y1="232.5" x2="-212.276" y2="-265.491" gradientUnits="userSpaceOnUse">
        <stop stop-color="#121B38" stop-opacity="0"/>
        <stop offset="1" stop-color="#121B38"/>
      </linearGradient>
      <linearGradient id="paint49_linear_3491_82313" x1="257" y1="232.5" x2="-212.276" y2="-265.491" gradientUnits="userSpaceOnUse">
        <stop stop-color="#121B38" stop-opacity="0"/>
        <stop offset="1" stop-color="#121B38"/>
      </linearGradient>
    </defs>
  </svg>
