<svg xmlns="http://www.w3.org/2000/svg" width="193" height="296" viewBox="0 0 193 296" fill="none">
    <g opacity="0.2">
      <path fill-rule="evenodd" clip-rule="evenodd" d="M314 -20.8697C314.2 -20.7697 314.5 -20.6697 314.7 -20.4697L333.4 -10.8697L327 -6.16966C325.2 -4.86966 324.3 -4.16968 323.2 -4.06967C322.1 -3.96967 321.1 -4.46967 319.1 -5.56967L310.3 -10.0697C305 -12.8697 303.3 -13.6697 301.8 -13.9697C294.1 -15.5697 290 -11.5697 286 -3.66966C281.9 4.23033 281 9.83032 286.9 15.1303C288 16.1303 289.6 17.0303 295 19.7303L308.7 26.8303C310.7 27.8303 311.7 28.3303 312.2 29.2303C312.7 30.1303 312.7 31.2303 312.7 33.5303L312.6 41.4303L288.9 29.2303C288.7 29.1303 288.4 29.0303 288.2 28.8303C283.9 26.6303 280.7 25.0303 278.4 22.8303C267.8 13.1303 269.9 1.83034 275.6 -9.16966C281.3 -20.1697 289.2 -28.4697 303.3 -25.4697C306.6 -24.7697 309.7 -23.0697 314 -20.8697Z" fill="url(#paint0_linear_2436_1986)"/>
      <path fill-rule="evenodd" clip-rule="evenodd" d="M218.9 18.3303C219.1 18.1303 219.3 18.0303 219.5 17.8303L236.1 4.93031L237.7 12.7303C238.1 14.9303 238.4 16.0303 238 17.0303C237.6 18.0303 236.7 18.7303 235 20.1303L227.2 26.2303C222.5 29.9303 221 31.1303 220.1 32.3303C215.4 38.6303 217.3 44.0303 222.8 51.0303C228.3 58.0303 233 61.2303 240.3 58.1303C241.6 57.5303 243.1 56.4303 247.9 52.7303L260.1 43.2303C261.9 41.8303 262.8 41.1303 263.8 41.0303C264.9 40.9303 265.9 41.4303 267.9 42.3303L275 45.7303L254 62.1303C253.8 62.3303 253.6 62.4303 253.4 62.6303C249.6 65.6303 246.8 67.8303 243.9 69.0303C230.6 74.5303 221.3 67.9303 213.7 58.1303C206.1 48.3303 201.9 37.7303 210.5 26.1303C212.3 23.4303 215.1 21.3303 218.9 18.3303Z" fill="url(#paint1_linear_2436_1986)"/>
      <path fill-rule="evenodd" clip-rule="evenodd" d="M282.8 -49.6697C282.6 -49.8697 282.4 -49.9697 282.2 -50.1697L265.7 -63.1697L272.9 -66.4697C274.9 -67.3697 276 -67.8697 277 -67.7697C278.1 -67.6697 278.9 -66.9697 280.7 -65.5697L288.4 -59.4697C293.1 -55.7697 294.6 -54.5697 295.9 -54.0697C303.2 -50.9697 307.9 -54.0697 313.4 -61.0697C318.9 -67.9697 320.9 -73.3697 316.2 -79.6697C315.3 -80.8697 313.9 -82.0697 309.2 -85.7697L297.1 -95.3697C295.3 -96.7697 294.5 -97.4697 294.1 -98.4697C293.7 -99.4697 294 -100.57 294.4 -102.77L296 -110.47L316.8 -93.9697C317 -93.7697 317.2 -93.6697 317.4 -93.4697C321.2 -90.4697 324 -88.2697 325.9 -85.6697C334.4 -74.0697 330.1 -63.4697 322.4 -53.7697C314.7 -44.0697 305.3 -37.5697 292.1 -43.1697C289.4 -44.4697 286.6 -46.6697 282.8 -49.6697Z" fill="url(#paint2_linear_2436_1986)"/>
      <path fill-rule="evenodd" clip-rule="evenodd" d="M394.2 -105.07C394.2 -104.77 394.1 -104.57 394.1 -104.27L390.6 -83.5697L384.2 -88.2697C382.4 -89.5697 381.5 -90.2697 381.1 -91.2697C380.7 -92.2697 380.9 -93.3697 381.3 -95.5697L382.9 -105.27C383.9 -111.17 384.2 -113.07 384 -114.47C383.2 -122.27 378.2 -124.97 369.4 -126.47C360.6 -127.97 355 -127.07 351.7 -119.97C351.1 -118.67 350.7 -116.77 349.7 -110.87L347.1 -95.6697C346.7 -93.4697 346.5 -92.3697 345.8 -91.5697C345.1 -90.7697 344 -90.4697 341.9 -89.7697L334.3 -87.4697L338.7 -113.67C338.7 -113.97 338.8 -114.17 338.8 -114.47C339.6 -119.27 340.2 -122.77 341.5 -125.67C347.6 -138.67 358.9 -140.07 371.1 -138.07C383.3 -136.07 393.6 -130.97 395 -116.67C395.6 -113.27 395 -109.77 394.2 -105.07Z" fill="url(#paint3_linear_2436_1986)"/>
      <path fill-rule="evenodd" clip-rule="evenodd" d="M364.8 67.6303C364.5 67.6303 364.3 67.6303 364 67.6303L343 66.6303L346.9 59.7303C348 57.7303 348.5 56.8303 349.5 56.2303C350.4 55.7303 351.5 55.7303 353.8 55.8303L363.6 56.3303C369.6 56.6303 371.5 56.6303 372.9 56.3303C380.6 54.6303 382.6 49.2303 383 40.4303C383.4 31.5303 381.9 26.1303 374.4 23.6303C373 23.2303 371.1 23.0303 365.1 22.7303L349.7 22.0303C347.5 21.9303 346.3 21.8303 345.5 21.2303C344.6 20.6303 344.2 19.6303 343.3 17.5303L340.1 10.3303L366.7 11.5303C367 11.5303 367.2 11.5303 367.5 11.5303C372.3 11.7303 375.9 11.9303 378.9 12.9303C392.5 17.4303 395.3 28.5303 394.8 40.8303C394.3 53.1303 390.4 64.0303 376.4 67.1303C373.2 68.0303 369.7 67.9303 364.8 67.6303Z" fill="url(#paint4_linear_2436_1986)"/>
      <path fill-rule="evenodd" clip-rule="evenodd" d="M602.9 50.6303C602.8 50.4303 602.7 50.1303 602.6 49.9303L594 30.7303L601.9 31.0303C604.1 31.1303 605.3 31.1303 606.1 31.7303C607 32.3303 607.4 33.3303 608.4 35.4303L612.4 44.4303C614.9 49.9303 615.7 51.6303 616.6 52.7303C621.6 58.8303 627.3 58.2303 635.4 54.6303C643.5 51.0303 647.7 47.2303 646.5 39.4303C646.3 38.0303 645.6 36.2303 643.1 30.7303L636.8 16.6303C635.9 14.5303 635.4 13.5303 635.6 12.5303C635.7 11.4303 636.5 10.6303 637.9 8.83032L642.9 2.73032L653.8 27.0303C653.9 27.2303 654 27.5303 654.1 27.7303C656.1 32.1303 657.5 35.4303 658 38.5303C660.2 52.7303 651.5 60.2303 640.2 65.2303C628.9 70.2303 617.5 71.7303 608.4 60.7303C606.3 58.3303 604.9 55.0303 602.9 50.6303Z" fill="url(#paint5_linear_2436_1986)"/>
      <path fill-rule="evenodd" clip-rule="evenodd" d="M177.5 -99.1697C177.8 -99.0697 178 -99.0697 178.3 -98.9697L198.6 -93.5697L193.4 -87.6697C191.9 -85.9697 191.2 -85.1697 190.2 -84.8697C189.2 -84.5697 188.1 -84.8697 185.9 -85.4697L176.4 -87.9697C170.6 -89.4697 168.8 -89.9697 167.3 -89.9697C159.4 -89.8697 156.3 -85.1697 154 -76.5697C151.7 -67.9697 152.1 -62.3697 158.9 -58.3697C160.2 -57.6697 162 -57.0697 167.8 -55.5697L182.7 -51.5697C184.9 -50.9697 186 -50.6697 186.7 -49.9697C187.4 -49.1697 187.7 -48.0697 188.1 -45.8697L189.7 -38.1697L164 -44.9697C163.7 -45.0697 163.5 -45.0697 163.2 -45.1697C158.5 -46.3697 155.1 -47.2697 152.3 -48.8697C139.9 -56.0697 139.5 -67.5697 142.7 -79.4697C145.9 -91.3697 151.9 -101.17 166.2 -101.37C169.3 -101.37 172.8 -100.47 177.5 -99.1697Z" fill="url(#paint6_linear_2436_1986)"/>
      <path fill-rule="evenodd" clip-rule="evenodd" d="M208.5 -27.5697C208.4 -27.8697 208.4 -28.0697 208.3 -28.3697L202.8 -48.6697L210.5 -47.0697C212.7 -46.6697 213.8 -46.3697 214.6 -45.6697C215.4 -44.9697 215.7 -43.8697 216.3 -41.6697L218.9 -32.1697C220.5 -26.3697 221 -24.5697 221.7 -23.2697C225.7 -16.4697 231.4 -16.1697 239.9 -18.4697C248.5 -20.7697 253.2 -23.8697 253.3 -31.7697C253.3 -33.1697 252.9 -35.0697 251.3 -40.8697L247.3 -55.7697C246.7 -57.9697 246.4 -59.0697 246.7 -60.0697C247 -61.0697 247.8 -61.8697 249.5 -63.3697L255.4 -68.6697L262.3 -42.9697C262.4 -42.6697 262.4 -42.4697 262.5 -42.1697C263.8 -37.4697 264.7 -34.0697 264.7 -30.8697C264.6 -16.4697 254.9 -10.4697 242.9 -7.26968C231 -4.06969 219.5 -4.36969 212.2 -16.7697C210.7 -19.4697 209.8 -22.8697 208.5 -27.5697Z" fill="url(#paint7_linear_2436_1986)"/>
      <path fill-rule="evenodd" clip-rule="evenodd" d="M314.2 -170.77C314.4 -170.67 314.7 -170.57 314.9 -170.37L333.5 -160.67L327.1 -156.07C325.3 -154.77 324.4 -154.07 323.3 -154.07C322.2 -153.97 321.2 -154.47 319.3 -155.57L310.6 -160.17C305.3 -162.97 303.6 -163.77 302.2 -164.07C294.5 -165.77 290.4 -161.77 286.3 -153.97C282.2 -146.17 281.3 -140.47 287 -135.17C288.1 -134.17 289.7 -133.27 295 -130.47L308.7 -123.27C310.7 -122.27 311.7 -121.67 312.2 -120.77C312.7 -119.87 312.7 -118.77 312.7 -116.47L312.6 -108.57L289 -120.87C288.8 -120.97 288.5 -121.17 288.3 -121.27C284 -123.47 280.9 -125.17 278.5 -127.37C268 -137.17 270.2 -148.47 275.9 -159.37C281.6 -170.27 289.6 -178.37 303.7 -175.37C306.8 -174.67 309.9 -173.07 314.2 -170.77Z" fill="url(#paint8_linear_2436_1986)"/>
      <path fill-rule="evenodd" clip-rule="evenodd" d="M394.7 -34.1697C394.7 -33.8697 394.7 -33.6697 394.7 -33.3697L394.3 -12.3697L387.3 -16.0697C385.3 -17.0697 384.3 -17.6697 383.8 -18.5697C383.3 -19.4697 383.3 -20.5697 383.3 -22.8697L383.5 -32.7697C383.6 -38.7697 383.6 -40.6697 383.2 -42.0697C381.3 -49.6697 375.9 -51.5697 367 -51.7697C358.1 -51.9697 352.7 -50.2697 350.5 -42.6697C350.1 -41.2697 350 -39.3697 349.9 -33.3697L349.6 -17.9697C349.6 -15.7697 349.5 -14.5697 349 -13.6697C348.4 -12.7697 347.4 -12.2697 345.4 -11.3697L338.3 -7.96967L338.8 -34.5697C338.8 -34.8697 338.8 -35.0697 338.8 -35.3697C338.9 -40.2697 339 -43.7697 339.9 -46.7697C344 -60.5697 355 -63.6697 367.4 -63.3697C379.8 -63.1697 390.7 -59.6697 394.2 -45.6697C394.8 -42.5697 394.8 -38.9697 394.7 -34.1697Z" fill="url(#paint9_linear_2436_1986)"/>
      <path fill-rule="evenodd" clip-rule="evenodd" d="M145 -10.4697C145.1 -10.6697 145.2 -10.9697 145.4 -11.1697L154.9 -29.8697L159.6 -23.5697C160.9 -21.7697 161.6 -20.8697 161.7 -19.7697C161.8 -18.6697 161.3 -17.6697 160.3 -15.6697L155.9 -6.86969C153.2 -1.4697 152.4 0.230316 152.1 1.63031C150.5 9.33031 154.6 13.4303 162.5 17.4303C170.4 21.4303 176 22.3303 181.3 16.4303C182.3 15.3303 183.2 13.7303 185.9 8.33032L192.9 -5.46968C193.9 -7.46968 194.4 -8.46968 195.3 -9.06969C196.2 -9.66969 197.3 -9.56969 199.6 -9.56969H207.5L195.5 14.1303C195.4 14.3303 195.3 14.6303 195.1 14.8303C192.9 19.1303 191.3 22.3303 189.2 24.6303C179.6 35.2303 168.3 33.2303 157.2 27.6303C146.2 22.0303 137.8 14.1303 140.7 0.0303192C141.2 -2.96968 142.8 -6.06969 145 -10.4697Z" fill="url(#paint10_linear_2436_1986)"/>
      <path fill-rule="evenodd" clip-rule="evenodd" d="M324.9 242.83C324.8 243.03 324.6 243.33 324.5 243.53L314.3 261.93L309.8 255.43C308.5 253.53 307.9 252.63 307.8 251.63C307.8 250.53 308.3 249.63 309.4 247.63L314.2 239.03C317.1 233.73 318 232.13 318.3 230.73C320.2 223.03 316.3 218.93 308.5 214.63C300.7 210.33 295.2 209.23 289.6 214.93C288.6 215.93 287.6 217.63 284.7 222.83L277.2 236.33C276.1 238.33 275.6 239.23 274.6 239.83C273.7 240.33 272.6 240.33 270.3 240.23L262.4 239.93L275.3 216.63C275.4 216.43 275.6 216.13 275.7 215.93C278 211.73 279.8 208.63 282 206.33C292 196.03 303.2 198.53 314.1 204.53C324.9 210.53 332.9 218.73 329.6 232.73C329 235.43 327.3 238.53 324.9 242.83Z" fill="url(#paint11_linear_2436_1986)"/>
      <path fill-rule="evenodd" clip-rule="evenodd" d="M263.7 265.03C263.7 265.33 263.7 265.53 263.7 265.83L264.7 286.83L257.5 283.63C255.4 282.73 254.4 282.23 253.8 281.43C253.2 280.53 253.2 279.43 253 277.23L252.5 267.43C252.2 261.43 252.1 259.53 251.6 258.13C249.2 250.63 243.7 249.13 234.8 249.53C225.9 249.93 220.6 251.93 218.9 259.63C218.6 261.03 218.6 262.93 218.9 268.93L219.6 284.33C219.7 286.53 219.8 287.73 219.2 288.63C218.7 289.53 217.7 290.13 215.7 291.23L208.8 295.13L207.6 268.53C207.6 268.23 207.6 268.03 207.6 267.73C207.4 262.93 207.2 259.33 207.9 256.23C211.1 242.23 221.9 238.43 234.2 237.83C246.6 237.23 257.7 240.03 262.1 253.73C263.3 256.63 263.5 260.23 263.7 265.03Z" fill="url(#paint12_linear_2436_1986)"/>
      <path fill-rule="evenodd" clip-rule="evenodd" d="M306.3 126.33C306.6 126.33 306.8 126.43 307.1 126.43L327.8 130.23L323 136.53C321.7 138.33 321 139.23 320 139.63C319 140.03 317.9 139.83 315.7 139.43L306 137.63C300.1 136.53 298.2 136.23 296.8 136.43C288.9 137.13 286.2 142.13 284.6 150.83C283 159.53 283.8 165.23 290.9 168.63C292.2 169.23 294 169.63 300 170.73L315.2 173.53C317.4 173.93 318.5 174.13 319.3 174.83C320.1 175.53 320.4 176.63 321 178.73L323.2 186.33L297 181.53C296.7 181.53 296.5 181.43 296.2 181.43C291.4 180.53 287.9 179.93 285.1 178.53C272.2 172.33 270.9 160.93 273.1 148.73C275.3 136.53 280.5 126.33 294.8 125.13C298.1 124.73 301.5 125.43 306.3 126.33Z" fill="url(#paint13_linear_2436_1986)"/>
      <path fill-rule="evenodd" clip-rule="evenodd" d="M367.6 142.73C367.3 142.73 367.1 142.73 366.8 142.73L345.8 143.83L348.9 136.53C349.8 134.43 350.2 133.43 351.1 132.83C352 132.23 353.1 132.13 355.3 132.03L365.1 131.53C371.1 131.23 373 131.03 374.4 130.63C381.9 128.13 383.4 122.63 382.9 113.83C382.4 104.93 380.4 99.6303 372.6 98.0303C371.2 97.7303 369.3 97.7303 363.3 98.1303L347.9 98.9303C345.7 99.0303 344.5 99.1303 343.6 98.6303C342.7 98.1303 342.1 97.1303 341 95.2303L337.1 88.3303L363.7 86.9303C364 86.9303 364.2 86.9303 364.5 86.9303C369.3 86.6303 372.9 86.4303 376 87.1303C390 90.2303 393.9 100.93 394.6 113.33C395.3 125.63 392.6 136.83 379 141.43C376 142.23 372.5 142.43 367.6 142.73Z" fill="url(#paint14_linear_2436_1986)"/>
      <path fill-rule="evenodd" clip-rule="evenodd" d="M163 125.53C163.3 125.43 163.5 125.43 163.8 125.33L184.1 119.83L182.5 127.53C182.1 129.73 181.8 130.83 181.1 131.63C180.4 132.43 179.3 132.73 177.1 133.23L167.6 135.83C161.8 137.43 160 137.93 158.7 138.63C151.9 142.63 151.6 148.33 153.9 156.83C156.2 165.33 159.3 170.13 167.2 170.23C168.6 170.23 170.5 169.83 176.3 168.23L191.2 164.23C193.4 163.63 194.5 163.33 195.5 163.63C196.5 163.93 197.3 164.73 198.8 166.43L204.1 172.33L178.4 179.23C178.1 179.33 177.9 179.33 177.6 179.43C172.9 180.73 169.5 181.63 166.3 181.63C151.9 181.53 145.9 171.83 142.7 159.83C139.5 147.93 139.8 136.43 152.2 129.13C154.9 127.73 158.3 126.83 163 125.53Z" fill="url(#paint15_linear_2436_1986)"/>
      <path fill-rule="evenodd" clip-rule="evenodd" d="M186 100.53C185.8 100.73 185.6 100.83 185.4 101.03L168.6 113.63L167.2 105.83C166.8 103.63 166.6 102.53 167 101.53C167.4 100.53 168.3 99.8303 170.1 98.5303L178 92.6303C182.8 89.0303 184.3 87.8303 185.2 86.7303C190 80.5303 188.2 75.1303 182.9 68.0303C177.6 60.9303 172.9 57.6303 165.6 60.5303C164.3 61.0303 162.7 62.1303 157.9 65.7303L145.5 74.9303C143.7 76.2303 142.8 76.9303 141.7 77.0303C140.6 77.1303 139.6 76.6303 137.6 75.6303L130.5 72.0303L151.8 56.1303C152 55.9303 152.2 55.8303 152.4 55.6303C156.3 52.7303 159.1 50.6303 162.1 49.4303C175.5 44.2303 184.7 51.0303 192.1 60.9303C199.5 70.8303 203.4 81.6303 194.6 92.9303C192.7 95.5303 189.9 97.6303 186 100.53Z" fill="url(#paint16_linear_2436_1986)"/>
      <path fill-rule="evenodd" clip-rule="evenodd" d="M254.3 211.63C254.1 211.83 253.9 212.03 253.7 212.13L238.3 226.43L236.1 218.83C235.5 216.63 235.2 215.63 235.4 214.53C235.7 213.53 236.5 212.73 238.2 211.23L245.4 204.53C249.8 200.43 251.2 199.13 251.9 197.93C256.1 191.23 253.7 186.03 247.7 179.53C241.7 173.03 236.7 170.23 229.7 173.93C228.4 174.63 227 175.83 222.6 179.93L211.3 190.43C209.7 191.93 208.8 192.73 207.8 192.93C206.8 193.13 205.7 192.73 203.6 191.93L196.2 189.13L215.7 171.03C215.9 170.83 216.1 170.63 216.3 170.43C219.9 167.13 222.5 164.73 225.3 163.23C238 156.63 247.9 162.43 256.3 171.53C264.7 180.63 269.8 190.93 262.2 203.13C260.5 205.93 257.9 208.33 254.3 211.63Z" fill="url(#paint17_linear_2436_1986)"/>
      <path fill-rule="evenodd" clip-rule="evenodd" d="M295.8 51.1303C296.1 51.0303 296.3 51.0303 296.6 50.9303L317.2 46.8303L315.1 54.4303C314.5 56.6303 314.2 57.6303 313.4 58.4303C312.6 59.1303 311.5 59.3303 309.3 59.8303L299.6 61.7303C293.7 62.9303 291.9 63.3303 290.6 63.9303C283.5 67.4303 282.9 73.1303 284.6 81.8303C286.3 90.5303 289.1 95.4303 297 96.0303C298.4 96.1303 300.3 95.8303 306.2 94.6303L321.4 91.6303C323.6 91.2303 324.7 90.9303 325.7 91.3303C326.7 91.7303 327.4 92.6303 328.8 94.3303L333.7 100.53L307.6 105.73C307.3 105.83 307.1 105.83 306.8 105.93C302 106.93 298.6 107.53 295.4 107.33C281.1 106.33 275.7 96.1303 273.3 84.0303C270.9 71.9303 272 60.5303 284.8 54.0303C287.6 52.8303 291 52.1303 295.8 51.1303Z" fill="url(#paint18_linear_2436_1986)"/>
      <path fill-rule="evenodd" clip-rule="evenodd" d="M209.9 104.73C210 104.53 210.1 104.23 210.2 103.93L218 84.4303L223.2 90.3303C224.7 92.0303 225.4 92.8303 225.6 93.9303C225.8 94.9303 225.4 96.0303 224.5 98.1303L220.8 107.23C218.6 112.83 217.9 114.53 217.7 116.03C216.8 123.83 221.2 127.53 229.4 130.83C237.6 134.13 243.3 134.53 248.1 128.23C249 127.03 249.7 125.33 252 119.73L257.8 105.43C258.6 103.33 259.1 102.33 259.9 101.63C260.8 101.03 261.9 100.93 264.1 100.73L272 100.13L262.1 124.83C262 125.13 261.9 125.33 261.8 125.63C260 130.13 258.7 133.43 256.7 135.93C248 147.33 236.6 146.33 225.1 141.73C213.6 137.13 204.7 129.93 206.3 115.73C206.8 112.53 208.1 109.23 209.9 104.73Z" fill="url(#paint19_linear_2436_1986)"/>
      <path fill-rule="evenodd" clip-rule="evenodd" d="M79.5 28.6303C79.6 28.4303 79.7 28.1303 79.8 27.9303L88.5 8.83032L93.5 14.9303C94.9 16.6303 95.6 17.5303 95.8 18.6303C95.9 19.7303 95.5 20.7303 94.5 22.7303L90.4 31.7303C87.9 37.2303 87.2 38.9303 87 40.3303C85.8 48.1303 89.9 51.9303 98 55.6303C106.1 59.3303 111.7 59.9303 116.8 53.8303C117.7 52.7303 118.6 51.0303 121 45.5303L127.4 31.4303C128.3 29.4303 128.8 28.3303 129.7 27.7303C130.6 27.1303 131.7 27.1303 133.9 27.0303L141.8 26.7303L130.8 50.9303C130.7 51.1303 130.6 51.4303 130.5 51.6303C128.5 56.0303 127 59.2303 125 61.7303C115.8 72.7303 104.4 71.2303 93.2 66.1303C81.9 61.0303 73.3 53.4303 75.6 39.3303C76 36.2303 77.4 33.0303 79.5 28.6303Z" fill="url(#paint20_linear_2436_1986)"/>
      <path fill-rule="evenodd" clip-rule="evenodd" d="M82.6 -51.4697C82.8 -51.6697 82.9 -51.8697 83.1 -52.0697L95.7 -68.8697L99.3 -61.7697C100.3 -59.7697 100.8 -58.7697 100.7 -57.6697C100.6 -56.5697 99.9 -55.6697 98.6 -53.8697L92.7 -45.9697C89.1 -41.1697 88 -39.5697 87.5 -38.2697C84.6 -30.8697 87.9 -26.2697 95 -20.9697C102.1 -15.6697 107.5 -13.8697 113.7 -18.6697C114.8 -19.5697 116 -21.0697 119.6 -25.8697L128.8 -38.2697C130.1 -40.0697 130.8 -40.9697 131.8 -41.3697C132.8 -41.7697 133.9 -41.5697 136.1 -41.1697L143.9 -39.7697L128 -18.4697C127.8 -18.2697 127.7 -18.0697 127.5 -17.8697C124.6 -13.9697 122.5 -11.1697 120 -9.16968C108.7 -0.369675 97.9 -4.26968 88 -11.6697C78.1 -19.0697 71.2 -28.2697 76.5 -41.6697C77.6 -44.7697 79.7 -47.5697 82.6 -51.4697Z" fill="url(#paint21_linear_2436_1986)"/>
      <path fill-rule="evenodd" clip-rule="evenodd" d="M62 18.3303C61.9 18.5303 61.7 18.8303 61.6 19.0303L50.2 36.7303L46.2 29.9303C45.1 28.0303 44.5 27.0303 44.5 25.9303C44.5 24.8303 45.1 23.9303 46.3 22.0303L51.6 13.7303C54.8 8.63031 55.8 7.0303 56.2 5.63031C58.5 -1.86969 54.9 -6.26968 47.5 -11.0697C40.1 -15.8697 34.5 -17.2697 28.7 -11.9697C27.6 -10.9697 26.6 -9.4697 23.3 -4.36969L15 8.63031C13.8 10.5303 13.2 11.4303 12.2 11.9303C11.2 12.4303 10.1 12.2303 7.9 12.0303L0 11.2303L14.3 -11.1697C14.4 -11.3697 14.6 -11.6697 14.7 -11.8697C17.3 -15.9697 19.2 -18.9697 21.6 -21.0697C32.3 -30.6697 43.3 -27.5697 53.7 -20.8697C64.1 -14.1697 71.6 -5.46968 67.3 8.23032C66.5 11.2303 64.6 14.2303 62 18.3303Z" fill="url(#paint22_linear_2436_1986)"/>
      <path fill-rule="evenodd" clip-rule="evenodd" d="M13 66.6303C13.1 66.4303 13.2 66.1303 13.3 65.9303L21.2 46.5303L26.4 52.4303C27.9 54.1303 28.6 54.9303 28.8 56.0303C29 57.0303 28.6 58.1303 27.7 60.2303L24 69.3303C21.7 74.9303 21.1 76.6303 20.9 78.1303C20 85.9303 24.3 89.6303 32.5 93.0303C40.7 96.4303 46.4 96.8303 51.2 90.5303C52.1 89.4303 52.8 87.6303 55.1 82.1303L60.9 67.8303C61.7 65.7303 62.2 64.7303 63 64.1303C63.9 63.5303 65 63.4303 67.2 63.2303L75.1 62.6303L65 87.2303C64.9 87.5303 64.8 87.7303 64.7 87.9303C62.9 92.4303 61.5 95.7303 59.6 98.2303C50.8 109.63 39.4 108.53 28 103.83C16.6 99.1303 7.7 91.7303 9.4 77.5303C9.8 74.3303 11.2 71.1303 13 66.6303Z" fill="url(#paint23_linear_2436_1986)"/>
      <path fill-rule="evenodd" clip-rule="evenodd" d="M89.7 167.13C89.9 167.03 90.1 166.83 90.4 166.73L107.9 155.03L108.9 162.83C109.2 165.03 109.3 166.13 108.9 167.13C108.5 168.13 107.5 168.73 105.7 169.93L97.5 175.43C92.5 178.73 91 179.83 90 180.93C84.8 186.93 86.4 192.33 91.3 199.73C96.2 207.13 100.7 210.63 108.2 208.13C109.6 207.63 111.2 206.63 116.2 203.33L129.1 194.73C131 193.53 131.9 192.83 133 192.83C134.1 192.83 135 193.33 137 194.43L143.9 198.33L121.8 213.13C121.6 213.33 121.3 213.43 121.1 213.53C117.1 216.23 114.1 218.23 111.1 219.23C97.5 223.73 88.6 216.43 81.8 206.13C74.9 195.83 71.6 184.83 81 174.03C82.7 171.73 85.6 169.83 89.7 167.13Z" fill="url(#paint24_linear_2436_1986)"/>
      <path fill-rule="evenodd" clip-rule="evenodd" d="M345.5 171.43C345.7 171.23 345.8 171.03 346 170.83L359.4 154.63L362.6 161.83C363.5 163.93 364 164.93 363.8 165.93C363.7 167.03 362.9 167.83 361.5 169.53L355.2 177.13C351.4 181.73 350.2 183.23 349.6 184.53C346.4 191.73 349.4 196.53 356.2 202.23C363 207.93 368.3 209.93 374.8 205.43C376 204.63 377.2 203.23 381.1 198.53L390.9 186.63C392.3 184.93 393 184.03 394 183.73C395 183.43 396.1 183.63 398.3 184.13L406 185.93L389.1 206.43C388.9 206.63 388.8 206.83 388.6 207.03C385.5 210.73 383.3 213.53 380.7 215.33C368.9 223.53 358.4 219.13 348.8 211.23C339.2 203.33 332.9 193.83 338.8 180.73C340.1 177.93 342.4 175.13 345.5 171.43Z" fill="url(#paint25_linear_2436_1986)"/>
      <path fill-rule="evenodd" clip-rule="evenodd" d="M188.2 248.73C188 248.93 187.8 249.13 187.6 249.23L172.2 263.43L170 255.83C169.4 253.63 169.1 252.63 169.4 251.53C169.7 250.53 170.5 249.73 172.2 248.23L179.4 241.53C183.8 237.43 185.2 236.13 185.9 234.93C190.1 228.23 187.7 223.03 181.7 216.53C175.7 210.03 170.7 207.23 163.7 210.83C162.4 211.53 161 212.73 156.6 216.83L145.2 227.33C143.5 228.83 142.7 229.63 141.7 229.83C140.7 230.03 139.6 229.63 137.5 228.83L130.1 226.03L149.7 208.03C149.9 207.83 150.1 207.63 150.3 207.53C153.9 204.23 156.5 201.83 159.3 200.43C172.1 193.83 181.9 199.73 190.3 208.83C198.7 217.93 203.7 228.23 196.1 240.43C194.4 243.03 191.8 245.43 188.2 248.73Z" fill="url(#paint26_linear_2436_1986)"/>
      <path fill-rule="evenodd" clip-rule="evenodd" d="M558 31.3303C557.7 31.3303 557.5 31.2303 557.2 31.2303L536.4 28.1303L540.9 21.6303C542.2 19.8303 542.8 18.8303 543.8 18.4303C544.8 18.0303 545.9 18.1303 548.1 18.5303L557.8 19.9303C563.7 20.8303 565.6 21.0303 567.1 20.8303C574.9 19.8303 577.5 14.8303 578.8 6.03032C580.1 -2.76968 579.1 -8.36969 571.9 -11.5697C570.6 -12.1697 568.7 -12.4697 562.8 -13.3697L547.5 -15.6697C545.3 -15.9697 544.2 -16.1697 543.4 -16.8697C542.6 -17.5697 542.2 -18.6697 541.5 -20.7697L539 -28.2697L565.3 -24.3697C565.6 -24.3697 565.8 -24.2697 566.1 -24.2697C570.9 -23.5697 574.4 -23.0697 577.3 -21.7697C590.4 -15.9697 592.1 -4.56969 590.3 7.63031C588.5 19.8303 583.6 30.2303 569.4 32.0303C566.3 32.5303 562.8 32.0303 558 31.3303Z" fill="url(#paint27_linear_2436_1986)"/>
      <path fill-rule="evenodd" clip-rule="evenodd" d="M470 36.5303C470 36.2303 470.1 36.0303 470.1 35.7303L472.8 14.9303L479.3 19.3303C481.2 20.6303 482.1 21.2303 482.5 22.2303C482.9 23.2303 482.8 24.3303 482.5 26.5303L481.2 36.3303C480.4 42.3303 480.2 44.1303 480.4 45.6303C481.5 53.4303 486.6 55.9303 495.4 57.0303C504.2 58.1303 509.8 57.1303 512.8 49.8303C513.4 48.5303 513.7 46.6303 514.4 40.6303L516.4 25.3303C516.7 23.1303 516.8 22.0303 517.5 21.1303C518.2 20.3303 519.2 19.9303 521.4 19.2303L528.9 16.6303L525.4 43.0303C525.4 43.3303 525.3 43.5303 525.3 43.8303C524.7 48.6303 524.2 52.1303 523 55.0303C517.4 68.2303 506.1 70.1303 493.8 68.4303C481.5 66.8303 471.1 62.1303 469.1 47.9303C468.9 44.8303 469.4 41.3303 470 36.5303Z" fill="url(#paint28_linear_2436_1986)"/>
      <path fill-rule="evenodd" clip-rule="evenodd" d="M563.5 -43.2697C563.2 -43.2697 563 -43.2697 562.7 -43.2697L541.7 -42.2697L544.9 -49.4697C545.8 -51.5697 546.3 -52.5697 547.1 -53.1697C548 -53.7697 549.1 -53.8697 551.3 -53.9697L561.1 -54.4697C567.1 -54.7697 569 -54.8697 570.4 -55.3697C577.9 -57.8697 579.4 -63.3697 579 -72.1697C578.6 -80.9697 576.5 -86.3697 568.8 -88.0697C567.4 -88.3697 565.5 -88.3697 559.5 -88.0697L544.1 -87.2697C541.9 -87.1697 540.7 -87.0697 539.8 -87.5697C538.9 -88.0697 538.3 -89.0697 537.2 -90.9697L533.3 -97.8697L559.9 -99.1697C560.2 -99.1697 560.4 -99.1697 560.7 -99.1697C565.5 -99.3697 569.1 -99.5697 572.2 -98.8697C586.2 -95.7697 590.1 -84.9697 590.7 -72.5697C591.3 -60.1697 588.6 -49.0697 574.9 -44.5697C571.9 -43.6697 568.4 -43.4697 563.5 -43.2697Z" fill="url(#paint29_linear_2436_1986)"/>
      <path fill-rule="evenodd" clip-rule="evenodd" d="M671.2 -87.9697C671.4 -88.1697 671.5 -88.3697 671.7 -88.6697L683.9 -105.77L687.6 -98.7697C688.7 -96.7697 689.2 -95.7697 689.1 -94.7697C689 -93.6697 688.4 -92.7697 687.1 -90.9697L681.4 -82.9697C677.9 -78.0697 676.9 -76.4697 676.4 -75.1697C673.7 -67.7697 677.1 -63.1697 684.3 -58.0697C691.5 -52.9697 697 -51.2697 703.1 -56.2697C704.2 -57.1697 705.4 -58.6697 708.8 -63.5697L717.7 -76.1697C719 -77.9697 719.6 -78.8697 720.6 -79.3697C721.6 -79.7697 722.7 -79.5697 724.9 -79.2697L732.7 -78.0697L717.3 -56.3697C717.1 -56.1697 717 -55.9697 716.8 -55.6697C714 -51.6697 711.9 -48.8697 709.5 -46.7697C698.4 -37.6697 687.5 -41.3697 677.4 -48.4697C667.3 -55.6697 660.3 -64.6697 665.2 -78.1697C666.3 -81.0697 668.4 -83.9697 671.2 -87.9697Z" fill="url(#paint30_linear_2436_1986)"/>
      <path fill-rule="evenodd" clip-rule="evenodd" d="M607.8 -91.5697C607.6 -91.7697 607.4 -91.9697 607.2 -92.1697L592.9 -107.57L600.5 -109.77C602.7 -110.37 603.7 -110.77 604.8 -110.47C605.8 -110.17 606.6 -109.37 608.1 -107.77L614.8 -100.57C618.9 -96.1697 620.2 -94.8697 621.5 -94.0697C628.2 -89.9697 633.4 -92.3697 639.9 -98.3697C646.4 -104.37 649.1 -109.37 645.5 -116.37C644.8 -117.67 643.6 -119.07 639.5 -123.47L629 -134.77C627.5 -136.37 626.7 -137.27 626.5 -138.27C626.3 -139.27 626.7 -140.37 627.5 -142.47L630.3 -149.87L648.4 -130.37C648.6 -130.17 648.8 -129.97 649 -129.77C652.3 -126.27 654.7 -123.67 656.2 -120.87C662.8 -108.17 657.1 -98.2697 648 -89.7697C638.9 -81.2697 628.7 -76.2697 616.4 -83.7697C613.5 -85.4697 611.1 -88.0697 607.8 -91.5697Z" fill="url(#paint31_linear_2436_1986)"/>
      <path fill-rule="evenodd" clip-rule="evenodd" d="M437.1 -44.7697C436.8 -44.6697 436.6 -44.6697 436.3 -44.5697L415.8 -40.0697L417.7 -47.7697C418.2 -49.9697 418.5 -51.0697 419.3 -51.7697C420.1 -52.4697 421.2 -52.7697 423.4 -53.2697L433 -55.3697C438.9 -56.6697 440.7 -57.0697 442 -57.7697C449 -61.4697 449.5 -67.0697 447.6 -75.7697C445.7 -84.4697 442.8 -89.3697 434.9 -89.7697C433.5 -89.8697 431.6 -89.4697 425.7 -88.1697L410.7 -84.8697C408.5 -84.3697 407.4 -84.1697 406.4 -84.4697C405.4 -84.8697 404.7 -85.6697 403.3 -87.4697L398.3 -93.5697L424.3 -99.2697C424.6 -99.3697 424.8 -99.3697 425.1 -99.4697C429.8 -100.47 433.3 -101.27 436.5 -101.07C450.8 -100.37 456.4 -90.2697 459.1 -78.2697C461.8 -66.1697 460.9 -54.7697 448.2 -48.0697C445.3 -46.5697 441.9 -45.8697 437.1 -44.7697Z" fill="url(#paint32_linear_2436_1986)"/>
      <path fill-rule="evenodd" clip-rule="evenodd" d="M525.7 -34.4697C525.7 -34.1697 525.7 -33.9697 525.7 -33.6697L526.3 -12.6697L519.1 -15.9697C517.1 -16.8697 516 -17.3697 515.5 -18.2697C514.9 -19.1697 514.9 -20.2697 514.8 -22.5697L514.5 -32.3697C514.3 -38.3697 514.2 -40.2697 513.8 -41.6697C511.5 -49.1697 506 -50.8697 497.2 -50.5697C488.3 -50.2697 483 -48.3697 481.1 -40.6697C480.8 -39.2697 480.8 -37.3697 480.9 -31.3697L481.4 -15.9697C481.5 -13.7697 481.5 -12.5697 481 -11.6697C480.5 -10.7697 479.5 -10.1697 477.5 -9.16968L470.5 -5.46968L469.7 -32.0697C469.7 -32.3697 469.7 -32.5697 469.7 -32.8697C469.6 -37.6697 469.4 -41.2697 470.2 -44.3697C473.6 -58.2697 484.5 -61.9697 496.8 -62.2697C509.2 -62.6697 520.2 -59.6697 524.5 -45.9697C525.5 -42.8697 525.6 -39.3697 525.7 -34.4697Z" fill="url(#paint33_linear_2436_1986)"/>
      <path fill-rule="evenodd" clip-rule="evenodd" d="M587.1 -132.47C587 -132.27 586.8 -131.97 586.7 -131.77L576.8 -113.27L572.2 -119.77C570.9 -121.57 570.3 -122.57 570.2 -123.57C570.1 -124.67 570.7 -125.57 571.7 -127.57L576.4 -136.27C579.2 -141.57 580.1 -143.27 580.4 -144.67C582.2 -152.37 578.2 -156.47 570.4 -160.67C562.6 -164.87 557 -165.87 551.5 -160.17C550.5 -159.17 549.6 -157.47 546.7 -152.17L539.4 -138.57C538.3 -136.57 537.8 -135.57 536.9 -135.07C536 -134.57 534.9 -134.57 532.6 -134.67L524.7 -134.87L537.4 -158.27C537.5 -158.47 537.7 -158.77 537.8 -158.97C540.1 -163.27 541.8 -166.37 544 -168.67C553.9 -179.07 565.1 -176.77 576 -170.87C586.9 -164.97 595 -156.87 591.8 -142.87C591.1 -139.87 589.4 -136.77 587.1 -132.47Z" fill="url(#paint34_linear_2436_1986)"/>
      <path fill-rule="evenodd" clip-rule="evenodd" d="M521.5 -94.4697C521.4 -94.2697 521.2 -93.9697 521.1 -93.7697L510.4 -75.7697L506.1 -82.4697C504.9 -84.3697 504.3 -85.2697 504.3 -86.3697C504.3 -87.4697 504.9 -88.3697 506 -90.3697L511 -98.8697C514.1 -104.07 515 -105.67 515.4 -107.07C517.5 -114.67 513.8 -118.97 506.1 -123.47C498.4 -127.97 492.9 -129.27 487.2 -123.77C486.2 -122.77 485.2 -121.17 482.1 -115.97L474.2 -102.67C473.1 -100.77 472.5 -99.7697 471.5 -99.2697C470.6 -98.7697 469.4 -98.8697 467.2 -99.0697L459.3 -99.6697L472.9 -122.57C473 -122.77 473.2 -123.07 473.3 -123.27C475.8 -127.47 477.6 -130.47 479.9 -132.67C490.3 -142.57 501.4 -139.87 512 -133.47C522.6 -127.07 530.4 -118.67 526.6 -104.87C525.8 -101.67 523.9 -98.5697 521.5 -94.4697Z" fill="url(#paint35_linear_2436_1986)"/>
      <path fill-rule="evenodd" clip-rule="evenodd" d="M656.4 -31.2697C656.4 -30.9697 656.3 -30.7697 656.3 -30.4697L653.7 -9.66968L647.1 -14.0697C645.2 -15.2697 644.3 -15.9697 643.8 -16.8697C643.4 -17.8697 643.5 -18.9697 643.8 -21.1697L645 -30.9697C645.7 -36.9697 645.9 -38.7697 645.7 -40.2697C644.5 -48.0697 639.4 -50.4697 630.6 -51.5697C621.8 -52.6697 616.2 -51.5697 613.2 -44.2697C612.6 -42.9697 612.4 -41.0697 611.6 -35.0697L609.7 -19.7697C609.4 -17.5697 609.3 -16.4697 608.6 -15.5697C607.9 -14.7697 606.9 -14.3697 604.8 -13.5697L597.4 -10.9697L600.7 -37.2697C600.7 -37.5697 600.8 -37.7697 600.8 -38.0697C601.4 -42.8697 601.8 -46.3697 603 -49.3697C608.5 -62.6697 619.8 -64.5697 632 -63.0697C644.2 -61.5697 654.8 -56.9697 656.9 -42.7697C657.4 -39.5697 657 -36.0697 656.4 -31.2697Z" fill="url(#paint36_linear_2436_1986)"/>
      <path fill-rule="evenodd" clip-rule="evenodd" d="M430.8 -25.2697C431.1 -25.2697 431.3 -25.2697 431.6 -25.2697L452.6 -26.3697L449.4 -19.0697C448.5 -16.9697 448.1 -15.9697 447.2 -15.3697C446.3 -14.7697 445.2 -14.6697 443 -14.5697L433.2 -14.0697C427.2 -13.7697 425.3 -13.5697 423.9 -13.1697C416.4 -10.6697 414.9 -5.16969 415.4 3.63031C415.9 12.5303 417.9 17.8303 425.6 19.4303C427 19.7303 428.9 19.7303 434.9 19.3303L450.3 18.5303C452.5 18.4303 453.7 18.3303 454.6 18.8303C455.5 19.3303 456.1 20.3303 457.2 22.2303L461.1 29.1303L434.5 30.5303C434.2 30.5303 434 30.5303 433.7 30.5303C428.9 30.8303 425.3 31.0303 422.2 30.3303C408.2 27.2303 404.3 16.4303 403.6 4.13031C402.9 -8.16969 405.6 -19.3697 419.3 -23.8697C422.4 -24.7697 426 -24.9697 430.8 -25.2697Z" fill="url(#paint37_linear_2436_1986)"/>
      <path fill-rule="evenodd" clip-rule="evenodd" d="M403.7 77.5303C403.7 77.2303 403.7 77.0303 403.7 76.7303L403.4 55.7303L410.5 59.1303C412.5 60.1303 413.5 60.6303 414.1 61.5303C414.7 62.4303 414.7 63.5303 414.7 65.8303L414.8 75.7303C414.9 81.7303 415 83.6303 415.4 85.0303C417.6 92.6303 423 94.3303 431.9 94.2303C440.8 94.1303 446.1 92.2303 448.1 84.6303C448.5 83.2303 448.5 81.3303 448.4 75.3303L448.2 59.9303C448.2 57.7303 448.2 56.5303 448.7 55.6303C449.2 54.7303 450.2 54.2303 452.2 53.1303L459.2 49.5303L459.5 76.1303C459.5 76.4303 459.5 76.6303 459.5 76.9303C459.6 81.8303 459.6 85.3303 458.8 88.4303C455.2 102.33 444.2 105.73 431.9 105.93C419.6 106.13 408.5 102.93 404.5 89.1303C403.8 85.9303 403.8 82.3303 403.7 77.5303Z" fill="url(#paint38_linear_2436_1986)"/>
      <path fill-rule="evenodd" clip-rule="evenodd" d="M585 245.63C584.8 245.83 584.7 246.03 584.5 246.33L572.2 263.33L568.5 256.33C567.5 254.33 566.9 253.33 567 252.33C567.1 251.23 567.7 250.33 569.1 248.53L574.9 240.53C578.4 235.63 579.5 234.13 580 232.73C582.8 225.33 579.4 220.73 572.2 215.53C565 210.33 559.6 208.63 553.4 213.53C552.3 214.43 551.1 215.93 547.6 220.83L538.5 233.33C537.2 235.13 536.5 236.03 535.5 236.43C534.5 236.83 533.4 236.63 531.2 236.33L523.4 235.03L539 213.43C539.2 213.23 539.3 213.03 539.5 212.73C542.3 208.83 544.4 205.93 546.9 203.93C558.1 194.93 568.9 198.73 579 205.93C589.1 213.13 596 222.33 591 235.73C590 238.83 587.9 241.73 585 245.63Z" fill="url(#paint39_linear_2436_1986)"/>
      <path fill-rule="evenodd" clip-rule="evenodd" d="M480.6 243.53C480.8 243.33 481 243.23 481.2 243.03L497.6 229.83L499.3 237.53C499.8 239.73 500 240.83 499.7 241.83C499.3 242.83 498.5 243.53 496.7 244.93L489 251.13C484.3 254.93 482.9 256.13 482 257.33C477.4 263.73 479.4 269.03 485 275.93C490.6 282.83 495.3 285.93 502.6 282.83C503.9 282.23 505.4 281.13 510.1 277.33L522.1 267.63C523.8 266.23 524.7 265.53 525.8 265.43C526.9 265.33 527.9 265.73 529.9 266.73L537.1 270.03L516.4 286.73C516.2 286.93 516 287.03 515.8 287.23C512 290.23 509.3 292.53 506.4 293.73C493.2 299.43 483.8 292.93 476 283.33C468.2 273.73 463.9 263.03 472.3 251.43C474.1 248.83 476.8 246.63 480.6 243.53Z" fill="url(#paint40_linear_2436_1986)"/>
      <path fill-rule="evenodd" clip-rule="evenodd" d="M590.7 154.03C590.7 154.33 590.7 154.53 590.7 154.83L590.9 175.83L583.8 172.33C581.8 171.33 580.8 170.83 580.2 169.93C579.6 169.03 579.6 167.93 579.6 165.63L579.5 155.73C579.4 149.73 579.4 147.83 579 146.43C576.8 138.83 571.4 137.13 562.5 137.23C553.6 137.33 548.3 139.13 546.2 146.83C545.8 148.23 545.8 150.13 545.9 156.13L546.1 171.63C546.1 173.83 546.1 175.03 545.6 175.93C545.1 176.83 544.1 177.33 542.1 178.33L535.1 181.93L534.8 155.33C534.8 155.03 534.8 154.83 534.8 154.53C534.7 149.63 534.7 146.13 535.5 143.03C539.2 129.13 550.1 125.73 562.5 125.63C574.9 125.53 585.9 128.63 589.9 142.43C590.6 145.63 590.7 149.13 590.7 154.03Z" fill="url(#paint41_linear_2436_1986)"/>
      <path fill-rule="evenodd" clip-rule="evenodd" d="M666 158.13C666 157.83 665.9 157.63 665.9 157.33L662.1 136.63L669.7 138.83C671.9 139.43 672.9 139.73 673.6 140.53C674.3 141.33 674.5 142.43 674.9 144.63L676.7 154.33C677.8 160.23 678.2 162.13 678.8 163.43C682.2 170.53 687.9 171.33 696.6 169.73C705.3 168.13 710.3 165.43 711 157.53C711.1 156.13 710.8 154.23 709.8 148.33L707 133.13C706.6 130.93 706.4 129.83 706.8 128.83C707.2 127.83 708.1 127.13 709.9 125.83L716.2 121.13L721 147.33C721 147.63 721.1 147.83 721.1 148.13C722 152.93 722.6 156.43 722.3 159.53C721 173.83 710.8 179.03 698.7 181.23C686.5 183.43 675.1 182.13 668.9 169.23C667.6 166.43 666.9 162.93 666 158.13Z" fill="url(#paint42_linear_2436_1986)"/>
      <path fill-rule="evenodd" clip-rule="evenodd" d="M614 90.8303C614.2 90.7303 614.5 90.5303 614.7 90.4303L632.4 79.0303L633.3 86.9303C633.5 89.1303 633.7 90.2303 633.2 91.2303C632.7 92.2303 631.8 92.8303 629.9 94.0303L621.6 99.3303C616.5 102.63 615 103.63 614 104.73C608.7 110.63 610.2 116.13 615 123.53C619.8 131.03 624.2 134.53 631.7 132.23C633.1 131.83 634.7 130.83 639.7 127.53L652.7 119.13C654.6 117.93 655.5 117.33 656.6 117.33C657.7 117.33 658.6 117.93 660.6 119.03L667.4 123.03L645 137.43C644.8 137.53 644.5 137.73 644.3 137.83C640.2 140.43 637.2 142.43 634.2 143.33C620.5 147.63 611.8 140.13 605.1 129.83C598.4 119.43 595.2 108.43 604.8 97.7303C607 95.4303 610 93.5303 614 90.8303Z" fill="url(#paint43_linear_2436_1986)"/>
      <path fill-rule="evenodd" clip-rule="evenodd" d="M409.5 169.83C409.3 169.63 409.2 169.43 409 169.23L395.8 152.93L403.5 151.23C405.7 150.73 406.8 150.53 407.8 150.83C408.8 151.23 409.5 152.03 410.9 153.83L417.1 161.53C420.9 166.23 422.1 167.63 423.3 168.53C429.7 173.13 435 171.13 441.9 165.53C448.8 159.93 451.9 155.23 448.7 147.93C448.1 146.63 447 145.13 443.2 140.43L433.5 128.43C432.1 126.73 431.4 125.83 431.2 124.73C431.1 123.63 431.5 122.63 432.5 120.63L435.8 113.43L452.5 134.13C452.7 134.33 452.8 134.53 453 134.73C456.1 138.53 458.3 141.23 459.5 144.13C465.2 157.33 458.8 166.73 449.1 174.53C439.4 182.33 428.9 186.63 417.2 178.23C414.8 176.43 412.6 173.63 409.5 169.83Z" fill="url(#paint44_linear_2436_1986)"/>
      <path fill-rule="evenodd" clip-rule="evenodd" d="M482.7 214.43C482.5 214.33 482.2 214.13 482 214.03L464 203.13L470.7 198.93C472.6 197.73 473.5 197.13 474.6 197.13C475.7 197.13 476.6 197.73 478.5 198.83L486.9 203.93C492 207.03 493.7 207.93 495.1 208.33C502.7 210.43 507 206.73 511.6 199.23C516.2 191.63 517.5 186.13 512 180.33C511 179.23 509.4 178.23 504.3 175.13L491.1 167.13C489.2 165.93 488.2 165.43 487.7 164.43C487.2 163.53 487.3 162.33 487.5 160.13L488.1 152.23L510.9 166.03C511.1 166.13 511.4 166.33 511.6 166.43C515.8 168.93 518.8 170.73 521 173.03C530.9 183.43 528 194.53 521.6 205.13C515.2 215.73 506.7 223.43 492.9 219.53C489.9 218.73 486.9 216.93 482.7 214.43Z" fill="url(#paint45_linear_2436_1986)"/>
      <path fill-rule="evenodd" clip-rule="evenodd" d="M535.9 70.4303C536 70.1303 536 69.9303 536.1 69.6303L541.9 49.4303L547.7 54.7303C549.4 56.2303 550.2 57.0303 550.5 58.0303C550.8 59.0303 550.5 60.1303 549.9 62.3303L547.2 71.8303C545.5 77.6303 545.1 79.4303 545.1 80.9303C545 88.8303 549.7 92.0303 558.3 94.4303C566.8 96.8303 572.5 96.6303 576.6 89.9303C577.4 88.7303 577.9 86.9303 579.6 81.1303L583.8 66.2303C584.4 64.0303 584.7 63.0303 585.5 62.2303C586.3 61.5303 587.4 61.3303 589.6 60.9303L597.4 59.4303L590.1 85.0303C590 85.3303 590 85.5303 589.9 85.8303C588.6 90.5303 587.6 93.9303 585.9 96.6303C578.4 108.93 567 109.03 555.1 105.63C543.2 102.23 533.6 96.0303 533.7 81.7303C533.6 78.5303 534.6 75.1303 535.9 70.4303Z" fill="url(#paint46_linear_2436_1986)"/>
      <path fill-rule="evenodd" clip-rule="evenodd" d="M666.3 84.6303C666.2 84.3303 666.2 84.1303 666.1 83.8303L661.2 63.4303L668.9 65.2303C671.1 65.7303 672.2 66.0303 672.9 66.7303C673.7 67.4303 673.9 68.5303 674.4 70.7303L676.7 80.3303C678.1 86.1303 678.6 88.0303 679.3 89.2303C683.1 96.1303 688.8 96.6303 697.4 94.5303C706 92.4303 710.9 89.5303 711.1 81.6303C711.2 80.2303 710.8 78.3303 709.4 72.5303L705.8 57.5303C705.3 55.3303 705 54.2303 705.4 53.2303C705.7 52.2303 706.6 51.5303 708.3 50.0303L714.4 44.9303L720.6 70.8303C720.7 71.1303 720.7 71.3303 720.8 71.6303C721.9 76.3303 722.8 79.8303 722.6 82.9303C722.1 97.2303 712.2 103.03 700.2 105.93C688.2 108.83 676.7 108.13 669.8 95.5303C668.3 92.8303 667.5 89.3303 666.3 84.6303Z" fill="url(#paint47_linear_2436_1986)"/>
      <path fill-rule="evenodd" clip-rule="evenodd" d="M525.5 112.13C525.5 112.43 525.6 112.63 525.6 112.93L528.7 133.73L521.2 131.33C519.1 130.63 518 130.33 517.3 129.53C516.6 128.73 516.4 127.63 516.1 125.43L514.6 115.73C513.7 109.83 513.4 107.93 512.8 106.63C509.6 99.4303 504 98.4303 495.2 99.8303C486.4 101.13 481.4 103.73 480.4 111.53C480.2 112.93 480.5 114.83 481.4 120.73L483.7 136.03C484 138.23 484.2 139.33 483.8 140.33C483.4 141.33 482.5 141.93 480.6 143.23L474.1 147.83L470.1 121.53C470.1 121.23 470 121.03 470 120.73C469.3 115.93 468.7 112.43 469.1 109.33C470.8 95.0303 481.2 90.1303 493.4 88.3303C505.6 86.5303 517 88.1303 522.8 101.23C524.2 103.83 524.8 107.33 525.5 112.13Z" fill="url(#paint48_linear_2436_1986)"/>
      <path fill-rule="evenodd" clip-rule="evenodd" d="M406.1 216.33C406.2 216.13 406.3 215.83 406.4 215.63L414.6 196.33L419.7 202.33C421.2 204.03 421.9 204.93 422.1 205.93C422.3 206.93 421.8 208.03 420.9 210.03L417.1 219.13C414.8 224.63 414.1 226.43 413.9 227.83C412.9 235.63 417.2 239.43 425.3 242.83C433.4 246.23 439.1 246.73 444 240.53C444.9 239.43 445.7 237.73 448 232.13L454 217.93C454.9 215.83 455.3 214.83 456.2 214.23C457.1 213.63 458.2 213.53 460.4 213.43L468.3 212.93L457.9 237.43C457.8 237.73 457.7 237.93 457.6 238.13C455.7 242.63 454.3 245.83 452.4 248.33C443.5 259.63 432.1 258.33 420.7 253.53C409.3 248.73 400.5 241.43 402.4 227.13C402.9 224.03 404.2 220.73 406.1 216.33Z" fill="url(#paint49_linear_2436_1986)"/>
    </g>
    <defs>
      <linearGradient id="paint0_linear_2436_1986" x1="331.2" y1="-74" x2="1.83676" y2="197.782" gradientUnits="userSpaceOnUse">
        <stop stop-color="white"/>
        <stop offset="1" stop-color="white" stop-opacity="0"/>
      </linearGradient>
      <linearGradient id="paint1_linear_2436_1986" x1="331.2" y1="-74" x2="1.83676" y2="197.782" gradientUnits="userSpaceOnUse">
        <stop stop-color="white"/>
        <stop offset="1" stop-color="white" stop-opacity="0"/>
      </linearGradient>
      <linearGradient id="paint2_linear_2436_1986" x1="331.2" y1="-74" x2="1.83676" y2="197.782" gradientUnits="userSpaceOnUse">
        <stop stop-color="white"/>
        <stop offset="1" stop-color="white" stop-opacity="0"/>
      </linearGradient>
      <linearGradient id="paint3_linear_2436_1986" x1="331.2" y1="-74" x2="1.83676" y2="197.782" gradientUnits="userSpaceOnUse">
        <stop stop-color="white"/>
        <stop offset="1" stop-color="white" stop-opacity="0"/>
      </linearGradient>
      <linearGradient id="paint4_linear_2436_1986" x1="331.2" y1="-74" x2="1.83676" y2="197.782" gradientUnits="userSpaceOnUse">
        <stop stop-color="white"/>
        <stop offset="1" stop-color="white" stop-opacity="0"/>
      </linearGradient>
      <linearGradient id="paint5_linear_2436_1986" x1="331.2" y1="-74" x2="1.83676" y2="197.782" gradientUnits="userSpaceOnUse">
        <stop stop-color="white"/>
        <stop offset="1" stop-color="white" stop-opacity="0"/>
      </linearGradient>
      <linearGradient id="paint6_linear_2436_1986" x1="331.2" y1="-74" x2="1.83676" y2="197.782" gradientUnits="userSpaceOnUse">
        <stop stop-color="white"/>
        <stop offset="1" stop-color="white" stop-opacity="0"/>
      </linearGradient>
      <linearGradient id="paint7_linear_2436_1986" x1="331.2" y1="-74" x2="1.83676" y2="197.782" gradientUnits="userSpaceOnUse">
        <stop stop-color="white"/>
        <stop offset="1" stop-color="white" stop-opacity="0"/>
      </linearGradient>
      <linearGradient id="paint8_linear_2436_1986" x1="331.2" y1="-74" x2="1.83676" y2="197.782" gradientUnits="userSpaceOnUse">
        <stop stop-color="white"/>
        <stop offset="1" stop-color="white" stop-opacity="0"/>
      </linearGradient>
      <linearGradient id="paint9_linear_2436_1986" x1="331.2" y1="-74" x2="1.83676" y2="197.782" gradientUnits="userSpaceOnUse">
        <stop stop-color="white"/>
        <stop offset="1" stop-color="white" stop-opacity="0"/>
      </linearGradient>
      <linearGradient id="paint10_linear_2436_1986" x1="331.2" y1="-74" x2="1.83676" y2="197.782" gradientUnits="userSpaceOnUse">
        <stop stop-color="white"/>
        <stop offset="1" stop-color="white" stop-opacity="0"/>
      </linearGradient>
      <linearGradient id="paint11_linear_2436_1986" x1="331.2" y1="-74" x2="1.83676" y2="197.782" gradientUnits="userSpaceOnUse">
        <stop stop-color="white"/>
        <stop offset="1" stop-color="white" stop-opacity="0"/>
      </linearGradient>
      <linearGradient id="paint12_linear_2436_1986" x1="331.2" y1="-74" x2="1.83676" y2="197.782" gradientUnits="userSpaceOnUse">
        <stop stop-color="white"/>
        <stop offset="1" stop-color="white" stop-opacity="0"/>
      </linearGradient>
      <linearGradient id="paint13_linear_2436_1986" x1="331.2" y1="-74" x2="1.83676" y2="197.782" gradientUnits="userSpaceOnUse">
        <stop stop-color="white"/>
        <stop offset="1" stop-color="white" stop-opacity="0"/>
      </linearGradient>
      <linearGradient id="paint14_linear_2436_1986" x1="331.2" y1="-74" x2="1.83676" y2="197.782" gradientUnits="userSpaceOnUse">
        <stop stop-color="white"/>
        <stop offset="1" stop-color="white" stop-opacity="0"/>
      </linearGradient>
      <linearGradient id="paint15_linear_2436_1986" x1="331.2" y1="-74" x2="1.83676" y2="197.782" gradientUnits="userSpaceOnUse">
        <stop stop-color="white"/>
        <stop offset="1" stop-color="white" stop-opacity="0"/>
      </linearGradient>
      <linearGradient id="paint16_linear_2436_1986" x1="331.2" y1="-74" x2="1.83676" y2="197.782" gradientUnits="userSpaceOnUse">
        <stop stop-color="white"/>
        <stop offset="1" stop-color="white" stop-opacity="0"/>
      </linearGradient>
      <linearGradient id="paint17_linear_2436_1986" x1="331.2" y1="-74" x2="1.83676" y2="197.782" gradientUnits="userSpaceOnUse">
        <stop stop-color="white"/>
        <stop offset="1" stop-color="white" stop-opacity="0"/>
      </linearGradient>
      <linearGradient id="paint18_linear_2436_1986" x1="331.2" y1="-74" x2="1.83676" y2="197.782" gradientUnits="userSpaceOnUse">
        <stop stop-color="white"/>
        <stop offset="1" stop-color="white" stop-opacity="0"/>
      </linearGradient>
      <linearGradient id="paint19_linear_2436_1986" x1="331.2" y1="-74" x2="1.83676" y2="197.782" gradientUnits="userSpaceOnUse">
        <stop stop-color="white"/>
        <stop offset="1" stop-color="white" stop-opacity="0"/>
      </linearGradient>
      <linearGradient id="paint20_linear_2436_1986" x1="331.2" y1="-74" x2="1.83676" y2="197.782" gradientUnits="userSpaceOnUse">
        <stop stop-color="white"/>
        <stop offset="1" stop-color="white" stop-opacity="0"/>
      </linearGradient>
      <linearGradient id="paint21_linear_2436_1986" x1="331.2" y1="-74" x2="1.83676" y2="197.782" gradientUnits="userSpaceOnUse">
        <stop stop-color="white"/>
        <stop offset="1" stop-color="white" stop-opacity="0"/>
      </linearGradient>
      <linearGradient id="paint22_linear_2436_1986" x1="331.2" y1="-74" x2="1.83676" y2="197.782" gradientUnits="userSpaceOnUse">
        <stop stop-color="white"/>
        <stop offset="1" stop-color="white" stop-opacity="0"/>
      </linearGradient>
      <linearGradient id="paint23_linear_2436_1986" x1="331.2" y1="-74" x2="1.83676" y2="197.782" gradientUnits="userSpaceOnUse">
        <stop stop-color="white"/>
        <stop offset="1" stop-color="white" stop-opacity="0"/>
      </linearGradient>
      <linearGradient id="paint24_linear_2436_1986" x1="331.2" y1="-74" x2="1.83676" y2="197.782" gradientUnits="userSpaceOnUse">
        <stop stop-color="white"/>
        <stop offset="1" stop-color="white" stop-opacity="0"/>
      </linearGradient>
      <linearGradient id="paint25_linear_2436_1986" x1="331.2" y1="-74" x2="1.83676" y2="197.782" gradientUnits="userSpaceOnUse">
        <stop stop-color="white"/>
        <stop offset="1" stop-color="white" stop-opacity="0"/>
      </linearGradient>
      <linearGradient id="paint26_linear_2436_1986" x1="331.2" y1="-74" x2="1.83676" y2="197.782" gradientUnits="userSpaceOnUse">
        <stop stop-color="white"/>
        <stop offset="1" stop-color="white" stop-opacity="0"/>
      </linearGradient>
      <linearGradient id="paint27_linear_2436_1986" x1="331.2" y1="-74" x2="1.83676" y2="197.782" gradientUnits="userSpaceOnUse">
        <stop stop-color="white"/>
        <stop offset="1" stop-color="white" stop-opacity="0"/>
      </linearGradient>
      <linearGradient id="paint28_linear_2436_1986" x1="331.2" y1="-74" x2="1.83676" y2="197.782" gradientUnits="userSpaceOnUse">
        <stop stop-color="white"/>
        <stop offset="1" stop-color="white" stop-opacity="0"/>
      </linearGradient>
      <linearGradient id="paint29_linear_2436_1986" x1="331.2" y1="-74" x2="1.83676" y2="197.782" gradientUnits="userSpaceOnUse">
        <stop stop-color="white"/>
        <stop offset="1" stop-color="white" stop-opacity="0"/>
      </linearGradient>
      <linearGradient id="paint30_linear_2436_1986" x1="331.2" y1="-74" x2="1.83676" y2="197.782" gradientUnits="userSpaceOnUse">
        <stop stop-color="white"/>
        <stop offset="1" stop-color="white" stop-opacity="0"/>
      </linearGradient>
      <linearGradient id="paint31_linear_2436_1986" x1="331.2" y1="-74" x2="1.83676" y2="197.782" gradientUnits="userSpaceOnUse">
        <stop stop-color="white"/>
        <stop offset="1" stop-color="white" stop-opacity="0"/>
      </linearGradient>
      <linearGradient id="paint32_linear_2436_1986" x1="331.2" y1="-74" x2="1.83676" y2="197.782" gradientUnits="userSpaceOnUse">
        <stop stop-color="white"/>
        <stop offset="1" stop-color="white" stop-opacity="0"/>
      </linearGradient>
      <linearGradient id="paint33_linear_2436_1986" x1="331.2" y1="-74" x2="1.83676" y2="197.782" gradientUnits="userSpaceOnUse">
        <stop stop-color="white"/>
        <stop offset="1" stop-color="white" stop-opacity="0"/>
      </linearGradient>
      <linearGradient id="paint34_linear_2436_1986" x1="331.2" y1="-74" x2="1.83676" y2="197.782" gradientUnits="userSpaceOnUse">
        <stop stop-color="white"/>
        <stop offset="1" stop-color="white" stop-opacity="0"/>
      </linearGradient>
      <linearGradient id="paint35_linear_2436_1986" x1="331.2" y1="-74" x2="1.83676" y2="197.782" gradientUnits="userSpaceOnUse">
        <stop stop-color="white"/>
        <stop offset="1" stop-color="white" stop-opacity="0"/>
      </linearGradient>
      <linearGradient id="paint36_linear_2436_1986" x1="331.2" y1="-74" x2="1.83676" y2="197.782" gradientUnits="userSpaceOnUse">
        <stop stop-color="white"/>
        <stop offset="1" stop-color="white" stop-opacity="0"/>
      </linearGradient>
      <linearGradient id="paint37_linear_2436_1986" x1="331.2" y1="-74" x2="1.83676" y2="197.782" gradientUnits="userSpaceOnUse">
        <stop stop-color="white"/>
        <stop offset="1" stop-color="white" stop-opacity="0"/>
      </linearGradient>
      <linearGradient id="paint38_linear_2436_1986" x1="331.2" y1="-74" x2="1.83676" y2="197.782" gradientUnits="userSpaceOnUse">
        <stop stop-color="white"/>
        <stop offset="1" stop-color="white" stop-opacity="0"/>
      </linearGradient>
      <linearGradient id="paint39_linear_2436_1986" x1="331.2" y1="-74" x2="1.83676" y2="197.782" gradientUnits="userSpaceOnUse">
        <stop stop-color="white"/>
        <stop offset="1" stop-color="white" stop-opacity="0"/>
      </linearGradient>
      <linearGradient id="paint40_linear_2436_1986" x1="331.2" y1="-74" x2="1.83676" y2="197.782" gradientUnits="userSpaceOnUse">
        <stop stop-color="white"/>
        <stop offset="1" stop-color="white" stop-opacity="0"/>
      </linearGradient>
      <linearGradient id="paint41_linear_2436_1986" x1="331.2" y1="-74" x2="1.83676" y2="197.782" gradientUnits="userSpaceOnUse">
        <stop stop-color="white"/>
        <stop offset="1" stop-color="white" stop-opacity="0"/>
      </linearGradient>
      <linearGradient id="paint42_linear_2436_1986" x1="331.2" y1="-74" x2="1.83676" y2="197.782" gradientUnits="userSpaceOnUse">
        <stop stop-color="white"/>
        <stop offset="1" stop-color="white" stop-opacity="0"/>
      </linearGradient>
      <linearGradient id="paint43_linear_2436_1986" x1="331.2" y1="-74" x2="1.83676" y2="197.782" gradientUnits="userSpaceOnUse">
        <stop stop-color="white"/>
        <stop offset="1" stop-color="white" stop-opacity="0"/>
      </linearGradient>
      <linearGradient id="paint44_linear_2436_1986" x1="331.2" y1="-74" x2="1.83676" y2="197.782" gradientUnits="userSpaceOnUse">
        <stop stop-color="white"/>
        <stop offset="1" stop-color="white" stop-opacity="0"/>
      </linearGradient>
      <linearGradient id="paint45_linear_2436_1986" x1="331.2" y1="-74" x2="1.83676" y2="197.782" gradientUnits="userSpaceOnUse">
        <stop stop-color="white"/>
        <stop offset="1" stop-color="white" stop-opacity="0"/>
      </linearGradient>
      <linearGradient id="paint46_linear_2436_1986" x1="331.2" y1="-74" x2="1.83676" y2="197.782" gradientUnits="userSpaceOnUse">
        <stop stop-color="white"/>
        <stop offset="1" stop-color="white" stop-opacity="0"/>
      </linearGradient>
      <linearGradient id="paint47_linear_2436_1986" x1="331.2" y1="-74" x2="1.83676" y2="197.782" gradientUnits="userSpaceOnUse">
        <stop stop-color="white"/>
        <stop offset="1" stop-color="white" stop-opacity="0"/>
      </linearGradient>
      <linearGradient id="paint48_linear_2436_1986" x1="331.2" y1="-74" x2="1.83676" y2="197.782" gradientUnits="userSpaceOnUse">
        <stop stop-color="white"/>
        <stop offset="1" stop-color="white" stop-opacity="0"/>
      </linearGradient>
      <linearGradient id="paint49_linear_2436_1986" x1="331.2" y1="-74" x2="1.83676" y2="197.782" gradientUnits="userSpaceOnUse">
        <stop stop-color="white"/>
        <stop offset="1" stop-color="white" stop-opacity="0"/>
      </linearGradient>
    </defs>
  </svg>
